%TF.GenerationSoftware,KiCad,Pcbnew,8.0.4*%
%TF.CreationDate,2024-08-13T22:52:30+08:00*%
%TF.ProjectId,MAX30001_MINI,4d415833-3030-4303-915f-4d494e492e6b,rev?*%
%TF.SameCoordinates,Original*%
%TF.FileFunction,Legend,Top*%
%TF.FilePolarity,Positive*%
%FSLAX46Y46*%
G04 Gerber Fmt 4.6, Leading zero omitted, Abs format (unit mm)*
G04 Created by KiCad (PCBNEW 8.0.4) date 2024-08-13 22:52:30*
%MOMM*%
%LPD*%
G01*
G04 APERTURE LIST*
G04 Aperture macros list*
%AMRoundRect*
0 Rectangle with rounded corners*
0 $1 Rounding radius*
0 $2 $3 $4 $5 $6 $7 $8 $9 X,Y pos of 4 corners*
0 Add a 4 corners polygon primitive as box body*
4,1,4,$2,$3,$4,$5,$6,$7,$8,$9,$2,$3,0*
0 Add four circle primitives for the rounded corners*
1,1,$1+$1,$2,$3*
1,1,$1+$1,$4,$5*
1,1,$1+$1,$6,$7*
1,1,$1+$1,$8,$9*
0 Add four rect primitives between the rounded corners*
20,1,$1+$1,$2,$3,$4,$5,0*
20,1,$1+$1,$4,$5,$6,$7,0*
20,1,$1+$1,$6,$7,$8,$9,0*
20,1,$1+$1,$8,$9,$2,$3,0*%
%AMFreePoly0*
4,1,111,-2.563245,3.679731,-2.180727,3.619146,-1.806637,3.518909,-1.445074,3.380118,-1.100000,3.204294,-0.775195,2.993363,-0.474217,2.749636,-0.200364,2.475783,0.043363,2.174805,0.254294,1.850000,0.430118,1.504926,0.568909,1.143363,0.669146,0.769273,0.729731,0.386755,0.750000,0.000000,0.729731,-0.386755,0.669146,-0.769273,0.568909,-1.143363,0.430118,-1.504926,0.254294,-1.850000,
0.043363,-2.174805,-0.200364,-2.475783,-0.474217,-2.749636,-0.775195,-2.993363,-1.100000,-3.204294,-1.445074,-3.380118,-1.806637,-3.518909,-2.180727,-3.619146,-2.563245,-3.679731,-2.950000,-3.700000,-3.336755,-3.679731,-3.719273,-3.619146,-4.093363,-3.518909,-4.454926,-3.380118,-4.800000,-3.204294,-5.124805,-2.993363,-5.425783,-2.749636,-5.699636,-2.475783,-5.943363,-2.174805,-6.154294,-1.850000,
-6.330118,-1.504926,-6.468909,-1.143363,-6.569146,-0.769273,-6.629731,-0.386755,-6.650000,0.000000,-5.154720,0.000000,-5.135858,-0.287774,-5.079596,-0.570624,-4.986896,-0.843710,-4.859344,-1.102360,-4.699122,-1.342148,-4.508972,-1.558972,-4.292148,-1.749122,-4.052360,-1.909344,-3.793710,-2.036896,-3.520624,-2.129596,-3.237774,-2.185858,-2.950000,-2.204720,-2.662226,-2.185858,-2.379376,-2.129596,
-2.106290,-2.036896,-1.847640,-1.909344,-1.607852,-1.749122,-1.391028,-1.558972,-1.200878,-1.342148,-1.040656,-1.102360,-0.913104,-0.843710,-0.820404,-0.570624,-0.764142,-0.287774,-0.745280,0.000000,-0.764142,0.287774,-0.820404,0.570624,-0.913104,0.843710,-1.040656,1.102360,-1.200878,1.342148,-1.391028,1.558972,-1.607852,1.749122,-1.847640,1.909344,-2.106290,2.036896,-2.379376,2.129596,
-2.662226,2.185858,-2.950000,2.204720,-3.237774,2.185858,-3.520624,2.129596,-3.793710,2.036896,-4.052360,1.909344,-4.292148,1.749122,-4.508972,1.558972,-4.699122,1.342148,-4.859344,1.102360,-4.986896,0.843710,-5.079596,0.570624,-5.135858,0.287774,-5.154720,0.000000,-6.650000,0.000000,-6.629731,0.386755,-6.569146,0.769273,-6.468909,1.143363,-6.330118,1.504926,-6.154294,1.850000,
-5.943363,2.174805,-5.699636,2.475783,-5.425783,2.749636,-5.124805,2.993363,-4.800000,3.204294,-4.454926,3.380118,-4.093363,3.518909,-3.719273,3.619146,-3.336755,3.679731,-2.950000,3.700000,-2.563245,3.679731,-2.563245,3.679731,$1*%
%AMFreePoly1*
4,1,19,0.500000,-0.750000,0.000000,-0.750000,0.000000,-0.744911,-0.071157,-0.744911,-0.207708,-0.704816,-0.327430,-0.627875,-0.420627,-0.520320,-0.479746,-0.390866,-0.500000,-0.250000,-0.500000,0.250000,-0.479746,0.390866,-0.420627,0.520320,-0.327430,0.627875,-0.207708,0.704816,-0.071157,0.744911,0.000000,0.744911,0.000000,0.750000,0.500000,0.750000,0.500000,-0.750000,0.500000,-0.750000,
$1*%
%AMFreePoly2*
4,1,19,0.000000,0.744911,0.071157,0.744911,0.207708,0.704816,0.327430,0.627875,0.420627,0.520320,0.479746,0.390866,0.500000,0.250000,0.500000,-0.250000,0.479746,-0.390866,0.420627,-0.520320,0.327430,-0.627875,0.207708,-0.704816,0.071157,-0.744911,0.000000,-0.744911,0.000000,-0.750000,-0.500000,-0.750000,-0.500000,0.750000,0.000000,0.750000,0.000000,0.744911,0.000000,0.744911,
$1*%
G04 Aperture macros list end*
%ADD10C,0.100000*%
%ADD11C,0.150000*%
%ADD12C,0.120000*%
%ADD13C,0.127000*%
%ADD14C,0.200000*%
%ADD15RoundRect,0.225000X-0.225000X-0.250000X0.225000X-0.250000X0.225000X0.250000X-0.225000X0.250000X0*%
%ADD16RoundRect,0.225000X0.250000X-0.225000X0.250000X0.225000X-0.250000X0.225000X-0.250000X-0.225000X0*%
%ADD17R,1.000000X1.000000*%
%ADD18C,0.554000*%
%ADD19RoundRect,0.102000X-0.700000X0.200000X-0.700000X-0.200000X0.700000X-0.200000X0.700000X0.200000X0*%
%ADD20RoundRect,0.102000X-0.250000X0.100000X-0.250000X-0.100000X0.250000X-0.100000X0.250000X0.100000X0*%
%ADD21C,4.400000*%
%ADD22FreePoly0,0.000000*%
%ADD23RoundRect,0.200000X-0.200000X-0.275000X0.200000X-0.275000X0.200000X0.275000X-0.200000X0.275000X0*%
%ADD24RoundRect,0.200000X0.275000X-0.200000X0.275000X0.200000X-0.275000X0.200000X-0.275000X-0.200000X0*%
%ADD25R,1.700000X1.700000*%
%ADD26O,1.700000X1.700000*%
%ADD27RoundRect,0.200000X0.200000X0.275000X-0.200000X0.275000X-0.200000X-0.275000X0.200000X-0.275000X0*%
%ADD28FreePoly1,180.000000*%
%ADD29FreePoly2,180.000000*%
%ADD30RoundRect,0.150000X-0.150000X0.512500X-0.150000X-0.512500X0.150000X-0.512500X0.150000X0.512500X0*%
%ADD31FreePoly1,0.000000*%
%ADD32FreePoly2,0.000000*%
%ADD33FreePoly1,270.000000*%
%ADD34FreePoly2,270.000000*%
%ADD35RoundRect,0.225000X-0.250000X0.225000X-0.250000X-0.225000X0.250000X-0.225000X0.250000X0.225000X0*%
%ADD36RoundRect,0.225000X0.225000X0.250000X-0.225000X0.250000X-0.225000X-0.250000X0.225000X-0.250000X0*%
G04 APERTURE END LIST*
D10*
X178703884Y-138672419D02*
X178703884Y-137672419D01*
X178703884Y-137672419D02*
X179037217Y-138386704D01*
X179037217Y-138386704D02*
X179370550Y-137672419D01*
X179370550Y-137672419D02*
X179370550Y-138672419D01*
X179799122Y-138386704D02*
X180275312Y-138386704D01*
X179703884Y-138672419D02*
X180037217Y-137672419D01*
X180037217Y-137672419D02*
X180370550Y-138672419D01*
X180608646Y-137672419D02*
X181275312Y-138672419D01*
X181275312Y-137672419D02*
X180608646Y-138672419D01*
X181561027Y-137672419D02*
X182180074Y-137672419D01*
X182180074Y-137672419D02*
X181846741Y-138053371D01*
X181846741Y-138053371D02*
X181989598Y-138053371D01*
X181989598Y-138053371D02*
X182084836Y-138100990D01*
X182084836Y-138100990D02*
X182132455Y-138148609D01*
X182132455Y-138148609D02*
X182180074Y-138243847D01*
X182180074Y-138243847D02*
X182180074Y-138481942D01*
X182180074Y-138481942D02*
X182132455Y-138577180D01*
X182132455Y-138577180D02*
X182084836Y-138624800D01*
X182084836Y-138624800D02*
X181989598Y-138672419D01*
X181989598Y-138672419D02*
X181703884Y-138672419D01*
X181703884Y-138672419D02*
X181608646Y-138624800D01*
X181608646Y-138624800D02*
X181561027Y-138577180D01*
X182799122Y-137672419D02*
X182894360Y-137672419D01*
X182894360Y-137672419D02*
X182989598Y-137720038D01*
X182989598Y-137720038D02*
X183037217Y-137767657D01*
X183037217Y-137767657D02*
X183084836Y-137862895D01*
X183084836Y-137862895D02*
X183132455Y-138053371D01*
X183132455Y-138053371D02*
X183132455Y-138291466D01*
X183132455Y-138291466D02*
X183084836Y-138481942D01*
X183084836Y-138481942D02*
X183037217Y-138577180D01*
X183037217Y-138577180D02*
X182989598Y-138624800D01*
X182989598Y-138624800D02*
X182894360Y-138672419D01*
X182894360Y-138672419D02*
X182799122Y-138672419D01*
X182799122Y-138672419D02*
X182703884Y-138624800D01*
X182703884Y-138624800D02*
X182656265Y-138577180D01*
X182656265Y-138577180D02*
X182608646Y-138481942D01*
X182608646Y-138481942D02*
X182561027Y-138291466D01*
X182561027Y-138291466D02*
X182561027Y-138053371D01*
X182561027Y-138053371D02*
X182608646Y-137862895D01*
X182608646Y-137862895D02*
X182656265Y-137767657D01*
X182656265Y-137767657D02*
X182703884Y-137720038D01*
X182703884Y-137720038D02*
X182799122Y-137672419D01*
X183751503Y-137672419D02*
X183846741Y-137672419D01*
X183846741Y-137672419D02*
X183941979Y-137720038D01*
X183941979Y-137720038D02*
X183989598Y-137767657D01*
X183989598Y-137767657D02*
X184037217Y-137862895D01*
X184037217Y-137862895D02*
X184084836Y-138053371D01*
X184084836Y-138053371D02*
X184084836Y-138291466D01*
X184084836Y-138291466D02*
X184037217Y-138481942D01*
X184037217Y-138481942D02*
X183989598Y-138577180D01*
X183989598Y-138577180D02*
X183941979Y-138624800D01*
X183941979Y-138624800D02*
X183846741Y-138672419D01*
X183846741Y-138672419D02*
X183751503Y-138672419D01*
X183751503Y-138672419D02*
X183656265Y-138624800D01*
X183656265Y-138624800D02*
X183608646Y-138577180D01*
X183608646Y-138577180D02*
X183561027Y-138481942D01*
X183561027Y-138481942D02*
X183513408Y-138291466D01*
X183513408Y-138291466D02*
X183513408Y-138053371D01*
X183513408Y-138053371D02*
X183561027Y-137862895D01*
X183561027Y-137862895D02*
X183608646Y-137767657D01*
X183608646Y-137767657D02*
X183656265Y-137720038D01*
X183656265Y-137720038D02*
X183751503Y-137672419D01*
X184703884Y-137672419D02*
X184799122Y-137672419D01*
X184799122Y-137672419D02*
X184894360Y-137720038D01*
X184894360Y-137720038D02*
X184941979Y-137767657D01*
X184941979Y-137767657D02*
X184989598Y-137862895D01*
X184989598Y-137862895D02*
X185037217Y-138053371D01*
X185037217Y-138053371D02*
X185037217Y-138291466D01*
X185037217Y-138291466D02*
X184989598Y-138481942D01*
X184989598Y-138481942D02*
X184941979Y-138577180D01*
X184941979Y-138577180D02*
X184894360Y-138624800D01*
X184894360Y-138624800D02*
X184799122Y-138672419D01*
X184799122Y-138672419D02*
X184703884Y-138672419D01*
X184703884Y-138672419D02*
X184608646Y-138624800D01*
X184608646Y-138624800D02*
X184561027Y-138577180D01*
X184561027Y-138577180D02*
X184513408Y-138481942D01*
X184513408Y-138481942D02*
X184465789Y-138291466D01*
X184465789Y-138291466D02*
X184465789Y-138053371D01*
X184465789Y-138053371D02*
X184513408Y-137862895D01*
X184513408Y-137862895D02*
X184561027Y-137767657D01*
X184561027Y-137767657D02*
X184608646Y-137720038D01*
X184608646Y-137720038D02*
X184703884Y-137672419D01*
X185989598Y-138672419D02*
X185418170Y-138672419D01*
X185703884Y-138672419D02*
X185703884Y-137672419D01*
X185703884Y-137672419D02*
X185608646Y-137815276D01*
X185608646Y-137815276D02*
X185513408Y-137910514D01*
X185513408Y-137910514D02*
X185418170Y-137958133D01*
X186180075Y-138767657D02*
X186941979Y-138767657D01*
X187037218Y-137672419D02*
X187370551Y-138672419D01*
X187370551Y-138672419D02*
X187703884Y-137672419D01*
X188037218Y-138148609D02*
X188370551Y-138148609D01*
X188513408Y-138672419D02*
X188037218Y-138672419D01*
X188037218Y-138672419D02*
X188037218Y-137672419D01*
X188037218Y-137672419D02*
X188513408Y-137672419D01*
X189513408Y-138672419D02*
X189180075Y-138196228D01*
X188941980Y-138672419D02*
X188941980Y-137672419D01*
X188941980Y-137672419D02*
X189322932Y-137672419D01*
X189322932Y-137672419D02*
X189418170Y-137720038D01*
X189418170Y-137720038D02*
X189465789Y-137767657D01*
X189465789Y-137767657D02*
X189513408Y-137862895D01*
X189513408Y-137862895D02*
X189513408Y-138005752D01*
X189513408Y-138005752D02*
X189465789Y-138100990D01*
X189465789Y-138100990D02*
X189418170Y-138148609D01*
X189418170Y-138148609D02*
X189322932Y-138196228D01*
X189322932Y-138196228D02*
X188941980Y-138196228D01*
X190465789Y-138672419D02*
X189894361Y-138672419D01*
X190180075Y-138672419D02*
X190180075Y-137672419D01*
X190180075Y-137672419D02*
X190084837Y-137815276D01*
X190084837Y-137815276D02*
X189989599Y-137910514D01*
X189989599Y-137910514D02*
X189894361Y-137958133D01*
X190894361Y-138577180D02*
X190941980Y-138624800D01*
X190941980Y-138624800D02*
X190894361Y-138672419D01*
X190894361Y-138672419D02*
X190846742Y-138624800D01*
X190846742Y-138624800D02*
X190894361Y-138577180D01*
X190894361Y-138577180D02*
X190894361Y-138672419D01*
X191561027Y-137672419D02*
X191656265Y-137672419D01*
X191656265Y-137672419D02*
X191751503Y-137720038D01*
X191751503Y-137720038D02*
X191799122Y-137767657D01*
X191799122Y-137767657D02*
X191846741Y-137862895D01*
X191846741Y-137862895D02*
X191894360Y-138053371D01*
X191894360Y-138053371D02*
X191894360Y-138291466D01*
X191894360Y-138291466D02*
X191846741Y-138481942D01*
X191846741Y-138481942D02*
X191799122Y-138577180D01*
X191799122Y-138577180D02*
X191751503Y-138624800D01*
X191751503Y-138624800D02*
X191656265Y-138672419D01*
X191656265Y-138672419D02*
X191561027Y-138672419D01*
X191561027Y-138672419D02*
X191465789Y-138624800D01*
X191465789Y-138624800D02*
X191418170Y-138577180D01*
X191418170Y-138577180D02*
X191370551Y-138481942D01*
X191370551Y-138481942D02*
X191322932Y-138291466D01*
X191322932Y-138291466D02*
X191322932Y-138053371D01*
X191322932Y-138053371D02*
X191370551Y-137862895D01*
X191370551Y-137862895D02*
X191418170Y-137767657D01*
X191418170Y-137767657D02*
X191465789Y-137720038D01*
X191465789Y-137720038D02*
X191561027Y-137672419D01*
X158651390Y-133803884D02*
X158651390Y-134137217D01*
X158127580Y-134280074D02*
X158127580Y-133803884D01*
X158127580Y-133803884D02*
X159127580Y-133803884D01*
X159127580Y-133803884D02*
X159127580Y-134280074D01*
X158222819Y-135280074D02*
X158175200Y-135232455D01*
X158175200Y-135232455D02*
X158127580Y-135089598D01*
X158127580Y-135089598D02*
X158127580Y-134994360D01*
X158127580Y-134994360D02*
X158175200Y-134851503D01*
X158175200Y-134851503D02*
X158270438Y-134756265D01*
X158270438Y-134756265D02*
X158365676Y-134708646D01*
X158365676Y-134708646D02*
X158556152Y-134661027D01*
X158556152Y-134661027D02*
X158699009Y-134661027D01*
X158699009Y-134661027D02*
X158889485Y-134708646D01*
X158889485Y-134708646D02*
X158984723Y-134756265D01*
X158984723Y-134756265D02*
X159079961Y-134851503D01*
X159079961Y-134851503D02*
X159127580Y-134994360D01*
X159127580Y-134994360D02*
X159127580Y-135089598D01*
X159127580Y-135089598D02*
X159079961Y-135232455D01*
X159079961Y-135232455D02*
X159032342Y-135280074D01*
X159079961Y-136232455D02*
X159127580Y-136137217D01*
X159127580Y-136137217D02*
X159127580Y-135994360D01*
X159127580Y-135994360D02*
X159079961Y-135851503D01*
X159079961Y-135851503D02*
X158984723Y-135756265D01*
X158984723Y-135756265D02*
X158889485Y-135708646D01*
X158889485Y-135708646D02*
X158699009Y-135661027D01*
X158699009Y-135661027D02*
X158556152Y-135661027D01*
X158556152Y-135661027D02*
X158365676Y-135708646D01*
X158365676Y-135708646D02*
X158270438Y-135756265D01*
X158270438Y-135756265D02*
X158175200Y-135851503D01*
X158175200Y-135851503D02*
X158127580Y-135994360D01*
X158127580Y-135994360D02*
X158127580Y-136089598D01*
X158127580Y-136089598D02*
X158175200Y-136232455D01*
X158175200Y-136232455D02*
X158222819Y-136280074D01*
X158222819Y-136280074D02*
X158556152Y-136280074D01*
X158556152Y-136280074D02*
X158556152Y-136089598D01*
X158127580Y-136708646D02*
X159127580Y-136708646D01*
X159127580Y-136708646D02*
X159127580Y-137089598D01*
X159127580Y-137089598D02*
X159079961Y-137184836D01*
X159079961Y-137184836D02*
X159032342Y-137232455D01*
X159032342Y-137232455D02*
X158937104Y-137280074D01*
X158937104Y-137280074D02*
X158794247Y-137280074D01*
X158794247Y-137280074D02*
X158699009Y-137232455D01*
X158699009Y-137232455D02*
X158651390Y-137184836D01*
X158651390Y-137184836D02*
X158603771Y-137089598D01*
X158603771Y-137089598D02*
X158603771Y-136708646D01*
X158551390Y-123103884D02*
X158551390Y-123437217D01*
X158027580Y-123580074D02*
X158027580Y-123103884D01*
X158027580Y-123103884D02*
X159027580Y-123103884D01*
X159027580Y-123103884D02*
X159027580Y-123580074D01*
X158122819Y-124580074D02*
X158075200Y-124532455D01*
X158075200Y-124532455D02*
X158027580Y-124389598D01*
X158027580Y-124389598D02*
X158027580Y-124294360D01*
X158027580Y-124294360D02*
X158075200Y-124151503D01*
X158075200Y-124151503D02*
X158170438Y-124056265D01*
X158170438Y-124056265D02*
X158265676Y-124008646D01*
X158265676Y-124008646D02*
X158456152Y-123961027D01*
X158456152Y-123961027D02*
X158599009Y-123961027D01*
X158599009Y-123961027D02*
X158789485Y-124008646D01*
X158789485Y-124008646D02*
X158884723Y-124056265D01*
X158884723Y-124056265D02*
X158979961Y-124151503D01*
X158979961Y-124151503D02*
X159027580Y-124294360D01*
X159027580Y-124294360D02*
X159027580Y-124389598D01*
X159027580Y-124389598D02*
X158979961Y-124532455D01*
X158979961Y-124532455D02*
X158932342Y-124580074D01*
X158979961Y-125532455D02*
X159027580Y-125437217D01*
X159027580Y-125437217D02*
X159027580Y-125294360D01*
X159027580Y-125294360D02*
X158979961Y-125151503D01*
X158979961Y-125151503D02*
X158884723Y-125056265D01*
X158884723Y-125056265D02*
X158789485Y-125008646D01*
X158789485Y-125008646D02*
X158599009Y-124961027D01*
X158599009Y-124961027D02*
X158456152Y-124961027D01*
X158456152Y-124961027D02*
X158265676Y-125008646D01*
X158265676Y-125008646D02*
X158170438Y-125056265D01*
X158170438Y-125056265D02*
X158075200Y-125151503D01*
X158075200Y-125151503D02*
X158027580Y-125294360D01*
X158027580Y-125294360D02*
X158027580Y-125389598D01*
X158027580Y-125389598D02*
X158075200Y-125532455D01*
X158075200Y-125532455D02*
X158122819Y-125580074D01*
X158122819Y-125580074D02*
X158456152Y-125580074D01*
X158456152Y-125580074D02*
X158456152Y-125389598D01*
X158027580Y-126008646D02*
X159027580Y-126008646D01*
X159027580Y-126008646D02*
X158027580Y-126580074D01*
X158027580Y-126580074D02*
X159027580Y-126580074D01*
X158927580Y-106261027D02*
X157927580Y-106594360D01*
X157927580Y-106594360D02*
X158927580Y-106927693D01*
X158022819Y-107832455D02*
X157975200Y-107784836D01*
X157975200Y-107784836D02*
X157927580Y-107641979D01*
X157927580Y-107641979D02*
X157927580Y-107546741D01*
X157927580Y-107546741D02*
X157975200Y-107403884D01*
X157975200Y-107403884D02*
X158070438Y-107308646D01*
X158070438Y-107308646D02*
X158165676Y-107261027D01*
X158165676Y-107261027D02*
X158356152Y-107213408D01*
X158356152Y-107213408D02*
X158499009Y-107213408D01*
X158499009Y-107213408D02*
X158689485Y-107261027D01*
X158689485Y-107261027D02*
X158784723Y-107308646D01*
X158784723Y-107308646D02*
X158879961Y-107403884D01*
X158879961Y-107403884D02*
X158927580Y-107546741D01*
X158927580Y-107546741D02*
X158927580Y-107641979D01*
X158927580Y-107641979D02*
X158879961Y-107784836D01*
X158879961Y-107784836D02*
X158832342Y-107832455D01*
X157927580Y-108261027D02*
X158927580Y-108261027D01*
X158927580Y-108261027D02*
X158213295Y-108594360D01*
X158213295Y-108594360D02*
X158927580Y-108927693D01*
X158927580Y-108927693D02*
X157927580Y-108927693D01*
D11*
X180357142Y-126459580D02*
X180309523Y-126507200D01*
X180309523Y-126507200D02*
X180166666Y-126554819D01*
X180166666Y-126554819D02*
X180071428Y-126554819D01*
X180071428Y-126554819D02*
X179928571Y-126507200D01*
X179928571Y-126507200D02*
X179833333Y-126411961D01*
X179833333Y-126411961D02*
X179785714Y-126316723D01*
X179785714Y-126316723D02*
X179738095Y-126126247D01*
X179738095Y-126126247D02*
X179738095Y-125983390D01*
X179738095Y-125983390D02*
X179785714Y-125792914D01*
X179785714Y-125792914D02*
X179833333Y-125697676D01*
X179833333Y-125697676D02*
X179928571Y-125602438D01*
X179928571Y-125602438D02*
X180071428Y-125554819D01*
X180071428Y-125554819D02*
X180166666Y-125554819D01*
X180166666Y-125554819D02*
X180309523Y-125602438D01*
X180309523Y-125602438D02*
X180357142Y-125650057D01*
X180738095Y-125650057D02*
X180785714Y-125602438D01*
X180785714Y-125602438D02*
X180880952Y-125554819D01*
X180880952Y-125554819D02*
X181119047Y-125554819D01*
X181119047Y-125554819D02*
X181214285Y-125602438D01*
X181214285Y-125602438D02*
X181261904Y-125650057D01*
X181261904Y-125650057D02*
X181309523Y-125745295D01*
X181309523Y-125745295D02*
X181309523Y-125840533D01*
X181309523Y-125840533D02*
X181261904Y-125983390D01*
X181261904Y-125983390D02*
X180690476Y-126554819D01*
X180690476Y-126554819D02*
X181309523Y-126554819D01*
X182214285Y-125554819D02*
X181738095Y-125554819D01*
X181738095Y-125554819D02*
X181690476Y-126031009D01*
X181690476Y-126031009D02*
X181738095Y-125983390D01*
X181738095Y-125983390D02*
X181833333Y-125935771D01*
X181833333Y-125935771D02*
X182071428Y-125935771D01*
X182071428Y-125935771D02*
X182166666Y-125983390D01*
X182166666Y-125983390D02*
X182214285Y-126031009D01*
X182214285Y-126031009D02*
X182261904Y-126126247D01*
X182261904Y-126126247D02*
X182261904Y-126364342D01*
X182261904Y-126364342D02*
X182214285Y-126459580D01*
X182214285Y-126459580D02*
X182166666Y-126507200D01*
X182166666Y-126507200D02*
X182071428Y-126554819D01*
X182071428Y-126554819D02*
X181833333Y-126554819D01*
X181833333Y-126554819D02*
X181738095Y-126507200D01*
X181738095Y-126507200D02*
X181690476Y-126459580D01*
X181259580Y-120266666D02*
X181307200Y-120314285D01*
X181307200Y-120314285D02*
X181354819Y-120457142D01*
X181354819Y-120457142D02*
X181354819Y-120552380D01*
X181354819Y-120552380D02*
X181307200Y-120695237D01*
X181307200Y-120695237D02*
X181211961Y-120790475D01*
X181211961Y-120790475D02*
X181116723Y-120838094D01*
X181116723Y-120838094D02*
X180926247Y-120885713D01*
X180926247Y-120885713D02*
X180783390Y-120885713D01*
X180783390Y-120885713D02*
X180592914Y-120838094D01*
X180592914Y-120838094D02*
X180497676Y-120790475D01*
X180497676Y-120790475D02*
X180402438Y-120695237D01*
X180402438Y-120695237D02*
X180354819Y-120552380D01*
X180354819Y-120552380D02*
X180354819Y-120457142D01*
X180354819Y-120457142D02*
X180402438Y-120314285D01*
X180402438Y-120314285D02*
X180450057Y-120266666D01*
X181354819Y-119314285D02*
X181354819Y-119885713D01*
X181354819Y-119599999D02*
X180354819Y-119599999D01*
X180354819Y-119599999D02*
X180497676Y-119695237D01*
X180497676Y-119695237D02*
X180592914Y-119790475D01*
X180592914Y-119790475D02*
X180640533Y-119885713D01*
X189038095Y-133871619D02*
X189609523Y-133871619D01*
X189323809Y-134871619D02*
X189323809Y-133871619D01*
X189942857Y-134871619D02*
X189942857Y-133871619D01*
X189942857Y-133871619D02*
X190323809Y-133871619D01*
X190323809Y-133871619D02*
X190419047Y-133919238D01*
X190419047Y-133919238D02*
X190466666Y-133966857D01*
X190466666Y-133966857D02*
X190514285Y-134062095D01*
X190514285Y-134062095D02*
X190514285Y-134204952D01*
X190514285Y-134204952D02*
X190466666Y-134300190D01*
X190466666Y-134300190D02*
X190419047Y-134347809D01*
X190419047Y-134347809D02*
X190323809Y-134395428D01*
X190323809Y-134395428D02*
X189942857Y-134395428D01*
X190847619Y-133871619D02*
X191466666Y-133871619D01*
X191466666Y-133871619D02*
X191133333Y-134252571D01*
X191133333Y-134252571D02*
X191276190Y-134252571D01*
X191276190Y-134252571D02*
X191371428Y-134300190D01*
X191371428Y-134300190D02*
X191419047Y-134347809D01*
X191419047Y-134347809D02*
X191466666Y-134443047D01*
X191466666Y-134443047D02*
X191466666Y-134681142D01*
X191466666Y-134681142D02*
X191419047Y-134776380D01*
X191419047Y-134776380D02*
X191371428Y-134824000D01*
X191371428Y-134824000D02*
X191276190Y-134871619D01*
X191276190Y-134871619D02*
X190990476Y-134871619D01*
X190990476Y-134871619D02*
X190895238Y-134824000D01*
X190895238Y-134824000D02*
X190847619Y-134776380D01*
X190059580Y-120366666D02*
X190107200Y-120414285D01*
X190107200Y-120414285D02*
X190154819Y-120557142D01*
X190154819Y-120557142D02*
X190154819Y-120652380D01*
X190154819Y-120652380D02*
X190107200Y-120795237D01*
X190107200Y-120795237D02*
X190011961Y-120890475D01*
X190011961Y-120890475D02*
X189916723Y-120938094D01*
X189916723Y-120938094D02*
X189726247Y-120985713D01*
X189726247Y-120985713D02*
X189583390Y-120985713D01*
X189583390Y-120985713D02*
X189392914Y-120938094D01*
X189392914Y-120938094D02*
X189297676Y-120890475D01*
X189297676Y-120890475D02*
X189202438Y-120795237D01*
X189202438Y-120795237D02*
X189154819Y-120652380D01*
X189154819Y-120652380D02*
X189154819Y-120557142D01*
X189154819Y-120557142D02*
X189202438Y-120414285D01*
X189202438Y-120414285D02*
X189250057Y-120366666D01*
X189154819Y-119509523D02*
X189154819Y-119699999D01*
X189154819Y-119699999D02*
X189202438Y-119795237D01*
X189202438Y-119795237D02*
X189250057Y-119842856D01*
X189250057Y-119842856D02*
X189392914Y-119938094D01*
X189392914Y-119938094D02*
X189583390Y-119985713D01*
X189583390Y-119985713D02*
X189964342Y-119985713D01*
X189964342Y-119985713D02*
X190059580Y-119938094D01*
X190059580Y-119938094D02*
X190107200Y-119890475D01*
X190107200Y-119890475D02*
X190154819Y-119795237D01*
X190154819Y-119795237D02*
X190154819Y-119604761D01*
X190154819Y-119604761D02*
X190107200Y-119509523D01*
X190107200Y-119509523D02*
X190059580Y-119461904D01*
X190059580Y-119461904D02*
X189964342Y-119414285D01*
X189964342Y-119414285D02*
X189726247Y-119414285D01*
X189726247Y-119414285D02*
X189631009Y-119461904D01*
X189631009Y-119461904D02*
X189583390Y-119509523D01*
X189583390Y-119509523D02*
X189535771Y-119604761D01*
X189535771Y-119604761D02*
X189535771Y-119795237D01*
X189535771Y-119795237D02*
X189583390Y-119890475D01*
X189583390Y-119890475D02*
X189631009Y-119938094D01*
X189631009Y-119938094D02*
X189726247Y-119985713D01*
X178759580Y-130602538D02*
X178807200Y-130650157D01*
X178807200Y-130650157D02*
X178854819Y-130793014D01*
X178854819Y-130793014D02*
X178854819Y-130888252D01*
X178854819Y-130888252D02*
X178807200Y-131031109D01*
X178807200Y-131031109D02*
X178711961Y-131126347D01*
X178711961Y-131126347D02*
X178616723Y-131173966D01*
X178616723Y-131173966D02*
X178426247Y-131221585D01*
X178426247Y-131221585D02*
X178283390Y-131221585D01*
X178283390Y-131221585D02*
X178092914Y-131173966D01*
X178092914Y-131173966D02*
X177997676Y-131126347D01*
X177997676Y-131126347D02*
X177902438Y-131031109D01*
X177902438Y-131031109D02*
X177854819Y-130888252D01*
X177854819Y-130888252D02*
X177854819Y-130793014D01*
X177854819Y-130793014D02*
X177902438Y-130650157D01*
X177902438Y-130650157D02*
X177950057Y-130602538D01*
X177950057Y-130221585D02*
X177902438Y-130173966D01*
X177902438Y-130173966D02*
X177854819Y-130078728D01*
X177854819Y-130078728D02*
X177854819Y-129840633D01*
X177854819Y-129840633D02*
X177902438Y-129745395D01*
X177902438Y-129745395D02*
X177950057Y-129697776D01*
X177950057Y-129697776D02*
X178045295Y-129650157D01*
X178045295Y-129650157D02*
X178140533Y-129650157D01*
X178140533Y-129650157D02*
X178283390Y-129697776D01*
X178283390Y-129697776D02*
X178854819Y-130269204D01*
X178854819Y-130269204D02*
X178854819Y-129650157D01*
X177854819Y-129031109D02*
X177854819Y-128935871D01*
X177854819Y-128935871D02*
X177902438Y-128840633D01*
X177902438Y-128840633D02*
X177950057Y-128793014D01*
X177950057Y-128793014D02*
X178045295Y-128745395D01*
X178045295Y-128745395D02*
X178235771Y-128697776D01*
X178235771Y-128697776D02*
X178473866Y-128697776D01*
X178473866Y-128697776D02*
X178664342Y-128745395D01*
X178664342Y-128745395D02*
X178759580Y-128793014D01*
X178759580Y-128793014D02*
X178807200Y-128840633D01*
X178807200Y-128840633D02*
X178854819Y-128935871D01*
X178854819Y-128935871D02*
X178854819Y-129031109D01*
X178854819Y-129031109D02*
X178807200Y-129126347D01*
X178807200Y-129126347D02*
X178759580Y-129173966D01*
X178759580Y-129173966D02*
X178664342Y-129221585D01*
X178664342Y-129221585D02*
X178473866Y-129269204D01*
X178473866Y-129269204D02*
X178235771Y-129269204D01*
X178235771Y-129269204D02*
X178045295Y-129221585D01*
X178045295Y-129221585D02*
X177950057Y-129173966D01*
X177950057Y-129173966D02*
X177902438Y-129126347D01*
X177902438Y-129126347D02*
X177854819Y-129031109D01*
X183827595Y-127583319D02*
X183827595Y-128392842D01*
X183827595Y-128392842D02*
X183875214Y-128488080D01*
X183875214Y-128488080D02*
X183922833Y-128535700D01*
X183922833Y-128535700D02*
X184018071Y-128583319D01*
X184018071Y-128583319D02*
X184208547Y-128583319D01*
X184208547Y-128583319D02*
X184303785Y-128535700D01*
X184303785Y-128535700D02*
X184351404Y-128488080D01*
X184351404Y-128488080D02*
X184399023Y-128392842D01*
X184399023Y-128392842D02*
X184399023Y-127583319D01*
X184827595Y-127678557D02*
X184875214Y-127630938D01*
X184875214Y-127630938D02*
X184970452Y-127583319D01*
X184970452Y-127583319D02*
X185208547Y-127583319D01*
X185208547Y-127583319D02*
X185303785Y-127630938D01*
X185303785Y-127630938D02*
X185351404Y-127678557D01*
X185351404Y-127678557D02*
X185399023Y-127773795D01*
X185399023Y-127773795D02*
X185399023Y-127869033D01*
X185399023Y-127869033D02*
X185351404Y-128011890D01*
X185351404Y-128011890D02*
X184779976Y-128583319D01*
X184779976Y-128583319D02*
X185399023Y-128583319D01*
X196254819Y-118061904D02*
X197064342Y-118061904D01*
X197064342Y-118061904D02*
X197159580Y-118014285D01*
X197159580Y-118014285D02*
X197207200Y-117966666D01*
X197207200Y-117966666D02*
X197254819Y-117871428D01*
X197254819Y-117871428D02*
X197254819Y-117680952D01*
X197254819Y-117680952D02*
X197207200Y-117585714D01*
X197207200Y-117585714D02*
X197159580Y-117538095D01*
X197159580Y-117538095D02*
X197064342Y-117490476D01*
X197064342Y-117490476D02*
X196254819Y-117490476D01*
X196588152Y-116585714D02*
X197254819Y-116585714D01*
X196207200Y-116823809D02*
X196921485Y-117061904D01*
X196921485Y-117061904D02*
X196921485Y-116442857D01*
X162166666Y-130304819D02*
X162166666Y-131019104D01*
X162166666Y-131019104D02*
X162119047Y-131161961D01*
X162119047Y-131161961D02*
X162023809Y-131257200D01*
X162023809Y-131257200D02*
X161880952Y-131304819D01*
X161880952Y-131304819D02*
X161785714Y-131304819D01*
X163166666Y-131304819D02*
X162595238Y-131304819D01*
X162880952Y-131304819D02*
X162880952Y-130304819D01*
X162880952Y-130304819D02*
X162785714Y-130447676D01*
X162785714Y-130447676D02*
X162690476Y-130542914D01*
X162690476Y-130542914D02*
X162595238Y-130590533D01*
X196175333Y-128154819D02*
X195842000Y-127678628D01*
X195603905Y-128154819D02*
X195603905Y-127154819D01*
X195603905Y-127154819D02*
X195984857Y-127154819D01*
X195984857Y-127154819D02*
X196080095Y-127202438D01*
X196080095Y-127202438D02*
X196127714Y-127250057D01*
X196127714Y-127250057D02*
X196175333Y-127345295D01*
X196175333Y-127345295D02*
X196175333Y-127488152D01*
X196175333Y-127488152D02*
X196127714Y-127583390D01*
X196127714Y-127583390D02*
X196080095Y-127631009D01*
X196080095Y-127631009D02*
X195984857Y-127678628D01*
X195984857Y-127678628D02*
X195603905Y-127678628D01*
X196508667Y-127154819D02*
X197175333Y-127154819D01*
X197175333Y-127154819D02*
X196746762Y-128154819D01*
X195381342Y-114093180D02*
X195333723Y-114140800D01*
X195333723Y-114140800D02*
X195190866Y-114188419D01*
X195190866Y-114188419D02*
X195095628Y-114188419D01*
X195095628Y-114188419D02*
X194952771Y-114140800D01*
X194952771Y-114140800D02*
X194857533Y-114045561D01*
X194857533Y-114045561D02*
X194809914Y-113950323D01*
X194809914Y-113950323D02*
X194762295Y-113759847D01*
X194762295Y-113759847D02*
X194762295Y-113616990D01*
X194762295Y-113616990D02*
X194809914Y-113426514D01*
X194809914Y-113426514D02*
X194857533Y-113331276D01*
X194857533Y-113331276D02*
X194952771Y-113236038D01*
X194952771Y-113236038D02*
X195095628Y-113188419D01*
X195095628Y-113188419D02*
X195190866Y-113188419D01*
X195190866Y-113188419D02*
X195333723Y-113236038D01*
X195333723Y-113236038D02*
X195381342Y-113283657D01*
X196333723Y-114188419D02*
X195762295Y-114188419D01*
X196048009Y-114188419D02*
X196048009Y-113188419D01*
X196048009Y-113188419D02*
X195952771Y-113331276D01*
X195952771Y-113331276D02*
X195857533Y-113426514D01*
X195857533Y-113426514D02*
X195762295Y-113474133D01*
X196809914Y-114188419D02*
X197000390Y-114188419D01*
X197000390Y-114188419D02*
X197095628Y-114140800D01*
X197095628Y-114140800D02*
X197143247Y-114093180D01*
X197143247Y-114093180D02*
X197238485Y-113950323D01*
X197238485Y-113950323D02*
X197286104Y-113759847D01*
X197286104Y-113759847D02*
X197286104Y-113378895D01*
X197286104Y-113378895D02*
X197238485Y-113283657D01*
X197238485Y-113283657D02*
X197190866Y-113236038D01*
X197190866Y-113236038D02*
X197095628Y-113188419D01*
X197095628Y-113188419D02*
X196905152Y-113188419D01*
X196905152Y-113188419D02*
X196809914Y-113236038D01*
X196809914Y-113236038D02*
X196762295Y-113283657D01*
X196762295Y-113283657D02*
X196714676Y-113378895D01*
X196714676Y-113378895D02*
X196714676Y-113616990D01*
X196714676Y-113616990D02*
X196762295Y-113712228D01*
X196762295Y-113712228D02*
X196809914Y-113759847D01*
X196809914Y-113759847D02*
X196905152Y-113807466D01*
X196905152Y-113807466D02*
X197095628Y-113807466D01*
X197095628Y-113807466D02*
X197190866Y-113759847D01*
X197190866Y-113759847D02*
X197238485Y-113712228D01*
X197238485Y-113712228D02*
X197286104Y-113616990D01*
X174204819Y-106742857D02*
X173728628Y-107076190D01*
X174204819Y-107314285D02*
X173204819Y-107314285D01*
X173204819Y-107314285D02*
X173204819Y-106933333D01*
X173204819Y-106933333D02*
X173252438Y-106838095D01*
X173252438Y-106838095D02*
X173300057Y-106790476D01*
X173300057Y-106790476D02*
X173395295Y-106742857D01*
X173395295Y-106742857D02*
X173538152Y-106742857D01*
X173538152Y-106742857D02*
X173633390Y-106790476D01*
X173633390Y-106790476D02*
X173681009Y-106838095D01*
X173681009Y-106838095D02*
X173728628Y-106933333D01*
X173728628Y-106933333D02*
X173728628Y-107314285D01*
X174204819Y-105790476D02*
X174204819Y-106361904D01*
X174204819Y-106076190D02*
X173204819Y-106076190D01*
X173204819Y-106076190D02*
X173347676Y-106171428D01*
X173347676Y-106171428D02*
X173442914Y-106266666D01*
X173442914Y-106266666D02*
X173490533Y-106361904D01*
X173204819Y-105171428D02*
X173204819Y-105076190D01*
X173204819Y-105076190D02*
X173252438Y-104980952D01*
X173252438Y-104980952D02*
X173300057Y-104933333D01*
X173300057Y-104933333D02*
X173395295Y-104885714D01*
X173395295Y-104885714D02*
X173585771Y-104838095D01*
X173585771Y-104838095D02*
X173823866Y-104838095D01*
X173823866Y-104838095D02*
X174014342Y-104885714D01*
X174014342Y-104885714D02*
X174109580Y-104933333D01*
X174109580Y-104933333D02*
X174157200Y-104980952D01*
X174157200Y-104980952D02*
X174204819Y-105076190D01*
X174204819Y-105076190D02*
X174204819Y-105171428D01*
X174204819Y-105171428D02*
X174157200Y-105266666D01*
X174157200Y-105266666D02*
X174109580Y-105314285D01*
X174109580Y-105314285D02*
X174014342Y-105361904D01*
X174014342Y-105361904D02*
X173823866Y-105409523D01*
X173823866Y-105409523D02*
X173585771Y-105409523D01*
X173585771Y-105409523D02*
X173395295Y-105361904D01*
X173395295Y-105361904D02*
X173300057Y-105314285D01*
X173300057Y-105314285D02*
X173252438Y-105266666D01*
X173252438Y-105266666D02*
X173204819Y-105171428D01*
X191438095Y-125154819D02*
X192009523Y-125154819D01*
X191723809Y-126154819D02*
X191723809Y-125154819D01*
X192342857Y-126154819D02*
X192342857Y-125154819D01*
X192342857Y-125154819D02*
X192723809Y-125154819D01*
X192723809Y-125154819D02*
X192819047Y-125202438D01*
X192819047Y-125202438D02*
X192866666Y-125250057D01*
X192866666Y-125250057D02*
X192914285Y-125345295D01*
X192914285Y-125345295D02*
X192914285Y-125488152D01*
X192914285Y-125488152D02*
X192866666Y-125583390D01*
X192866666Y-125583390D02*
X192819047Y-125631009D01*
X192819047Y-125631009D02*
X192723809Y-125678628D01*
X192723809Y-125678628D02*
X192342857Y-125678628D01*
X193771428Y-125488152D02*
X193771428Y-126154819D01*
X193533333Y-125107200D02*
X193295238Y-125821485D01*
X193295238Y-125821485D02*
X193914285Y-125821485D01*
X200453666Y-106852819D02*
X200453666Y-107567104D01*
X200453666Y-107567104D02*
X200406047Y-107709961D01*
X200406047Y-107709961D02*
X200310809Y-107805200D01*
X200310809Y-107805200D02*
X200167952Y-107852819D01*
X200167952Y-107852819D02*
X200072714Y-107852819D01*
X201358428Y-107186152D02*
X201358428Y-107852819D01*
X201120333Y-106805200D02*
X200882238Y-107519485D01*
X200882238Y-107519485D02*
X201501285Y-107519485D01*
X174157142Y-137454819D02*
X173823809Y-136978628D01*
X173585714Y-137454819D02*
X173585714Y-136454819D01*
X173585714Y-136454819D02*
X173966666Y-136454819D01*
X173966666Y-136454819D02*
X174061904Y-136502438D01*
X174061904Y-136502438D02*
X174109523Y-136550057D01*
X174109523Y-136550057D02*
X174157142Y-136645295D01*
X174157142Y-136645295D02*
X174157142Y-136788152D01*
X174157142Y-136788152D02*
X174109523Y-136883390D01*
X174109523Y-136883390D02*
X174061904Y-136931009D01*
X174061904Y-136931009D02*
X173966666Y-136978628D01*
X173966666Y-136978628D02*
X173585714Y-136978628D01*
X175109523Y-137454819D02*
X174538095Y-137454819D01*
X174823809Y-137454819D02*
X174823809Y-136454819D01*
X174823809Y-136454819D02*
X174728571Y-136597676D01*
X174728571Y-136597676D02*
X174633333Y-136692914D01*
X174633333Y-136692914D02*
X174538095Y-136740533D01*
X176014285Y-136454819D02*
X175538095Y-136454819D01*
X175538095Y-136454819D02*
X175490476Y-136931009D01*
X175490476Y-136931009D02*
X175538095Y-136883390D01*
X175538095Y-136883390D02*
X175633333Y-136835771D01*
X175633333Y-136835771D02*
X175871428Y-136835771D01*
X175871428Y-136835771D02*
X175966666Y-136883390D01*
X175966666Y-136883390D02*
X176014285Y-136931009D01*
X176014285Y-136931009D02*
X176061904Y-137026247D01*
X176061904Y-137026247D02*
X176061904Y-137264342D01*
X176061904Y-137264342D02*
X176014285Y-137359580D01*
X176014285Y-137359580D02*
X175966666Y-137407200D01*
X175966666Y-137407200D02*
X175871428Y-137454819D01*
X175871428Y-137454819D02*
X175633333Y-137454819D01*
X175633333Y-137454819D02*
X175538095Y-137407200D01*
X175538095Y-137407200D02*
X175490476Y-137359580D01*
X195566666Y-105131009D02*
X195233333Y-105131009D01*
X195233333Y-105654819D02*
X195233333Y-104654819D01*
X195233333Y-104654819D02*
X195709523Y-104654819D01*
X196423809Y-105131009D02*
X196566666Y-105178628D01*
X196566666Y-105178628D02*
X196614285Y-105226247D01*
X196614285Y-105226247D02*
X196661904Y-105321485D01*
X196661904Y-105321485D02*
X196661904Y-105464342D01*
X196661904Y-105464342D02*
X196614285Y-105559580D01*
X196614285Y-105559580D02*
X196566666Y-105607200D01*
X196566666Y-105607200D02*
X196471428Y-105654819D01*
X196471428Y-105654819D02*
X196090476Y-105654819D01*
X196090476Y-105654819D02*
X196090476Y-104654819D01*
X196090476Y-104654819D02*
X196423809Y-104654819D01*
X196423809Y-104654819D02*
X196519047Y-104702438D01*
X196519047Y-104702438D02*
X196566666Y-104750057D01*
X196566666Y-104750057D02*
X196614285Y-104845295D01*
X196614285Y-104845295D02*
X196614285Y-104940533D01*
X196614285Y-104940533D02*
X196566666Y-105035771D01*
X196566666Y-105035771D02*
X196519047Y-105083390D01*
X196519047Y-105083390D02*
X196423809Y-105131009D01*
X196423809Y-105131009D02*
X196090476Y-105131009D01*
X197614285Y-105654819D02*
X197042857Y-105654819D01*
X197328571Y-105654819D02*
X197328571Y-104654819D01*
X197328571Y-104654819D02*
X197233333Y-104797676D01*
X197233333Y-104797676D02*
X197138095Y-104892914D01*
X197138095Y-104892914D02*
X197042857Y-104940533D01*
X177633333Y-114406819D02*
X177300000Y-113930628D01*
X177061905Y-114406819D02*
X177061905Y-113406819D01*
X177061905Y-113406819D02*
X177442857Y-113406819D01*
X177442857Y-113406819D02*
X177538095Y-113454438D01*
X177538095Y-113454438D02*
X177585714Y-113502057D01*
X177585714Y-113502057D02*
X177633333Y-113597295D01*
X177633333Y-113597295D02*
X177633333Y-113740152D01*
X177633333Y-113740152D02*
X177585714Y-113835390D01*
X177585714Y-113835390D02*
X177538095Y-113883009D01*
X177538095Y-113883009D02*
X177442857Y-113930628D01*
X177442857Y-113930628D02*
X177061905Y-113930628D01*
X178538095Y-113406819D02*
X178061905Y-113406819D01*
X178061905Y-113406819D02*
X178014286Y-113883009D01*
X178014286Y-113883009D02*
X178061905Y-113835390D01*
X178061905Y-113835390D02*
X178157143Y-113787771D01*
X178157143Y-113787771D02*
X178395238Y-113787771D01*
X178395238Y-113787771D02*
X178490476Y-113835390D01*
X178490476Y-113835390D02*
X178538095Y-113883009D01*
X178538095Y-113883009D02*
X178585714Y-113978247D01*
X178585714Y-113978247D02*
X178585714Y-114216342D01*
X178585714Y-114216342D02*
X178538095Y-114311580D01*
X178538095Y-114311580D02*
X178490476Y-114359200D01*
X178490476Y-114359200D02*
X178395238Y-114406819D01*
X178395238Y-114406819D02*
X178157143Y-114406819D01*
X178157143Y-114406819D02*
X178061905Y-114359200D01*
X178061905Y-114359200D02*
X178014286Y-114311580D01*
X172866666Y-121454819D02*
X172866666Y-122169104D01*
X172866666Y-122169104D02*
X172819047Y-122311961D01*
X172819047Y-122311961D02*
X172723809Y-122407200D01*
X172723809Y-122407200D02*
X172580952Y-122454819D01*
X172580952Y-122454819D02*
X172485714Y-122454819D01*
X173342857Y-122454819D02*
X173342857Y-121454819D01*
X173342857Y-121454819D02*
X173723809Y-121454819D01*
X173723809Y-121454819D02*
X173819047Y-121502438D01*
X173819047Y-121502438D02*
X173866666Y-121550057D01*
X173866666Y-121550057D02*
X173914285Y-121645295D01*
X173914285Y-121645295D02*
X173914285Y-121788152D01*
X173914285Y-121788152D02*
X173866666Y-121883390D01*
X173866666Y-121883390D02*
X173819047Y-121931009D01*
X173819047Y-121931009D02*
X173723809Y-121978628D01*
X173723809Y-121978628D02*
X173342857Y-121978628D01*
X174247619Y-121454819D02*
X174914285Y-121454819D01*
X174914285Y-121454819D02*
X174485714Y-122454819D01*
X178457142Y-136054819D02*
X178123809Y-135578628D01*
X177885714Y-136054819D02*
X177885714Y-135054819D01*
X177885714Y-135054819D02*
X178266666Y-135054819D01*
X178266666Y-135054819D02*
X178361904Y-135102438D01*
X178361904Y-135102438D02*
X178409523Y-135150057D01*
X178409523Y-135150057D02*
X178457142Y-135245295D01*
X178457142Y-135245295D02*
X178457142Y-135388152D01*
X178457142Y-135388152D02*
X178409523Y-135483390D01*
X178409523Y-135483390D02*
X178361904Y-135531009D01*
X178361904Y-135531009D02*
X178266666Y-135578628D01*
X178266666Y-135578628D02*
X177885714Y-135578628D01*
X179409523Y-136054819D02*
X178838095Y-136054819D01*
X179123809Y-136054819D02*
X179123809Y-135054819D01*
X179123809Y-135054819D02*
X179028571Y-135197676D01*
X179028571Y-135197676D02*
X178933333Y-135292914D01*
X178933333Y-135292914D02*
X178838095Y-135340533D01*
X179742857Y-135054819D02*
X180409523Y-135054819D01*
X180409523Y-135054819D02*
X179980952Y-136054819D01*
X178457142Y-124954819D02*
X178123809Y-124478628D01*
X177885714Y-124954819D02*
X177885714Y-123954819D01*
X177885714Y-123954819D02*
X178266666Y-123954819D01*
X178266666Y-123954819D02*
X178361904Y-124002438D01*
X178361904Y-124002438D02*
X178409523Y-124050057D01*
X178409523Y-124050057D02*
X178457142Y-124145295D01*
X178457142Y-124145295D02*
X178457142Y-124288152D01*
X178457142Y-124288152D02*
X178409523Y-124383390D01*
X178409523Y-124383390D02*
X178361904Y-124431009D01*
X178361904Y-124431009D02*
X178266666Y-124478628D01*
X178266666Y-124478628D02*
X177885714Y-124478628D01*
X179409523Y-124954819D02*
X178838095Y-124954819D01*
X179123809Y-124954819D02*
X179123809Y-123954819D01*
X179123809Y-123954819D02*
X179028571Y-124097676D01*
X179028571Y-124097676D02*
X178933333Y-124192914D01*
X178933333Y-124192914D02*
X178838095Y-124240533D01*
X179980952Y-124383390D02*
X179885714Y-124335771D01*
X179885714Y-124335771D02*
X179838095Y-124288152D01*
X179838095Y-124288152D02*
X179790476Y-124192914D01*
X179790476Y-124192914D02*
X179790476Y-124145295D01*
X179790476Y-124145295D02*
X179838095Y-124050057D01*
X179838095Y-124050057D02*
X179885714Y-124002438D01*
X179885714Y-124002438D02*
X179980952Y-123954819D01*
X179980952Y-123954819D02*
X180171428Y-123954819D01*
X180171428Y-123954819D02*
X180266666Y-124002438D01*
X180266666Y-124002438D02*
X180314285Y-124050057D01*
X180314285Y-124050057D02*
X180361904Y-124145295D01*
X180361904Y-124145295D02*
X180361904Y-124192914D01*
X180361904Y-124192914D02*
X180314285Y-124288152D01*
X180314285Y-124288152D02*
X180266666Y-124335771D01*
X180266666Y-124335771D02*
X180171428Y-124383390D01*
X180171428Y-124383390D02*
X179980952Y-124383390D01*
X179980952Y-124383390D02*
X179885714Y-124431009D01*
X179885714Y-124431009D02*
X179838095Y-124478628D01*
X179838095Y-124478628D02*
X179790476Y-124573866D01*
X179790476Y-124573866D02*
X179790476Y-124764342D01*
X179790476Y-124764342D02*
X179838095Y-124859580D01*
X179838095Y-124859580D02*
X179885714Y-124907200D01*
X179885714Y-124907200D02*
X179980952Y-124954819D01*
X179980952Y-124954819D02*
X180171428Y-124954819D01*
X180171428Y-124954819D02*
X180266666Y-124907200D01*
X180266666Y-124907200D02*
X180314285Y-124859580D01*
X180314285Y-124859580D02*
X180361904Y-124764342D01*
X180361904Y-124764342D02*
X180361904Y-124573866D01*
X180361904Y-124573866D02*
X180314285Y-124478628D01*
X180314285Y-124478628D02*
X180266666Y-124431009D01*
X180266666Y-124431009D02*
X180171428Y-124383390D01*
X191259580Y-120321666D02*
X191307200Y-120369285D01*
X191307200Y-120369285D02*
X191354819Y-120512142D01*
X191354819Y-120512142D02*
X191354819Y-120607380D01*
X191354819Y-120607380D02*
X191307200Y-120750237D01*
X191307200Y-120750237D02*
X191211961Y-120845475D01*
X191211961Y-120845475D02*
X191116723Y-120893094D01*
X191116723Y-120893094D02*
X190926247Y-120940713D01*
X190926247Y-120940713D02*
X190783390Y-120940713D01*
X190783390Y-120940713D02*
X190592914Y-120893094D01*
X190592914Y-120893094D02*
X190497676Y-120845475D01*
X190497676Y-120845475D02*
X190402438Y-120750237D01*
X190402438Y-120750237D02*
X190354819Y-120607380D01*
X190354819Y-120607380D02*
X190354819Y-120512142D01*
X190354819Y-120512142D02*
X190402438Y-120369285D01*
X190402438Y-120369285D02*
X190450057Y-120321666D01*
X190354819Y-119416904D02*
X190354819Y-119893094D01*
X190354819Y-119893094D02*
X190831009Y-119940713D01*
X190831009Y-119940713D02*
X190783390Y-119893094D01*
X190783390Y-119893094D02*
X190735771Y-119797856D01*
X190735771Y-119797856D02*
X190735771Y-119559761D01*
X190735771Y-119559761D02*
X190783390Y-119464523D01*
X190783390Y-119464523D02*
X190831009Y-119416904D01*
X190831009Y-119416904D02*
X190926247Y-119369285D01*
X190926247Y-119369285D02*
X191164342Y-119369285D01*
X191164342Y-119369285D02*
X191259580Y-119416904D01*
X191259580Y-119416904D02*
X191307200Y-119464523D01*
X191307200Y-119464523D02*
X191354819Y-119559761D01*
X191354819Y-119559761D02*
X191354819Y-119797856D01*
X191354819Y-119797856D02*
X191307200Y-119893094D01*
X191307200Y-119893094D02*
X191259580Y-119940713D01*
X192838095Y-109354819D02*
X192838095Y-110164342D01*
X192838095Y-110164342D02*
X192885714Y-110259580D01*
X192885714Y-110259580D02*
X192933333Y-110307200D01*
X192933333Y-110307200D02*
X193028571Y-110354819D01*
X193028571Y-110354819D02*
X193219047Y-110354819D01*
X193219047Y-110354819D02*
X193314285Y-110307200D01*
X193314285Y-110307200D02*
X193361904Y-110259580D01*
X193361904Y-110259580D02*
X193409523Y-110164342D01*
X193409523Y-110164342D02*
X193409523Y-109354819D01*
X194409523Y-110354819D02*
X193838095Y-110354819D01*
X194123809Y-110354819D02*
X194123809Y-109354819D01*
X194123809Y-109354819D02*
X194028571Y-109497676D01*
X194028571Y-109497676D02*
X193933333Y-109592914D01*
X193933333Y-109592914D02*
X193838095Y-109640533D01*
X173866666Y-137854819D02*
X173866666Y-138569104D01*
X173866666Y-138569104D02*
X173819047Y-138711961D01*
X173819047Y-138711961D02*
X173723809Y-138807200D01*
X173723809Y-138807200D02*
X173580952Y-138854819D01*
X173580952Y-138854819D02*
X173485714Y-138854819D01*
X174342857Y-138854819D02*
X174342857Y-137854819D01*
X174342857Y-137854819D02*
X174723809Y-137854819D01*
X174723809Y-137854819D02*
X174819047Y-137902438D01*
X174819047Y-137902438D02*
X174866666Y-137950057D01*
X174866666Y-137950057D02*
X174914285Y-138045295D01*
X174914285Y-138045295D02*
X174914285Y-138188152D01*
X174914285Y-138188152D02*
X174866666Y-138283390D01*
X174866666Y-138283390D02*
X174819047Y-138331009D01*
X174819047Y-138331009D02*
X174723809Y-138378628D01*
X174723809Y-138378628D02*
X174342857Y-138378628D01*
X175819047Y-137854819D02*
X175342857Y-137854819D01*
X175342857Y-137854819D02*
X175295238Y-138331009D01*
X175295238Y-138331009D02*
X175342857Y-138283390D01*
X175342857Y-138283390D02*
X175438095Y-138235771D01*
X175438095Y-138235771D02*
X175676190Y-138235771D01*
X175676190Y-138235771D02*
X175771428Y-138283390D01*
X175771428Y-138283390D02*
X175819047Y-138331009D01*
X175819047Y-138331009D02*
X175866666Y-138426247D01*
X175866666Y-138426247D02*
X175866666Y-138664342D01*
X175866666Y-138664342D02*
X175819047Y-138759580D01*
X175819047Y-138759580D02*
X175771428Y-138807200D01*
X175771428Y-138807200D02*
X175676190Y-138854819D01*
X175676190Y-138854819D02*
X175438095Y-138854819D01*
X175438095Y-138854819D02*
X175342857Y-138807200D01*
X175342857Y-138807200D02*
X175295238Y-138759580D01*
X188433333Y-113254819D02*
X188100000Y-112778628D01*
X187861905Y-113254819D02*
X187861905Y-112254819D01*
X187861905Y-112254819D02*
X188242857Y-112254819D01*
X188242857Y-112254819D02*
X188338095Y-112302438D01*
X188338095Y-112302438D02*
X188385714Y-112350057D01*
X188385714Y-112350057D02*
X188433333Y-112445295D01*
X188433333Y-112445295D02*
X188433333Y-112588152D01*
X188433333Y-112588152D02*
X188385714Y-112683390D01*
X188385714Y-112683390D02*
X188338095Y-112731009D01*
X188338095Y-112731009D02*
X188242857Y-112778628D01*
X188242857Y-112778628D02*
X187861905Y-112778628D01*
X189385714Y-113254819D02*
X188814286Y-113254819D01*
X189100000Y-113254819D02*
X189100000Y-112254819D01*
X189100000Y-112254819D02*
X189004762Y-112397676D01*
X189004762Y-112397676D02*
X188909524Y-112492914D01*
X188909524Y-112492914D02*
X188814286Y-112540533D01*
X195699142Y-135554819D02*
X195365809Y-135078628D01*
X195127714Y-135554819D02*
X195127714Y-134554819D01*
X195127714Y-134554819D02*
X195508666Y-134554819D01*
X195508666Y-134554819D02*
X195603904Y-134602438D01*
X195603904Y-134602438D02*
X195651523Y-134650057D01*
X195651523Y-134650057D02*
X195699142Y-134745295D01*
X195699142Y-134745295D02*
X195699142Y-134888152D01*
X195699142Y-134888152D02*
X195651523Y-134983390D01*
X195651523Y-134983390D02*
X195603904Y-135031009D01*
X195603904Y-135031009D02*
X195508666Y-135078628D01*
X195508666Y-135078628D02*
X195127714Y-135078628D01*
X196651523Y-135554819D02*
X196080095Y-135554819D01*
X196365809Y-135554819D02*
X196365809Y-134554819D01*
X196365809Y-134554819D02*
X196270571Y-134697676D01*
X196270571Y-134697676D02*
X196175333Y-134792914D01*
X196175333Y-134792914D02*
X196080095Y-134840533D01*
X197032476Y-134650057D02*
X197080095Y-134602438D01*
X197080095Y-134602438D02*
X197175333Y-134554819D01*
X197175333Y-134554819D02*
X197413428Y-134554819D01*
X197413428Y-134554819D02*
X197508666Y-134602438D01*
X197508666Y-134602438D02*
X197556285Y-134650057D01*
X197556285Y-134650057D02*
X197603904Y-134745295D01*
X197603904Y-134745295D02*
X197603904Y-134840533D01*
X197603904Y-134840533D02*
X197556285Y-134983390D01*
X197556285Y-134983390D02*
X196984857Y-135554819D01*
X196984857Y-135554819D02*
X197603904Y-135554819D01*
X180357142Y-134359580D02*
X180309523Y-134407200D01*
X180309523Y-134407200D02*
X180166666Y-134454819D01*
X180166666Y-134454819D02*
X180071428Y-134454819D01*
X180071428Y-134454819D02*
X179928571Y-134407200D01*
X179928571Y-134407200D02*
X179833333Y-134311961D01*
X179833333Y-134311961D02*
X179785714Y-134216723D01*
X179785714Y-134216723D02*
X179738095Y-134026247D01*
X179738095Y-134026247D02*
X179738095Y-133883390D01*
X179738095Y-133883390D02*
X179785714Y-133692914D01*
X179785714Y-133692914D02*
X179833333Y-133597676D01*
X179833333Y-133597676D02*
X179928571Y-133502438D01*
X179928571Y-133502438D02*
X180071428Y-133454819D01*
X180071428Y-133454819D02*
X180166666Y-133454819D01*
X180166666Y-133454819D02*
X180309523Y-133502438D01*
X180309523Y-133502438D02*
X180357142Y-133550057D01*
X180738095Y-133550057D02*
X180785714Y-133502438D01*
X180785714Y-133502438D02*
X180880952Y-133454819D01*
X180880952Y-133454819D02*
X181119047Y-133454819D01*
X181119047Y-133454819D02*
X181214285Y-133502438D01*
X181214285Y-133502438D02*
X181261904Y-133550057D01*
X181261904Y-133550057D02*
X181309523Y-133645295D01*
X181309523Y-133645295D02*
X181309523Y-133740533D01*
X181309523Y-133740533D02*
X181261904Y-133883390D01*
X181261904Y-133883390D02*
X180690476Y-134454819D01*
X180690476Y-134454819D02*
X181309523Y-134454819D01*
X181642857Y-133454819D02*
X182261904Y-133454819D01*
X182261904Y-133454819D02*
X181928571Y-133835771D01*
X181928571Y-133835771D02*
X182071428Y-133835771D01*
X182071428Y-133835771D02*
X182166666Y-133883390D01*
X182166666Y-133883390D02*
X182214285Y-133931009D01*
X182214285Y-133931009D02*
X182261904Y-134026247D01*
X182261904Y-134026247D02*
X182261904Y-134264342D01*
X182261904Y-134264342D02*
X182214285Y-134359580D01*
X182214285Y-134359580D02*
X182166666Y-134407200D01*
X182166666Y-134407200D02*
X182071428Y-134454819D01*
X182071428Y-134454819D02*
X181785714Y-134454819D01*
X181785714Y-134454819D02*
X181690476Y-134407200D01*
X181690476Y-134407200D02*
X181642857Y-134359580D01*
X170857142Y-126559580D02*
X170809523Y-126607200D01*
X170809523Y-126607200D02*
X170666666Y-126654819D01*
X170666666Y-126654819D02*
X170571428Y-126654819D01*
X170571428Y-126654819D02*
X170428571Y-126607200D01*
X170428571Y-126607200D02*
X170333333Y-126511961D01*
X170333333Y-126511961D02*
X170285714Y-126416723D01*
X170285714Y-126416723D02*
X170238095Y-126226247D01*
X170238095Y-126226247D02*
X170238095Y-126083390D01*
X170238095Y-126083390D02*
X170285714Y-125892914D01*
X170285714Y-125892914D02*
X170333333Y-125797676D01*
X170333333Y-125797676D02*
X170428571Y-125702438D01*
X170428571Y-125702438D02*
X170571428Y-125654819D01*
X170571428Y-125654819D02*
X170666666Y-125654819D01*
X170666666Y-125654819D02*
X170809523Y-125702438D01*
X170809523Y-125702438D02*
X170857142Y-125750057D01*
X171809523Y-126654819D02*
X171238095Y-126654819D01*
X171523809Y-126654819D02*
X171523809Y-125654819D01*
X171523809Y-125654819D02*
X171428571Y-125797676D01*
X171428571Y-125797676D02*
X171333333Y-125892914D01*
X171333333Y-125892914D02*
X171238095Y-125940533D01*
X172380952Y-126083390D02*
X172285714Y-126035771D01*
X172285714Y-126035771D02*
X172238095Y-125988152D01*
X172238095Y-125988152D02*
X172190476Y-125892914D01*
X172190476Y-125892914D02*
X172190476Y-125845295D01*
X172190476Y-125845295D02*
X172238095Y-125750057D01*
X172238095Y-125750057D02*
X172285714Y-125702438D01*
X172285714Y-125702438D02*
X172380952Y-125654819D01*
X172380952Y-125654819D02*
X172571428Y-125654819D01*
X172571428Y-125654819D02*
X172666666Y-125702438D01*
X172666666Y-125702438D02*
X172714285Y-125750057D01*
X172714285Y-125750057D02*
X172761904Y-125845295D01*
X172761904Y-125845295D02*
X172761904Y-125892914D01*
X172761904Y-125892914D02*
X172714285Y-125988152D01*
X172714285Y-125988152D02*
X172666666Y-126035771D01*
X172666666Y-126035771D02*
X172571428Y-126083390D01*
X172571428Y-126083390D02*
X172380952Y-126083390D01*
X172380952Y-126083390D02*
X172285714Y-126131009D01*
X172285714Y-126131009D02*
X172238095Y-126178628D01*
X172238095Y-126178628D02*
X172190476Y-126273866D01*
X172190476Y-126273866D02*
X172190476Y-126464342D01*
X172190476Y-126464342D02*
X172238095Y-126559580D01*
X172238095Y-126559580D02*
X172285714Y-126607200D01*
X172285714Y-126607200D02*
X172380952Y-126654819D01*
X172380952Y-126654819D02*
X172571428Y-126654819D01*
X172571428Y-126654819D02*
X172666666Y-126607200D01*
X172666666Y-126607200D02*
X172714285Y-126559580D01*
X172714285Y-126559580D02*
X172761904Y-126464342D01*
X172761904Y-126464342D02*
X172761904Y-126273866D01*
X172761904Y-126273866D02*
X172714285Y-126178628D01*
X172714285Y-126178628D02*
X172666666Y-126131009D01*
X172666666Y-126131009D02*
X172571428Y-126083390D01*
X179938095Y-109354819D02*
X179938095Y-110164342D01*
X179938095Y-110164342D02*
X179985714Y-110259580D01*
X179985714Y-110259580D02*
X180033333Y-110307200D01*
X180033333Y-110307200D02*
X180128571Y-110354819D01*
X180128571Y-110354819D02*
X180319047Y-110354819D01*
X180319047Y-110354819D02*
X180414285Y-110307200D01*
X180414285Y-110307200D02*
X180461904Y-110259580D01*
X180461904Y-110259580D02*
X180509523Y-110164342D01*
X180509523Y-110164342D02*
X180509523Y-109354819D01*
X180890476Y-109354819D02*
X181509523Y-109354819D01*
X181509523Y-109354819D02*
X181176190Y-109735771D01*
X181176190Y-109735771D02*
X181319047Y-109735771D01*
X181319047Y-109735771D02*
X181414285Y-109783390D01*
X181414285Y-109783390D02*
X181461904Y-109831009D01*
X181461904Y-109831009D02*
X181509523Y-109926247D01*
X181509523Y-109926247D02*
X181509523Y-110164342D01*
X181509523Y-110164342D02*
X181461904Y-110259580D01*
X181461904Y-110259580D02*
X181414285Y-110307200D01*
X181414285Y-110307200D02*
X181319047Y-110354819D01*
X181319047Y-110354819D02*
X181033333Y-110354819D01*
X181033333Y-110354819D02*
X180938095Y-110307200D01*
X180938095Y-110307200D02*
X180890476Y-110259580D01*
X180357142Y-127959580D02*
X180309523Y-128007200D01*
X180309523Y-128007200D02*
X180166666Y-128054819D01*
X180166666Y-128054819D02*
X180071428Y-128054819D01*
X180071428Y-128054819D02*
X179928571Y-128007200D01*
X179928571Y-128007200D02*
X179833333Y-127911961D01*
X179833333Y-127911961D02*
X179785714Y-127816723D01*
X179785714Y-127816723D02*
X179738095Y-127626247D01*
X179738095Y-127626247D02*
X179738095Y-127483390D01*
X179738095Y-127483390D02*
X179785714Y-127292914D01*
X179785714Y-127292914D02*
X179833333Y-127197676D01*
X179833333Y-127197676D02*
X179928571Y-127102438D01*
X179928571Y-127102438D02*
X180071428Y-127054819D01*
X180071428Y-127054819D02*
X180166666Y-127054819D01*
X180166666Y-127054819D02*
X180309523Y-127102438D01*
X180309523Y-127102438D02*
X180357142Y-127150057D01*
X180738095Y-127150057D02*
X180785714Y-127102438D01*
X180785714Y-127102438D02*
X180880952Y-127054819D01*
X180880952Y-127054819D02*
X181119047Y-127054819D01*
X181119047Y-127054819D02*
X181214285Y-127102438D01*
X181214285Y-127102438D02*
X181261904Y-127150057D01*
X181261904Y-127150057D02*
X181309523Y-127245295D01*
X181309523Y-127245295D02*
X181309523Y-127340533D01*
X181309523Y-127340533D02*
X181261904Y-127483390D01*
X181261904Y-127483390D02*
X180690476Y-128054819D01*
X180690476Y-128054819D02*
X181309523Y-128054819D01*
X181690476Y-127150057D02*
X181738095Y-127102438D01*
X181738095Y-127102438D02*
X181833333Y-127054819D01*
X181833333Y-127054819D02*
X182071428Y-127054819D01*
X182071428Y-127054819D02*
X182166666Y-127102438D01*
X182166666Y-127102438D02*
X182214285Y-127150057D01*
X182214285Y-127150057D02*
X182261904Y-127245295D01*
X182261904Y-127245295D02*
X182261904Y-127340533D01*
X182261904Y-127340533D02*
X182214285Y-127483390D01*
X182214285Y-127483390D02*
X181642857Y-128054819D01*
X181642857Y-128054819D02*
X182261904Y-128054819D01*
X188559580Y-106966666D02*
X188607200Y-107014285D01*
X188607200Y-107014285D02*
X188654819Y-107157142D01*
X188654819Y-107157142D02*
X188654819Y-107252380D01*
X188654819Y-107252380D02*
X188607200Y-107395237D01*
X188607200Y-107395237D02*
X188511961Y-107490475D01*
X188511961Y-107490475D02*
X188416723Y-107538094D01*
X188416723Y-107538094D02*
X188226247Y-107585713D01*
X188226247Y-107585713D02*
X188083390Y-107585713D01*
X188083390Y-107585713D02*
X187892914Y-107538094D01*
X187892914Y-107538094D02*
X187797676Y-107490475D01*
X187797676Y-107490475D02*
X187702438Y-107395237D01*
X187702438Y-107395237D02*
X187654819Y-107252380D01*
X187654819Y-107252380D02*
X187654819Y-107157142D01*
X187654819Y-107157142D02*
X187702438Y-107014285D01*
X187702438Y-107014285D02*
X187750057Y-106966666D01*
X187654819Y-106633332D02*
X187654819Y-105966666D01*
X187654819Y-105966666D02*
X188654819Y-106395237D01*
X162328266Y-119518819D02*
X162328266Y-120233104D01*
X162328266Y-120233104D02*
X162280647Y-120375961D01*
X162280647Y-120375961D02*
X162185409Y-120471200D01*
X162185409Y-120471200D02*
X162042552Y-120518819D01*
X162042552Y-120518819D02*
X161947314Y-120518819D01*
X162756838Y-119614057D02*
X162804457Y-119566438D01*
X162804457Y-119566438D02*
X162899695Y-119518819D01*
X162899695Y-119518819D02*
X163137790Y-119518819D01*
X163137790Y-119518819D02*
X163233028Y-119566438D01*
X163233028Y-119566438D02*
X163280647Y-119614057D01*
X163280647Y-119614057D02*
X163328266Y-119709295D01*
X163328266Y-119709295D02*
X163328266Y-119804533D01*
X163328266Y-119804533D02*
X163280647Y-119947390D01*
X163280647Y-119947390D02*
X162709219Y-120518819D01*
X162709219Y-120518819D02*
X163328266Y-120518819D01*
X188738095Y-115054819D02*
X189309523Y-115054819D01*
X189023809Y-116054819D02*
X189023809Y-115054819D01*
X189642857Y-116054819D02*
X189642857Y-115054819D01*
X189642857Y-115054819D02*
X190023809Y-115054819D01*
X190023809Y-115054819D02*
X190119047Y-115102438D01*
X190119047Y-115102438D02*
X190166666Y-115150057D01*
X190166666Y-115150057D02*
X190214285Y-115245295D01*
X190214285Y-115245295D02*
X190214285Y-115388152D01*
X190214285Y-115388152D02*
X190166666Y-115483390D01*
X190166666Y-115483390D02*
X190119047Y-115531009D01*
X190119047Y-115531009D02*
X190023809Y-115578628D01*
X190023809Y-115578628D02*
X189642857Y-115578628D01*
X191166666Y-116054819D02*
X190595238Y-116054819D01*
X190880952Y-116054819D02*
X190880952Y-115054819D01*
X190880952Y-115054819D02*
X190785714Y-115197676D01*
X190785714Y-115197676D02*
X190690476Y-115292914D01*
X190690476Y-115292914D02*
X190595238Y-115340533D01*
X180059580Y-120266666D02*
X180107200Y-120314285D01*
X180107200Y-120314285D02*
X180154819Y-120457142D01*
X180154819Y-120457142D02*
X180154819Y-120552380D01*
X180154819Y-120552380D02*
X180107200Y-120695237D01*
X180107200Y-120695237D02*
X180011961Y-120790475D01*
X180011961Y-120790475D02*
X179916723Y-120838094D01*
X179916723Y-120838094D02*
X179726247Y-120885713D01*
X179726247Y-120885713D02*
X179583390Y-120885713D01*
X179583390Y-120885713D02*
X179392914Y-120838094D01*
X179392914Y-120838094D02*
X179297676Y-120790475D01*
X179297676Y-120790475D02*
X179202438Y-120695237D01*
X179202438Y-120695237D02*
X179154819Y-120552380D01*
X179154819Y-120552380D02*
X179154819Y-120457142D01*
X179154819Y-120457142D02*
X179202438Y-120314285D01*
X179202438Y-120314285D02*
X179250057Y-120266666D01*
X179250057Y-119885713D02*
X179202438Y-119838094D01*
X179202438Y-119838094D02*
X179154819Y-119742856D01*
X179154819Y-119742856D02*
X179154819Y-119504761D01*
X179154819Y-119504761D02*
X179202438Y-119409523D01*
X179202438Y-119409523D02*
X179250057Y-119361904D01*
X179250057Y-119361904D02*
X179345295Y-119314285D01*
X179345295Y-119314285D02*
X179440533Y-119314285D01*
X179440533Y-119314285D02*
X179583390Y-119361904D01*
X179583390Y-119361904D02*
X180154819Y-119933332D01*
X180154819Y-119933332D02*
X180154819Y-119314285D01*
X196133333Y-133154819D02*
X195800000Y-132678628D01*
X195561905Y-133154819D02*
X195561905Y-132154819D01*
X195561905Y-132154819D02*
X195942857Y-132154819D01*
X195942857Y-132154819D02*
X196038095Y-132202438D01*
X196038095Y-132202438D02*
X196085714Y-132250057D01*
X196085714Y-132250057D02*
X196133333Y-132345295D01*
X196133333Y-132345295D02*
X196133333Y-132488152D01*
X196133333Y-132488152D02*
X196085714Y-132583390D01*
X196085714Y-132583390D02*
X196038095Y-132631009D01*
X196038095Y-132631009D02*
X195942857Y-132678628D01*
X195942857Y-132678628D02*
X195561905Y-132678628D01*
X196609524Y-133154819D02*
X196800000Y-133154819D01*
X196800000Y-133154819D02*
X196895238Y-133107200D01*
X196895238Y-133107200D02*
X196942857Y-133059580D01*
X196942857Y-133059580D02*
X197038095Y-132916723D01*
X197038095Y-132916723D02*
X197085714Y-132726247D01*
X197085714Y-132726247D02*
X197085714Y-132345295D01*
X197085714Y-132345295D02*
X197038095Y-132250057D01*
X197038095Y-132250057D02*
X196990476Y-132202438D01*
X196990476Y-132202438D02*
X196895238Y-132154819D01*
X196895238Y-132154819D02*
X196704762Y-132154819D01*
X196704762Y-132154819D02*
X196609524Y-132202438D01*
X196609524Y-132202438D02*
X196561905Y-132250057D01*
X196561905Y-132250057D02*
X196514286Y-132345295D01*
X196514286Y-132345295D02*
X196514286Y-132583390D01*
X196514286Y-132583390D02*
X196561905Y-132678628D01*
X196561905Y-132678628D02*
X196609524Y-132726247D01*
X196609524Y-132726247D02*
X196704762Y-132773866D01*
X196704762Y-132773866D02*
X196895238Y-132773866D01*
X196895238Y-132773866D02*
X196990476Y-132726247D01*
X196990476Y-132726247D02*
X197038095Y-132678628D01*
X197038095Y-132678628D02*
X197085714Y-132583390D01*
X186066666Y-116954819D02*
X186066666Y-117669104D01*
X186066666Y-117669104D02*
X186019047Y-117811961D01*
X186019047Y-117811961D02*
X185923809Y-117907200D01*
X185923809Y-117907200D02*
X185780952Y-117954819D01*
X185780952Y-117954819D02*
X185685714Y-117954819D01*
X186542857Y-117954819D02*
X186542857Y-116954819D01*
X186542857Y-116954819D02*
X186923809Y-116954819D01*
X186923809Y-116954819D02*
X187019047Y-117002438D01*
X187019047Y-117002438D02*
X187066666Y-117050057D01*
X187066666Y-117050057D02*
X187114285Y-117145295D01*
X187114285Y-117145295D02*
X187114285Y-117288152D01*
X187114285Y-117288152D02*
X187066666Y-117383390D01*
X187066666Y-117383390D02*
X187019047Y-117431009D01*
X187019047Y-117431009D02*
X186923809Y-117478628D01*
X186923809Y-117478628D02*
X186542857Y-117478628D01*
X187685714Y-117383390D02*
X187590476Y-117335771D01*
X187590476Y-117335771D02*
X187542857Y-117288152D01*
X187542857Y-117288152D02*
X187495238Y-117192914D01*
X187495238Y-117192914D02*
X187495238Y-117145295D01*
X187495238Y-117145295D02*
X187542857Y-117050057D01*
X187542857Y-117050057D02*
X187590476Y-117002438D01*
X187590476Y-117002438D02*
X187685714Y-116954819D01*
X187685714Y-116954819D02*
X187876190Y-116954819D01*
X187876190Y-116954819D02*
X187971428Y-117002438D01*
X187971428Y-117002438D02*
X188019047Y-117050057D01*
X188019047Y-117050057D02*
X188066666Y-117145295D01*
X188066666Y-117145295D02*
X188066666Y-117192914D01*
X188066666Y-117192914D02*
X188019047Y-117288152D01*
X188019047Y-117288152D02*
X187971428Y-117335771D01*
X187971428Y-117335771D02*
X187876190Y-117383390D01*
X187876190Y-117383390D02*
X187685714Y-117383390D01*
X187685714Y-117383390D02*
X187590476Y-117431009D01*
X187590476Y-117431009D02*
X187542857Y-117478628D01*
X187542857Y-117478628D02*
X187495238Y-117573866D01*
X187495238Y-117573866D02*
X187495238Y-117764342D01*
X187495238Y-117764342D02*
X187542857Y-117859580D01*
X187542857Y-117859580D02*
X187590476Y-117907200D01*
X187590476Y-117907200D02*
X187685714Y-117954819D01*
X187685714Y-117954819D02*
X187876190Y-117954819D01*
X187876190Y-117954819D02*
X187971428Y-117907200D01*
X187971428Y-117907200D02*
X188019047Y-117859580D01*
X188019047Y-117859580D02*
X188066666Y-117764342D01*
X188066666Y-117764342D02*
X188066666Y-117573866D01*
X188066666Y-117573866D02*
X188019047Y-117478628D01*
X188019047Y-117478628D02*
X187971428Y-117431009D01*
X187971428Y-117431009D02*
X187876190Y-117383390D01*
X162150185Y-102576738D02*
X162150185Y-103291023D01*
X162150185Y-103291023D02*
X162102566Y-103433880D01*
X162102566Y-103433880D02*
X162007328Y-103529119D01*
X162007328Y-103529119D02*
X161864471Y-103576738D01*
X161864471Y-103576738D02*
X161769233Y-103576738D01*
X162531138Y-102576738D02*
X163150185Y-102576738D01*
X163150185Y-102576738D02*
X162816852Y-102957690D01*
X162816852Y-102957690D02*
X162959709Y-102957690D01*
X162959709Y-102957690D02*
X163054947Y-103005309D01*
X163054947Y-103005309D02*
X163102566Y-103052928D01*
X163102566Y-103052928D02*
X163150185Y-103148166D01*
X163150185Y-103148166D02*
X163150185Y-103386261D01*
X163150185Y-103386261D02*
X163102566Y-103481499D01*
X163102566Y-103481499D02*
X163054947Y-103529119D01*
X163054947Y-103529119D02*
X162959709Y-103576738D01*
X162959709Y-103576738D02*
X162673995Y-103576738D01*
X162673995Y-103576738D02*
X162578757Y-103529119D01*
X162578757Y-103529119D02*
X162531138Y-103481499D01*
X173057142Y-123754819D02*
X172723809Y-123278628D01*
X172485714Y-123754819D02*
X172485714Y-122754819D01*
X172485714Y-122754819D02*
X172866666Y-122754819D01*
X172866666Y-122754819D02*
X172961904Y-122802438D01*
X172961904Y-122802438D02*
X173009523Y-122850057D01*
X173009523Y-122850057D02*
X173057142Y-122945295D01*
X173057142Y-122945295D02*
X173057142Y-123088152D01*
X173057142Y-123088152D02*
X173009523Y-123183390D01*
X173009523Y-123183390D02*
X172961904Y-123231009D01*
X172961904Y-123231009D02*
X172866666Y-123278628D01*
X172866666Y-123278628D02*
X172485714Y-123278628D01*
X174009523Y-123754819D02*
X173438095Y-123754819D01*
X173723809Y-123754819D02*
X173723809Y-122754819D01*
X173723809Y-122754819D02*
X173628571Y-122897676D01*
X173628571Y-122897676D02*
X173533333Y-122992914D01*
X173533333Y-122992914D02*
X173438095Y-123040533D01*
X174342857Y-122754819D02*
X174961904Y-122754819D01*
X174961904Y-122754819D02*
X174628571Y-123135771D01*
X174628571Y-123135771D02*
X174771428Y-123135771D01*
X174771428Y-123135771D02*
X174866666Y-123183390D01*
X174866666Y-123183390D02*
X174914285Y-123231009D01*
X174914285Y-123231009D02*
X174961904Y-123326247D01*
X174961904Y-123326247D02*
X174961904Y-123564342D01*
X174961904Y-123564342D02*
X174914285Y-123659580D01*
X174914285Y-123659580D02*
X174866666Y-123707200D01*
X174866666Y-123707200D02*
X174771428Y-123754819D01*
X174771428Y-123754819D02*
X174485714Y-123754819D01*
X174485714Y-123754819D02*
X174390476Y-123707200D01*
X174390476Y-123707200D02*
X174342857Y-123659580D01*
X193959580Y-105266666D02*
X194007200Y-105314285D01*
X194007200Y-105314285D02*
X194054819Y-105457142D01*
X194054819Y-105457142D02*
X194054819Y-105552380D01*
X194054819Y-105552380D02*
X194007200Y-105695237D01*
X194007200Y-105695237D02*
X193911961Y-105790475D01*
X193911961Y-105790475D02*
X193816723Y-105838094D01*
X193816723Y-105838094D02*
X193626247Y-105885713D01*
X193626247Y-105885713D02*
X193483390Y-105885713D01*
X193483390Y-105885713D02*
X193292914Y-105838094D01*
X193292914Y-105838094D02*
X193197676Y-105790475D01*
X193197676Y-105790475D02*
X193102438Y-105695237D01*
X193102438Y-105695237D02*
X193054819Y-105552380D01*
X193054819Y-105552380D02*
X193054819Y-105457142D01*
X193054819Y-105457142D02*
X193102438Y-105314285D01*
X193102438Y-105314285D02*
X193150057Y-105266666D01*
X193388152Y-104409523D02*
X194054819Y-104409523D01*
X193007200Y-104647618D02*
X193721485Y-104885713D01*
X193721485Y-104885713D02*
X193721485Y-104266666D01*
X180959580Y-105942857D02*
X181007200Y-105990476D01*
X181007200Y-105990476D02*
X181054819Y-106133333D01*
X181054819Y-106133333D02*
X181054819Y-106228571D01*
X181054819Y-106228571D02*
X181007200Y-106371428D01*
X181007200Y-106371428D02*
X180911961Y-106466666D01*
X180911961Y-106466666D02*
X180816723Y-106514285D01*
X180816723Y-106514285D02*
X180626247Y-106561904D01*
X180626247Y-106561904D02*
X180483390Y-106561904D01*
X180483390Y-106561904D02*
X180292914Y-106514285D01*
X180292914Y-106514285D02*
X180197676Y-106466666D01*
X180197676Y-106466666D02*
X180102438Y-106371428D01*
X180102438Y-106371428D02*
X180054819Y-106228571D01*
X180054819Y-106228571D02*
X180054819Y-106133333D01*
X180054819Y-106133333D02*
X180102438Y-105990476D01*
X180102438Y-105990476D02*
X180150057Y-105942857D01*
X181054819Y-104990476D02*
X181054819Y-105561904D01*
X181054819Y-105276190D02*
X180054819Y-105276190D01*
X180054819Y-105276190D02*
X180197676Y-105371428D01*
X180197676Y-105371428D02*
X180292914Y-105466666D01*
X180292914Y-105466666D02*
X180340533Y-105561904D01*
X180054819Y-104085714D02*
X180054819Y-104561904D01*
X180054819Y-104561904D02*
X180531009Y-104609523D01*
X180531009Y-104609523D02*
X180483390Y-104561904D01*
X180483390Y-104561904D02*
X180435771Y-104466666D01*
X180435771Y-104466666D02*
X180435771Y-104228571D01*
X180435771Y-104228571D02*
X180483390Y-104133333D01*
X180483390Y-104133333D02*
X180531009Y-104085714D01*
X180531009Y-104085714D02*
X180626247Y-104038095D01*
X180626247Y-104038095D02*
X180864342Y-104038095D01*
X180864342Y-104038095D02*
X180959580Y-104085714D01*
X180959580Y-104085714D02*
X181007200Y-104133333D01*
X181007200Y-104133333D02*
X181054819Y-104228571D01*
X181054819Y-104228571D02*
X181054819Y-104466666D01*
X181054819Y-104466666D02*
X181007200Y-104561904D01*
X181007200Y-104561904D02*
X180959580Y-104609523D01*
X188638095Y-124054819D02*
X189209523Y-124054819D01*
X188923809Y-125054819D02*
X188923809Y-124054819D01*
X189542857Y-125054819D02*
X189542857Y-124054819D01*
X189542857Y-124054819D02*
X189923809Y-124054819D01*
X189923809Y-124054819D02*
X190019047Y-124102438D01*
X190019047Y-124102438D02*
X190066666Y-124150057D01*
X190066666Y-124150057D02*
X190114285Y-124245295D01*
X190114285Y-124245295D02*
X190114285Y-124388152D01*
X190114285Y-124388152D02*
X190066666Y-124483390D01*
X190066666Y-124483390D02*
X190019047Y-124531009D01*
X190019047Y-124531009D02*
X189923809Y-124578628D01*
X189923809Y-124578628D02*
X189542857Y-124578628D01*
X190495238Y-124150057D02*
X190542857Y-124102438D01*
X190542857Y-124102438D02*
X190638095Y-124054819D01*
X190638095Y-124054819D02*
X190876190Y-124054819D01*
X190876190Y-124054819D02*
X190971428Y-124102438D01*
X190971428Y-124102438D02*
X191019047Y-124150057D01*
X191019047Y-124150057D02*
X191066666Y-124245295D01*
X191066666Y-124245295D02*
X191066666Y-124340533D01*
X191066666Y-124340533D02*
X191019047Y-124483390D01*
X191019047Y-124483390D02*
X190447619Y-125054819D01*
X190447619Y-125054819D02*
X191066666Y-125054819D01*
X178366666Y-116954819D02*
X178366666Y-117669104D01*
X178366666Y-117669104D02*
X178319047Y-117811961D01*
X178319047Y-117811961D02*
X178223809Y-117907200D01*
X178223809Y-117907200D02*
X178080952Y-117954819D01*
X178080952Y-117954819D02*
X177985714Y-117954819D01*
X178842857Y-117954819D02*
X178842857Y-116954819D01*
X178842857Y-116954819D02*
X179223809Y-116954819D01*
X179223809Y-116954819D02*
X179319047Y-117002438D01*
X179319047Y-117002438D02*
X179366666Y-117050057D01*
X179366666Y-117050057D02*
X179414285Y-117145295D01*
X179414285Y-117145295D02*
X179414285Y-117288152D01*
X179414285Y-117288152D02*
X179366666Y-117383390D01*
X179366666Y-117383390D02*
X179319047Y-117431009D01*
X179319047Y-117431009D02*
X179223809Y-117478628D01*
X179223809Y-117478628D02*
X178842857Y-117478628D01*
X179890476Y-117954819D02*
X180080952Y-117954819D01*
X180080952Y-117954819D02*
X180176190Y-117907200D01*
X180176190Y-117907200D02*
X180223809Y-117859580D01*
X180223809Y-117859580D02*
X180319047Y-117716723D01*
X180319047Y-117716723D02*
X180366666Y-117526247D01*
X180366666Y-117526247D02*
X180366666Y-117145295D01*
X180366666Y-117145295D02*
X180319047Y-117050057D01*
X180319047Y-117050057D02*
X180271428Y-117002438D01*
X180271428Y-117002438D02*
X180176190Y-116954819D01*
X180176190Y-116954819D02*
X179985714Y-116954819D01*
X179985714Y-116954819D02*
X179890476Y-117002438D01*
X179890476Y-117002438D02*
X179842857Y-117050057D01*
X179842857Y-117050057D02*
X179795238Y-117145295D01*
X179795238Y-117145295D02*
X179795238Y-117383390D01*
X179795238Y-117383390D02*
X179842857Y-117478628D01*
X179842857Y-117478628D02*
X179890476Y-117526247D01*
X179890476Y-117526247D02*
X179985714Y-117573866D01*
X179985714Y-117573866D02*
X180176190Y-117573866D01*
X180176190Y-117573866D02*
X180271428Y-117526247D01*
X180271428Y-117526247D02*
X180319047Y-117478628D01*
X180319047Y-117478628D02*
X180366666Y-117383390D01*
X195559580Y-112166666D02*
X195607200Y-112214285D01*
X195607200Y-112214285D02*
X195654819Y-112357142D01*
X195654819Y-112357142D02*
X195654819Y-112452380D01*
X195654819Y-112452380D02*
X195607200Y-112595237D01*
X195607200Y-112595237D02*
X195511961Y-112690475D01*
X195511961Y-112690475D02*
X195416723Y-112738094D01*
X195416723Y-112738094D02*
X195226247Y-112785713D01*
X195226247Y-112785713D02*
X195083390Y-112785713D01*
X195083390Y-112785713D02*
X194892914Y-112738094D01*
X194892914Y-112738094D02*
X194797676Y-112690475D01*
X194797676Y-112690475D02*
X194702438Y-112595237D01*
X194702438Y-112595237D02*
X194654819Y-112452380D01*
X194654819Y-112452380D02*
X194654819Y-112357142D01*
X194654819Y-112357142D02*
X194702438Y-112214285D01*
X194702438Y-112214285D02*
X194750057Y-112166666D01*
X194654819Y-111833332D02*
X194654819Y-111214285D01*
X194654819Y-111214285D02*
X195035771Y-111547618D01*
X195035771Y-111547618D02*
X195035771Y-111404761D01*
X195035771Y-111404761D02*
X195083390Y-111309523D01*
X195083390Y-111309523D02*
X195131009Y-111261904D01*
X195131009Y-111261904D02*
X195226247Y-111214285D01*
X195226247Y-111214285D02*
X195464342Y-111214285D01*
X195464342Y-111214285D02*
X195559580Y-111261904D01*
X195559580Y-111261904D02*
X195607200Y-111309523D01*
X195607200Y-111309523D02*
X195654819Y-111404761D01*
X195654819Y-111404761D02*
X195654819Y-111690475D01*
X195654819Y-111690475D02*
X195607200Y-111785713D01*
X195607200Y-111785713D02*
X195559580Y-111833332D01*
X170857142Y-125254819D02*
X170523809Y-124778628D01*
X170285714Y-125254819D02*
X170285714Y-124254819D01*
X170285714Y-124254819D02*
X170666666Y-124254819D01*
X170666666Y-124254819D02*
X170761904Y-124302438D01*
X170761904Y-124302438D02*
X170809523Y-124350057D01*
X170809523Y-124350057D02*
X170857142Y-124445295D01*
X170857142Y-124445295D02*
X170857142Y-124588152D01*
X170857142Y-124588152D02*
X170809523Y-124683390D01*
X170809523Y-124683390D02*
X170761904Y-124731009D01*
X170761904Y-124731009D02*
X170666666Y-124778628D01*
X170666666Y-124778628D02*
X170285714Y-124778628D01*
X171809523Y-125254819D02*
X171238095Y-125254819D01*
X171523809Y-125254819D02*
X171523809Y-124254819D01*
X171523809Y-124254819D02*
X171428571Y-124397676D01*
X171428571Y-124397676D02*
X171333333Y-124492914D01*
X171333333Y-124492914D02*
X171238095Y-124540533D01*
X172666666Y-124254819D02*
X172476190Y-124254819D01*
X172476190Y-124254819D02*
X172380952Y-124302438D01*
X172380952Y-124302438D02*
X172333333Y-124350057D01*
X172333333Y-124350057D02*
X172238095Y-124492914D01*
X172238095Y-124492914D02*
X172190476Y-124683390D01*
X172190476Y-124683390D02*
X172190476Y-125064342D01*
X172190476Y-125064342D02*
X172238095Y-125159580D01*
X172238095Y-125159580D02*
X172285714Y-125207200D01*
X172285714Y-125207200D02*
X172380952Y-125254819D01*
X172380952Y-125254819D02*
X172571428Y-125254819D01*
X172571428Y-125254819D02*
X172666666Y-125207200D01*
X172666666Y-125207200D02*
X172714285Y-125159580D01*
X172714285Y-125159580D02*
X172761904Y-125064342D01*
X172761904Y-125064342D02*
X172761904Y-124826247D01*
X172761904Y-124826247D02*
X172714285Y-124731009D01*
X172714285Y-124731009D02*
X172666666Y-124683390D01*
X172666666Y-124683390D02*
X172571428Y-124635771D01*
X172571428Y-124635771D02*
X172380952Y-124635771D01*
X172380952Y-124635771D02*
X172285714Y-124683390D01*
X172285714Y-124683390D02*
X172238095Y-124731009D01*
X172238095Y-124731009D02*
X172190476Y-124826247D01*
X176133333Y-120354819D02*
X175800000Y-119878628D01*
X175561905Y-120354819D02*
X175561905Y-119354819D01*
X175561905Y-119354819D02*
X175942857Y-119354819D01*
X175942857Y-119354819D02*
X176038095Y-119402438D01*
X176038095Y-119402438D02*
X176085714Y-119450057D01*
X176085714Y-119450057D02*
X176133333Y-119545295D01*
X176133333Y-119545295D02*
X176133333Y-119688152D01*
X176133333Y-119688152D02*
X176085714Y-119783390D01*
X176085714Y-119783390D02*
X176038095Y-119831009D01*
X176038095Y-119831009D02*
X175942857Y-119878628D01*
X175942857Y-119878628D02*
X175561905Y-119878628D01*
X176466667Y-119354819D02*
X177085714Y-119354819D01*
X177085714Y-119354819D02*
X176752381Y-119735771D01*
X176752381Y-119735771D02*
X176895238Y-119735771D01*
X176895238Y-119735771D02*
X176990476Y-119783390D01*
X176990476Y-119783390D02*
X177038095Y-119831009D01*
X177038095Y-119831009D02*
X177085714Y-119926247D01*
X177085714Y-119926247D02*
X177085714Y-120164342D01*
X177085714Y-120164342D02*
X177038095Y-120259580D01*
X177038095Y-120259580D02*
X176990476Y-120307200D01*
X176990476Y-120307200D02*
X176895238Y-120354819D01*
X176895238Y-120354819D02*
X176609524Y-120354819D01*
X176609524Y-120354819D02*
X176514286Y-120307200D01*
X176514286Y-120307200D02*
X176466667Y-120259580D01*
X182359580Y-112642857D02*
X182407200Y-112690476D01*
X182407200Y-112690476D02*
X182454819Y-112833333D01*
X182454819Y-112833333D02*
X182454819Y-112928571D01*
X182454819Y-112928571D02*
X182407200Y-113071428D01*
X182407200Y-113071428D02*
X182311961Y-113166666D01*
X182311961Y-113166666D02*
X182216723Y-113214285D01*
X182216723Y-113214285D02*
X182026247Y-113261904D01*
X182026247Y-113261904D02*
X181883390Y-113261904D01*
X181883390Y-113261904D02*
X181692914Y-113214285D01*
X181692914Y-113214285D02*
X181597676Y-113166666D01*
X181597676Y-113166666D02*
X181502438Y-113071428D01*
X181502438Y-113071428D02*
X181454819Y-112928571D01*
X181454819Y-112928571D02*
X181454819Y-112833333D01*
X181454819Y-112833333D02*
X181502438Y-112690476D01*
X181502438Y-112690476D02*
X181550057Y-112642857D01*
X182454819Y-111690476D02*
X182454819Y-112261904D01*
X182454819Y-111976190D02*
X181454819Y-111976190D01*
X181454819Y-111976190D02*
X181597676Y-112071428D01*
X181597676Y-112071428D02*
X181692914Y-112166666D01*
X181692914Y-112166666D02*
X181740533Y-112261904D01*
X181788152Y-110833333D02*
X182454819Y-110833333D01*
X181407200Y-111071428D02*
X182121485Y-111309523D01*
X182121485Y-111309523D02*
X182121485Y-110690476D01*
X190162166Y-103654819D02*
X190162166Y-104369104D01*
X190162166Y-104369104D02*
X190114547Y-104511961D01*
X190114547Y-104511961D02*
X190019309Y-104607200D01*
X190019309Y-104607200D02*
X189876452Y-104654819D01*
X189876452Y-104654819D02*
X189781214Y-104654819D01*
X190638357Y-104654819D02*
X190638357Y-103654819D01*
X190638357Y-103654819D02*
X191019309Y-103654819D01*
X191019309Y-103654819D02*
X191114547Y-103702438D01*
X191114547Y-103702438D02*
X191162166Y-103750057D01*
X191162166Y-103750057D02*
X191209785Y-103845295D01*
X191209785Y-103845295D02*
X191209785Y-103988152D01*
X191209785Y-103988152D02*
X191162166Y-104083390D01*
X191162166Y-104083390D02*
X191114547Y-104131009D01*
X191114547Y-104131009D02*
X191019309Y-104178628D01*
X191019309Y-104178628D02*
X190638357Y-104178628D01*
X192162166Y-104654819D02*
X191590738Y-104654819D01*
X191876452Y-104654819D02*
X191876452Y-103654819D01*
X191876452Y-103654819D02*
X191781214Y-103797676D01*
X191781214Y-103797676D02*
X191685976Y-103892914D01*
X191685976Y-103892914D02*
X191590738Y-103940533D01*
X189333333Y-129359580D02*
X189285714Y-129407200D01*
X189285714Y-129407200D02*
X189142857Y-129454819D01*
X189142857Y-129454819D02*
X189047619Y-129454819D01*
X189047619Y-129454819D02*
X188904762Y-129407200D01*
X188904762Y-129407200D02*
X188809524Y-129311961D01*
X188809524Y-129311961D02*
X188761905Y-129216723D01*
X188761905Y-129216723D02*
X188714286Y-129026247D01*
X188714286Y-129026247D02*
X188714286Y-128883390D01*
X188714286Y-128883390D02*
X188761905Y-128692914D01*
X188761905Y-128692914D02*
X188809524Y-128597676D01*
X188809524Y-128597676D02*
X188904762Y-128502438D01*
X188904762Y-128502438D02*
X189047619Y-128454819D01*
X189047619Y-128454819D02*
X189142857Y-128454819D01*
X189142857Y-128454819D02*
X189285714Y-128502438D01*
X189285714Y-128502438D02*
X189333333Y-128550057D01*
X189809524Y-129454819D02*
X190000000Y-129454819D01*
X190000000Y-129454819D02*
X190095238Y-129407200D01*
X190095238Y-129407200D02*
X190142857Y-129359580D01*
X190142857Y-129359580D02*
X190238095Y-129216723D01*
X190238095Y-129216723D02*
X190285714Y-129026247D01*
X190285714Y-129026247D02*
X190285714Y-128645295D01*
X190285714Y-128645295D02*
X190238095Y-128550057D01*
X190238095Y-128550057D02*
X190190476Y-128502438D01*
X190190476Y-128502438D02*
X190095238Y-128454819D01*
X190095238Y-128454819D02*
X189904762Y-128454819D01*
X189904762Y-128454819D02*
X189809524Y-128502438D01*
X189809524Y-128502438D02*
X189761905Y-128550057D01*
X189761905Y-128550057D02*
X189714286Y-128645295D01*
X189714286Y-128645295D02*
X189714286Y-128883390D01*
X189714286Y-128883390D02*
X189761905Y-128978628D01*
X189761905Y-128978628D02*
X189809524Y-129026247D01*
X189809524Y-129026247D02*
X189904762Y-129073866D01*
X189904762Y-129073866D02*
X190095238Y-129073866D01*
X190095238Y-129073866D02*
X190190476Y-129026247D01*
X190190476Y-129026247D02*
X190238095Y-128978628D01*
X190238095Y-128978628D02*
X190285714Y-128883390D01*
X171054819Y-106833333D02*
X171769104Y-106833333D01*
X171769104Y-106833333D02*
X171911961Y-106880952D01*
X171911961Y-106880952D02*
X172007200Y-106976190D01*
X172007200Y-106976190D02*
X172054819Y-107119047D01*
X172054819Y-107119047D02*
X172054819Y-107214285D01*
X172054819Y-106357142D02*
X171054819Y-106357142D01*
X171054819Y-106357142D02*
X171054819Y-105976190D01*
X171054819Y-105976190D02*
X171102438Y-105880952D01*
X171102438Y-105880952D02*
X171150057Y-105833333D01*
X171150057Y-105833333D02*
X171245295Y-105785714D01*
X171245295Y-105785714D02*
X171388152Y-105785714D01*
X171388152Y-105785714D02*
X171483390Y-105833333D01*
X171483390Y-105833333D02*
X171531009Y-105880952D01*
X171531009Y-105880952D02*
X171578628Y-105976190D01*
X171578628Y-105976190D02*
X171578628Y-106357142D01*
X171388152Y-104928571D02*
X172054819Y-104928571D01*
X171007200Y-105166666D02*
X171721485Y-105404761D01*
X171721485Y-105404761D02*
X171721485Y-104785714D01*
X189233333Y-132759580D02*
X189185714Y-132807200D01*
X189185714Y-132807200D02*
X189042857Y-132854819D01*
X189042857Y-132854819D02*
X188947619Y-132854819D01*
X188947619Y-132854819D02*
X188804762Y-132807200D01*
X188804762Y-132807200D02*
X188709524Y-132711961D01*
X188709524Y-132711961D02*
X188661905Y-132616723D01*
X188661905Y-132616723D02*
X188614286Y-132426247D01*
X188614286Y-132426247D02*
X188614286Y-132283390D01*
X188614286Y-132283390D02*
X188661905Y-132092914D01*
X188661905Y-132092914D02*
X188709524Y-131997676D01*
X188709524Y-131997676D02*
X188804762Y-131902438D01*
X188804762Y-131902438D02*
X188947619Y-131854819D01*
X188947619Y-131854819D02*
X189042857Y-131854819D01*
X189042857Y-131854819D02*
X189185714Y-131902438D01*
X189185714Y-131902438D02*
X189233333Y-131950057D01*
X189804762Y-132283390D02*
X189709524Y-132235771D01*
X189709524Y-132235771D02*
X189661905Y-132188152D01*
X189661905Y-132188152D02*
X189614286Y-132092914D01*
X189614286Y-132092914D02*
X189614286Y-132045295D01*
X189614286Y-132045295D02*
X189661905Y-131950057D01*
X189661905Y-131950057D02*
X189709524Y-131902438D01*
X189709524Y-131902438D02*
X189804762Y-131854819D01*
X189804762Y-131854819D02*
X189995238Y-131854819D01*
X189995238Y-131854819D02*
X190090476Y-131902438D01*
X190090476Y-131902438D02*
X190138095Y-131950057D01*
X190138095Y-131950057D02*
X190185714Y-132045295D01*
X190185714Y-132045295D02*
X190185714Y-132092914D01*
X190185714Y-132092914D02*
X190138095Y-132188152D01*
X190138095Y-132188152D02*
X190090476Y-132235771D01*
X190090476Y-132235771D02*
X189995238Y-132283390D01*
X189995238Y-132283390D02*
X189804762Y-132283390D01*
X189804762Y-132283390D02*
X189709524Y-132331009D01*
X189709524Y-132331009D02*
X189661905Y-132378628D01*
X189661905Y-132378628D02*
X189614286Y-132473866D01*
X189614286Y-132473866D02*
X189614286Y-132664342D01*
X189614286Y-132664342D02*
X189661905Y-132759580D01*
X189661905Y-132759580D02*
X189709524Y-132807200D01*
X189709524Y-132807200D02*
X189804762Y-132854819D01*
X189804762Y-132854819D02*
X189995238Y-132854819D01*
X189995238Y-132854819D02*
X190090476Y-132807200D01*
X190090476Y-132807200D02*
X190138095Y-132759580D01*
X190138095Y-132759580D02*
X190185714Y-132664342D01*
X190185714Y-132664342D02*
X190185714Y-132473866D01*
X190185714Y-132473866D02*
X190138095Y-132378628D01*
X190138095Y-132378628D02*
X190090476Y-132331009D01*
X190090476Y-132331009D02*
X189995238Y-132283390D01*
X177108666Y-103454819D02*
X177108666Y-104169104D01*
X177108666Y-104169104D02*
X177061047Y-104311961D01*
X177061047Y-104311961D02*
X176965809Y-104407200D01*
X176965809Y-104407200D02*
X176822952Y-104454819D01*
X176822952Y-104454819D02*
X176727714Y-104454819D01*
X177584857Y-104454819D02*
X177584857Y-103454819D01*
X177584857Y-103454819D02*
X177965809Y-103454819D01*
X177965809Y-103454819D02*
X178061047Y-103502438D01*
X178061047Y-103502438D02*
X178108666Y-103550057D01*
X178108666Y-103550057D02*
X178156285Y-103645295D01*
X178156285Y-103645295D02*
X178156285Y-103788152D01*
X178156285Y-103788152D02*
X178108666Y-103883390D01*
X178108666Y-103883390D02*
X178061047Y-103931009D01*
X178061047Y-103931009D02*
X177965809Y-103978628D01*
X177965809Y-103978628D02*
X177584857Y-103978628D01*
X178489619Y-103454819D02*
X179108666Y-103454819D01*
X179108666Y-103454819D02*
X178775333Y-103835771D01*
X178775333Y-103835771D02*
X178918190Y-103835771D01*
X178918190Y-103835771D02*
X179013428Y-103883390D01*
X179013428Y-103883390D02*
X179061047Y-103931009D01*
X179061047Y-103931009D02*
X179108666Y-104026247D01*
X179108666Y-104026247D02*
X179108666Y-104264342D01*
X179108666Y-104264342D02*
X179061047Y-104359580D01*
X179061047Y-104359580D02*
X179013428Y-104407200D01*
X179013428Y-104407200D02*
X178918190Y-104454819D01*
X178918190Y-104454819D02*
X178632476Y-104454819D01*
X178632476Y-104454819D02*
X178537238Y-104407200D01*
X178537238Y-104407200D02*
X178489619Y-104359580D01*
X196966666Y-119554819D02*
X196966666Y-120269104D01*
X196966666Y-120269104D02*
X196919047Y-120411961D01*
X196919047Y-120411961D02*
X196823809Y-120507200D01*
X196823809Y-120507200D02*
X196680952Y-120554819D01*
X196680952Y-120554819D02*
X196585714Y-120554819D01*
X197442857Y-120554819D02*
X197442857Y-119554819D01*
X197442857Y-119554819D02*
X197823809Y-119554819D01*
X197823809Y-119554819D02*
X197919047Y-119602438D01*
X197919047Y-119602438D02*
X197966666Y-119650057D01*
X197966666Y-119650057D02*
X198014285Y-119745295D01*
X198014285Y-119745295D02*
X198014285Y-119888152D01*
X198014285Y-119888152D02*
X197966666Y-119983390D01*
X197966666Y-119983390D02*
X197919047Y-120031009D01*
X197919047Y-120031009D02*
X197823809Y-120078628D01*
X197823809Y-120078628D02*
X197442857Y-120078628D01*
X198871428Y-119554819D02*
X198680952Y-119554819D01*
X198680952Y-119554819D02*
X198585714Y-119602438D01*
X198585714Y-119602438D02*
X198538095Y-119650057D01*
X198538095Y-119650057D02*
X198442857Y-119792914D01*
X198442857Y-119792914D02*
X198395238Y-119983390D01*
X198395238Y-119983390D02*
X198395238Y-120364342D01*
X198395238Y-120364342D02*
X198442857Y-120459580D01*
X198442857Y-120459580D02*
X198490476Y-120507200D01*
X198490476Y-120507200D02*
X198585714Y-120554819D01*
X198585714Y-120554819D02*
X198776190Y-120554819D01*
X198776190Y-120554819D02*
X198871428Y-120507200D01*
X198871428Y-120507200D02*
X198919047Y-120459580D01*
X198919047Y-120459580D02*
X198966666Y-120364342D01*
X198966666Y-120364342D02*
X198966666Y-120126247D01*
X198966666Y-120126247D02*
X198919047Y-120031009D01*
X198919047Y-120031009D02*
X198871428Y-119983390D01*
X198871428Y-119983390D02*
X198776190Y-119935771D01*
X198776190Y-119935771D02*
X198585714Y-119935771D01*
X198585714Y-119935771D02*
X198490476Y-119983390D01*
X198490476Y-119983390D02*
X198442857Y-120031009D01*
X198442857Y-120031009D02*
X198395238Y-120126247D01*
X183666666Y-111454819D02*
X183666666Y-112169104D01*
X183666666Y-112169104D02*
X183619047Y-112311961D01*
X183619047Y-112311961D02*
X183523809Y-112407200D01*
X183523809Y-112407200D02*
X183380952Y-112454819D01*
X183380952Y-112454819D02*
X183285714Y-112454819D01*
X184142857Y-112454819D02*
X184142857Y-111454819D01*
X184142857Y-111454819D02*
X184523809Y-111454819D01*
X184523809Y-111454819D02*
X184619047Y-111502438D01*
X184619047Y-111502438D02*
X184666666Y-111550057D01*
X184666666Y-111550057D02*
X184714285Y-111645295D01*
X184714285Y-111645295D02*
X184714285Y-111788152D01*
X184714285Y-111788152D02*
X184666666Y-111883390D01*
X184666666Y-111883390D02*
X184619047Y-111931009D01*
X184619047Y-111931009D02*
X184523809Y-111978628D01*
X184523809Y-111978628D02*
X184142857Y-111978628D01*
X185095238Y-111550057D02*
X185142857Y-111502438D01*
X185142857Y-111502438D02*
X185238095Y-111454819D01*
X185238095Y-111454819D02*
X185476190Y-111454819D01*
X185476190Y-111454819D02*
X185571428Y-111502438D01*
X185571428Y-111502438D02*
X185619047Y-111550057D01*
X185619047Y-111550057D02*
X185666666Y-111645295D01*
X185666666Y-111645295D02*
X185666666Y-111740533D01*
X185666666Y-111740533D02*
X185619047Y-111883390D01*
X185619047Y-111883390D02*
X185047619Y-112454819D01*
X185047619Y-112454819D02*
X185666666Y-112454819D01*
X175138095Y-115054819D02*
X175709523Y-115054819D01*
X175423809Y-116054819D02*
X175423809Y-115054819D01*
X176042857Y-116054819D02*
X176042857Y-115054819D01*
X176042857Y-115054819D02*
X176423809Y-115054819D01*
X176423809Y-115054819D02*
X176519047Y-115102438D01*
X176519047Y-115102438D02*
X176566666Y-115150057D01*
X176566666Y-115150057D02*
X176614285Y-115245295D01*
X176614285Y-115245295D02*
X176614285Y-115388152D01*
X176614285Y-115388152D02*
X176566666Y-115483390D01*
X176566666Y-115483390D02*
X176519047Y-115531009D01*
X176519047Y-115531009D02*
X176423809Y-115578628D01*
X176423809Y-115578628D02*
X176042857Y-115578628D01*
X177519047Y-115054819D02*
X177042857Y-115054819D01*
X177042857Y-115054819D02*
X176995238Y-115531009D01*
X176995238Y-115531009D02*
X177042857Y-115483390D01*
X177042857Y-115483390D02*
X177138095Y-115435771D01*
X177138095Y-115435771D02*
X177376190Y-115435771D01*
X177376190Y-115435771D02*
X177471428Y-115483390D01*
X177471428Y-115483390D02*
X177519047Y-115531009D01*
X177519047Y-115531009D02*
X177566666Y-115626247D01*
X177566666Y-115626247D02*
X177566666Y-115864342D01*
X177566666Y-115864342D02*
X177519047Y-115959580D01*
X177519047Y-115959580D02*
X177471428Y-116007200D01*
X177471428Y-116007200D02*
X177376190Y-116054819D01*
X177376190Y-116054819D02*
X177138095Y-116054819D01*
X177138095Y-116054819D02*
X177042857Y-116007200D01*
X177042857Y-116007200D02*
X176995238Y-115959580D01*
X196175333Y-130554819D02*
X195842000Y-130078628D01*
X195603905Y-130554819D02*
X195603905Y-129554819D01*
X195603905Y-129554819D02*
X195984857Y-129554819D01*
X195984857Y-129554819D02*
X196080095Y-129602438D01*
X196080095Y-129602438D02*
X196127714Y-129650057D01*
X196127714Y-129650057D02*
X196175333Y-129745295D01*
X196175333Y-129745295D02*
X196175333Y-129888152D01*
X196175333Y-129888152D02*
X196127714Y-129983390D01*
X196127714Y-129983390D02*
X196080095Y-130031009D01*
X196080095Y-130031009D02*
X195984857Y-130078628D01*
X195984857Y-130078628D02*
X195603905Y-130078628D01*
X196746762Y-129983390D02*
X196651524Y-129935771D01*
X196651524Y-129935771D02*
X196603905Y-129888152D01*
X196603905Y-129888152D02*
X196556286Y-129792914D01*
X196556286Y-129792914D02*
X196556286Y-129745295D01*
X196556286Y-129745295D02*
X196603905Y-129650057D01*
X196603905Y-129650057D02*
X196651524Y-129602438D01*
X196651524Y-129602438D02*
X196746762Y-129554819D01*
X196746762Y-129554819D02*
X196937238Y-129554819D01*
X196937238Y-129554819D02*
X197032476Y-129602438D01*
X197032476Y-129602438D02*
X197080095Y-129650057D01*
X197080095Y-129650057D02*
X197127714Y-129745295D01*
X197127714Y-129745295D02*
X197127714Y-129792914D01*
X197127714Y-129792914D02*
X197080095Y-129888152D01*
X197080095Y-129888152D02*
X197032476Y-129935771D01*
X197032476Y-129935771D02*
X196937238Y-129983390D01*
X196937238Y-129983390D02*
X196746762Y-129983390D01*
X196746762Y-129983390D02*
X196651524Y-130031009D01*
X196651524Y-130031009D02*
X196603905Y-130078628D01*
X196603905Y-130078628D02*
X196556286Y-130173866D01*
X196556286Y-130173866D02*
X196556286Y-130364342D01*
X196556286Y-130364342D02*
X196603905Y-130459580D01*
X196603905Y-130459580D02*
X196651524Y-130507200D01*
X196651524Y-130507200D02*
X196746762Y-130554819D01*
X196746762Y-130554819D02*
X196937238Y-130554819D01*
X196937238Y-130554819D02*
X197032476Y-130507200D01*
X197032476Y-130507200D02*
X197080095Y-130459580D01*
X197080095Y-130459580D02*
X197127714Y-130364342D01*
X197127714Y-130364342D02*
X197127714Y-130173866D01*
X197127714Y-130173866D02*
X197080095Y-130078628D01*
X197080095Y-130078628D02*
X197032476Y-130031009D01*
X197032476Y-130031009D02*
X196937238Y-129983390D01*
X182266666Y-105331009D02*
X181933333Y-105331009D01*
X181933333Y-105854819D02*
X181933333Y-104854819D01*
X181933333Y-104854819D02*
X182409523Y-104854819D01*
X183123809Y-105331009D02*
X183266666Y-105378628D01*
X183266666Y-105378628D02*
X183314285Y-105426247D01*
X183314285Y-105426247D02*
X183361904Y-105521485D01*
X183361904Y-105521485D02*
X183361904Y-105664342D01*
X183361904Y-105664342D02*
X183314285Y-105759580D01*
X183314285Y-105759580D02*
X183266666Y-105807200D01*
X183266666Y-105807200D02*
X183171428Y-105854819D01*
X183171428Y-105854819D02*
X182790476Y-105854819D01*
X182790476Y-105854819D02*
X182790476Y-104854819D01*
X182790476Y-104854819D02*
X183123809Y-104854819D01*
X183123809Y-104854819D02*
X183219047Y-104902438D01*
X183219047Y-104902438D02*
X183266666Y-104950057D01*
X183266666Y-104950057D02*
X183314285Y-105045295D01*
X183314285Y-105045295D02*
X183314285Y-105140533D01*
X183314285Y-105140533D02*
X183266666Y-105235771D01*
X183266666Y-105235771D02*
X183219047Y-105283390D01*
X183219047Y-105283390D02*
X183123809Y-105331009D01*
X183123809Y-105331009D02*
X182790476Y-105331009D01*
X183742857Y-104950057D02*
X183790476Y-104902438D01*
X183790476Y-104902438D02*
X183885714Y-104854819D01*
X183885714Y-104854819D02*
X184123809Y-104854819D01*
X184123809Y-104854819D02*
X184219047Y-104902438D01*
X184219047Y-104902438D02*
X184266666Y-104950057D01*
X184266666Y-104950057D02*
X184314285Y-105045295D01*
X184314285Y-105045295D02*
X184314285Y-105140533D01*
X184314285Y-105140533D02*
X184266666Y-105283390D01*
X184266666Y-105283390D02*
X183695238Y-105854819D01*
X183695238Y-105854819D02*
X184314285Y-105854819D01*
X175659580Y-106642857D02*
X175707200Y-106690476D01*
X175707200Y-106690476D02*
X175754819Y-106833333D01*
X175754819Y-106833333D02*
X175754819Y-106928571D01*
X175754819Y-106928571D02*
X175707200Y-107071428D01*
X175707200Y-107071428D02*
X175611961Y-107166666D01*
X175611961Y-107166666D02*
X175516723Y-107214285D01*
X175516723Y-107214285D02*
X175326247Y-107261904D01*
X175326247Y-107261904D02*
X175183390Y-107261904D01*
X175183390Y-107261904D02*
X174992914Y-107214285D01*
X174992914Y-107214285D02*
X174897676Y-107166666D01*
X174897676Y-107166666D02*
X174802438Y-107071428D01*
X174802438Y-107071428D02*
X174754819Y-106928571D01*
X174754819Y-106928571D02*
X174754819Y-106833333D01*
X174754819Y-106833333D02*
X174802438Y-106690476D01*
X174802438Y-106690476D02*
X174850057Y-106642857D01*
X175754819Y-105690476D02*
X175754819Y-106261904D01*
X175754819Y-105976190D02*
X174754819Y-105976190D01*
X174754819Y-105976190D02*
X174897676Y-106071428D01*
X174897676Y-106071428D02*
X174992914Y-106166666D01*
X174992914Y-106166666D02*
X175040533Y-106261904D01*
X174754819Y-104833333D02*
X174754819Y-105023809D01*
X174754819Y-105023809D02*
X174802438Y-105119047D01*
X174802438Y-105119047D02*
X174850057Y-105166666D01*
X174850057Y-105166666D02*
X174992914Y-105261904D01*
X174992914Y-105261904D02*
X175183390Y-105309523D01*
X175183390Y-105309523D02*
X175564342Y-105309523D01*
X175564342Y-105309523D02*
X175659580Y-105261904D01*
X175659580Y-105261904D02*
X175707200Y-105214285D01*
X175707200Y-105214285D02*
X175754819Y-105119047D01*
X175754819Y-105119047D02*
X175754819Y-104928571D01*
X175754819Y-104928571D02*
X175707200Y-104833333D01*
X175707200Y-104833333D02*
X175659580Y-104785714D01*
X175659580Y-104785714D02*
X175564342Y-104738095D01*
X175564342Y-104738095D02*
X175326247Y-104738095D01*
X175326247Y-104738095D02*
X175231009Y-104785714D01*
X175231009Y-104785714D02*
X175183390Y-104833333D01*
X175183390Y-104833333D02*
X175135771Y-104928571D01*
X175135771Y-104928571D02*
X175135771Y-105119047D01*
X175135771Y-105119047D02*
X175183390Y-105214285D01*
X175183390Y-105214285D02*
X175231009Y-105261904D01*
X175231009Y-105261904D02*
X175326247Y-105309523D01*
X170957142Y-135354819D02*
X170623809Y-134878628D01*
X170385714Y-135354819D02*
X170385714Y-134354819D01*
X170385714Y-134354819D02*
X170766666Y-134354819D01*
X170766666Y-134354819D02*
X170861904Y-134402438D01*
X170861904Y-134402438D02*
X170909523Y-134450057D01*
X170909523Y-134450057D02*
X170957142Y-134545295D01*
X170957142Y-134545295D02*
X170957142Y-134688152D01*
X170957142Y-134688152D02*
X170909523Y-134783390D01*
X170909523Y-134783390D02*
X170861904Y-134831009D01*
X170861904Y-134831009D02*
X170766666Y-134878628D01*
X170766666Y-134878628D02*
X170385714Y-134878628D01*
X171909523Y-135354819D02*
X171338095Y-135354819D01*
X171623809Y-135354819D02*
X171623809Y-134354819D01*
X171623809Y-134354819D02*
X171528571Y-134497676D01*
X171528571Y-134497676D02*
X171433333Y-134592914D01*
X171433333Y-134592914D02*
X171338095Y-134640533D01*
X172766666Y-134688152D02*
X172766666Y-135354819D01*
X172528571Y-134307200D02*
X172290476Y-135021485D01*
X172290476Y-135021485D02*
X172909523Y-135021485D01*
X187254819Y-106966666D02*
X186778628Y-107299999D01*
X187254819Y-107538094D02*
X186254819Y-107538094D01*
X186254819Y-107538094D02*
X186254819Y-107157142D01*
X186254819Y-107157142D02*
X186302438Y-107061904D01*
X186302438Y-107061904D02*
X186350057Y-107014285D01*
X186350057Y-107014285D02*
X186445295Y-106966666D01*
X186445295Y-106966666D02*
X186588152Y-106966666D01*
X186588152Y-106966666D02*
X186683390Y-107014285D01*
X186683390Y-107014285D02*
X186731009Y-107061904D01*
X186731009Y-107061904D02*
X186778628Y-107157142D01*
X186778628Y-107157142D02*
X186778628Y-107538094D01*
X186350057Y-106585713D02*
X186302438Y-106538094D01*
X186302438Y-106538094D02*
X186254819Y-106442856D01*
X186254819Y-106442856D02*
X186254819Y-106204761D01*
X186254819Y-106204761D02*
X186302438Y-106109523D01*
X186302438Y-106109523D02*
X186350057Y-106061904D01*
X186350057Y-106061904D02*
X186445295Y-106014285D01*
X186445295Y-106014285D02*
X186540533Y-106014285D01*
X186540533Y-106014285D02*
X186683390Y-106061904D01*
X186683390Y-106061904D02*
X187254819Y-106633332D01*
X187254819Y-106633332D02*
X187254819Y-106014285D01*
X196175333Y-122926019D02*
X195842000Y-122449828D01*
X195603905Y-122926019D02*
X195603905Y-121926019D01*
X195603905Y-121926019D02*
X195984857Y-121926019D01*
X195984857Y-121926019D02*
X196080095Y-121973638D01*
X196080095Y-121973638D02*
X196127714Y-122021257D01*
X196127714Y-122021257D02*
X196175333Y-122116495D01*
X196175333Y-122116495D02*
X196175333Y-122259352D01*
X196175333Y-122259352D02*
X196127714Y-122354590D01*
X196127714Y-122354590D02*
X196080095Y-122402209D01*
X196080095Y-122402209D02*
X195984857Y-122449828D01*
X195984857Y-122449828D02*
X195603905Y-122449828D01*
X197032476Y-122259352D02*
X197032476Y-122926019D01*
X196794381Y-121878400D02*
X196556286Y-122592685D01*
X196556286Y-122592685D02*
X197175333Y-122592685D01*
X180357142Y-132759580D02*
X180309523Y-132807200D01*
X180309523Y-132807200D02*
X180166666Y-132854819D01*
X180166666Y-132854819D02*
X180071428Y-132854819D01*
X180071428Y-132854819D02*
X179928571Y-132807200D01*
X179928571Y-132807200D02*
X179833333Y-132711961D01*
X179833333Y-132711961D02*
X179785714Y-132616723D01*
X179785714Y-132616723D02*
X179738095Y-132426247D01*
X179738095Y-132426247D02*
X179738095Y-132283390D01*
X179738095Y-132283390D02*
X179785714Y-132092914D01*
X179785714Y-132092914D02*
X179833333Y-131997676D01*
X179833333Y-131997676D02*
X179928571Y-131902438D01*
X179928571Y-131902438D02*
X180071428Y-131854819D01*
X180071428Y-131854819D02*
X180166666Y-131854819D01*
X180166666Y-131854819D02*
X180309523Y-131902438D01*
X180309523Y-131902438D02*
X180357142Y-131950057D01*
X181309523Y-132854819D02*
X180738095Y-132854819D01*
X181023809Y-132854819D02*
X181023809Y-131854819D01*
X181023809Y-131854819D02*
X180928571Y-131997676D01*
X180928571Y-131997676D02*
X180833333Y-132092914D01*
X180833333Y-132092914D02*
X180738095Y-132140533D01*
X181642857Y-131854819D02*
X182309523Y-131854819D01*
X182309523Y-131854819D02*
X181880952Y-132854819D01*
X170957142Y-133959580D02*
X170909523Y-134007200D01*
X170909523Y-134007200D02*
X170766666Y-134054819D01*
X170766666Y-134054819D02*
X170671428Y-134054819D01*
X170671428Y-134054819D02*
X170528571Y-134007200D01*
X170528571Y-134007200D02*
X170433333Y-133911961D01*
X170433333Y-133911961D02*
X170385714Y-133816723D01*
X170385714Y-133816723D02*
X170338095Y-133626247D01*
X170338095Y-133626247D02*
X170338095Y-133483390D01*
X170338095Y-133483390D02*
X170385714Y-133292914D01*
X170385714Y-133292914D02*
X170433333Y-133197676D01*
X170433333Y-133197676D02*
X170528571Y-133102438D01*
X170528571Y-133102438D02*
X170671428Y-133054819D01*
X170671428Y-133054819D02*
X170766666Y-133054819D01*
X170766666Y-133054819D02*
X170909523Y-133102438D01*
X170909523Y-133102438D02*
X170957142Y-133150057D01*
X171338095Y-133150057D02*
X171385714Y-133102438D01*
X171385714Y-133102438D02*
X171480952Y-133054819D01*
X171480952Y-133054819D02*
X171719047Y-133054819D01*
X171719047Y-133054819D02*
X171814285Y-133102438D01*
X171814285Y-133102438D02*
X171861904Y-133150057D01*
X171861904Y-133150057D02*
X171909523Y-133245295D01*
X171909523Y-133245295D02*
X171909523Y-133340533D01*
X171909523Y-133340533D02*
X171861904Y-133483390D01*
X171861904Y-133483390D02*
X171290476Y-134054819D01*
X171290476Y-134054819D02*
X171909523Y-134054819D01*
X172861904Y-134054819D02*
X172290476Y-134054819D01*
X172576190Y-134054819D02*
X172576190Y-133054819D01*
X172576190Y-133054819D02*
X172480952Y-133197676D01*
X172480952Y-133197676D02*
X172385714Y-133292914D01*
X172385714Y-133292914D02*
X172290476Y-133340533D01*
X196175333Y-125654819D02*
X195842000Y-125178628D01*
X195603905Y-125654819D02*
X195603905Y-124654819D01*
X195603905Y-124654819D02*
X195984857Y-124654819D01*
X195984857Y-124654819D02*
X196080095Y-124702438D01*
X196080095Y-124702438D02*
X196127714Y-124750057D01*
X196127714Y-124750057D02*
X196175333Y-124845295D01*
X196175333Y-124845295D02*
X196175333Y-124988152D01*
X196175333Y-124988152D02*
X196127714Y-125083390D01*
X196127714Y-125083390D02*
X196080095Y-125131009D01*
X196080095Y-125131009D02*
X195984857Y-125178628D01*
X195984857Y-125178628D02*
X195603905Y-125178628D01*
X197032476Y-124654819D02*
X196842000Y-124654819D01*
X196842000Y-124654819D02*
X196746762Y-124702438D01*
X196746762Y-124702438D02*
X196699143Y-124750057D01*
X196699143Y-124750057D02*
X196603905Y-124892914D01*
X196603905Y-124892914D02*
X196556286Y-125083390D01*
X196556286Y-125083390D02*
X196556286Y-125464342D01*
X196556286Y-125464342D02*
X196603905Y-125559580D01*
X196603905Y-125559580D02*
X196651524Y-125607200D01*
X196651524Y-125607200D02*
X196746762Y-125654819D01*
X196746762Y-125654819D02*
X196937238Y-125654819D01*
X196937238Y-125654819D02*
X197032476Y-125607200D01*
X197032476Y-125607200D02*
X197080095Y-125559580D01*
X197080095Y-125559580D02*
X197127714Y-125464342D01*
X197127714Y-125464342D02*
X197127714Y-125226247D01*
X197127714Y-125226247D02*
X197080095Y-125131009D01*
X197080095Y-125131009D02*
X197032476Y-125083390D01*
X197032476Y-125083390D02*
X196937238Y-125035771D01*
X196937238Y-125035771D02*
X196746762Y-125035771D01*
X196746762Y-125035771D02*
X196651524Y-125083390D01*
X196651524Y-125083390D02*
X196603905Y-125131009D01*
X196603905Y-125131009D02*
X196556286Y-125226247D01*
D12*
%TO.C,C25*%
X177798820Y-125423200D02*
X178079980Y-125423200D01*
X177798820Y-126443200D02*
X178079980Y-126443200D01*
%TO.C,C1*%
X183247000Y-120304580D02*
X183247000Y-120023420D01*
X184267000Y-120304580D02*
X184267000Y-120023420D01*
%TO.C,TP3*%
X193282800Y-135116800D02*
X191882800Y-135116800D01*
X193282800Y-133716800D02*
X193282800Y-135116800D01*
X191882800Y-135116800D02*
X191882800Y-133716800D01*
X191882800Y-133716800D02*
X193282800Y-133716800D01*
%TO.C,C6*%
X186180000Y-120295580D02*
X186180000Y-120014420D01*
X187200000Y-120295580D02*
X187200000Y-120014420D01*
%TO.C,C20*%
X177446681Y-130100261D02*
X177446681Y-129819101D01*
X176426681Y-130100261D02*
X176426681Y-129819101D01*
D13*
%TO.C,U2*%
X183544000Y-123616000D02*
X183544000Y-124363500D01*
X183544000Y-123616000D02*
X184416500Y-123616000D01*
X183544000Y-126606000D02*
X183544000Y-125858500D01*
X183544000Y-126606000D02*
X184416500Y-126606000D01*
X187034000Y-123616000D02*
X186161500Y-123616000D01*
X187034000Y-123616000D02*
X187034000Y-124363500D01*
X187034000Y-126606000D02*
X186161500Y-126606000D01*
X187034000Y-126606000D02*
X187034000Y-125858500D01*
D14*
X187364500Y-126111000D02*
G75*
G02*
X187164500Y-126111000I-100000J0D01*
G01*
X187164500Y-126111000D02*
G75*
G02*
X187364500Y-126111000I100000J0D01*
G01*
D13*
%TO.C,U4*%
X195803200Y-118340000D02*
X194463200Y-118340000D01*
X195803200Y-116460000D02*
X195803200Y-118340000D01*
X194463200Y-118340000D02*
X194463200Y-116460000D01*
X194463200Y-116460000D02*
X195803200Y-116460000D01*
D12*
%TO.C,R7*%
X196104742Y-128357100D02*
X196579258Y-128357100D01*
X196104742Y-129402100D02*
X196579258Y-129402100D01*
%TO.C,C19*%
X195883620Y-114653600D02*
X196164780Y-114653600D01*
X195883620Y-115673600D02*
X196164780Y-115673600D01*
%TO.C,R10*%
X173213500Y-109457258D02*
X173213500Y-108982742D01*
X174258500Y-109457258D02*
X174258500Y-108982742D01*
%TO.C,TP4*%
X191679600Y-126452400D02*
X193079600Y-126452400D01*
X191679600Y-127852400D02*
X191679600Y-126452400D01*
X193079600Y-126452400D02*
X193079600Y-127852400D01*
X193079600Y-127852400D02*
X191679600Y-127852400D01*
%TO.C,J4*%
X199457000Y-108398000D02*
X200787000Y-108398000D01*
X199457000Y-109728000D02*
X199457000Y-108398000D01*
X199457000Y-110998000D02*
X199457000Y-138998000D01*
X199457000Y-110998000D02*
X202117000Y-110998000D01*
X199457000Y-138998000D02*
X202117000Y-138998000D01*
X202117000Y-110998000D02*
X202117000Y-138998000D01*
%TO.C,R15*%
X174811739Y-128585981D02*
X174337223Y-128585981D01*
X174811739Y-129630981D02*
X174337223Y-129630981D01*
%TO.C,FB1*%
X196579258Y-106106700D02*
X196104742Y-106106700D01*
X196579258Y-107151700D02*
X196104742Y-107151700D01*
%TO.C,R5*%
X178037258Y-111999500D02*
X177562742Y-111999500D01*
X178037258Y-113044500D02*
X177562742Y-113044500D01*
%TO.C,JP7*%
X176111600Y-126496800D02*
X176111600Y-127096800D01*
X175411600Y-127796800D02*
X174011600Y-127796800D01*
X174011600Y-125796800D02*
X175411600Y-125796800D01*
X173311600Y-127096800D02*
X173311600Y-126496800D01*
X176111600Y-127096800D02*
G75*
G02*
X175411600Y-127796800I-699999J-1D01*
G01*
X175411600Y-125796800D02*
G75*
G02*
X176111600Y-126496800I1J-699999D01*
G01*
X174011600Y-127796800D02*
G75*
G02*
X173311600Y-127096800I0J700000D01*
G01*
X173311600Y-126496800D02*
G75*
G02*
X174011600Y-125796800I700000J0D01*
G01*
%TO.C,R17*%
X176551858Y-134961100D02*
X176077342Y-134961100D01*
X176551858Y-136006100D02*
X176077342Y-136006100D01*
%TO.C,R18*%
X176513258Y-124931700D02*
X176038742Y-124931700D01*
X176513258Y-123886700D02*
X176038742Y-123886700D01*
%TO.C,C5*%
X187704000Y-120295580D02*
X187704000Y-120014420D01*
X188724000Y-120295580D02*
X188724000Y-120014420D01*
%TO.C,U1*%
X189387000Y-109733500D02*
X189387000Y-108933500D01*
X189387000Y-109733500D02*
X189387000Y-110533500D01*
X192507000Y-109733500D02*
X192507000Y-108933500D01*
X192507000Y-109733500D02*
X192507000Y-110533500D01*
X192787000Y-108673500D02*
X192457000Y-108433500D01*
X192787000Y-108193500D01*
X192787000Y-108673500D01*
G36*
X192787000Y-108673500D02*
G01*
X192457000Y-108433500D01*
X192787000Y-108193500D01*
X192787000Y-108673500D01*
G37*
%TO.C,JP5*%
X176141600Y-132643600D02*
X176141600Y-133243600D01*
X175441600Y-133943600D02*
X174041600Y-133943600D01*
X174041600Y-131943600D02*
X175441600Y-131943600D01*
X173341600Y-133243600D02*
X173341600Y-132643600D01*
X176141600Y-133243600D02*
G75*
G02*
X175441600Y-133943600I-700000J0D01*
G01*
X175441600Y-131943600D02*
G75*
G02*
X176141600Y-132643600I0J-700000D01*
G01*
X174041600Y-133943600D02*
G75*
G02*
X173341600Y-133243600I-1J699999D01*
G01*
X173341600Y-132643600D02*
G75*
G02*
X174041600Y-131943600I699999J1D01*
G01*
%TO.C,R1*%
X190991258Y-113298500D02*
X190516742Y-113298500D01*
X190991258Y-112253500D02*
X190516742Y-112253500D01*
%TO.C,R12*%
X196104742Y-135824700D02*
X196579258Y-135824700D01*
X196104742Y-136869700D02*
X196579258Y-136869700D01*
%TO.C,C23*%
X177798820Y-134469600D02*
X178079980Y-134469600D01*
X177798820Y-133449600D02*
X178079980Y-133449600D01*
%TO.C,C18*%
X171372901Y-130173281D02*
X171654061Y-130173281D01*
X171372901Y-131193281D02*
X171654061Y-131193281D01*
%TO.C,U3*%
X176316000Y-109606500D02*
X176316000Y-108806500D01*
X176316000Y-109606500D02*
X176316000Y-110406500D01*
X179436000Y-109606500D02*
X179436000Y-108806500D01*
X179436000Y-109606500D02*
X179436000Y-110406500D01*
X179716000Y-108546500D02*
X179386000Y-108306500D01*
X179716000Y-108066500D01*
X179716000Y-108546500D01*
G36*
X179716000Y-108546500D02*
G01*
X179386000Y-108306500D01*
X179716000Y-108066500D01*
X179716000Y-108546500D01*
G37*
%TO.C,C22*%
X177798820Y-126998000D02*
X178079980Y-126998000D01*
X177798820Y-128018000D02*
X178079980Y-128018000D01*
%TO.C,C7*%
X188724000Y-109347580D02*
X188724000Y-109066420D01*
X187704000Y-109347580D02*
X187704000Y-109066420D01*
%TO.C,TP1*%
X187006000Y-114870000D02*
X188406000Y-114870000D01*
X187006000Y-116270000D02*
X187006000Y-114870000D01*
X188406000Y-114870000D02*
X188406000Y-116270000D01*
X188406000Y-116270000D02*
X187006000Y-116270000D01*
%TO.C,C2*%
X181596000Y-120291580D02*
X181596000Y-120010420D01*
X182616000Y-120291580D02*
X182616000Y-120010420D01*
%TO.C,R9*%
X196104742Y-133335500D02*
X196579258Y-133335500D01*
X196104742Y-134380500D02*
X196579258Y-134380500D01*
%TO.C,JP8*%
X183531000Y-116890000D02*
X183531000Y-115490000D01*
X184231000Y-114790000D02*
X184831000Y-114790000D01*
X184831000Y-117590000D02*
X184231000Y-117590000D01*
X185531000Y-115490000D02*
X185531000Y-116890000D01*
X183531000Y-115490000D02*
G75*
G02*
X184231000Y-114790000I699999J1D01*
G01*
X184231000Y-117590000D02*
G75*
G02*
X183531000Y-116890000I0J700000D01*
G01*
X184831000Y-114790000D02*
G75*
G02*
X185531000Y-115490000I1J-699999D01*
G01*
X185531000Y-116890000D02*
G75*
G02*
X184831000Y-117590000I-700000J0D01*
G01*
%TO.C,R13*%
X174799539Y-131205781D02*
X174325023Y-131205781D01*
X174799539Y-130160781D02*
X174325023Y-130160781D01*
%TO.C,C4*%
X193038000Y-107568420D02*
X193038000Y-107849580D01*
X194058000Y-107568420D02*
X194058000Y-107849580D01*
%TO.C,C15*%
X180155000Y-107822420D02*
X180155000Y-108103580D01*
X181175000Y-107822420D02*
X181175000Y-108103580D01*
%TO.C,TP2*%
X190700000Y-126734800D02*
X189300000Y-126734800D01*
X190700000Y-125334800D02*
X190700000Y-126734800D01*
X189300000Y-126734800D02*
X189300000Y-125334800D01*
X189300000Y-125334800D02*
X190700000Y-125334800D01*
%TO.C,JP9*%
X180610000Y-116905000D02*
X180610000Y-115505000D01*
X181310000Y-114805000D02*
X181910000Y-114805000D01*
X181910000Y-117605000D02*
X181310000Y-117605000D01*
X182610000Y-115505000D02*
X182610000Y-116905000D01*
X180610000Y-115505000D02*
G75*
G02*
X181310000Y-114805000I699999J1D01*
G01*
X181310000Y-117605000D02*
G75*
G02*
X180610000Y-116905000I0J700000D01*
G01*
X181910000Y-114805000D02*
G75*
G02*
X182610000Y-115505000I1J-699999D01*
G01*
X182610000Y-116905000D02*
G75*
G02*
X181910000Y-117605000I-700000J0D01*
G01*
%TO.C,C3*%
X193038000Y-112154580D02*
X193038000Y-111873420D01*
X194058000Y-112154580D02*
X194058000Y-111873420D01*
%TO.C,R16*%
X171277023Y-128106981D02*
X171751539Y-128106981D01*
X171277023Y-127061981D02*
X171751539Y-127061981D01*
%TO.C,R3*%
X176564058Y-121782100D02*
X176089542Y-121782100D01*
X176564058Y-120737100D02*
X176089542Y-120737100D01*
%TO.C,C14*%
X181104000Y-111887580D02*
X181104000Y-111606420D01*
X180084000Y-111887580D02*
X180084000Y-111606420D01*
%TO.C,JP1*%
X189595500Y-106302000D02*
X189595500Y-105702000D01*
X190295500Y-105002000D02*
X191695500Y-105002000D01*
X191695500Y-107002000D02*
X190295500Y-107002000D01*
X192395500Y-105702000D02*
X192395500Y-106302000D01*
X189595500Y-105702000D02*
G75*
G02*
X190295500Y-105002000I700000J0D01*
G01*
X190295500Y-107002000D02*
G75*
G02*
X189595500Y-106302000I0J700000D01*
G01*
X191695500Y-105002000D02*
G75*
G02*
X192395500Y-105702000I1J-699999D01*
G01*
X192395500Y-106302000D02*
G75*
G02*
X191695500Y-107002000I-699999J-1D01*
G01*
%TO.C,C9*%
X191680220Y-129542000D02*
X191961380Y-129542000D01*
X191680220Y-128522000D02*
X191961380Y-128522000D01*
%TO.C,JP4*%
X171150000Y-107820000D02*
X171750000Y-107820000D01*
X172450000Y-108520000D02*
X172450000Y-109920000D01*
X170450000Y-109920000D02*
X170450000Y-108520000D01*
X171750000Y-110620000D02*
X171150000Y-110620000D01*
X171750000Y-107820000D02*
G75*
G02*
X172450000Y-108520000I1J-699999D01*
G01*
X170450000Y-108520000D02*
G75*
G02*
X171150000Y-107820000I699999J1D01*
G01*
X172450000Y-109920000D02*
G75*
G02*
X171750000Y-110620000I-700000J0D01*
G01*
X171150000Y-110620000D02*
G75*
G02*
X170450000Y-109920000I0J700000D01*
G01*
%TO.C,C8*%
X191680220Y-131824000D02*
X191961380Y-131824000D01*
X191680220Y-132844000D02*
X191961380Y-132844000D01*
%TO.C,JP3*%
X176542000Y-106091000D02*
X176542000Y-105491000D01*
X177242000Y-104791000D02*
X178642000Y-104791000D01*
X178642000Y-106791000D02*
X177242000Y-106791000D01*
X179342000Y-105491000D02*
X179342000Y-106091000D01*
X176542000Y-105491000D02*
G75*
G02*
X177242000Y-104791000I700000J0D01*
G01*
X177242000Y-106791000D02*
G75*
G02*
X176542000Y-106091000I0J700000D01*
G01*
X178642000Y-104791000D02*
G75*
G02*
X179342000Y-105491000I1J-699999D01*
G01*
X179342000Y-106091000D02*
G75*
G02*
X178642000Y-106791000I-699999J-1D01*
G01*
%TO.C,JP6*%
X195700000Y-121000000D02*
X194300000Y-121000000D01*
X193600000Y-120300000D02*
X193600000Y-119700000D01*
X196400000Y-119700000D02*
X196400000Y-120300000D01*
X194300000Y-119000000D02*
X195700000Y-119000000D01*
X194300000Y-121000000D02*
G75*
G02*
X193600000Y-120300000I0J700000D01*
G01*
X196400000Y-120300000D02*
G75*
G02*
X195700000Y-121000000I-699999J-1D01*
G01*
X193600000Y-119700000D02*
G75*
G02*
X194300000Y-119000000I700000J0D01*
G01*
X195700000Y-119000000D02*
G75*
G02*
X196400000Y-119700000I1J-699999D01*
G01*
%TO.C,JP2*%
X184104000Y-107932000D02*
X184704000Y-107932000D01*
X185404000Y-108632000D02*
X185404000Y-110032000D01*
X183404000Y-110032000D02*
X183404000Y-108632000D01*
X184704000Y-110732000D02*
X184104000Y-110732000D01*
X184704000Y-107932000D02*
G75*
G02*
X185404000Y-108632000I1J-699999D01*
G01*
X183404000Y-108632000D02*
G75*
G02*
X184104000Y-107932000I699999J1D01*
G01*
X185404000Y-110032000D02*
G75*
G02*
X184704000Y-110732000I-700000J0D01*
G01*
X184104000Y-110732000D02*
G75*
G02*
X183404000Y-110032000I0J700000D01*
G01*
%TO.C,TP5*%
X177862000Y-114870000D02*
X179262000Y-114870000D01*
X177862000Y-116270000D02*
X177862000Y-114870000D01*
X179262000Y-114870000D02*
X179262000Y-116270000D01*
X179262000Y-116270000D02*
X177862000Y-116270000D01*
%TO.C,R8*%
X196104742Y-130846300D02*
X196579258Y-130846300D01*
X196104742Y-131891300D02*
X196579258Y-131891300D01*
%TO.C,FB2*%
X183320458Y-106208300D02*
X182845942Y-106208300D01*
X183320458Y-107253300D02*
X182845942Y-107253300D01*
%TO.C,C16*%
X175770000Y-109360580D02*
X175770000Y-109079420D01*
X174750000Y-109360580D02*
X174750000Y-109079420D01*
%TO.C,R14*%
X171751539Y-131684781D02*
X171277023Y-131684781D01*
X171751539Y-132729781D02*
X171277023Y-132729781D01*
%TO.C,R2*%
X186167500Y-109457258D02*
X186167500Y-108982742D01*
X187212500Y-109457258D02*
X187212500Y-108982742D01*
%TO.C,R4*%
X196104742Y-123378700D02*
X196579258Y-123378700D01*
X196104742Y-124423700D02*
X196579258Y-124423700D01*
%TO.C,C17*%
X177811820Y-132894800D02*
X178092980Y-132894800D01*
X177811820Y-131874800D02*
X178092980Y-131874800D01*
%TO.C,C21*%
X171654061Y-128598481D02*
X171372901Y-128598481D01*
X171654061Y-129618481D02*
X171372901Y-129618481D01*
%TO.C,R6*%
X196104742Y-125867900D02*
X196579258Y-125867900D01*
X196104742Y-126912900D02*
X196579258Y-126912900D01*
%TD*%
%LPC*%
D15*
%TO.C,C25*%
X177164400Y-125933200D03*
X178714400Y-125933200D03*
%TD*%
D16*
%TO.C,C1*%
X183757000Y-120939000D03*
X183757000Y-119389000D03*
%TD*%
D17*
%TO.C,TP3*%
X192582800Y-134416800D03*
%TD*%
D16*
%TO.C,C6*%
X186690000Y-120930000D03*
X186690000Y-119380000D03*
%TD*%
%TO.C,C20*%
X176936681Y-129184681D03*
X176936681Y-130734681D03*
%TD*%
D18*
%TO.C,U2*%
X186539000Y-126111000D03*
X186039000Y-126111000D03*
X185539000Y-126111000D03*
X185039000Y-126111000D03*
X184539000Y-126111000D03*
X184039000Y-126111000D03*
X186539000Y-125611000D03*
X186039000Y-125611000D03*
X185539000Y-125611000D03*
X185039000Y-125611000D03*
X184539000Y-125611000D03*
X184039000Y-125611000D03*
X186539000Y-125111000D03*
X186039000Y-125111000D03*
X185539000Y-125111000D03*
X185039000Y-125111000D03*
X184539000Y-125111000D03*
X184039000Y-125111000D03*
X186539000Y-124611000D03*
X186039000Y-124611000D03*
X185539000Y-124611000D03*
X185039000Y-124611000D03*
X184539000Y-124611000D03*
X184039000Y-124611000D03*
X186539000Y-124111000D03*
X186039000Y-124111000D03*
X185539000Y-124111000D03*
X185039000Y-124111000D03*
X184539000Y-124111000D03*
X184039000Y-124111000D03*
%TD*%
D19*
%TO.C,U4*%
X195133200Y-116600000D03*
D20*
X194683200Y-117300000D03*
D19*
X195133200Y-118200000D03*
D20*
X195583200Y-117500000D03*
%TD*%
D21*
%TO.C,J1*%
X162500000Y-135500000D03*
D22*
X165450000Y-135500000D03*
%TD*%
D23*
%TO.C,R7*%
X195517000Y-128879600D03*
X197167000Y-128879600D03*
%TD*%
D15*
%TO.C,C19*%
X195249200Y-115163600D03*
X196799200Y-115163600D03*
%TD*%
D24*
%TO.C,R10*%
X173736000Y-110045000D03*
X173736000Y-108395000D03*
%TD*%
D17*
%TO.C,TP4*%
X192379600Y-127152400D03*
%TD*%
D25*
%TO.C,J4*%
X200787000Y-109728000D03*
D26*
X200787000Y-112268000D03*
X200787000Y-114808000D03*
X200787000Y-117348000D03*
X200787000Y-119888000D03*
X200787000Y-122428000D03*
X200787000Y-124968000D03*
X200787000Y-127508000D03*
X200787000Y-130048000D03*
X200787000Y-132588000D03*
X200787000Y-135128000D03*
X200787000Y-137668000D03*
%TD*%
D27*
%TO.C,R15*%
X175399481Y-129108481D03*
X173749481Y-129108481D03*
%TD*%
%TO.C,FB1*%
X197167000Y-106629200D03*
X195517000Y-106629200D03*
%TD*%
%TO.C,R5*%
X178625000Y-112522000D03*
X176975000Y-112522000D03*
%TD*%
D28*
%TO.C,JP7*%
X175361600Y-126796800D03*
D29*
X174061600Y-126796800D03*
%TD*%
D27*
%TO.C,R17*%
X177139600Y-135483600D03*
X175489600Y-135483600D03*
%TD*%
%TO.C,R18*%
X175451000Y-124409200D03*
X177101000Y-124409200D03*
%TD*%
D16*
%TO.C,C5*%
X188214000Y-120930000D03*
X188214000Y-119380000D03*
%TD*%
D30*
%TO.C,U1*%
X191897000Y-108596000D03*
X190947000Y-108596000D03*
X189997000Y-108596000D03*
X189997000Y-110871000D03*
X191897000Y-110871000D03*
%TD*%
D31*
%TO.C,JP5*%
X174091600Y-132943600D03*
D32*
X175391600Y-132943600D03*
%TD*%
D27*
%TO.C,R1*%
X191579000Y-112776000D03*
X189929000Y-112776000D03*
%TD*%
D23*
%TO.C,R12*%
X195517000Y-136347200D03*
X197167000Y-136347200D03*
%TD*%
D15*
%TO.C,C23*%
X177164400Y-133959600D03*
X178714400Y-133959600D03*
%TD*%
%TO.C,C18*%
X170738481Y-130683281D03*
X172288481Y-130683281D03*
%TD*%
D30*
%TO.C,U3*%
X178826000Y-108469000D03*
X177876000Y-108469000D03*
X176926000Y-108469000D03*
X176926000Y-110744000D03*
X178826000Y-110744000D03*
%TD*%
D15*
%TO.C,C22*%
X177164400Y-127508000D03*
X178714400Y-127508000D03*
%TD*%
D16*
%TO.C,C7*%
X188214000Y-109982000D03*
X188214000Y-108432000D03*
%TD*%
D21*
%TO.C,J2*%
X162661600Y-124714000D03*
D22*
X165611600Y-124714000D03*
%TD*%
D17*
%TO.C,TP1*%
X187706000Y-115570000D03*
%TD*%
D16*
%TO.C,C2*%
X182106000Y-120926000D03*
X182106000Y-119376000D03*
%TD*%
D23*
%TO.C,R9*%
X195517000Y-133858000D03*
X197167000Y-133858000D03*
%TD*%
D33*
%TO.C,JP8*%
X184531000Y-115540000D03*
D34*
X184531000Y-116840000D03*
%TD*%
D22*
%TO.C,J3*%
X165433519Y-107771919D03*
D21*
X162483519Y-107771919D03*
%TD*%
D27*
%TO.C,R13*%
X173737281Y-130683281D03*
X175387281Y-130683281D03*
%TD*%
D35*
%TO.C,C4*%
X193548000Y-106934000D03*
X193548000Y-108484000D03*
%TD*%
%TO.C,C15*%
X180665000Y-107188000D03*
X180665000Y-108738000D03*
%TD*%
D17*
%TO.C,TP2*%
X190000000Y-126034800D03*
%TD*%
D33*
%TO.C,JP9*%
X181610000Y-115555000D03*
D34*
X181610000Y-116855000D03*
%TD*%
D16*
%TO.C,C3*%
X193548000Y-112789000D03*
X193548000Y-111239000D03*
%TD*%
D23*
%TO.C,R16*%
X172339281Y-127584481D03*
X170689281Y-127584481D03*
%TD*%
D27*
%TO.C,R3*%
X177151800Y-121259600D03*
X175501800Y-121259600D03*
%TD*%
D16*
%TO.C,C14*%
X180594000Y-112522000D03*
X180594000Y-110972000D03*
%TD*%
D28*
%TO.C,JP1*%
X191645500Y-106002000D03*
D29*
X190345500Y-106002000D03*
%TD*%
D15*
%TO.C,C9*%
X192595800Y-129032000D03*
X191045800Y-129032000D03*
%TD*%
D33*
%TO.C,JP4*%
X171450000Y-108570000D03*
D34*
X171450000Y-109870000D03*
%TD*%
D15*
%TO.C,C8*%
X191045800Y-132334000D03*
X192595800Y-132334000D03*
%TD*%
D28*
%TO.C,JP3*%
X178592000Y-105791000D03*
D29*
X177292000Y-105791000D03*
%TD*%
D28*
%TO.C,JP6*%
X195650000Y-120000000D03*
D29*
X194350000Y-120000000D03*
%TD*%
D33*
%TO.C,JP2*%
X184404000Y-108682000D03*
D34*
X184404000Y-109982000D03*
%TD*%
D17*
%TO.C,TP5*%
X178562000Y-115570000D03*
%TD*%
D23*
%TO.C,R8*%
X195517000Y-131368800D03*
X197167000Y-131368800D03*
%TD*%
D27*
%TO.C,FB2*%
X183908200Y-106730800D03*
X182258200Y-106730800D03*
%TD*%
D16*
%TO.C,C16*%
X175260000Y-109995000D03*
X175260000Y-108445000D03*
%TD*%
D27*
%TO.C,R14*%
X172339281Y-132207281D03*
X170689281Y-132207281D03*
%TD*%
D24*
%TO.C,R2*%
X186690000Y-110045000D03*
X186690000Y-108395000D03*
%TD*%
D23*
%TO.C,R4*%
X195517000Y-123901200D03*
X197167000Y-123901200D03*
%TD*%
D15*
%TO.C,C17*%
X177177400Y-132384800D03*
X178727400Y-132384800D03*
%TD*%
D36*
%TO.C,C21*%
X172288481Y-129108481D03*
X170738481Y-129108481D03*
%TD*%
D23*
%TO.C,R6*%
X195517000Y-126390400D03*
X197167000Y-126390400D03*
%TD*%
%LPD*%
M02*
