%TF.GenerationSoftware,KiCad,Pcbnew,8.0.4*%
%TF.CreationDate,2024-08-13T22:52:30+08:00*%
%TF.ProjectId,MAX30001_MINI,4d415833-3030-4303-915f-4d494e492e6b,rev?*%
%TF.SameCoordinates,Original*%
%TF.FileFunction,Paste,Top*%
%TF.FilePolarity,Positive*%
%FSLAX46Y46*%
G04 Gerber Fmt 4.6, Leading zero omitted, Abs format (unit mm)*
G04 Created by KiCad (PCBNEW 8.0.4) date 2024-08-13 22:52:30*
%MOMM*%
%LPD*%
G01*
G04 APERTURE LIST*
G04 Aperture macros list*
%AMRoundRect*
0 Rectangle with rounded corners*
0 $1 Rounding radius*
0 $2 $3 $4 $5 $6 $7 $8 $9 X,Y pos of 4 corners*
0 Add a 4 corners polygon primitive as box body*
4,1,4,$2,$3,$4,$5,$6,$7,$8,$9,$2,$3,0*
0 Add four circle primitives for the rounded corners*
1,1,$1+$1,$2,$3*
1,1,$1+$1,$4,$5*
1,1,$1+$1,$6,$7*
1,1,$1+$1,$8,$9*
0 Add four rect primitives between the rounded corners*
20,1,$1+$1,$2,$3,$4,$5,0*
20,1,$1+$1,$4,$5,$6,$7,0*
20,1,$1+$1,$6,$7,$8,$9,0*
20,1,$1+$1,$8,$9,$2,$3,0*%
%AMFreePoly0*
4,1,81,1.701805,1.382119,1.727190,1.382119,1.742845,1.375634,1.745890,1.375153,1.747865,1.373554,1.763238,1.367187,1.790828,1.339597,1.805760,1.303549,1.807681,1.284040,1.807681,0.377294,1.805760,0.357785,1.798986,0.341432,1.798809,0.339940,1.797820,0.338617,1.790828,0.321737,1.768541,0.299450,1.767816,0.298480,1.767386,0.298295,1.763238,0.294147,1.727190,0.279215,
1.722912,0.279215,1.720245,0.278071,1.583713,0.258318,1.317097,0.187321,1.060568,0.085742,0.817623,-0.045033,0.591568,-0.203224,0.385485,-0.386676,0.202180,-0.592889,0.044150,-0.819056,-0.086452,-1.062095,-0.187847,-1.318696,-0.258655,-1.585362,-0.278311,-1.721909,-0.279215,-1.724020,-0.279215,-1.727190,-0.294147,-1.763238,-0.297400,-1.766491,-0.298686,-1.769494,-0.305516,-1.774607,
-0.321737,-1.790828,-0.333929,-1.795878,-0.340124,-1.800516,-0.347155,-1.801357,-0.357785,-1.805760,-0.377294,-1.807681,-1.284040,-1.807681,-1.292584,-1.806839,-1.294457,-1.807137,-1.296147,-1.806488,-1.303549,-1.805760,-1.339597,-1.790828,-1.341218,-1.789206,-1.342789,-1.788604,-1.346926,-1.783498,-1.367187,-1.763238,-1.371203,-1.753541,-1.375380,-1.748388,-1.376648,-1.740395,-1.382119,-1.727190,
-1.382119,-1.705937,-1.383496,-1.697264,-1.383495,-1.697264,-1.382119,-1.688339,-1.382119,-1.688172,-1.382077,-1.688072,-1.332247,-1.364875,-1.248971,-1.039031,-1.134453,-0.722812,-0.989775,-0.419204,-0.816305,-0.131077,-0.615680,0.138847,-0.389798,0.388018,-0.140791,0.614082,0.128987,0.814902,0.416988,0.988582,0.720490,1.133481,1.036626,1.248229,1.362409,1.331742,1.694761,1.383232,
1.701805,1.382119,1.701805,1.382119,$1*%
%AMFreePoly1*
4,1,81,-0.357785,1.805760,-0.341432,1.798986,-0.339940,1.798809,-0.338617,1.797820,-0.321737,1.790828,-0.299450,1.768541,-0.298480,1.767816,-0.298295,1.767386,-0.294147,1.763238,-0.279215,1.727190,-0.279215,1.722911,-0.278071,1.720245,-0.258318,1.583713,-0.187321,1.317097,-0.085742,1.060568,0.045033,0.817623,0.203224,0.591568,0.386676,0.385485,0.592889,0.202180,0.819056,0.044150,
1.062095,-0.086452,1.318696,-0.187847,1.585362,-0.258655,1.721909,-0.278311,1.724020,-0.279215,1.727190,-0.279215,1.763238,-0.294147,1.766491,-0.297400,1.769494,-0.298686,1.774607,-0.305516,1.790828,-0.321737,1.795878,-0.333929,1.800516,-0.340124,1.801357,-0.347155,1.805760,-0.357785,1.807681,-0.377294,1.807681,-1.284040,1.806839,-1.292584,1.807137,-1.294457,1.806488,-1.296147,
1.805760,-1.303549,1.790828,-1.339597,1.789206,-1.341218,1.788604,-1.342789,1.783498,-1.346926,1.763238,-1.367187,1.753541,-1.371203,1.748388,-1.375380,1.740395,-1.376648,1.727190,-1.382119,1.705938,-1.382119,1.697264,-1.383496,1.697264,-1.383495,1.688339,-1.382119,1.688172,-1.382119,1.688072,-1.382077,1.364875,-1.332247,1.039031,-1.248971,0.722812,-1.134453,0.419204,-0.989775,
0.131077,-0.816305,-0.138847,-0.615680,-0.388018,-0.389798,-0.614082,-0.140791,-0.814902,0.128987,-0.988582,0.416988,-1.133481,0.720490,-1.248229,1.036626,-1.331742,1.362409,-1.383232,1.694761,-1.382119,1.701804,-1.382119,1.727190,-1.375634,1.742845,-1.375153,1.745890,-1.373554,1.747865,-1.367187,1.763238,-1.339597,1.790828,-1.303549,1.805760,-1.284040,1.807681,-0.377294,1.807681,
-0.357785,1.805760,-0.357785,1.805760,$1*%
%AMFreePoly2*
4,1,82,-1.697264,1.383495,-1.688339,1.382119,-1.688172,1.382119,-1.688072,1.382077,-1.364875,1.332247,-1.039031,1.248971,-0.722812,1.134453,-0.419205,0.989775,-0.131078,0.816304,0.138846,0.615680,0.388017,0.389797,0.614081,0.140791,0.814902,-0.128987,0.988582,-0.416988,1.133480,-0.720490,1.248228,-1.036626,1.331741,-1.362409,1.383231,-1.694761,1.383232,-1.694761,1.382119,-1.701804,
1.382119,-1.727190,1.375634,-1.742845,1.375153,-1.745890,1.373554,-1.747865,1.367187,-1.763238,1.339597,-1.790828,1.303549,-1.805760,1.284040,-1.807681,0.377294,-1.807681,0.357785,-1.805760,0.341432,-1.798986,0.339940,-1.798809,0.338617,-1.797820,0.321737,-1.790828,0.299450,-1.768541,0.298480,-1.767816,0.298295,-1.767386,0.294147,-1.763238,0.279215,-1.727190,0.279215,-1.722911,
0.278071,-1.720245,0.258318,-1.583713,0.187320,-1.317097,0.085742,-1.060569,-0.045033,-0.817623,-0.203224,-0.591569,-0.386676,-0.385485,-0.592890,-0.202180,-0.819056,-0.044150,-1.062095,0.086452,-1.318696,0.187847,-1.585363,0.258655,-1.721909,0.278311,-1.724020,0.279215,-1.727190,0.279215,-1.763238,0.294147,-1.766491,0.297400,-1.769494,0.298686,-1.774607,0.305516,-1.790828,0.321737,
-1.795878,0.333929,-1.800516,0.340124,-1.801357,0.347155,-1.805760,0.357785,-1.807681,0.377294,-1.807681,1.284040,-1.806839,1.292584,-1.807137,1.294457,-1.806488,1.296147,-1.805760,1.303549,-1.790828,1.339597,-1.789206,1.341218,-1.788604,1.342789,-1.783498,1.346926,-1.763238,1.367187,-1.753541,1.371203,-1.748388,1.375380,-1.740395,1.376648,-1.727190,1.382119,-1.705938,1.382119,
-1.697264,1.383496,-1.697264,1.383495,-1.697264,1.383495,$1*%
%AMFreePoly3*
4,1,82,1.292584,1.806839,1.294457,1.807137,1.296147,1.806488,1.303549,1.805760,1.339597,1.790828,1.341218,1.789206,1.342789,1.788604,1.346926,1.783498,1.367187,1.763238,1.371203,1.753541,1.375380,1.748388,1.376648,1.740395,1.382119,1.727190,1.382119,1.705937,1.383496,1.697264,1.383495,1.697264,1.382119,1.688339,1.382119,1.688172,1.382077,1.688072,1.332247,1.364875,
1.248971,1.039031,1.134453,0.722812,0.989775,0.419205,0.816304,0.131078,0.615680,-0.138846,0.389797,-0.388017,0.140791,-0.614081,-0.128987,-0.814902,-0.416988,-0.988582,-0.720490,-1.133480,-1.036626,-1.248228,-1.362409,-1.331741,-1.694761,-1.383231,-1.694761,-1.383232,-1.701805,-1.382119,-1.727190,-1.382119,-1.742845,-1.375634,-1.745890,-1.375153,-1.747865,-1.373554,-1.763238,-1.367187,
-1.790828,-1.339597,-1.805760,-1.303549,-1.807681,-1.284040,-1.807681,-0.377294,-1.805760,-0.357785,-1.798986,-0.341432,-1.798809,-0.339940,-1.797820,-0.338617,-1.790828,-0.321737,-1.768541,-0.299450,-1.767816,-0.298480,-1.767386,-0.298295,-1.763238,-0.294147,-1.727190,-0.279215,-1.722912,-0.279215,-1.720245,-0.278071,-1.583713,-0.258318,-1.317097,-0.187320,-1.060569,-0.085742,-0.817623,0.045033,
-0.591569,0.203224,-0.385485,0.386676,-0.202180,0.592890,-0.044150,0.819056,0.086452,1.062095,0.187847,1.318696,0.258655,1.585363,0.278311,1.721909,0.279215,1.724020,0.279215,1.727190,0.294147,1.763238,0.297400,1.766491,0.298686,1.769494,0.305516,1.774607,0.321737,1.790828,0.333929,1.795878,0.340124,1.800516,0.347155,1.801357,0.357785,1.805760,0.377294,1.807681,
1.284040,1.807681,1.292584,1.806839,1.292584,1.806839,$1*%
G04 Aperture macros list end*
%ADD10RoundRect,0.225000X-0.225000X-0.250000X0.225000X-0.250000X0.225000X0.250000X-0.225000X0.250000X0*%
%ADD11RoundRect,0.225000X0.250000X-0.225000X0.250000X0.225000X-0.250000X0.225000X-0.250000X-0.225000X0*%
%ADD12C,0.350000*%
%ADD13R,1.400000X0.400000*%
%ADD14R,0.500000X0.200000*%
%ADD15FreePoly0,0.000000*%
%ADD16FreePoly1,0.000000*%
%ADD17FreePoly2,0.000000*%
%ADD18FreePoly3,0.000000*%
%ADD19RoundRect,0.200000X-0.200000X-0.275000X0.200000X-0.275000X0.200000X0.275000X-0.200000X0.275000X0*%
%ADD20RoundRect,0.200000X0.275000X-0.200000X0.275000X0.200000X-0.275000X0.200000X-0.275000X-0.200000X0*%
%ADD21RoundRect,0.200000X0.200000X0.275000X-0.200000X0.275000X-0.200000X-0.275000X0.200000X-0.275000X0*%
%ADD22RoundRect,0.150000X-0.150000X0.512500X-0.150000X-0.512500X0.150000X-0.512500X0.150000X0.512500X0*%
%ADD23RoundRect,0.225000X-0.250000X0.225000X-0.250000X-0.225000X0.250000X-0.225000X0.250000X0.225000X0*%
%ADD24RoundRect,0.225000X0.225000X0.250000X-0.225000X0.250000X-0.225000X-0.250000X0.225000X-0.250000X0*%
G04 APERTURE END LIST*
D10*
%TO.C,C25*%
X177164400Y-125933200D03*
X178714400Y-125933200D03*
%TD*%
D11*
%TO.C,C1*%
X183757000Y-120939000D03*
X183757000Y-119389000D03*
%TD*%
%TO.C,C6*%
X186690000Y-120930000D03*
X186690000Y-119380000D03*
%TD*%
%TO.C,C20*%
X176936681Y-129184681D03*
X176936681Y-130734681D03*
%TD*%
D12*
%TO.C,U2*%
X186539000Y-126111000D03*
X186039000Y-126111000D03*
X185539000Y-126111000D03*
X185039000Y-126111000D03*
X184539000Y-126111000D03*
X184039000Y-126111000D03*
X186539000Y-125611000D03*
X186039000Y-125611000D03*
X185539000Y-125611000D03*
X185039000Y-125611000D03*
X184539000Y-125611000D03*
X184039000Y-125611000D03*
X186539000Y-125111000D03*
X186039000Y-125111000D03*
X185539000Y-125111000D03*
X185039000Y-125111000D03*
X184539000Y-125111000D03*
X184039000Y-125111000D03*
X186539000Y-124611000D03*
X186039000Y-124611000D03*
X185539000Y-124611000D03*
X185039000Y-124611000D03*
X184539000Y-124611000D03*
X184039000Y-124611000D03*
X186539000Y-124111000D03*
X186039000Y-124111000D03*
X185539000Y-124111000D03*
X185039000Y-124111000D03*
X184539000Y-124111000D03*
X184039000Y-124111000D03*
%TD*%
D13*
%TO.C,U4*%
X195133200Y-116600000D03*
D14*
X194683200Y-117300000D03*
D13*
X195133200Y-118200000D03*
D14*
X195583200Y-117500000D03*
%TD*%
D15*
%TO.C,J1*%
X160442319Y-133442319D03*
D16*
X160442319Y-137557681D03*
D17*
X164557681Y-133442319D03*
D18*
X164557681Y-137557681D03*
%TD*%
D19*
%TO.C,R7*%
X195517000Y-128879600D03*
X197167000Y-128879600D03*
%TD*%
D10*
%TO.C,C19*%
X195249200Y-115163600D03*
X196799200Y-115163600D03*
%TD*%
D20*
%TO.C,R10*%
X173736000Y-110045000D03*
X173736000Y-108395000D03*
%TD*%
D21*
%TO.C,R15*%
X175399481Y-129108481D03*
X173749481Y-129108481D03*
%TD*%
%TO.C,FB1*%
X197167000Y-106629200D03*
X195517000Y-106629200D03*
%TD*%
%TO.C,R5*%
X178625000Y-112522000D03*
X176975000Y-112522000D03*
%TD*%
%TO.C,R17*%
X177139600Y-135483600D03*
X175489600Y-135483600D03*
%TD*%
%TO.C,R18*%
X175451000Y-124409200D03*
X177101000Y-124409200D03*
%TD*%
D11*
%TO.C,C5*%
X188214000Y-120930000D03*
X188214000Y-119380000D03*
%TD*%
D22*
%TO.C,U1*%
X191897000Y-108596000D03*
X190947000Y-108596000D03*
X189997000Y-108596000D03*
X189997000Y-110871000D03*
X191897000Y-110871000D03*
%TD*%
D21*
%TO.C,R1*%
X191579000Y-112776000D03*
X189929000Y-112776000D03*
%TD*%
D19*
%TO.C,R12*%
X195517000Y-136347200D03*
X197167000Y-136347200D03*
%TD*%
D10*
%TO.C,C23*%
X177164400Y-133959600D03*
X178714400Y-133959600D03*
%TD*%
%TO.C,C18*%
X170738481Y-130683281D03*
X172288481Y-130683281D03*
%TD*%
D22*
%TO.C,U3*%
X178826000Y-108469000D03*
X177876000Y-108469000D03*
X176926000Y-108469000D03*
X176926000Y-110744000D03*
X178826000Y-110744000D03*
%TD*%
D10*
%TO.C,C22*%
X177164400Y-127508000D03*
X178714400Y-127508000D03*
%TD*%
D11*
%TO.C,C7*%
X188214000Y-109982000D03*
X188214000Y-108432000D03*
%TD*%
D15*
%TO.C,J2*%
X160603919Y-122656319D03*
D16*
X160603919Y-126771681D03*
D17*
X164719281Y-122656319D03*
D18*
X164719281Y-126771681D03*
%TD*%
D11*
%TO.C,C2*%
X182106000Y-120926000D03*
X182106000Y-119376000D03*
%TD*%
D19*
%TO.C,R9*%
X195517000Y-133858000D03*
X197167000Y-133858000D03*
%TD*%
D18*
%TO.C,J3*%
X164541200Y-109829600D03*
D17*
X164541200Y-105714238D03*
D16*
X160425838Y-109829600D03*
D15*
X160425838Y-105714238D03*
%TD*%
D21*
%TO.C,R13*%
X173737281Y-130683281D03*
X175387281Y-130683281D03*
%TD*%
D23*
%TO.C,C4*%
X193548000Y-106934000D03*
X193548000Y-108484000D03*
%TD*%
%TO.C,C15*%
X180665000Y-107188000D03*
X180665000Y-108738000D03*
%TD*%
D11*
%TO.C,C3*%
X193548000Y-112789000D03*
X193548000Y-111239000D03*
%TD*%
D19*
%TO.C,R16*%
X172339281Y-127584481D03*
X170689281Y-127584481D03*
%TD*%
D21*
%TO.C,R3*%
X177151800Y-121259600D03*
X175501800Y-121259600D03*
%TD*%
D11*
%TO.C,C14*%
X180594000Y-112522000D03*
X180594000Y-110972000D03*
%TD*%
D10*
%TO.C,C9*%
X192595800Y-129032000D03*
X191045800Y-129032000D03*
%TD*%
%TO.C,C8*%
X191045800Y-132334000D03*
X192595800Y-132334000D03*
%TD*%
D19*
%TO.C,R8*%
X195517000Y-131368800D03*
X197167000Y-131368800D03*
%TD*%
D21*
%TO.C,FB2*%
X183908200Y-106730800D03*
X182258200Y-106730800D03*
%TD*%
D11*
%TO.C,C16*%
X175260000Y-109995000D03*
X175260000Y-108445000D03*
%TD*%
D21*
%TO.C,R14*%
X172339281Y-132207281D03*
X170689281Y-132207281D03*
%TD*%
D20*
%TO.C,R2*%
X186690000Y-110045000D03*
X186690000Y-108395000D03*
%TD*%
D19*
%TO.C,R4*%
X195517000Y-123901200D03*
X197167000Y-123901200D03*
%TD*%
D10*
%TO.C,C17*%
X177177400Y-132384800D03*
X178727400Y-132384800D03*
%TD*%
D24*
%TO.C,C21*%
X172288481Y-129108481D03*
X170738481Y-129108481D03*
%TD*%
D19*
%TO.C,R6*%
X195517000Y-126390400D03*
X197167000Y-126390400D03*
%TD*%
M02*
