M48
; DRILL file {KiCad 8.0.4} date 2024-08-13T22:52:30+0800
; FORMAT={-:-/ absolute / inch / decimal}
; #@! TF.CreationDate,2024-08-13T22:52:30+08:00
; #@! TF.GenerationSoftware,Kicad,Pcbnew,8.0.4
; #@! TF.FileFunction,Plated,1,4,PTH
FMAT,2
INCH
; #@! TA.AperFunction,Plated,PTH,ViaDrill
T1C0.0059
; #@! TA.AperFunction,Plated,PTH,ViaDrill
T2C0.0079
; #@! TA.AperFunction,Plated,PTH,ComponentDrill
T3C0.0197
; #@! TA.AperFunction,Plated,PTH,ComponentDrill
T4C0.0394
%
G90
G05
T1
X7.246Y-4.906
X7.2652Y-4.906
X7.266Y-4.926
X7.266Y-4.946
X7.286Y-4.944
X7.3048Y-4.9059
X7.324Y-4.946
X7.3244Y-4.9256
X7.3247Y-4.9059
X7.344Y-4.886
T2
X6.7126Y-4.3898
X6.7323Y-4.2323
X6.752Y-4.2323
X6.7717Y-4.2323
X6.7717Y-4.4488
X6.7913Y-4.2323
X6.8307Y-4.5079
X6.8898Y-4.5669
X6.9291Y-4.2126
X6.9488Y-4.626
X6.975Y-4.958
X6.975Y-5.274
X7.03Y-4.09
X7.0669Y-4.6063
X7.0669Y-4.6457
X7.0866Y-4.9409
X7.0866Y-4.9606
X7.0866Y-4.9803
X7.0866Y-5.0
X7.0866Y-5.0197
X7.0866Y-5.0394
X7.0866Y-5.1969
X7.0866Y-5.2165
X7.0866Y-5.2362
X7.0866Y-5.2559
X7.0866Y-5.2756
X7.0866Y-5.2953
X7.1063Y-4.8031
X7.1063Y-4.9213
X7.126Y-4.8031
X7.126Y-4.8228
X7.126Y-5.2756
X7.1457Y-4.1535
X7.1457Y-4.3701
X7.15Y-4.6006
X7.1654Y-4.1535
X7.1654Y-4.252
X7.1654Y-4.2717
X7.1654Y-4.6457
X7.1654Y-5.2362
X7.176Y-4.924
X7.185Y-4.1535
X7.185Y-4.252
X7.185Y-4.6457
X7.186Y-5.1223
X7.2047Y-4.6457
X7.214Y-4.9617
X7.2192Y-4.9203
X7.2244Y-5.1772
X7.2267Y-5.1027
X7.2441Y-4.1535
X7.2835Y-4.1535
X7.2835Y-5.1575
X7.3031Y-4.1732
X7.3031Y-4.2126
X7.3031Y-4.3898
X7.3031Y-4.4291
X7.3162Y-4.8102
X7.3228Y-5.1575
X7.33Y-4.8291
X7.3301Y-4.7919
X7.3425Y-4.6457
X7.344Y-4.8483
X7.35Y-4.7
X7.3622Y-4.2126
X7.3622Y-4.3898
X7.3622Y-4.4291
X7.3622Y-5.1575
X7.3631Y-4.9503
X7.378Y-4.892
X7.3819Y-4.6457
X7.384Y-4.866
X7.4016Y-5.1575
X7.4037Y-4.9457
X7.4213Y-4.6457
X7.438Y-4.77
X7.4409Y-4.1339
X7.4409Y-4.1732
X7.4409Y-4.2126
X7.5197Y-4.8819
X7.55Y-4.1
X7.5984Y-4.1339
X7.5984Y-4.7244
X7.636Y-5.358
X7.6378Y-4.1339
X7.6575Y-5.0984
X7.6575Y-5.1378
X7.6575Y-5.2165
X7.658Y-5.27
X7.674Y-4.9717
X7.6767Y-4.878
X7.6772Y-4.1339
X7.6772Y-4.3307
X7.6772Y-4.8031
X7.6772Y-5.4331
X7.6777Y-5.17
X7.6963Y-5.0677
X7.7165Y-4.2913
X7.7165Y-4.3504
X7.7165Y-4.8031
X7.7165Y-5.4724
X7.7559Y-4.2913
X7.7756Y-5.4724
X7.9724Y-5.4724
T3
X7.03Y-4.55
X7.39Y-4.55
X7.4803Y-4.962
X7.574Y-5.006
X7.582Y-5.292
T4
X7.905Y-4.32
X7.905Y-4.42
X7.905Y-4.52
X7.905Y-4.62
X7.905Y-4.72
X7.905Y-4.82
X7.905Y-4.92
X7.905Y-5.02
X7.905Y-5.12
X7.905Y-5.22
X7.905Y-5.32
X7.905Y-5.42
M30
