%TF.GenerationSoftware,KiCad,Pcbnew,8.0.4*%
%TF.CreationDate,2024-08-13T22:52:30+08:00*%
%TF.ProjectId,MAX30001_MINI,4d415833-3030-4303-915f-4d494e492e6b,rev?*%
%TF.SameCoordinates,Original*%
%TF.FileFunction,Copper,L3,Inr*%
%TF.FilePolarity,Positive*%
%FSLAX46Y46*%
G04 Gerber Fmt 4.6, Leading zero omitted, Abs format (unit mm)*
G04 Created by KiCad (PCBNEW 8.0.4) date 2024-08-13 22:52:30*
%MOMM*%
%LPD*%
G01*
G04 APERTURE LIST*
%TA.AperFunction,ComponentPad*%
%ADD10R,1.000000X1.000000*%
%TD*%
%TA.AperFunction,ComponentPad*%
%ADD11R,1.700000X1.700000*%
%TD*%
%TA.AperFunction,ComponentPad*%
%ADD12O,1.700000X1.700000*%
%TD*%
%TA.AperFunction,ViaPad*%
%ADD13C,0.300000*%
%TD*%
%TA.AperFunction,ViaPad*%
%ADD14C,0.200000*%
%TD*%
%TA.AperFunction,Conductor*%
%ADD15C,0.200000*%
%TD*%
G04 APERTURE END LIST*
D10*
%TO.N,Net-(C8-Pad2)*%
%TO.C,TP3*%
X192582800Y-134416800D03*
%TD*%
%TO.N,Net-(C9-Pad2)*%
%TO.C,TP4*%
X192379600Y-127152400D03*
%TD*%
D11*
%TO.N,3V3_D*%
%TO.C,J4*%
X200787000Y-109728000D03*
D12*
%TO.N,GNDD*%
X200787000Y-112268000D03*
%TO.N,1V8_A*%
X200787000Y-114808000D03*
%TO.N,GNDA*%
X200787000Y-117348000D03*
%TO.N,Net-(J4-Pin_5)*%
X200787000Y-119888000D03*
%TO.N,Net-(J4-Pin_6)*%
X200787000Y-122428000D03*
%TO.N,Net-(J4-Pin_7)*%
X200787000Y-124968000D03*
%TO.N,Net-(J4-Pin_8)*%
X200787000Y-127508000D03*
%TO.N,Net-(J4-Pin_9)*%
X200787000Y-130048000D03*
%TO.N,Net-(J4-Pin_10)*%
X200787000Y-132588000D03*
%TO.N,5V0_IN*%
X200787000Y-135128000D03*
%TO.N,GND*%
X200787000Y-137668000D03*
%TD*%
D10*
%TO.N,Net-(JP8-A)*%
%TO.C,TP1*%
X187706000Y-115570000D03*
%TD*%
%TO.N,Net-(U2-AOUT)*%
%TO.C,TP2*%
X190000000Y-126034800D03*
%TD*%
%TO.N,Net-(JP9-A)*%
%TO.C,TP5*%
X178562000Y-115570000D03*
%TD*%
D13*
%TO.N,GNDA*%
X179500000Y-117000000D03*
X179500000Y-118000000D03*
%TO.N,GND*%
X191000000Y-124000000D03*
X194500000Y-132500000D03*
X194500000Y-129500000D03*
X194500000Y-130500000D03*
X196000000Y-122000000D03*
X195000000Y-122000000D03*
X202500000Y-139000000D03*
X197500000Y-139000000D03*
X196000000Y-139000000D03*
X195000000Y-138000000D03*
%TO.N,BIP*%
X177164400Y-133959600D03*
%TO.N,BIN*%
X177164400Y-125933200D03*
%TO.N,GNDD*%
X185500000Y-106000000D03*
X185000000Y-105500000D03*
X184000000Y-105500000D03*
X187000000Y-107000000D03*
X185500000Y-107000000D03*
X185500000Y-111500000D03*
X185500000Y-112500000D03*
X187000000Y-112500000D03*
X187000000Y-111500000D03*
X196000000Y-110500000D03*
X196000000Y-109000000D03*
X197000000Y-109000000D03*
X195000000Y-105000000D03*
X194000000Y-105000000D03*
X193000000Y-105000000D03*
X189000000Y-107000000D03*
X189000000Y-106000000D03*
X189000000Y-105000000D03*
X186500000Y-118000000D03*
X187500000Y-118000000D03*
X188500000Y-118000000D03*
X195000000Y-110000000D03*
%TO.N,GNDA*%
X181000000Y-134000000D03*
X183500000Y-131500000D03*
X182000000Y-133000000D03*
X176500000Y-117500000D03*
X175000000Y-116000000D03*
X173500000Y-114500000D03*
X172000000Y-113000000D03*
X170500000Y-111500000D03*
X176000000Y-107000000D03*
X182000000Y-108500000D03*
X182000000Y-108000000D03*
X182500000Y-108000000D03*
X182500000Y-105500000D03*
X182000000Y-105500000D03*
X181500000Y-105500000D03*
X171000000Y-107500000D03*
X171500000Y-107500000D03*
X172000000Y-107500000D03*
X172500000Y-107500000D03*
X182500000Y-118000000D03*
X180500000Y-122000000D03*
X181000000Y-122500000D03*
X181000000Y-122000000D03*
X180000000Y-134500000D03*
X180000000Y-134000000D03*
X180000000Y-133500000D03*
X180000000Y-133000000D03*
X180000000Y-132500000D03*
X180000000Y-132000000D03*
X180000000Y-128000000D03*
X180000000Y-127500000D03*
X180000000Y-127000000D03*
X180000000Y-126500000D03*
X180000000Y-126000000D03*
X180000000Y-125500000D03*
X185000000Y-131000000D03*
X186000000Y-131000000D03*
X187000000Y-131000000D03*
X188000000Y-131000000D03*
X183000000Y-118000000D03*
X182000000Y-118000000D03*
X180500000Y-125000000D03*
X181500000Y-111000000D03*
%TO.N,1V8_A*%
X181610000Y-116855000D03*
%TO.N,GNDD*%
X186690000Y-119380000D03*
D14*
X184556400Y-125120400D03*
D13*
%TO.N,Net-(U2-VREF)*%
X187401200Y-124256800D03*
%TO.N,INT2B*%
X194513200Y-133858000D03*
%TO.N,SDO*%
X195013200Y-131318000D03*
%TO.N,SDI*%
X195485154Y-128720306D03*
%TO.N,SCLK*%
X194919602Y-126282131D03*
%TO.N,CSB*%
X194989257Y-123901214D03*
D14*
%TO.N,Net-(U2-AOUT)*%
X186039000Y-125111000D03*
D13*
%TO.N,INTB*%
X193954398Y-136093200D03*
%TO.N,CSB*%
X186183956Y-121714207D03*
D14*
%TO.N,1V8_A*%
X184048400Y-124612400D03*
X186537600Y-124104400D03*
D13*
%TO.N,INT2B*%
X187553600Y-123596396D03*
D14*
%TO.N,INTB*%
X186047029Y-124610463D03*
D13*
%TO.N,SDO*%
X186537590Y-123145752D03*
%TO.N,SDI*%
X186182000Y-122659948D03*
%TO.N,SCLK*%
X185831802Y-122179402D03*
%TO.N,Net-(U2-VCM)*%
X188053600Y-125620400D03*
X182270400Y-125069600D03*
D14*
%TO.N,GNDA*%
X185064400Y-125577600D03*
D13*
%TO.N,FCLK*%
X193000000Y-120000000D03*
%TO.N,3V3_D*%
X188925194Y-121156781D03*
%TO.N,BIP*%
X182524400Y-130107455D03*
%TO.N,BIN*%
X183557055Y-129607455D03*
D14*
%TO.N,Net-(U2-CAPN)*%
X184556400Y-125628400D03*
D13*
%TO.N,Net-(U2-CAPP)*%
X183235600Y-126026800D03*
%TO.N,Net-(U2-CPLL)*%
X183368089Y-124976000D03*
%TO.N,Net-(U2-VBG)*%
X187022405Y-125737512D03*
D14*
%TO.N,3V3_D*%
X185541326Y-124609769D03*
%TO.N,FCLK*%
X184536984Y-124613655D03*
D13*
%TO.N,5V0_IN*%
X191770000Y-104140000D03*
X178562000Y-103886000D03*
D14*
%TO.N,RBIAS*%
X186029600Y-125628400D03*
%TD*%
D15*
%TO.N,GNDD*%
X200787000Y-112268000D02*
X199268000Y-112268000D01*
X199268000Y-112268000D02*
X197000000Y-110000000D01*
X197000000Y-110000000D02*
X195000000Y-110000000D01*
%TO.N,Net-(U2-AOUT)*%
X186084800Y-125156800D02*
X189122000Y-125156800D01*
X186039000Y-125111000D02*
X186084800Y-125156800D01*
X189122000Y-125156800D02*
X190000000Y-126034800D01*
%TO.N,GNDA*%
X200787000Y-117348000D02*
X202500000Y-115635000D01*
X201500000Y-113500000D02*
X199500000Y-113500000D01*
X199000000Y-113000000D02*
X183500000Y-113000000D01*
X202500000Y-114500000D02*
X201500000Y-113500000D01*
X202500000Y-115635000D02*
X202500000Y-114500000D01*
X199500000Y-113500000D02*
X199000000Y-113000000D01*
X183500000Y-113000000D02*
X181500000Y-111000000D01*
%TO.N,1V8_A*%
X199308000Y-114808000D02*
X198000000Y-113500000D01*
X200787000Y-114808000D02*
X199308000Y-114808000D01*
X181500000Y-116000000D02*
X181500000Y-116965000D01*
X198000000Y-113500000D02*
X184000000Y-113500000D01*
X184000000Y-113500000D02*
X181500000Y-116000000D01*
X181500000Y-116965000D02*
X181610000Y-116855000D01*
%TO.N,INTB*%
X193149600Y-124756800D02*
X193954398Y-125561598D01*
X193954398Y-125561598D02*
X193954398Y-136093200D01*
X187047756Y-124610463D02*
X187194093Y-124756800D01*
X187194093Y-124756800D02*
X193149600Y-124756800D01*
X186047029Y-124610463D02*
X187047756Y-124610463D01*
%TO.N,1V8_A*%
X186537600Y-124104400D02*
X184445198Y-124104400D01*
X184445198Y-124104400D02*
X184048400Y-124501198D01*
X184048400Y-124501198D02*
X184048400Y-124612400D01*
%TD*%
%TA.AperFunction,Conductor*%
%TO.N,GND*%
G36*
X200445936Y-118503308D02*
G01*
X200457060Y-118507618D01*
X200675757Y-118548500D01*
X200675759Y-118548500D01*
X200898241Y-118548500D01*
X200898243Y-118548500D01*
X201116940Y-118507618D01*
X201128063Y-118503308D01*
X201145763Y-118500000D01*
X202951000Y-118500000D01*
X202985648Y-118514352D01*
X203000000Y-118549000D01*
X203000000Y-139451000D01*
X202985648Y-139485648D01*
X202951000Y-139500000D01*
X196020296Y-139500000D01*
X195985648Y-139485648D01*
X193917999Y-137417999D01*
X199456363Y-137417999D01*
X199456364Y-137418000D01*
X200353988Y-137418000D01*
X200321075Y-137475007D01*
X200287000Y-137602174D01*
X200287000Y-137733826D01*
X200321075Y-137860993D01*
X200353988Y-137918000D01*
X199456363Y-137918000D01*
X199513566Y-138131483D01*
X199513568Y-138131488D01*
X199613398Y-138345577D01*
X199613405Y-138345589D01*
X199748885Y-138539072D01*
X199748891Y-138539079D01*
X199915920Y-138706108D01*
X199915927Y-138706114D01*
X200109410Y-138841594D01*
X200109422Y-138841601D01*
X200323511Y-138941431D01*
X200323516Y-138941433D01*
X200537000Y-138998634D01*
X200537000Y-138101012D01*
X200594007Y-138133925D01*
X200721174Y-138168000D01*
X200852826Y-138168000D01*
X200979993Y-138133925D01*
X201037000Y-138101012D01*
X201037000Y-138998634D01*
X201250483Y-138941433D01*
X201250488Y-138941431D01*
X201464577Y-138841601D01*
X201464589Y-138841594D01*
X201658072Y-138706114D01*
X201658079Y-138706108D01*
X201825108Y-138539079D01*
X201825114Y-138539072D01*
X201960594Y-138345589D01*
X201960601Y-138345577D01*
X202060431Y-138131488D01*
X202060433Y-138131483D01*
X202117636Y-137918000D01*
X201220012Y-137918000D01*
X201252925Y-137860993D01*
X201287000Y-137733826D01*
X201287000Y-137602174D01*
X201252925Y-137475007D01*
X201220012Y-137418000D01*
X202117636Y-137418000D01*
X202117636Y-137417999D01*
X202060433Y-137204516D01*
X202060432Y-137204511D01*
X201960601Y-136990423D01*
X201960594Y-136990411D01*
X201825114Y-136796927D01*
X201825108Y-136796920D01*
X201658079Y-136629891D01*
X201658072Y-136629885D01*
X201464589Y-136494405D01*
X201464577Y-136494398D01*
X201250488Y-136394568D01*
X201250483Y-136394566D01*
X201153255Y-136368514D01*
X201123502Y-136345684D01*
X201118607Y-136308502D01*
X201141437Y-136278749D01*
X201148226Y-136275497D01*
X201324401Y-136207247D01*
X201513562Y-136090124D01*
X201677981Y-135940236D01*
X201812058Y-135762689D01*
X201911229Y-135563528D01*
X201972115Y-135349536D01*
X201992643Y-135128000D01*
X201972115Y-134906464D01*
X201911229Y-134692472D01*
X201812058Y-134493311D01*
X201710253Y-134358499D01*
X201677983Y-134315766D01*
X201677980Y-134315763D01*
X201513566Y-134165879D01*
X201513563Y-134165877D01*
X201513562Y-134165876D01*
X201324401Y-134048753D01*
X201324398Y-134048752D01*
X201324397Y-134048751D01*
X201199727Y-134000454D01*
X201116940Y-133968382D01*
X200898243Y-133927500D01*
X200675757Y-133927500D01*
X200457060Y-133968382D01*
X200457055Y-133968384D01*
X200249602Y-134048751D01*
X200060433Y-134165879D01*
X199896019Y-134315763D01*
X199896016Y-134315766D01*
X199761943Y-134493309D01*
X199761940Y-134493313D01*
X199662773Y-134692466D01*
X199662770Y-134692473D01*
X199601885Y-134906461D01*
X199601884Y-134906467D01*
X199581357Y-135128000D01*
X199601884Y-135349532D01*
X199601885Y-135349538D01*
X199662770Y-135563526D01*
X199662773Y-135563533D01*
X199761940Y-135762686D01*
X199761943Y-135762690D01*
X199896016Y-135940233D01*
X199896019Y-135940236D01*
X200060433Y-136090120D01*
X200060434Y-136090121D01*
X200060438Y-136090124D01*
X200249599Y-136207247D01*
X200425763Y-136275493D01*
X200452887Y-136301392D01*
X200453753Y-136338885D01*
X200427854Y-136366009D01*
X200420744Y-136368514D01*
X200323516Y-136394566D01*
X200323511Y-136394567D01*
X200109423Y-136494398D01*
X200109411Y-136494405D01*
X199915927Y-136629885D01*
X199915920Y-136629891D01*
X199748891Y-136796920D01*
X199748885Y-136796927D01*
X199613405Y-136990411D01*
X199613398Y-136990423D01*
X199513567Y-137204511D01*
X199513566Y-137204516D01*
X199456363Y-137417999D01*
X193917999Y-137417999D01*
X193514352Y-137014352D01*
X193500000Y-136979704D01*
X193500000Y-136464456D01*
X193514352Y-136429808D01*
X193549000Y-136415456D01*
X193583648Y-136429808D01*
X193586032Y-136432368D01*
X193623270Y-136475343D01*
X193744345Y-136553153D01*
X193821183Y-136575714D01*
X193882432Y-136593699D01*
X193882435Y-136593699D01*
X193882437Y-136593700D01*
X193882438Y-136593700D01*
X194026358Y-136593700D01*
X194026359Y-136593700D01*
X194026361Y-136593699D01*
X194026363Y-136593699D01*
X194049193Y-136586995D01*
X194164451Y-136553153D01*
X194285526Y-136475343D01*
X194379775Y-136366573D01*
X194439563Y-136235657D01*
X194439563Y-136235655D01*
X194439564Y-136235654D01*
X194460045Y-136093202D01*
X194460045Y-136093197D01*
X194439563Y-135950744D01*
X194439563Y-135950742D01*
X194409326Y-135884532D01*
X194404898Y-135864177D01*
X194404898Y-134407500D01*
X194419250Y-134372852D01*
X194453898Y-134358500D01*
X194585160Y-134358500D01*
X194585161Y-134358500D01*
X194585163Y-134358499D01*
X194585165Y-134358499D01*
X194607995Y-134351795D01*
X194723253Y-134317953D01*
X194844328Y-134240143D01*
X194938577Y-134131373D01*
X194998365Y-134000457D01*
X194998365Y-134000455D01*
X194998366Y-134000454D01*
X195018847Y-133858002D01*
X195018847Y-133857997D01*
X194998366Y-133715545D01*
X194976309Y-133667248D01*
X194938577Y-133584627D01*
X194931298Y-133576227D01*
X194844328Y-133475857D01*
X194723253Y-133398047D01*
X194723250Y-133398046D01*
X194585165Y-133357500D01*
X194585161Y-133357500D01*
X194453898Y-133357500D01*
X194419250Y-133343148D01*
X194404898Y-133308500D01*
X194404898Y-132588000D01*
X199581357Y-132588000D01*
X199601884Y-132809532D01*
X199601885Y-132809538D01*
X199662770Y-133023526D01*
X199662773Y-133023533D01*
X199761940Y-133222686D01*
X199761943Y-133222690D01*
X199896016Y-133400233D01*
X199896019Y-133400236D01*
X200060433Y-133550120D01*
X200060434Y-133550121D01*
X200060438Y-133550124D01*
X200249599Y-133667247D01*
X200457060Y-133747618D01*
X200675757Y-133788500D01*
X200675759Y-133788500D01*
X200898241Y-133788500D01*
X200898243Y-133788500D01*
X201116940Y-133747618D01*
X201324401Y-133667247D01*
X201513562Y-133550124D01*
X201677981Y-133400236D01*
X201812058Y-133222689D01*
X201911229Y-133023528D01*
X201972115Y-132809536D01*
X201992643Y-132588000D01*
X201972115Y-132366464D01*
X201911229Y-132152472D01*
X201812058Y-131953311D01*
X201710253Y-131818499D01*
X201677983Y-131775766D01*
X201677980Y-131775763D01*
X201513566Y-131625879D01*
X201513563Y-131625877D01*
X201513562Y-131625876D01*
X201324401Y-131508753D01*
X201324398Y-131508752D01*
X201324397Y-131508751D01*
X201198434Y-131459953D01*
X201116940Y-131428382D01*
X200898243Y-131387500D01*
X200675757Y-131387500D01*
X200457060Y-131428382D01*
X200457055Y-131428384D01*
X200249602Y-131508751D01*
X200060433Y-131625879D01*
X199896019Y-131775763D01*
X199896016Y-131775766D01*
X199761943Y-131953309D01*
X199761940Y-131953313D01*
X199662773Y-132152466D01*
X199662770Y-132152473D01*
X199601885Y-132366461D01*
X199601884Y-132366467D01*
X199581357Y-132588000D01*
X194404898Y-132588000D01*
X194404898Y-131317997D01*
X194507553Y-131317997D01*
X194507553Y-131318002D01*
X194528033Y-131460454D01*
X194546322Y-131500500D01*
X194587823Y-131591373D01*
X194587824Y-131591374D01*
X194587825Y-131591376D01*
X194617722Y-131625879D01*
X194682072Y-131700143D01*
X194803147Y-131777953D01*
X194879985Y-131800514D01*
X194941234Y-131818499D01*
X194941237Y-131818499D01*
X194941239Y-131818500D01*
X194941240Y-131818500D01*
X195085160Y-131818500D01*
X195085161Y-131818500D01*
X195085163Y-131818499D01*
X195085165Y-131818499D01*
X195107995Y-131811795D01*
X195223253Y-131777953D01*
X195344328Y-131700143D01*
X195438577Y-131591373D01*
X195498365Y-131460457D01*
X195498365Y-131460455D01*
X195498366Y-131460454D01*
X195518847Y-131318002D01*
X195518847Y-131317997D01*
X195498366Y-131175545D01*
X195476309Y-131127248D01*
X195438577Y-131044627D01*
X195433940Y-131039276D01*
X195344328Y-130935857D01*
X195223253Y-130858047D01*
X195221537Y-130857543D01*
X195085165Y-130817500D01*
X195085161Y-130817500D01*
X194941239Y-130817500D01*
X194941234Y-130817500D01*
X194803149Y-130858046D01*
X194682071Y-130935857D01*
X194587825Y-131044623D01*
X194587824Y-131044625D01*
X194528033Y-131175545D01*
X194507553Y-131317997D01*
X194404898Y-131317997D01*
X194404898Y-130048000D01*
X199581357Y-130048000D01*
X199601884Y-130269532D01*
X199601885Y-130269538D01*
X199662770Y-130483526D01*
X199662773Y-130483533D01*
X199761940Y-130682686D01*
X199761943Y-130682690D01*
X199896016Y-130860233D01*
X199896019Y-130860236D01*
X200060433Y-131010120D01*
X200060434Y-131010121D01*
X200060438Y-131010124D01*
X200249599Y-131127247D01*
X200457060Y-131207618D01*
X200675757Y-131248500D01*
X200675759Y-131248500D01*
X200898241Y-131248500D01*
X200898243Y-131248500D01*
X201116940Y-131207618D01*
X201324401Y-131127247D01*
X201513562Y-131010124D01*
X201677981Y-130860236D01*
X201812058Y-130682689D01*
X201911229Y-130483528D01*
X201972115Y-130269536D01*
X201992643Y-130048000D01*
X201972115Y-129826464D01*
X201911229Y-129612472D01*
X201812058Y-129413311D01*
X201677981Y-129235764D01*
X201531741Y-129102448D01*
X201513566Y-129085879D01*
X201513563Y-129085877D01*
X201513562Y-129085876D01*
X201324401Y-128968753D01*
X201324398Y-128968752D01*
X201324397Y-128968751D01*
X201220670Y-128928567D01*
X201116940Y-128888382D01*
X200898243Y-128847500D01*
X200675757Y-128847500D01*
X200457060Y-128888382D01*
X200457055Y-128888384D01*
X200249602Y-128968751D01*
X200060433Y-129085879D01*
X199896019Y-129235763D01*
X199896016Y-129235766D01*
X199761943Y-129413309D01*
X199761940Y-129413313D01*
X199662773Y-129612466D01*
X199662770Y-129612473D01*
X199601885Y-129826461D01*
X199601884Y-129826467D01*
X199581357Y-130048000D01*
X194404898Y-130048000D01*
X194404898Y-128720303D01*
X194979507Y-128720303D01*
X194979507Y-128720308D01*
X194999987Y-128862760D01*
X195032089Y-128933052D01*
X195059777Y-128993679D01*
X195059778Y-128993680D01*
X195059779Y-128993682D01*
X195139668Y-129085879D01*
X195154026Y-129102449D01*
X195275101Y-129180259D01*
X195351939Y-129202820D01*
X195413188Y-129220805D01*
X195413191Y-129220805D01*
X195413193Y-129220806D01*
X195413194Y-129220806D01*
X195557114Y-129220806D01*
X195557115Y-129220806D01*
X195557117Y-129220805D01*
X195557119Y-129220805D01*
X195579949Y-129214101D01*
X195695207Y-129180259D01*
X195816282Y-129102449D01*
X195910531Y-128993679D01*
X195970319Y-128862763D01*
X195970319Y-128862761D01*
X195970320Y-128862760D01*
X195990801Y-128720308D01*
X195990801Y-128720303D01*
X195970320Y-128577851D01*
X195965905Y-128568185D01*
X195910531Y-128446933D01*
X195816282Y-128338163D01*
X195695207Y-128260353D01*
X195695204Y-128260352D01*
X195557119Y-128219806D01*
X195557115Y-128219806D01*
X195413193Y-128219806D01*
X195413188Y-128219806D01*
X195275103Y-128260352D01*
X195154025Y-128338163D01*
X195059779Y-128446929D01*
X195059778Y-128446931D01*
X194999987Y-128577851D01*
X194979507Y-128720303D01*
X194404898Y-128720303D01*
X194404898Y-127508000D01*
X199581357Y-127508000D01*
X199601884Y-127729532D01*
X199601885Y-127729538D01*
X199662770Y-127943526D01*
X199662773Y-127943533D01*
X199761940Y-128142686D01*
X199761943Y-128142690D01*
X199896016Y-128320233D01*
X199896019Y-128320236D01*
X200060433Y-128470120D01*
X200060434Y-128470121D01*
X200060438Y-128470124D01*
X200249599Y-128587247D01*
X200457060Y-128667618D01*
X200675757Y-128708500D01*
X200675759Y-128708500D01*
X200898241Y-128708500D01*
X200898243Y-128708500D01*
X201116940Y-128667618D01*
X201324401Y-128587247D01*
X201513562Y-128470124D01*
X201677981Y-128320236D01*
X201812058Y-128142689D01*
X201911229Y-127943528D01*
X201972115Y-127729536D01*
X201992643Y-127508000D01*
X201972115Y-127286464D01*
X201911229Y-127072472D01*
X201812058Y-126873311D01*
X201712960Y-126742084D01*
X201677983Y-126695766D01*
X201677980Y-126695763D01*
X201513566Y-126545879D01*
X201513563Y-126545877D01*
X201513562Y-126545876D01*
X201324401Y-126428753D01*
X201324398Y-126428752D01*
X201324397Y-126428751D01*
X201155197Y-126363203D01*
X201116940Y-126348382D01*
X200898243Y-126307500D01*
X200675757Y-126307500D01*
X200457060Y-126348382D01*
X200457055Y-126348384D01*
X200249602Y-126428751D01*
X200060433Y-126545879D01*
X199896019Y-126695763D01*
X199896016Y-126695766D01*
X199761943Y-126873309D01*
X199761940Y-126873313D01*
X199662773Y-127072466D01*
X199662770Y-127072473D01*
X199601885Y-127286461D01*
X199601884Y-127286467D01*
X199581357Y-127508000D01*
X194404898Y-127508000D01*
X194404898Y-126583387D01*
X194419250Y-126548739D01*
X194453898Y-126534387D01*
X194488546Y-126548739D01*
X194491890Y-126552890D01*
X194491930Y-126552856D01*
X194549365Y-126619140D01*
X194588474Y-126664274D01*
X194709549Y-126742084D01*
X194786387Y-126764645D01*
X194847636Y-126782630D01*
X194847639Y-126782630D01*
X194847641Y-126782631D01*
X194847642Y-126782631D01*
X194991562Y-126782631D01*
X194991563Y-126782631D01*
X194991565Y-126782630D01*
X194991567Y-126782630D01*
X195014397Y-126775926D01*
X195129655Y-126742084D01*
X195250730Y-126664274D01*
X195344979Y-126555504D01*
X195404767Y-126424588D01*
X195404767Y-126424586D01*
X195404768Y-126424585D01*
X195425249Y-126282133D01*
X195425249Y-126282128D01*
X195404768Y-126139676D01*
X195396193Y-126120900D01*
X195344979Y-126008758D01*
X195329842Y-125991289D01*
X195250730Y-125899988D01*
X195241059Y-125893773D01*
X195129655Y-125822178D01*
X195127016Y-125821403D01*
X194991567Y-125781631D01*
X194991563Y-125781631D01*
X194847641Y-125781631D01*
X194847636Y-125781631D01*
X194709551Y-125822177D01*
X194709549Y-125822177D01*
X194709549Y-125822178D01*
X194672324Y-125846100D01*
X194588473Y-125899988D01*
X194491930Y-126011406D01*
X194490760Y-126010392D01*
X194464313Y-126028754D01*
X194427406Y-126022095D01*
X194406018Y-125991289D01*
X194404898Y-125980874D01*
X194404898Y-125502286D01*
X194375867Y-125393944D01*
X194375866Y-125393940D01*
X194375866Y-125393941D01*
X194374197Y-125387712D01*
X194374197Y-125387711D01*
X194314887Y-125284984D01*
X193997903Y-124968000D01*
X199581357Y-124968000D01*
X199601884Y-125189532D01*
X199601885Y-125189538D01*
X199662770Y-125403526D01*
X199662773Y-125403533D01*
X199761940Y-125602686D01*
X199761943Y-125602690D01*
X199896016Y-125780233D01*
X199896019Y-125780236D01*
X200060433Y-125930120D01*
X200060434Y-125930121D01*
X200060438Y-125930124D01*
X200249599Y-126047247D01*
X200457060Y-126127618D01*
X200675757Y-126168500D01*
X200675759Y-126168500D01*
X200898241Y-126168500D01*
X200898243Y-126168500D01*
X201116940Y-126127618D01*
X201324401Y-126047247D01*
X201513562Y-125930124D01*
X201677981Y-125780236D01*
X201812058Y-125602689D01*
X201911229Y-125403528D01*
X201972115Y-125189536D01*
X201992643Y-124968000D01*
X201972115Y-124746464D01*
X201911229Y-124532472D01*
X201812058Y-124333311D01*
X201692198Y-124174590D01*
X201677983Y-124155766D01*
X201677980Y-124155763D01*
X201513566Y-124005879D01*
X201513563Y-124005877D01*
X201513562Y-124005876D01*
X201324401Y-123888753D01*
X201324398Y-123888752D01*
X201324397Y-123888751D01*
X201203439Y-123841892D01*
X201116940Y-123808382D01*
X200898243Y-123767500D01*
X200675757Y-123767500D01*
X200457060Y-123808382D01*
X200457055Y-123808384D01*
X200249602Y-123888751D01*
X200060433Y-124005879D01*
X199896019Y-124155763D01*
X199896016Y-124155766D01*
X199761943Y-124333309D01*
X199761940Y-124333313D01*
X199662773Y-124532466D01*
X199662770Y-124532473D01*
X199601885Y-124746461D01*
X199601884Y-124746467D01*
X199581357Y-124968000D01*
X193997903Y-124968000D01*
X193426214Y-124396311D01*
X193323488Y-124337001D01*
X193323486Y-124337000D01*
X193299273Y-124330513D01*
X193269151Y-124322442D01*
X193208911Y-124306300D01*
X193208909Y-124306300D01*
X190826596Y-124306300D01*
X190791948Y-124291948D01*
X190500000Y-124000000D01*
X187973427Y-124000000D01*
X187938779Y-123985648D01*
X187924427Y-123951000D01*
X187936395Y-123918912D01*
X187951733Y-123901211D01*
X194483610Y-123901211D01*
X194483610Y-123901216D01*
X194504090Y-124043668D01*
X194536192Y-124113960D01*
X194563880Y-124174587D01*
X194563881Y-124174588D01*
X194563882Y-124174590D01*
X194607202Y-124224584D01*
X194658129Y-124283357D01*
X194779204Y-124361167D01*
X194856042Y-124383728D01*
X194917291Y-124401713D01*
X194917294Y-124401713D01*
X194917296Y-124401714D01*
X194917297Y-124401714D01*
X195061217Y-124401714D01*
X195061218Y-124401714D01*
X195061220Y-124401713D01*
X195061222Y-124401713D01*
X195084052Y-124395009D01*
X195199310Y-124361167D01*
X195320385Y-124283357D01*
X195414634Y-124174587D01*
X195474422Y-124043671D01*
X195474422Y-124043669D01*
X195474423Y-124043668D01*
X195494904Y-123901216D01*
X195494904Y-123901211D01*
X195474423Y-123758759D01*
X195456554Y-123719633D01*
X195414634Y-123627841D01*
X195396758Y-123607211D01*
X195320385Y-123519071D01*
X195301986Y-123507247D01*
X195199310Y-123441261D01*
X195199307Y-123441260D01*
X195061222Y-123400714D01*
X195061218Y-123400714D01*
X194917296Y-123400714D01*
X194917291Y-123400714D01*
X194779206Y-123441260D01*
X194779204Y-123441260D01*
X194779204Y-123441261D01*
X194741979Y-123465183D01*
X194658128Y-123519071D01*
X194563882Y-123627837D01*
X194563881Y-123627839D01*
X194504090Y-123758759D01*
X194483610Y-123901211D01*
X187951733Y-123901211D01*
X187962529Y-123888751D01*
X187978977Y-123869769D01*
X188038765Y-123738853D01*
X188038765Y-123738851D01*
X188038766Y-123738850D01*
X188059247Y-123596398D01*
X188059247Y-123596393D01*
X188038766Y-123453941D01*
X188022866Y-123419125D01*
X187978977Y-123323023D01*
X187884728Y-123214253D01*
X187763653Y-123136443D01*
X187763650Y-123136442D01*
X187625565Y-123095896D01*
X187625561Y-123095896D01*
X187481639Y-123095896D01*
X187481634Y-123095896D01*
X187343549Y-123136442D01*
X187222471Y-123214253D01*
X187128225Y-123323019D01*
X187128224Y-123323021D01*
X187068433Y-123453941D01*
X187047953Y-123596393D01*
X187047953Y-123596398D01*
X187068434Y-123738851D01*
X187068434Y-123738853D01*
X187099115Y-123806034D01*
X187100454Y-123843513D01*
X187081036Y-123867609D01*
X187070074Y-123874654D01*
X187070072Y-123874656D01*
X187028161Y-123923024D01*
X186994624Y-123939811D01*
X186959041Y-123927968D01*
X186948695Y-123915438D01*
X186940480Y-123901211D01*
X186939640Y-123899755D01*
X186937507Y-123895618D01*
X186927934Y-123874656D01*
X186920482Y-123858337D01*
X186909297Y-123845429D01*
X186903892Y-123837838D01*
X186898093Y-123827793D01*
X186898090Y-123827790D01*
X186898089Y-123827787D01*
X186868782Y-123798480D01*
X186866398Y-123795920D01*
X186835648Y-123760432D01*
X186835646Y-123760431D01*
X186826327Y-123754442D01*
X186818170Y-123747868D01*
X186814216Y-123743914D01*
X186814213Y-123743911D01*
X186814209Y-123743909D01*
X186814207Y-123743907D01*
X186773181Y-123720221D01*
X186771190Y-123719007D01*
X186733055Y-123694499D01*
X186711666Y-123663694D01*
X186718325Y-123626787D01*
X186744476Y-123607211D01*
X186744454Y-123607162D01*
X186744680Y-123607058D01*
X186745743Y-123606262D01*
X186747643Y-123605705D01*
X186868718Y-123527895D01*
X186962967Y-123419125D01*
X187022755Y-123288209D01*
X187022755Y-123288207D01*
X187022756Y-123288206D01*
X187043237Y-123145754D01*
X187043237Y-123145749D01*
X187022756Y-123003297D01*
X187014696Y-122985648D01*
X186962967Y-122872379D01*
X186868718Y-122763609D01*
X186747643Y-122685799D01*
X186747640Y-122685798D01*
X186719097Y-122677417D01*
X186689896Y-122653885D01*
X186684401Y-122637377D01*
X186673384Y-122560746D01*
X186672698Y-122555973D01*
X186681973Y-122519635D01*
X186714226Y-122500499D01*
X186721199Y-122500000D01*
X192499999Y-122500000D01*
X192500000Y-122500000D01*
X192572000Y-122428000D01*
X199581357Y-122428000D01*
X199601884Y-122649532D01*
X199601885Y-122649538D01*
X199662770Y-122863526D01*
X199662773Y-122863533D01*
X199761940Y-123062686D01*
X199761943Y-123062690D01*
X199896016Y-123240233D01*
X199896019Y-123240236D01*
X200060433Y-123390120D01*
X200060434Y-123390121D01*
X200060438Y-123390124D01*
X200249599Y-123507247D01*
X200457060Y-123587618D01*
X200675757Y-123628500D01*
X200675759Y-123628500D01*
X200898241Y-123628500D01*
X200898243Y-123628500D01*
X201116940Y-123587618D01*
X201324401Y-123507247D01*
X201513562Y-123390124D01*
X201677981Y-123240236D01*
X201812058Y-123062689D01*
X201911229Y-122863528D01*
X201972115Y-122649536D01*
X201992643Y-122428000D01*
X201972115Y-122206464D01*
X201911229Y-121992472D01*
X201812058Y-121793311D01*
X201677981Y-121615764D01*
X201566738Y-121514352D01*
X201513566Y-121465879D01*
X201513563Y-121465877D01*
X201513562Y-121465876D01*
X201324401Y-121348753D01*
X201324398Y-121348752D01*
X201324397Y-121348751D01*
X201220670Y-121308567D01*
X201116940Y-121268382D01*
X200898243Y-121227500D01*
X200675757Y-121227500D01*
X200457060Y-121268382D01*
X200457055Y-121268384D01*
X200249602Y-121348751D01*
X200060433Y-121465879D01*
X199896019Y-121615763D01*
X199896016Y-121615766D01*
X199761943Y-121793309D01*
X199761940Y-121793313D01*
X199662773Y-121992466D01*
X199662770Y-121992473D01*
X199601885Y-122206461D01*
X199601884Y-122206467D01*
X199581357Y-122428000D01*
X192572000Y-122428000D01*
X193485648Y-121514352D01*
X193520296Y-121500000D01*
X195499999Y-121500000D01*
X195500000Y-121500000D01*
X195985648Y-121014352D01*
X196020296Y-121000000D01*
X196999999Y-121000000D01*
X197000000Y-121000000D01*
X198112000Y-119888000D01*
X199581357Y-119888000D01*
X199601884Y-120109532D01*
X199601885Y-120109538D01*
X199662770Y-120323526D01*
X199662773Y-120323533D01*
X199761940Y-120522686D01*
X199761943Y-120522690D01*
X199896016Y-120700233D01*
X199896019Y-120700236D01*
X200060433Y-120850120D01*
X200060434Y-120850121D01*
X200060438Y-120850124D01*
X200249599Y-120967247D01*
X200457060Y-121047618D01*
X200675757Y-121088500D01*
X200675759Y-121088500D01*
X200898241Y-121088500D01*
X200898243Y-121088500D01*
X201116940Y-121047618D01*
X201324401Y-120967247D01*
X201513562Y-120850124D01*
X201677981Y-120700236D01*
X201812058Y-120522689D01*
X201911229Y-120323528D01*
X201972115Y-120109536D01*
X201992643Y-119888000D01*
X201972115Y-119666464D01*
X201911229Y-119452472D01*
X201812058Y-119253311D01*
X201677981Y-119075764D01*
X201677980Y-119075763D01*
X201513566Y-118925879D01*
X201513563Y-118925877D01*
X201513562Y-118925876D01*
X201324401Y-118808753D01*
X201324398Y-118808752D01*
X201324397Y-118808751D01*
X201220670Y-118768567D01*
X201116940Y-118728382D01*
X200898243Y-118687500D01*
X200675757Y-118687500D01*
X200457060Y-118728382D01*
X200457055Y-118728384D01*
X200249602Y-118808751D01*
X200060433Y-118925879D01*
X199896019Y-119075763D01*
X199896016Y-119075766D01*
X199761943Y-119253309D01*
X199761940Y-119253313D01*
X199662773Y-119452466D01*
X199662770Y-119452473D01*
X199601885Y-119666461D01*
X199601884Y-119666467D01*
X199581357Y-119888000D01*
X198112000Y-119888000D01*
X199485648Y-118514352D01*
X199520296Y-118500000D01*
X200428237Y-118500000D01*
X200445936Y-118503308D01*
G37*
%TD.AperFunction*%
%TD*%
M02*
