%TF.GenerationSoftware,KiCad,Pcbnew,8.0.4*%
%TF.CreationDate,2024-08-13T22:52:30+08:00*%
%TF.ProjectId,MAX30001_MINI,4d415833-3030-4303-915f-4d494e492e6b,rev?*%
%TF.SameCoordinates,Original*%
%TF.FileFunction,Soldermask,Top*%
%TF.FilePolarity,Negative*%
%FSLAX46Y46*%
G04 Gerber Fmt 4.6, Leading zero omitted, Abs format (unit mm)*
G04 Created by KiCad (PCBNEW 8.0.4) date 2024-08-13 22:52:30*
%MOMM*%
%LPD*%
G01*
G04 APERTURE LIST*
G04 Aperture macros list*
%AMRoundRect*
0 Rectangle with rounded corners*
0 $1 Rounding radius*
0 $2 $3 $4 $5 $6 $7 $8 $9 X,Y pos of 4 corners*
0 Add a 4 corners polygon primitive as box body*
4,1,4,$2,$3,$4,$5,$6,$7,$8,$9,$2,$3,0*
0 Add four circle primitives for the rounded corners*
1,1,$1+$1,$2,$3*
1,1,$1+$1,$4,$5*
1,1,$1+$1,$6,$7*
1,1,$1+$1,$8,$9*
0 Add four rect primitives between the rounded corners*
20,1,$1+$1,$2,$3,$4,$5,0*
20,1,$1+$1,$4,$5,$6,$7,0*
20,1,$1+$1,$6,$7,$8,$9,0*
20,1,$1+$1,$8,$9,$2,$3,0*%
%AMFreePoly0*
4,1,111,-2.563245,3.679731,-2.180727,3.619146,-1.806637,3.518909,-1.445074,3.380118,-1.100000,3.204294,-0.775195,2.993363,-0.474217,2.749636,-0.200364,2.475783,0.043363,2.174805,0.254294,1.850000,0.430118,1.504926,0.568909,1.143363,0.669146,0.769273,0.729731,0.386755,0.750000,0.000000,0.729731,-0.386755,0.669146,-0.769273,0.568909,-1.143363,0.430118,-1.504926,0.254294,-1.850000,
0.043363,-2.174805,-0.200364,-2.475783,-0.474217,-2.749636,-0.775195,-2.993363,-1.100000,-3.204294,-1.445074,-3.380118,-1.806637,-3.518909,-2.180727,-3.619146,-2.563245,-3.679731,-2.950000,-3.700000,-3.336755,-3.679731,-3.719273,-3.619146,-4.093363,-3.518909,-4.454926,-3.380118,-4.800000,-3.204294,-5.124805,-2.993363,-5.425783,-2.749636,-5.699636,-2.475783,-5.943363,-2.174805,-6.154294,-1.850000,
-6.330118,-1.504926,-6.468909,-1.143363,-6.569146,-0.769273,-6.629731,-0.386755,-6.650000,0.000000,-5.154720,0.000000,-5.135858,-0.287774,-5.079596,-0.570624,-4.986896,-0.843710,-4.859344,-1.102360,-4.699122,-1.342148,-4.508972,-1.558972,-4.292148,-1.749122,-4.052360,-1.909344,-3.793710,-2.036896,-3.520624,-2.129596,-3.237774,-2.185858,-2.950000,-2.204720,-2.662226,-2.185858,-2.379376,-2.129596,
-2.106290,-2.036896,-1.847640,-1.909344,-1.607852,-1.749122,-1.391028,-1.558972,-1.200878,-1.342148,-1.040656,-1.102360,-0.913104,-0.843710,-0.820404,-0.570624,-0.764142,-0.287774,-0.745280,0.000000,-0.764142,0.287774,-0.820404,0.570624,-0.913104,0.843710,-1.040656,1.102360,-1.200878,1.342148,-1.391028,1.558972,-1.607852,1.749122,-1.847640,1.909344,-2.106290,2.036896,-2.379376,2.129596,
-2.662226,2.185858,-2.950000,2.204720,-3.237774,2.185858,-3.520624,2.129596,-3.793710,2.036896,-4.052360,1.909344,-4.292148,1.749122,-4.508972,1.558972,-4.699122,1.342148,-4.859344,1.102360,-4.986896,0.843710,-5.079596,0.570624,-5.135858,0.287774,-5.154720,0.000000,-6.650000,0.000000,-6.629731,0.386755,-6.569146,0.769273,-6.468909,1.143363,-6.330118,1.504926,-6.154294,1.850000,
-5.943363,2.174805,-5.699636,2.475783,-5.425783,2.749636,-5.124805,2.993363,-4.800000,3.204294,-4.454926,3.380118,-4.093363,3.518909,-3.719273,3.619146,-3.336755,3.679731,-2.950000,3.700000,-2.563245,3.679731,-2.563245,3.679731,$1*%
%AMFreePoly1*
4,1,19,0.500000,-0.750000,0.000000,-0.750000,0.000000,-0.744911,-0.071157,-0.744911,-0.207708,-0.704816,-0.327430,-0.627875,-0.420627,-0.520320,-0.479746,-0.390866,-0.500000,-0.250000,-0.500000,0.250000,-0.479746,0.390866,-0.420627,0.520320,-0.327430,0.627875,-0.207708,0.704816,-0.071157,0.744911,0.000000,0.744911,0.000000,0.750000,0.500000,0.750000,0.500000,-0.750000,0.500000,-0.750000,
$1*%
%AMFreePoly2*
4,1,19,0.000000,0.744911,0.071157,0.744911,0.207708,0.704816,0.327430,0.627875,0.420627,0.520320,0.479746,0.390866,0.500000,0.250000,0.500000,-0.250000,0.479746,-0.390866,0.420627,-0.520320,0.327430,-0.627875,0.207708,-0.704816,0.071157,-0.744911,0.000000,-0.744911,0.000000,-0.750000,-0.500000,-0.750000,-0.500000,0.750000,0.000000,0.750000,0.000000,0.744911,0.000000,0.744911,
$1*%
G04 Aperture macros list end*
%ADD10RoundRect,0.225000X-0.225000X-0.250000X0.225000X-0.250000X0.225000X0.250000X-0.225000X0.250000X0*%
%ADD11RoundRect,0.225000X0.250000X-0.225000X0.250000X0.225000X-0.250000X0.225000X-0.250000X-0.225000X0*%
%ADD12R,1.000000X1.000000*%
%ADD13C,0.554000*%
%ADD14RoundRect,0.102000X-0.700000X0.200000X-0.700000X-0.200000X0.700000X-0.200000X0.700000X0.200000X0*%
%ADD15RoundRect,0.102000X-0.250000X0.100000X-0.250000X-0.100000X0.250000X-0.100000X0.250000X0.100000X0*%
%ADD16C,4.400000*%
%ADD17FreePoly0,0.000000*%
%ADD18RoundRect,0.200000X-0.200000X-0.275000X0.200000X-0.275000X0.200000X0.275000X-0.200000X0.275000X0*%
%ADD19RoundRect,0.200000X0.275000X-0.200000X0.275000X0.200000X-0.275000X0.200000X-0.275000X-0.200000X0*%
%ADD20R,1.700000X1.700000*%
%ADD21O,1.700000X1.700000*%
%ADD22RoundRect,0.200000X0.200000X0.275000X-0.200000X0.275000X-0.200000X-0.275000X0.200000X-0.275000X0*%
%ADD23FreePoly1,180.000000*%
%ADD24FreePoly2,180.000000*%
%ADD25RoundRect,0.150000X-0.150000X0.512500X-0.150000X-0.512500X0.150000X-0.512500X0.150000X0.512500X0*%
%ADD26FreePoly1,0.000000*%
%ADD27FreePoly2,0.000000*%
%ADD28FreePoly1,270.000000*%
%ADD29FreePoly2,270.000000*%
%ADD30RoundRect,0.225000X-0.250000X0.225000X-0.250000X-0.225000X0.250000X-0.225000X0.250000X0.225000X0*%
%ADD31RoundRect,0.225000X0.225000X0.250000X-0.225000X0.250000X-0.225000X-0.250000X0.225000X-0.250000X0*%
G04 APERTURE END LIST*
D10*
%TO.C,C25*%
X177164400Y-125933200D03*
X178714400Y-125933200D03*
%TD*%
D11*
%TO.C,C1*%
X183757000Y-120939000D03*
X183757000Y-119389000D03*
%TD*%
D12*
%TO.C,TP3*%
X192582800Y-134416800D03*
%TD*%
D11*
%TO.C,C6*%
X186690000Y-120930000D03*
X186690000Y-119380000D03*
%TD*%
%TO.C,C20*%
X176936681Y-129184681D03*
X176936681Y-130734681D03*
%TD*%
D13*
%TO.C,U2*%
X186539000Y-126111000D03*
X186039000Y-126111000D03*
X185539000Y-126111000D03*
X185039000Y-126111000D03*
X184539000Y-126111000D03*
X184039000Y-126111000D03*
X186539000Y-125611000D03*
X186039000Y-125611000D03*
X185539000Y-125611000D03*
X185039000Y-125611000D03*
X184539000Y-125611000D03*
X184039000Y-125611000D03*
X186539000Y-125111000D03*
X186039000Y-125111000D03*
X185539000Y-125111000D03*
X185039000Y-125111000D03*
X184539000Y-125111000D03*
X184039000Y-125111000D03*
X186539000Y-124611000D03*
X186039000Y-124611000D03*
X185539000Y-124611000D03*
X185039000Y-124611000D03*
X184539000Y-124611000D03*
X184039000Y-124611000D03*
X186539000Y-124111000D03*
X186039000Y-124111000D03*
X185539000Y-124111000D03*
X185039000Y-124111000D03*
X184539000Y-124111000D03*
X184039000Y-124111000D03*
%TD*%
D14*
%TO.C,U4*%
X195133200Y-116600000D03*
D15*
X194683200Y-117300000D03*
D14*
X195133200Y-118200000D03*
D15*
X195583200Y-117500000D03*
%TD*%
D16*
%TO.C,J1*%
X162500000Y-135500000D03*
D17*
X165450000Y-135500000D03*
%TD*%
D18*
%TO.C,R7*%
X195517000Y-128879600D03*
X197167000Y-128879600D03*
%TD*%
D10*
%TO.C,C19*%
X195249200Y-115163600D03*
X196799200Y-115163600D03*
%TD*%
D19*
%TO.C,R10*%
X173736000Y-110045000D03*
X173736000Y-108395000D03*
%TD*%
D12*
%TO.C,TP4*%
X192379600Y-127152400D03*
%TD*%
D20*
%TO.C,J4*%
X200787000Y-109728000D03*
D21*
X200787000Y-112268000D03*
X200787000Y-114808000D03*
X200787000Y-117348000D03*
X200787000Y-119888000D03*
X200787000Y-122428000D03*
X200787000Y-124968000D03*
X200787000Y-127508000D03*
X200787000Y-130048000D03*
X200787000Y-132588000D03*
X200787000Y-135128000D03*
X200787000Y-137668000D03*
%TD*%
D22*
%TO.C,R15*%
X175399481Y-129108481D03*
X173749481Y-129108481D03*
%TD*%
%TO.C,FB1*%
X197167000Y-106629200D03*
X195517000Y-106629200D03*
%TD*%
%TO.C,R5*%
X178625000Y-112522000D03*
X176975000Y-112522000D03*
%TD*%
D23*
%TO.C,JP7*%
X175361600Y-126796800D03*
D24*
X174061600Y-126796800D03*
%TD*%
D22*
%TO.C,R17*%
X177139600Y-135483600D03*
X175489600Y-135483600D03*
%TD*%
%TO.C,R18*%
X175451000Y-124409200D03*
X177101000Y-124409200D03*
%TD*%
D11*
%TO.C,C5*%
X188214000Y-120930000D03*
X188214000Y-119380000D03*
%TD*%
D25*
%TO.C,U1*%
X191897000Y-108596000D03*
X190947000Y-108596000D03*
X189997000Y-108596000D03*
X189997000Y-110871000D03*
X191897000Y-110871000D03*
%TD*%
D26*
%TO.C,JP5*%
X174091600Y-132943600D03*
D27*
X175391600Y-132943600D03*
%TD*%
D22*
%TO.C,R1*%
X191579000Y-112776000D03*
X189929000Y-112776000D03*
%TD*%
D18*
%TO.C,R12*%
X195517000Y-136347200D03*
X197167000Y-136347200D03*
%TD*%
D10*
%TO.C,C23*%
X177164400Y-133959600D03*
X178714400Y-133959600D03*
%TD*%
%TO.C,C18*%
X170738481Y-130683281D03*
X172288481Y-130683281D03*
%TD*%
D25*
%TO.C,U3*%
X178826000Y-108469000D03*
X177876000Y-108469000D03*
X176926000Y-108469000D03*
X176926000Y-110744000D03*
X178826000Y-110744000D03*
%TD*%
D10*
%TO.C,C22*%
X177164400Y-127508000D03*
X178714400Y-127508000D03*
%TD*%
D11*
%TO.C,C7*%
X188214000Y-109982000D03*
X188214000Y-108432000D03*
%TD*%
D16*
%TO.C,J2*%
X162661600Y-124714000D03*
D17*
X165611600Y-124714000D03*
%TD*%
D12*
%TO.C,TP1*%
X187706000Y-115570000D03*
%TD*%
D11*
%TO.C,C2*%
X182106000Y-120926000D03*
X182106000Y-119376000D03*
%TD*%
D18*
%TO.C,R9*%
X195517000Y-133858000D03*
X197167000Y-133858000D03*
%TD*%
D28*
%TO.C,JP8*%
X184531000Y-115540000D03*
D29*
X184531000Y-116840000D03*
%TD*%
D17*
%TO.C,J3*%
X165433519Y-107771919D03*
D16*
X162483519Y-107771919D03*
%TD*%
D22*
%TO.C,R13*%
X173737281Y-130683281D03*
X175387281Y-130683281D03*
%TD*%
D30*
%TO.C,C4*%
X193548000Y-106934000D03*
X193548000Y-108484000D03*
%TD*%
%TO.C,C15*%
X180665000Y-107188000D03*
X180665000Y-108738000D03*
%TD*%
D12*
%TO.C,TP2*%
X190000000Y-126034800D03*
%TD*%
D28*
%TO.C,JP9*%
X181610000Y-115555000D03*
D29*
X181610000Y-116855000D03*
%TD*%
D11*
%TO.C,C3*%
X193548000Y-112789000D03*
X193548000Y-111239000D03*
%TD*%
D18*
%TO.C,R16*%
X172339281Y-127584481D03*
X170689281Y-127584481D03*
%TD*%
D22*
%TO.C,R3*%
X177151800Y-121259600D03*
X175501800Y-121259600D03*
%TD*%
D11*
%TO.C,C14*%
X180594000Y-112522000D03*
X180594000Y-110972000D03*
%TD*%
D23*
%TO.C,JP1*%
X191645500Y-106002000D03*
D24*
X190345500Y-106002000D03*
%TD*%
D10*
%TO.C,C9*%
X192595800Y-129032000D03*
X191045800Y-129032000D03*
%TD*%
D28*
%TO.C,JP4*%
X171450000Y-108570000D03*
D29*
X171450000Y-109870000D03*
%TD*%
D10*
%TO.C,C8*%
X191045800Y-132334000D03*
X192595800Y-132334000D03*
%TD*%
D23*
%TO.C,JP3*%
X178592000Y-105791000D03*
D24*
X177292000Y-105791000D03*
%TD*%
D23*
%TO.C,JP6*%
X195650000Y-120000000D03*
D24*
X194350000Y-120000000D03*
%TD*%
D28*
%TO.C,JP2*%
X184404000Y-108682000D03*
D29*
X184404000Y-109982000D03*
%TD*%
D12*
%TO.C,TP5*%
X178562000Y-115570000D03*
%TD*%
D18*
%TO.C,R8*%
X195517000Y-131368800D03*
X197167000Y-131368800D03*
%TD*%
D22*
%TO.C,FB2*%
X183908200Y-106730800D03*
X182258200Y-106730800D03*
%TD*%
D11*
%TO.C,C16*%
X175260000Y-109995000D03*
X175260000Y-108445000D03*
%TD*%
D22*
%TO.C,R14*%
X172339281Y-132207281D03*
X170689281Y-132207281D03*
%TD*%
D19*
%TO.C,R2*%
X186690000Y-110045000D03*
X186690000Y-108395000D03*
%TD*%
D18*
%TO.C,R4*%
X195517000Y-123901200D03*
X197167000Y-123901200D03*
%TD*%
D10*
%TO.C,C17*%
X177177400Y-132384800D03*
X178727400Y-132384800D03*
%TD*%
D31*
%TO.C,C21*%
X172288481Y-129108481D03*
X170738481Y-129108481D03*
%TD*%
D18*
%TO.C,R6*%
X195517000Y-126390400D03*
X197167000Y-126390400D03*
%TD*%
M02*
