%TF.GenerationSoftware,KiCad,Pcbnew,8.0.4*%
%TF.CreationDate,2024-08-13T22:52:30+08:00*%
%TF.ProjectId,MAX30001_MINI,4d415833-3030-4303-915f-4d494e492e6b,rev?*%
%TF.SameCoordinates,Original*%
%TF.FileFunction,Copper,L4,Bot*%
%TF.FilePolarity,Positive*%
%FSLAX46Y46*%
G04 Gerber Fmt 4.6, Leading zero omitted, Abs format (unit mm)*
G04 Created by KiCad (PCBNEW 8.0.4) date 2024-08-13 22:52:30*
%MOMM*%
%LPD*%
G01*
G04 APERTURE LIST*
G04 Aperture macros list*
%AMRoundRect*
0 Rectangle with rounded corners*
0 $1 Rounding radius*
0 $2 $3 $4 $5 $6 $7 $8 $9 X,Y pos of 4 corners*
0 Add a 4 corners polygon primitive as box body*
4,1,4,$2,$3,$4,$5,$6,$7,$8,$9,$2,$3,0*
0 Add four circle primitives for the rounded corners*
1,1,$1+$1,$2,$3*
1,1,$1+$1,$4,$5*
1,1,$1+$1,$6,$7*
1,1,$1+$1,$8,$9*
0 Add four rect primitives between the rounded corners*
20,1,$1+$1,$2,$3,$4,$5,0*
20,1,$1+$1,$4,$5,$6,$7,0*
20,1,$1+$1,$6,$7,$8,$9,0*
20,1,$1+$1,$8,$9,$2,$3,0*%
G04 Aperture macros list end*
%TA.AperFunction,ComponentPad*%
%ADD10R,1.000000X1.000000*%
%TD*%
%TA.AperFunction,ComponentPad*%
%ADD11R,1.700000X1.700000*%
%TD*%
%TA.AperFunction,ComponentPad*%
%ADD12O,1.700000X1.700000*%
%TD*%
%TA.AperFunction,SMDPad,CuDef*%
%ADD13RoundRect,0.225000X0.250000X-0.225000X0.250000X0.225000X-0.250000X0.225000X-0.250000X-0.225000X0*%
%TD*%
%TA.AperFunction,SMDPad,CuDef*%
%ADD14RoundRect,0.225000X-0.225000X-0.250000X0.225000X-0.250000X0.225000X0.250000X-0.225000X0.250000X0*%
%TD*%
%TA.AperFunction,SMDPad,CuDef*%
%ADD15RoundRect,0.225000X-0.250000X0.225000X-0.250000X-0.225000X0.250000X-0.225000X0.250000X0.225000X0*%
%TD*%
%TA.AperFunction,SMDPad,CuDef*%
%ADD16RoundRect,0.200000X-0.200000X-0.275000X0.200000X-0.275000X0.200000X0.275000X-0.200000X0.275000X0*%
%TD*%
%TA.AperFunction,SMDPad,CuDef*%
%ADD17RoundRect,0.225000X0.225000X0.250000X-0.225000X0.250000X-0.225000X-0.250000X0.225000X-0.250000X0*%
%TD*%
%TA.AperFunction,ViaPad*%
%ADD18C,0.300000*%
%TD*%
%TA.AperFunction,ViaPad*%
%ADD19C,0.200000*%
%TD*%
%TA.AperFunction,Conductor*%
%ADD20C,0.200000*%
%TD*%
%TA.AperFunction,Conductor*%
%ADD21C,0.500000*%
%TD*%
G04 APERTURE END LIST*
D10*
%TO.P,TP3,1,1*%
%TO.N,Net-(C8-Pad2)*%
X192582800Y-134416800D03*
%TD*%
%TO.P,TP4,1,1*%
%TO.N,Net-(C9-Pad2)*%
X192379600Y-127152400D03*
%TD*%
D11*
%TO.P,J4,1,Pin_1*%
%TO.N,3V3_D*%
X200787000Y-109728000D03*
D12*
%TO.P,J4,2,Pin_2*%
%TO.N,GNDD*%
X200787000Y-112268000D03*
%TO.P,J4,3,Pin_3*%
%TO.N,1V8_A*%
X200787000Y-114808000D03*
%TO.P,J4,4,Pin_4*%
%TO.N,GNDA*%
X200787000Y-117348000D03*
%TO.P,J4,5,Pin_5*%
%TO.N,Net-(J4-Pin_5)*%
X200787000Y-119888000D03*
%TO.P,J4,6,Pin_6*%
%TO.N,Net-(J4-Pin_6)*%
X200787000Y-122428000D03*
%TO.P,J4,7,Pin_7*%
%TO.N,Net-(J4-Pin_7)*%
X200787000Y-124968000D03*
%TO.P,J4,8,Pin_8*%
%TO.N,Net-(J4-Pin_8)*%
X200787000Y-127508000D03*
%TO.P,J4,9,Pin_9*%
%TO.N,Net-(J4-Pin_9)*%
X200787000Y-130048000D03*
%TO.P,J4,10,Pin_10*%
%TO.N,Net-(J4-Pin_10)*%
X200787000Y-132588000D03*
%TO.P,J4,11,Pin_11*%
%TO.N,5V0_IN*%
X200787000Y-135128000D03*
%TO.P,J4,12,Pin_12*%
%TO.N,GND*%
X200787000Y-137668000D03*
%TD*%
D13*
%TO.P,C24,2*%
%TO.N,BIN*%
X177038000Y-129171400D03*
%TO.P,C24,1*%
%TO.N,BIP*%
X177038000Y-130721400D03*
%TD*%
D14*
%TO.P,C10,1*%
%TO.N,Net-(U2-CAPP)*%
X182359000Y-126847600D03*
%TO.P,C10,2*%
%TO.N,Net-(U2-CAPN)*%
X183909000Y-126847600D03*
%TD*%
D15*
%TO.P,C13,1*%
%TO.N,Net-(U2-VREF)*%
X188518800Y-127914400D03*
%TO.P,C13,2*%
%TO.N,GNDA*%
X188518800Y-129464400D03*
%TD*%
D10*
%TO.P,TP1,1,1*%
%TO.N,Net-(JP8-A)*%
X187706000Y-115570000D03*
%TD*%
%TO.P,TP2,1,1*%
%TO.N,Net-(U2-AOUT)*%
X190000000Y-126034800D03*
%TD*%
D13*
%TO.P,C12,1*%
%TO.N,Net-(U2-CPLL)*%
X182219600Y-123812600D03*
%TO.P,C12,2*%
%TO.N,GNDA*%
X182219600Y-122262600D03*
%TD*%
D16*
%TO.P,R11,1*%
%TO.N,GNDA*%
X185255400Y-128371600D03*
%TO.P,R11,2*%
%TO.N,RBIAS*%
X186905400Y-128371600D03*
%TD*%
D17*
%TO.P,C11,1*%
%TO.N,Net-(U2-VBG)*%
X186842400Y-129895600D03*
%TO.P,C11,2*%
%TO.N,GNDA*%
X185292400Y-129895600D03*
%TD*%
D10*
%TO.P,TP5,1,1*%
%TO.N,Net-(JP9-A)*%
X178562000Y-115570000D03*
%TD*%
D18*
%TO.N,GNDA*%
X179500000Y-117000000D03*
X179500000Y-118000000D03*
%TO.N,GND*%
X191000000Y-124000000D03*
X194500000Y-132500000D03*
X194500000Y-129500000D03*
X194500000Y-130500000D03*
X196000000Y-122000000D03*
X195000000Y-122000000D03*
X202500000Y-139000000D03*
X197500000Y-139000000D03*
X196000000Y-139000000D03*
X195000000Y-138000000D03*
%TO.N,BIP*%
X177164400Y-133959600D03*
%TO.N,BIN*%
X177164400Y-125933200D03*
%TO.N,GNDD*%
X185500000Y-106000000D03*
X185000000Y-105500000D03*
X184000000Y-105500000D03*
X187000000Y-107000000D03*
X185500000Y-107000000D03*
X185500000Y-111500000D03*
X185500000Y-112500000D03*
X187000000Y-112500000D03*
X187000000Y-111500000D03*
X196000000Y-110500000D03*
X196000000Y-109000000D03*
X197000000Y-109000000D03*
X195000000Y-105000000D03*
X194000000Y-105000000D03*
X193000000Y-105000000D03*
X189000000Y-107000000D03*
X189000000Y-106000000D03*
X189000000Y-105000000D03*
X186500000Y-118000000D03*
X187500000Y-118000000D03*
X188500000Y-118000000D03*
X195000000Y-110000000D03*
%TO.N,GNDA*%
X181000000Y-134000000D03*
X183500000Y-131500000D03*
X182000000Y-133000000D03*
X176500000Y-117500000D03*
X175000000Y-116000000D03*
X173500000Y-114500000D03*
X172000000Y-113000000D03*
X170500000Y-111500000D03*
X176000000Y-107000000D03*
X182000000Y-108500000D03*
X182000000Y-108000000D03*
X182500000Y-108000000D03*
X182500000Y-105500000D03*
X182000000Y-105500000D03*
X181500000Y-105500000D03*
X171000000Y-107500000D03*
X171500000Y-107500000D03*
X172000000Y-107500000D03*
X172500000Y-107500000D03*
X182500000Y-118000000D03*
X180500000Y-122000000D03*
X181000000Y-122500000D03*
X181000000Y-122000000D03*
X180000000Y-134500000D03*
X180000000Y-134000000D03*
X180000000Y-133500000D03*
X180000000Y-133000000D03*
X180000000Y-132500000D03*
X180000000Y-132000000D03*
X180000000Y-128000000D03*
X180000000Y-127500000D03*
X180000000Y-127000000D03*
X180000000Y-126500000D03*
X180000000Y-126000000D03*
X180000000Y-125500000D03*
X185000000Y-131000000D03*
X186000000Y-131000000D03*
X187000000Y-131000000D03*
X188000000Y-131000000D03*
X183000000Y-118000000D03*
X182000000Y-118000000D03*
X180500000Y-125000000D03*
X181500000Y-111000000D03*
%TO.N,1V8_A*%
X181610000Y-116855000D03*
%TO.N,GNDD*%
X186690000Y-119380000D03*
D19*
X184556400Y-125120400D03*
D18*
%TO.N,Net-(U2-VREF)*%
X187401200Y-124256800D03*
%TO.N,INT2B*%
X194513200Y-133858000D03*
%TO.N,SDO*%
X195013200Y-131318000D03*
%TO.N,SDI*%
X195485154Y-128720306D03*
%TO.N,SCLK*%
X194919602Y-126282131D03*
%TO.N,CSB*%
X194989257Y-123901214D03*
D19*
%TO.N,Net-(U2-AOUT)*%
X186039000Y-125111000D03*
D18*
%TO.N,INTB*%
X193954398Y-136093200D03*
%TO.N,CSB*%
X186183956Y-121714207D03*
D19*
%TO.N,1V8_A*%
X184048400Y-124612400D03*
X186537600Y-124104400D03*
D18*
%TO.N,INT2B*%
X187553600Y-123596396D03*
D19*
%TO.N,INTB*%
X186047029Y-124610463D03*
D18*
%TO.N,SDO*%
X186537590Y-123145752D03*
%TO.N,SDI*%
X186182000Y-122659948D03*
%TO.N,SCLK*%
X185831802Y-122179402D03*
%TO.N,Net-(U2-VCM)*%
X188053600Y-125620400D03*
X182270400Y-125069600D03*
D19*
%TO.N,GNDA*%
X185064400Y-125577600D03*
D18*
%TO.N,FCLK*%
X193000000Y-120000000D03*
%TO.N,3V3_D*%
X188925194Y-121156781D03*
%TO.N,BIP*%
X182524400Y-130107455D03*
%TO.N,BIN*%
X183557055Y-129607455D03*
D19*
%TO.N,Net-(U2-CAPN)*%
X184556400Y-125628400D03*
D18*
%TO.N,Net-(U2-CAPP)*%
X183235600Y-126026800D03*
%TO.N,Net-(U2-CPLL)*%
X183368089Y-124976000D03*
%TO.N,Net-(U2-VBG)*%
X187022405Y-125737512D03*
D19*
%TO.N,3V3_D*%
X185541326Y-124609769D03*
%TO.N,FCLK*%
X184536984Y-124613655D03*
D18*
%TO.N,5V0_IN*%
X191770000Y-104140000D03*
X178562000Y-103886000D03*
D19*
%TO.N,RBIAS*%
X186029600Y-125628400D03*
%TD*%
D20*
%TO.N,FCLK*%
X189000000Y-120000000D02*
X193000000Y-120000000D01*
X187929554Y-121070446D02*
X189000000Y-120000000D01*
X184536984Y-122603908D02*
X186070446Y-121070446D01*
X186070446Y-121070446D02*
X187929554Y-121070446D01*
%TO.N,BIP*%
X177038000Y-130721400D02*
X177038000Y-133833200D01*
X177038000Y-133833200D02*
X177164400Y-133959600D01*
%TO.N,BIN*%
X177038000Y-129171400D02*
X177038000Y-126059600D01*
X177038000Y-126059600D02*
X177164400Y-125933200D01*
%TO.N,FCLK*%
X184536984Y-124613655D02*
X184536984Y-122603908D01*
%TO.N,Net-(U2-VBG)*%
X187022405Y-126983691D02*
X187022405Y-125737512D01*
X187655200Y-127616486D02*
X187022405Y-126983691D01*
X186842400Y-129895600D02*
X187292400Y-129895600D01*
X187655200Y-129532800D02*
X187655200Y-127616486D01*
X187292400Y-129895600D02*
X187655200Y-129532800D01*
%TO.N,Net-(U2-VREF)*%
X188518800Y-127914400D02*
X188518800Y-125374400D01*
X188518800Y-125374400D02*
X187401200Y-124256800D01*
%TO.N,3V3_D*%
X186386648Y-123645752D02*
X186795507Y-123645752D01*
X185541326Y-124491074D02*
X186386648Y-123645752D01*
X188925194Y-121516065D02*
X188925194Y-121156781D01*
X185541326Y-124609769D02*
X185541326Y-124491074D01*
X186795507Y-123645752D02*
X188925194Y-121516065D01*
%TO.N,Net-(U2-CPLL)*%
X182219600Y-123827511D02*
X183368089Y-124976000D01*
X182219600Y-123812600D02*
X182219600Y-123827511D01*
%TO.N,Net-(U2-CAPP)*%
X182359000Y-126847600D02*
X183179800Y-126026800D01*
X183179800Y-126026800D02*
X183235600Y-126026800D01*
%TO.N,RBIAS*%
X186905400Y-128371600D02*
X186905400Y-128129800D01*
X186905400Y-128129800D02*
X186029600Y-127254000D01*
X186029600Y-127254000D02*
X186029600Y-125628400D01*
%TO.N,GNDA*%
X185255400Y-128371600D02*
X185255400Y-125768600D01*
X185255400Y-125768600D02*
X185064400Y-125577600D01*
%TO.N,Net-(U2-CAPN)*%
X184556400Y-126200200D02*
X183909000Y-126847600D01*
X184556400Y-125628400D02*
X184556400Y-126200200D01*
%TO.N,BIP*%
X182524400Y-130107455D02*
X178553345Y-130107455D01*
X177939400Y-130721400D02*
X177038000Y-130721400D01*
X178553345Y-130107455D02*
X177939400Y-130721400D01*
%TO.N,BIN*%
X178629455Y-129607455D02*
X178193400Y-129171400D01*
X183557055Y-129607455D02*
X178629455Y-129607455D01*
X178193400Y-129171400D02*
X177038000Y-129171400D01*
D21*
%TO.N,5V0_IN*%
X191770000Y-102870000D02*
X179578000Y-102870000D01*
X197866000Y-102870000D02*
X191770000Y-102870000D01*
X191770000Y-102870000D02*
X191770000Y-104140000D01*
X200787000Y-135128000D02*
X202011000Y-135128000D01*
X179578000Y-102870000D02*
X178562000Y-103886000D01*
X202011000Y-135128000D02*
X202773000Y-134366000D01*
X202773000Y-134366000D02*
X202773000Y-107777000D01*
X202773000Y-107777000D02*
X197866000Y-102870000D01*
%TD*%
%TA.AperFunction,Conductor*%
%TO.N,GNDD*%
G36*
X191295116Y-104514352D02*
G01*
X191401284Y-104620520D01*
X191401287Y-104620521D01*
X191401290Y-104620524D01*
X191538213Y-104699576D01*
X191538215Y-104699576D01*
X191538216Y-104699577D01*
X191658665Y-104731851D01*
X191690939Y-104740499D01*
X191690940Y-104740500D01*
X191690943Y-104740500D01*
X191849060Y-104740500D01*
X191849060Y-104740499D01*
X192001784Y-104699577D01*
X192138716Y-104620520D01*
X192244884Y-104514352D01*
X192279532Y-104500000D01*
X194979704Y-104500000D01*
X195014352Y-104514352D01*
X195985648Y-105485648D01*
X196000000Y-105520296D01*
X196000000Y-108500000D01*
X198951000Y-108500000D01*
X198985648Y-108514352D01*
X199000000Y-108549000D01*
X199000000Y-110479704D01*
X198985648Y-110514352D01*
X198514352Y-110985648D01*
X198479704Y-111000000D01*
X198000000Y-111000000D01*
X193514352Y-115485648D01*
X193479704Y-115500000D01*
X191000000Y-115500000D01*
X189500000Y-116999999D01*
X189500000Y-118451000D01*
X189485648Y-118485648D01*
X189451000Y-118500000D01*
X187999999Y-118500000D01*
X186213628Y-119988643D01*
X186182259Y-120000000D01*
X185520296Y-120000000D01*
X185485648Y-119985648D01*
X185014352Y-119514352D01*
X185000000Y-119479704D01*
X185000000Y-117500000D01*
X184514352Y-117014352D01*
X184500000Y-116979704D01*
X184500000Y-115036740D01*
X186855500Y-115036740D01*
X186855500Y-116103260D01*
X186865427Y-116171393D01*
X186916802Y-116276483D01*
X186999517Y-116359198D01*
X187104607Y-116410573D01*
X187152884Y-116417606D01*
X187172738Y-116420500D01*
X187172740Y-116420500D01*
X188239262Y-116420500D01*
X188256590Y-116417974D01*
X188307393Y-116410573D01*
X188412483Y-116359198D01*
X188495198Y-116276483D01*
X188546573Y-116171393D01*
X188556500Y-116103260D01*
X188556500Y-115036740D01*
X188546573Y-114968607D01*
X188495198Y-114863517D01*
X188412483Y-114780802D01*
X188359938Y-114755114D01*
X188307396Y-114729428D01*
X188307394Y-114729427D01*
X188239262Y-114719500D01*
X188239260Y-114719500D01*
X187172740Y-114719500D01*
X187172738Y-114719500D01*
X187104605Y-114729427D01*
X187104603Y-114729428D01*
X186999519Y-114780801D01*
X186999515Y-114780803D01*
X186916803Y-114863515D01*
X186916801Y-114863519D01*
X186865428Y-114968603D01*
X186865427Y-114968605D01*
X186865427Y-114968607D01*
X186855500Y-115036740D01*
X184500000Y-115036740D01*
X184500000Y-112000000D01*
X183514352Y-111014352D01*
X183500000Y-110979704D01*
X183500000Y-105020296D01*
X183514352Y-104985648D01*
X183985648Y-104514352D01*
X184020296Y-104500000D01*
X191260468Y-104500000D01*
X191295116Y-104514352D01*
G37*
%TD.AperFunction*%
%TD*%
%TA.AperFunction,Conductor*%
%TO.N,GNDA*%
G36*
X182514352Y-104514352D02*
G01*
X182985648Y-104985648D01*
X183000000Y-105020296D01*
X183000000Y-107979704D01*
X182985648Y-108014352D01*
X182000000Y-108999999D01*
X182000000Y-112000000D01*
X182485648Y-112485648D01*
X182500000Y-112520296D01*
X182500000Y-117000000D01*
X184485648Y-118985648D01*
X184500000Y-119020296D01*
X184500000Y-121983492D01*
X184485648Y-122018140D01*
X184176495Y-122327293D01*
X184117185Y-122430019D01*
X184115516Y-122436251D01*
X184115515Y-122436250D01*
X184115515Y-122436254D01*
X184086484Y-122544596D01*
X184086484Y-124112900D01*
X184072132Y-124147548D01*
X184037484Y-124161900D01*
X183983623Y-124161900D01*
X183859333Y-124198395D01*
X183750350Y-124268433D01*
X183665519Y-124366336D01*
X183665518Y-124366337D01*
X183612537Y-124482346D01*
X183585088Y-124507901D01*
X183554160Y-124509005D01*
X183543562Y-124505893D01*
X183522719Y-124493526D01*
X183059452Y-124030259D01*
X183045100Y-123995611D01*
X183045100Y-123549883D01*
X183030287Y-123437364D01*
X182972300Y-123297371D01*
X182972297Y-123297366D01*
X182880051Y-123177149D01*
X182880050Y-123177148D01*
X182870767Y-123170025D01*
X182852015Y-123137547D01*
X182861722Y-123101322D01*
X182874872Y-123089446D01*
X182922334Y-123060170D01*
X183042171Y-122940333D01*
X183131146Y-122796084D01*
X183184456Y-122635203D01*
X183194600Y-122535917D01*
X183194600Y-122512600D01*
X181244601Y-122512600D01*
X181244601Y-122535916D01*
X181254743Y-122635203D01*
X181308053Y-122796084D01*
X181397028Y-122940333D01*
X181516866Y-123060171D01*
X181564326Y-123089445D01*
X181586281Y-123119850D01*
X181580307Y-123156874D01*
X181568435Y-123170022D01*
X181559149Y-123177148D01*
X181466902Y-123297366D01*
X181466899Y-123297371D01*
X181408912Y-123437364D01*
X181398293Y-123518025D01*
X181394100Y-123549880D01*
X181394100Y-124075320D01*
X181399691Y-124117792D01*
X181408912Y-124187835D01*
X181466899Y-124327828D01*
X181466902Y-124327833D01*
X181496446Y-124366336D01*
X181559149Y-124448051D01*
X181679367Y-124540298D01*
X181679369Y-124540298D01*
X181679371Y-124540300D01*
X181770213Y-124577928D01*
X181819364Y-124598287D01*
X181906106Y-124609706D01*
X181938584Y-124628457D01*
X181948291Y-124664682D01*
X181936742Y-124690375D01*
X181845025Y-124796223D01*
X181845024Y-124796225D01*
X181785233Y-124927145D01*
X181764753Y-125069597D01*
X181764753Y-125069602D01*
X181785233Y-125212054D01*
X181802277Y-125249373D01*
X181845023Y-125342973D01*
X181845024Y-125342974D01*
X181845025Y-125342976D01*
X181913275Y-125421741D01*
X181939272Y-125451743D01*
X182060347Y-125529553D01*
X182133584Y-125551057D01*
X182198434Y-125570099D01*
X182198437Y-125570099D01*
X182198439Y-125570100D01*
X182198440Y-125570100D01*
X182342360Y-125570100D01*
X182342361Y-125570100D01*
X182342363Y-125570099D01*
X182342365Y-125570099D01*
X182365195Y-125563395D01*
X182480453Y-125529553D01*
X182601528Y-125451743D01*
X182695777Y-125342973D01*
X182755565Y-125212057D01*
X182755565Y-125212055D01*
X182755566Y-125212054D01*
X182768217Y-125124056D01*
X182787353Y-125091803D01*
X182823691Y-125082528D01*
X182851365Y-125096379D01*
X182884644Y-125129658D01*
X182894565Y-125143947D01*
X182942712Y-125249373D01*
X182942713Y-125249374D01*
X182942714Y-125249376D01*
X183023816Y-125342973D01*
X183036961Y-125358143D01*
X183158036Y-125435953D01*
X183158038Y-125435954D01*
X183161135Y-125437368D01*
X183186692Y-125464814D01*
X183185356Y-125502293D01*
X183157910Y-125527850D01*
X183154588Y-125528956D01*
X183025549Y-125566846D01*
X183025547Y-125566846D01*
X183025547Y-125566847D01*
X182988322Y-125590769D01*
X182904471Y-125644657D01*
X182810223Y-125753427D01*
X182810219Y-125753432D01*
X182808978Y-125756151D01*
X182799057Y-125770438D01*
X182561749Y-126007748D01*
X182527101Y-126022100D01*
X182096280Y-126022100D01*
X182064425Y-126026293D01*
X181983764Y-126036912D01*
X181843771Y-126094899D01*
X181843766Y-126094902D01*
X181723549Y-126187148D01*
X181723548Y-126187149D01*
X181631302Y-126307366D01*
X181631299Y-126307371D01*
X181573312Y-126447364D01*
X181562693Y-126528025D01*
X181558500Y-126559880D01*
X181558500Y-127135320D01*
X181564091Y-127177792D01*
X181573312Y-127247835D01*
X181631299Y-127387828D01*
X181631302Y-127387833D01*
X181721343Y-127505177D01*
X181723549Y-127508051D01*
X181843767Y-127600298D01*
X181843769Y-127600298D01*
X181843771Y-127600300D01*
X181943920Y-127641783D01*
X181983764Y-127658287D01*
X182096280Y-127673100D01*
X182096284Y-127673100D01*
X182621716Y-127673100D01*
X182621720Y-127673100D01*
X182734236Y-127658287D01*
X182874233Y-127600298D01*
X182994451Y-127508051D01*
X183086698Y-127387833D01*
X183088730Y-127382928D01*
X183115248Y-127356409D01*
X183152751Y-127356409D01*
X183179270Y-127382927D01*
X183179270Y-127382928D01*
X183181299Y-127387828D01*
X183181302Y-127387833D01*
X183271343Y-127505177D01*
X183273549Y-127508051D01*
X183393767Y-127600298D01*
X183393769Y-127600298D01*
X183393771Y-127600300D01*
X183493920Y-127641783D01*
X183533764Y-127658287D01*
X183646280Y-127673100D01*
X183646284Y-127673100D01*
X184171716Y-127673100D01*
X184171720Y-127673100D01*
X184284236Y-127658287D01*
X184424233Y-127600298D01*
X184429155Y-127596520D01*
X184465375Y-127586812D01*
X184497856Y-127605559D01*
X184507566Y-127641783D01*
X184500918Y-127660742D01*
X184412382Y-127807198D01*
X184412381Y-127807201D01*
X184361810Y-127969488D01*
X184361809Y-127969494D01*
X184355400Y-128040029D01*
X184355400Y-128121600D01*
X185005400Y-128121600D01*
X185005400Y-127396599D01*
X184998831Y-127396600D01*
X184928294Y-127403009D01*
X184928288Y-127403010D01*
X184766001Y-127453581D01*
X184653220Y-127521760D01*
X184616143Y-127527403D01*
X184585937Y-127505177D01*
X184580294Y-127468100D01*
X184588993Y-127450002D01*
X184636698Y-127387833D01*
X184694687Y-127247836D01*
X184709500Y-127135320D01*
X184709500Y-126704499D01*
X184723852Y-126669851D01*
X184916888Y-126476815D01*
X184916889Y-126476814D01*
X184976199Y-126374087D01*
X184994076Y-126307367D01*
X184994076Y-126307366D01*
X185006900Y-126259510D01*
X185006900Y-125664125D01*
X185007399Y-125657151D01*
X185011533Y-125628401D01*
X185011533Y-125628398D01*
X185007399Y-125599646D01*
X185006900Y-125592673D01*
X185006900Y-125569091D01*
X184999251Y-125540548D01*
X184998082Y-125534853D01*
X184993097Y-125500174D01*
X184983511Y-125479184D01*
X184980755Y-125471520D01*
X184976199Y-125454514D01*
X184958435Y-125423747D01*
X184956307Y-125419618D01*
X184956305Y-125419614D01*
X184944952Y-125394754D01*
X184943615Y-125357275D01*
X184944946Y-125354058D01*
X184993097Y-125248626D01*
X184993097Y-125248624D01*
X184993098Y-125248623D01*
X185011533Y-125120402D01*
X185011533Y-125120397D01*
X184993098Y-124992176D01*
X184982057Y-124968000D01*
X184939282Y-124874337D01*
X184939280Y-124874335D01*
X184938493Y-124873110D01*
X184938344Y-124872284D01*
X184937826Y-124871150D01*
X184938115Y-124871017D01*
X184931835Y-124836202D01*
X184935138Y-124826274D01*
X184936898Y-124822421D01*
X184939027Y-124818294D01*
X184956781Y-124787545D01*
X184956781Y-124787543D01*
X184956783Y-124787541D01*
X184961341Y-124770526D01*
X184964094Y-124762870D01*
X184973681Y-124741881D01*
X184978666Y-124707199D01*
X184979832Y-124701516D01*
X184987484Y-124672964D01*
X184987484Y-124649380D01*
X184987983Y-124642407D01*
X184990933Y-124621888D01*
X184995568Y-124614075D01*
X184990374Y-124601538D01*
X184987981Y-124584889D01*
X184987484Y-124577928D01*
X184987484Y-124108532D01*
X185001836Y-124073884D01*
X185036484Y-124059532D01*
X185071132Y-124073884D01*
X185161620Y-124164373D01*
X185164537Y-124167115D01*
X185179954Y-124201303D01*
X185173412Y-124227318D01*
X185121528Y-124317184D01*
X185121525Y-124317189D01*
X185115039Y-124341400D01*
X185090826Y-124431762D01*
X185090826Y-124574042D01*
X185090327Y-124581017D01*
X185087376Y-124601537D01*
X185082741Y-124609347D01*
X185087935Y-124621886D01*
X185090327Y-124638519D01*
X185090826Y-124645494D01*
X185090826Y-124669079D01*
X185098473Y-124697617D01*
X185099644Y-124703326D01*
X185104629Y-124737996D01*
X185114212Y-124758980D01*
X185116970Y-124766651D01*
X185121526Y-124783654D01*
X185121527Y-124783657D01*
X185139278Y-124814401D01*
X185141414Y-124818545D01*
X185158441Y-124855827D01*
X185158446Y-124855835D01*
X185169629Y-124868741D01*
X185175032Y-124876328D01*
X185180834Y-124886378D01*
X185180839Y-124886384D01*
X185210142Y-124915687D01*
X185212526Y-124918247D01*
X185243277Y-124953736D01*
X185252599Y-124959727D01*
X185260754Y-124966299D01*
X185264713Y-124970258D01*
X185305768Y-124993961D01*
X185307721Y-124995151D01*
X185352257Y-125023773D01*
X185357109Y-125025197D01*
X185364469Y-125028349D01*
X185364474Y-125028339D01*
X185367436Y-125029566D01*
X185367440Y-125029568D01*
X185419041Y-125043394D01*
X185420058Y-125043680D01*
X185476554Y-125060269D01*
X185482017Y-125060269D01*
X185534867Y-125060269D01*
X185569515Y-125074621D01*
X185583159Y-125107561D01*
X185583368Y-125107532D01*
X185583485Y-125108347D01*
X185583867Y-125109269D01*
X185583867Y-125111002D01*
X185602301Y-125239223D01*
X185647893Y-125339052D01*
X185649232Y-125376531D01*
X185647892Y-125379764D01*
X185629692Y-125419614D01*
X185627557Y-125423756D01*
X185609802Y-125454509D01*
X185609800Y-125454515D01*
X185605243Y-125471520D01*
X185602486Y-125479189D01*
X185592903Y-125500173D01*
X185587919Y-125534835D01*
X185586749Y-125540541D01*
X185579100Y-125569091D01*
X185579100Y-125592673D01*
X185578601Y-125599646D01*
X185574467Y-125628398D01*
X185574467Y-125628401D01*
X185578601Y-125657151D01*
X185579100Y-125664125D01*
X185579100Y-127313308D01*
X185585473Y-127337094D01*
X185580577Y-127374277D01*
X185550824Y-127397107D01*
X185533708Y-127398575D01*
X185511971Y-127396600D01*
X185505400Y-127396600D01*
X185505400Y-128877600D01*
X185513885Y-128886085D01*
X185528048Y-128891952D01*
X185542400Y-128926600D01*
X185542400Y-130870599D01*
X185565716Y-130870599D01*
X185665003Y-130860456D01*
X185825884Y-130807146D01*
X185970133Y-130718171D01*
X186089970Y-130598334D01*
X186119246Y-130550872D01*
X186149651Y-130528917D01*
X186186675Y-130534891D01*
X186199825Y-130546767D01*
X186206949Y-130556051D01*
X186327167Y-130648298D01*
X186327169Y-130648298D01*
X186327171Y-130648300D01*
X186467164Y-130706287D01*
X186579680Y-130721100D01*
X186579684Y-130721100D01*
X187105116Y-130721100D01*
X187105120Y-130721100D01*
X187217636Y-130706287D01*
X187357633Y-130648298D01*
X187477851Y-130556051D01*
X187570098Y-130435833D01*
X187628087Y-130295836D01*
X187640898Y-130198521D01*
X187654828Y-130170274D01*
X187654951Y-130170151D01*
X187689598Y-130155800D01*
X187724246Y-130170152D01*
X187816065Y-130261970D01*
X187960315Y-130350946D01*
X188121196Y-130404256D01*
X188220482Y-130414399D01*
X188268799Y-130414399D01*
X188268800Y-130414398D01*
X188268800Y-129263400D01*
X188283152Y-129228752D01*
X188317800Y-129214400D01*
X188719800Y-129214400D01*
X188754448Y-129228752D01*
X188768800Y-129263400D01*
X188768800Y-130414399D01*
X188817116Y-130414399D01*
X188916403Y-130404256D01*
X188988368Y-130380409D01*
X189025772Y-130383134D01*
X189050294Y-130411509D01*
X189047569Y-130448913D01*
X189038429Y-130461570D01*
X188014352Y-131485648D01*
X187979704Y-131500000D01*
X184000000Y-131500000D01*
X180514352Y-134985648D01*
X180479704Y-135000000D01*
X178520296Y-135000000D01*
X178485648Y-134985648D01*
X178014352Y-134514352D01*
X178000000Y-134479704D01*
X178000000Y-131209152D01*
X178014352Y-131174504D01*
X178036315Y-131161822D01*
X178089073Y-131147686D01*
X178113287Y-131141199D01*
X178216014Y-131081889D01*
X178725596Y-130572307D01*
X178760244Y-130557955D01*
X182285250Y-130557955D01*
X182311738Y-130565731D01*
X182314347Y-130567408D01*
X182391185Y-130589969D01*
X182452434Y-130607954D01*
X182452437Y-130607954D01*
X182452439Y-130607955D01*
X182452440Y-130607955D01*
X182596360Y-130607955D01*
X182596361Y-130607955D01*
X182596363Y-130607954D01*
X182596365Y-130607954D01*
X182629131Y-130598333D01*
X182734453Y-130567408D01*
X182855528Y-130489598D01*
X182949777Y-130380828D01*
X183009565Y-130249912D01*
X183009565Y-130249910D01*
X183009566Y-130249909D01*
X183017616Y-130193916D01*
X184342401Y-130193916D01*
X184352543Y-130293203D01*
X184405853Y-130454084D01*
X184494828Y-130598333D01*
X184614666Y-130718171D01*
X184758915Y-130807146D01*
X184919796Y-130860456D01*
X185019070Y-130870598D01*
X185019094Y-130870599D01*
X185042399Y-130870598D01*
X185042400Y-130870598D01*
X185042400Y-130145600D01*
X184342401Y-130145600D01*
X184342401Y-130193916D01*
X183017616Y-130193916D01*
X183030047Y-130107456D01*
X183030047Y-130106955D01*
X183030157Y-130106688D01*
X183030546Y-130103986D01*
X183031235Y-130104085D01*
X183044399Y-130072307D01*
X183079047Y-130057955D01*
X183317905Y-130057955D01*
X183344393Y-130065731D01*
X183347002Y-130067408D01*
X183410148Y-130085949D01*
X183485089Y-130107954D01*
X183485092Y-130107954D01*
X183485094Y-130107955D01*
X183485095Y-130107955D01*
X183629015Y-130107955D01*
X183629016Y-130107955D01*
X183629018Y-130107954D01*
X183629020Y-130107954D01*
X183651850Y-130101250D01*
X183767108Y-130067408D01*
X183888183Y-129989598D01*
X183982432Y-129880828D01*
X184042220Y-129749912D01*
X184042220Y-129749910D01*
X184042221Y-129749909D01*
X184062702Y-129607457D01*
X184062702Y-129607452D01*
X184061240Y-129597282D01*
X184342400Y-129597282D01*
X184342400Y-129645600D01*
X185042400Y-129645600D01*
X185042400Y-129389600D01*
X185033914Y-129381114D01*
X185019752Y-129375248D01*
X185005400Y-129340600D01*
X185005400Y-128621600D01*
X184355401Y-128621600D01*
X184355401Y-128703168D01*
X184361809Y-128773706D01*
X184361810Y-128773711D01*
X184412381Y-128935998D01*
X184500324Y-129081473D01*
X184518625Y-129099774D01*
X184532977Y-129134422D01*
X184518625Y-129169070D01*
X184494828Y-129192866D01*
X184405853Y-129337115D01*
X184352543Y-129497996D01*
X184342400Y-129597282D01*
X184061240Y-129597282D01*
X184042221Y-129465000D01*
X184028118Y-129434120D01*
X183982432Y-129334082D01*
X183942799Y-129288343D01*
X183888183Y-129225312D01*
X183767108Y-129147502D01*
X183767105Y-129147501D01*
X183629020Y-129106955D01*
X183629016Y-129106955D01*
X183485094Y-129106955D01*
X183485089Y-129106955D01*
X183347004Y-129147501D01*
X183347002Y-129147501D01*
X183347002Y-129147502D01*
X183344393Y-129149178D01*
X183317905Y-129156955D01*
X178836354Y-129156955D01*
X178801706Y-129142603D01*
X178470014Y-128810911D01*
X178367288Y-128751601D01*
X178367286Y-128751600D01*
X178343073Y-128745113D01*
X178312951Y-128737042D01*
X178252711Y-128720900D01*
X178252709Y-128720900D01*
X178049000Y-128720900D01*
X178014352Y-128706548D01*
X178000000Y-128671900D01*
X178000000Y-125520296D01*
X178014352Y-125485648D01*
X178485648Y-125014352D01*
X178520296Y-125000000D01*
X179499999Y-125000000D01*
X179500000Y-125000000D01*
X180000000Y-124500000D01*
X180000000Y-121989282D01*
X181244600Y-121989282D01*
X181244600Y-122012600D01*
X181969600Y-122012600D01*
X182469600Y-122012600D01*
X183194599Y-122012600D01*
X183194599Y-121989283D01*
X183184456Y-121889996D01*
X183131146Y-121729115D01*
X183042171Y-121584866D01*
X182922333Y-121465028D01*
X182778084Y-121376053D01*
X182617203Y-121322743D01*
X182517917Y-121312600D01*
X182469600Y-121312600D01*
X182469600Y-122012600D01*
X181969600Y-122012600D01*
X181969600Y-121312600D01*
X181921283Y-121312600D01*
X181821996Y-121322743D01*
X181661115Y-121376053D01*
X181516866Y-121465028D01*
X181397028Y-121584866D01*
X181308053Y-121729115D01*
X181254743Y-121889996D01*
X181244600Y-121989282D01*
X180000000Y-121989282D01*
X180000000Y-119500000D01*
X178500000Y-118000000D01*
X176520296Y-118000000D01*
X176485648Y-117985648D01*
X175354997Y-116854997D01*
X181104353Y-116854997D01*
X181104353Y-116855002D01*
X181124833Y-116997454D01*
X181125996Y-117000000D01*
X181184623Y-117128373D01*
X181184624Y-117128374D01*
X181184625Y-117128376D01*
X181278871Y-117237142D01*
X181278872Y-117237143D01*
X181399947Y-117314953D01*
X181476785Y-117337514D01*
X181538034Y-117355499D01*
X181538037Y-117355499D01*
X181538039Y-117355500D01*
X181538040Y-117355500D01*
X181681960Y-117355500D01*
X181681961Y-117355500D01*
X181681963Y-117355499D01*
X181681965Y-117355499D01*
X181704795Y-117348795D01*
X181820053Y-117314953D01*
X181941128Y-117237143D01*
X182035377Y-117128373D01*
X182095165Y-116997457D01*
X182095165Y-116997455D01*
X182095166Y-116997454D01*
X182115647Y-116855002D01*
X182115647Y-116854997D01*
X182095166Y-116712545D01*
X182090751Y-116702879D01*
X182035377Y-116581627D01*
X181941128Y-116472857D01*
X181820053Y-116395047D01*
X181820050Y-116395046D01*
X181681965Y-116354500D01*
X181681961Y-116354500D01*
X181538039Y-116354500D01*
X181538034Y-116354500D01*
X181399949Y-116395046D01*
X181278871Y-116472857D01*
X181184625Y-116581623D01*
X181184624Y-116581625D01*
X181124833Y-116712545D01*
X181104353Y-116854997D01*
X175354997Y-116854997D01*
X173536740Y-115036740D01*
X177711500Y-115036740D01*
X177711500Y-116103260D01*
X177721427Y-116171393D01*
X177772802Y-116276483D01*
X177855517Y-116359198D01*
X177960607Y-116410573D01*
X178008884Y-116417606D01*
X178028738Y-116420500D01*
X178028740Y-116420500D01*
X179095262Y-116420500D01*
X179112590Y-116417974D01*
X179163393Y-116410573D01*
X179268483Y-116359198D01*
X179351198Y-116276483D01*
X179402573Y-116171393D01*
X179412500Y-116103260D01*
X179412500Y-115036740D01*
X179402573Y-114968607D01*
X179351198Y-114863517D01*
X179268483Y-114780802D01*
X179215938Y-114755114D01*
X179163396Y-114729428D01*
X179163394Y-114729427D01*
X179095262Y-114719500D01*
X179095260Y-114719500D01*
X178028740Y-114719500D01*
X178028738Y-114719500D01*
X177960605Y-114729427D01*
X177960603Y-114729428D01*
X177855519Y-114780801D01*
X177855515Y-114780803D01*
X177772803Y-114863515D01*
X177772801Y-114863519D01*
X177721428Y-114968603D01*
X177721427Y-114968605D01*
X177721427Y-114968607D01*
X177711500Y-115036740D01*
X173536740Y-115036740D01*
X170014352Y-111514352D01*
X170000000Y-111479704D01*
X170000000Y-107520296D01*
X170014352Y-107485648D01*
X170485648Y-107014352D01*
X170520296Y-107000000D01*
X175499999Y-107000000D01*
X175500000Y-107000000D01*
X176000000Y-106500000D01*
X176000000Y-105020296D01*
X176014352Y-104985648D01*
X176485648Y-104514352D01*
X176520296Y-104500000D01*
X182479704Y-104500000D01*
X182514352Y-104514352D01*
G37*
%TD.AperFunction*%
%TD*%
%TA.AperFunction,Conductor*%
%TO.N,GND*%
G36*
X200445936Y-118503308D02*
G01*
X200457060Y-118507618D01*
X200675757Y-118548500D01*
X200675759Y-118548500D01*
X200898241Y-118548500D01*
X200898243Y-118548500D01*
X201116940Y-118507618D01*
X201128063Y-118503308D01*
X201145763Y-118500000D01*
X202123500Y-118500000D01*
X202158148Y-118514352D01*
X202172500Y-118549000D01*
X202172500Y-134096968D01*
X202158148Y-134131616D01*
X201845161Y-134444602D01*
X201810513Y-134458954D01*
X201775865Y-134444602D01*
X201771410Y-134439483D01*
X201677983Y-134315766D01*
X201677980Y-134315763D01*
X201513566Y-134165879D01*
X201513563Y-134165877D01*
X201513562Y-134165876D01*
X201324401Y-134048753D01*
X201324398Y-134048752D01*
X201324397Y-134048751D01*
X201199727Y-134000454D01*
X201116940Y-133968382D01*
X200898243Y-133927500D01*
X200675757Y-133927500D01*
X200457060Y-133968382D01*
X200457055Y-133968384D01*
X200249602Y-134048751D01*
X200060433Y-134165879D01*
X199896019Y-134315763D01*
X199896016Y-134315766D01*
X199761943Y-134493309D01*
X199761940Y-134493313D01*
X199662773Y-134692466D01*
X199662770Y-134692473D01*
X199601885Y-134906461D01*
X199601884Y-134906467D01*
X199581357Y-135128000D01*
X199601884Y-135349532D01*
X199601885Y-135349538D01*
X199662770Y-135563526D01*
X199662773Y-135563533D01*
X199761940Y-135762686D01*
X199761943Y-135762690D01*
X199896016Y-135940233D01*
X199896019Y-135940236D01*
X200060433Y-136090120D01*
X200060434Y-136090121D01*
X200060438Y-136090124D01*
X200249599Y-136207247D01*
X200425763Y-136275493D01*
X200452887Y-136301392D01*
X200453753Y-136338885D01*
X200427854Y-136366009D01*
X200420744Y-136368514D01*
X200323516Y-136394566D01*
X200323511Y-136394567D01*
X200109423Y-136494398D01*
X200109411Y-136494405D01*
X199915927Y-136629885D01*
X199915920Y-136629891D01*
X199748891Y-136796920D01*
X199748885Y-136796927D01*
X199613405Y-136990411D01*
X199613398Y-136990423D01*
X199513567Y-137204511D01*
X199513566Y-137204516D01*
X199456363Y-137417999D01*
X199456364Y-137418000D01*
X200353988Y-137418000D01*
X200321075Y-137475007D01*
X200287000Y-137602174D01*
X200287000Y-137733826D01*
X200321075Y-137860993D01*
X200353988Y-137918000D01*
X199456363Y-137918000D01*
X199513566Y-138131483D01*
X199513568Y-138131488D01*
X199613398Y-138345577D01*
X199613405Y-138345589D01*
X199748885Y-138539072D01*
X199748891Y-138539079D01*
X199915920Y-138706108D01*
X199915927Y-138706114D01*
X200109410Y-138841594D01*
X200109422Y-138841601D01*
X200323511Y-138941431D01*
X200323516Y-138941433D01*
X200537000Y-138998634D01*
X200537000Y-138101012D01*
X200594007Y-138133925D01*
X200721174Y-138168000D01*
X200852826Y-138168000D01*
X200979993Y-138133925D01*
X201037000Y-138101012D01*
X201037000Y-138998634D01*
X201250483Y-138941433D01*
X201250488Y-138941431D01*
X201464577Y-138841601D01*
X201464589Y-138841594D01*
X201658072Y-138706114D01*
X201658079Y-138706108D01*
X201825108Y-138539079D01*
X201825114Y-138539072D01*
X201960594Y-138345589D01*
X201960601Y-138345577D01*
X202060431Y-138131488D01*
X202060433Y-138131483D01*
X202117636Y-137918000D01*
X201220012Y-137918000D01*
X201252925Y-137860993D01*
X201287000Y-137733826D01*
X201287000Y-137602174D01*
X201252925Y-137475007D01*
X201220012Y-137418000D01*
X202117636Y-137418000D01*
X202117636Y-137417999D01*
X202060433Y-137204516D01*
X202060432Y-137204511D01*
X201960601Y-136990423D01*
X201960594Y-136990411D01*
X201825114Y-136796927D01*
X201825108Y-136796920D01*
X201658079Y-136629891D01*
X201658072Y-136629885D01*
X201464589Y-136494405D01*
X201464577Y-136494398D01*
X201250488Y-136394568D01*
X201250483Y-136394566D01*
X201153255Y-136368514D01*
X201123502Y-136345684D01*
X201118607Y-136308502D01*
X201141437Y-136278749D01*
X201148226Y-136275497D01*
X201324401Y-136207247D01*
X201513562Y-136090124D01*
X201677981Y-135940236D01*
X201812058Y-135762689D01*
X201815558Y-135755658D01*
X201843848Y-135731041D01*
X201859421Y-135728500D01*
X201928930Y-135728500D01*
X201928946Y-135728501D01*
X201931943Y-135728501D01*
X202090059Y-135728501D01*
X202191875Y-135701218D01*
X202242785Y-135687577D01*
X202242786Y-135687576D01*
X202242790Y-135687575D01*
X202292892Y-135658646D01*
X202292892Y-135658645D01*
X202292904Y-135658639D01*
X202379716Y-135608520D01*
X202491520Y-135496716D01*
X202491520Y-135496714D01*
X202495549Y-135492686D01*
X202495552Y-135492681D01*
X202916353Y-135071881D01*
X202951000Y-135057530D01*
X202985648Y-135071882D01*
X203000000Y-135106530D01*
X203000000Y-139451000D01*
X202985648Y-139485648D01*
X202951000Y-139500000D01*
X196020296Y-139500000D01*
X195985648Y-139485648D01*
X193514352Y-137014352D01*
X193500000Y-136979704D01*
X193500000Y-136464456D01*
X193514352Y-136429808D01*
X193549000Y-136415456D01*
X193583648Y-136429808D01*
X193586032Y-136432368D01*
X193623270Y-136475343D01*
X193744345Y-136553153D01*
X193821183Y-136575714D01*
X193882432Y-136593699D01*
X193882435Y-136593699D01*
X193882437Y-136593700D01*
X193882438Y-136593700D01*
X194026358Y-136593700D01*
X194026359Y-136593700D01*
X194026361Y-136593699D01*
X194026363Y-136593699D01*
X194049193Y-136586995D01*
X194164451Y-136553153D01*
X194285526Y-136475343D01*
X194379775Y-136366573D01*
X194439563Y-136235657D01*
X194439563Y-136235655D01*
X194439564Y-136235654D01*
X194460045Y-136093202D01*
X194460045Y-136093197D01*
X194439564Y-135950745D01*
X194434763Y-135940233D01*
X194379775Y-135819827D01*
X194330262Y-135762686D01*
X194285526Y-135711057D01*
X194248987Y-135687575D01*
X194164451Y-135633247D01*
X194164448Y-135633246D01*
X194026363Y-135592700D01*
X194026359Y-135592700D01*
X193882437Y-135592700D01*
X193882432Y-135592700D01*
X193744347Y-135633246D01*
X193623269Y-135711057D01*
X193586032Y-135754031D01*
X193552495Y-135770818D01*
X193516912Y-135758975D01*
X193500125Y-135725438D01*
X193500000Y-135721943D01*
X193500000Y-133857997D01*
X194007553Y-133857997D01*
X194007553Y-133858002D01*
X194028033Y-134000454D01*
X194050090Y-134048751D01*
X194087823Y-134131373D01*
X194087824Y-134131374D01*
X194087825Y-134131376D01*
X194117722Y-134165879D01*
X194182072Y-134240143D01*
X194303147Y-134317953D01*
X194379985Y-134340514D01*
X194441234Y-134358499D01*
X194441237Y-134358499D01*
X194441239Y-134358500D01*
X194441240Y-134358500D01*
X194585160Y-134358500D01*
X194585161Y-134358500D01*
X194585163Y-134358499D01*
X194585165Y-134358499D01*
X194607995Y-134351795D01*
X194723253Y-134317953D01*
X194844328Y-134240143D01*
X194938577Y-134131373D01*
X194998365Y-134000457D01*
X194998365Y-134000455D01*
X194998366Y-134000454D01*
X195018847Y-133858002D01*
X195018847Y-133857997D01*
X194998366Y-133715545D01*
X194976309Y-133667248D01*
X194938577Y-133584627D01*
X194931298Y-133576227D01*
X194844328Y-133475857D01*
X194723253Y-133398047D01*
X194723250Y-133398046D01*
X194585165Y-133357500D01*
X194585161Y-133357500D01*
X194441239Y-133357500D01*
X194441234Y-133357500D01*
X194303149Y-133398046D01*
X194182071Y-133475857D01*
X194087825Y-133584623D01*
X194087824Y-133584625D01*
X194028033Y-133715545D01*
X194007553Y-133857997D01*
X193500000Y-133857997D01*
X193500000Y-133000000D01*
X193088000Y-132588000D01*
X199581357Y-132588000D01*
X199601884Y-132809532D01*
X199601885Y-132809538D01*
X199662770Y-133023526D01*
X199662773Y-133023533D01*
X199761940Y-133222686D01*
X199761943Y-133222690D01*
X199896016Y-133400233D01*
X199896019Y-133400236D01*
X200060433Y-133550120D01*
X200060434Y-133550121D01*
X200060438Y-133550124D01*
X200249599Y-133667247D01*
X200457060Y-133747618D01*
X200675757Y-133788500D01*
X200675759Y-133788500D01*
X200898241Y-133788500D01*
X200898243Y-133788500D01*
X201116940Y-133747618D01*
X201324401Y-133667247D01*
X201513562Y-133550124D01*
X201677981Y-133400236D01*
X201812058Y-133222689D01*
X201911229Y-133023528D01*
X201972115Y-132809536D01*
X201992643Y-132588000D01*
X201972115Y-132366464D01*
X201911229Y-132152472D01*
X201812058Y-131953311D01*
X201710253Y-131818499D01*
X201677983Y-131775766D01*
X201677980Y-131775763D01*
X201513566Y-131625879D01*
X201513563Y-131625877D01*
X201513562Y-131625876D01*
X201324401Y-131508753D01*
X201324398Y-131508752D01*
X201324397Y-131508751D01*
X201198434Y-131459953D01*
X201116940Y-131428382D01*
X200898243Y-131387500D01*
X200675757Y-131387500D01*
X200457060Y-131428382D01*
X200457055Y-131428384D01*
X200249602Y-131508751D01*
X200060433Y-131625879D01*
X199896019Y-131775763D01*
X199896016Y-131775766D01*
X199761943Y-131953309D01*
X199761940Y-131953313D01*
X199662773Y-132152466D01*
X199662770Y-132152473D01*
X199601885Y-132366461D01*
X199601884Y-132366467D01*
X199581357Y-132588000D01*
X193088000Y-132588000D01*
X193014352Y-132514352D01*
X193000000Y-132479704D01*
X193000000Y-131317997D01*
X194507553Y-131317997D01*
X194507553Y-131318002D01*
X194528033Y-131460454D01*
X194546322Y-131500500D01*
X194587823Y-131591373D01*
X194587824Y-131591374D01*
X194587825Y-131591376D01*
X194617722Y-131625879D01*
X194682072Y-131700143D01*
X194803147Y-131777953D01*
X194879985Y-131800514D01*
X194941234Y-131818499D01*
X194941237Y-131818499D01*
X194941239Y-131818500D01*
X194941240Y-131818500D01*
X195085160Y-131818500D01*
X195085161Y-131818500D01*
X195085163Y-131818499D01*
X195085165Y-131818499D01*
X195107995Y-131811795D01*
X195223253Y-131777953D01*
X195344328Y-131700143D01*
X195438577Y-131591373D01*
X195498365Y-131460457D01*
X195498365Y-131460455D01*
X195498366Y-131460454D01*
X195518847Y-131318002D01*
X195518847Y-131317997D01*
X195498366Y-131175545D01*
X195476309Y-131127248D01*
X195438577Y-131044627D01*
X195433940Y-131039276D01*
X195344328Y-130935857D01*
X195223253Y-130858047D01*
X195221537Y-130857543D01*
X195085165Y-130817500D01*
X195085161Y-130817500D01*
X194941239Y-130817500D01*
X194941234Y-130817500D01*
X194803149Y-130858046D01*
X194682071Y-130935857D01*
X194587825Y-131044623D01*
X194587824Y-131044625D01*
X194528033Y-131175545D01*
X194507553Y-131317997D01*
X193000000Y-131317997D01*
X193000000Y-130048000D01*
X199581357Y-130048000D01*
X199601884Y-130269532D01*
X199601885Y-130269538D01*
X199662770Y-130483526D01*
X199662773Y-130483533D01*
X199761940Y-130682686D01*
X199761943Y-130682690D01*
X199896016Y-130860233D01*
X199896019Y-130860236D01*
X200060433Y-131010120D01*
X200060434Y-131010121D01*
X200060438Y-131010124D01*
X200249599Y-131127247D01*
X200457060Y-131207618D01*
X200675757Y-131248500D01*
X200675759Y-131248500D01*
X200898241Y-131248500D01*
X200898243Y-131248500D01*
X201116940Y-131207618D01*
X201324401Y-131127247D01*
X201513562Y-131010124D01*
X201677981Y-130860236D01*
X201812058Y-130682689D01*
X201911229Y-130483528D01*
X201972115Y-130269536D01*
X201992643Y-130048000D01*
X201972115Y-129826464D01*
X201911229Y-129612472D01*
X201812058Y-129413311D01*
X201677981Y-129235764D01*
X201617095Y-129180259D01*
X201513566Y-129085879D01*
X201513563Y-129085877D01*
X201513562Y-129085876D01*
X201324401Y-128968753D01*
X201324398Y-128968752D01*
X201324397Y-128968751D01*
X201195824Y-128918942D01*
X201116940Y-128888382D01*
X200898243Y-128847500D01*
X200675757Y-128847500D01*
X200457060Y-128888382D01*
X200457055Y-128888384D01*
X200249602Y-128968751D01*
X200060433Y-129085879D01*
X199896019Y-129235763D01*
X199896016Y-129235766D01*
X199761943Y-129413309D01*
X199761940Y-129413313D01*
X199662773Y-129612466D01*
X199662770Y-129612473D01*
X199601885Y-129826461D01*
X199601884Y-129826467D01*
X199581357Y-130048000D01*
X193000000Y-130048000D01*
X193000000Y-128720303D01*
X194979507Y-128720303D01*
X194979507Y-128720308D01*
X194999987Y-128862760D01*
X195025645Y-128918942D01*
X195059777Y-128993679D01*
X195059778Y-128993680D01*
X195059779Y-128993682D01*
X195154025Y-129102448D01*
X195154026Y-129102449D01*
X195275101Y-129180259D01*
X195348055Y-129201680D01*
X195413188Y-129220805D01*
X195413191Y-129220805D01*
X195413193Y-129220806D01*
X195413194Y-129220806D01*
X195557114Y-129220806D01*
X195557115Y-129220806D01*
X195557117Y-129220805D01*
X195557119Y-129220805D01*
X195579949Y-129214101D01*
X195695207Y-129180259D01*
X195816282Y-129102449D01*
X195910531Y-128993679D01*
X195970319Y-128862763D01*
X195970319Y-128862761D01*
X195970320Y-128862760D01*
X195990801Y-128720308D01*
X195990801Y-128720303D01*
X195970320Y-128577851D01*
X195965905Y-128568185D01*
X195910531Y-128446933D01*
X195816282Y-128338163D01*
X195695207Y-128260353D01*
X195695204Y-128260352D01*
X195557119Y-128219806D01*
X195557115Y-128219806D01*
X195413193Y-128219806D01*
X195413188Y-128219806D01*
X195275103Y-128260352D01*
X195154025Y-128338163D01*
X195059779Y-128446929D01*
X195059778Y-128446931D01*
X194999987Y-128577851D01*
X194979507Y-128720303D01*
X193000000Y-128720303D01*
X193000000Y-128014268D01*
X193014352Y-127979620D01*
X193027480Y-127970247D01*
X193038139Y-127965036D01*
X193086083Y-127941598D01*
X193168798Y-127858883D01*
X193220173Y-127753793D01*
X193230100Y-127685660D01*
X193230100Y-127508000D01*
X199581357Y-127508000D01*
X199601884Y-127729532D01*
X199601885Y-127729538D01*
X199662770Y-127943526D01*
X199662773Y-127943533D01*
X199761940Y-128142686D01*
X199761943Y-128142690D01*
X199896016Y-128320233D01*
X199896019Y-128320236D01*
X200060433Y-128470120D01*
X200060434Y-128470121D01*
X200060438Y-128470124D01*
X200249599Y-128587247D01*
X200457060Y-128667618D01*
X200675757Y-128708500D01*
X200675759Y-128708500D01*
X200898241Y-128708500D01*
X200898243Y-128708500D01*
X201116940Y-128667618D01*
X201324401Y-128587247D01*
X201513562Y-128470124D01*
X201677981Y-128320236D01*
X201812058Y-128142689D01*
X201911229Y-127943528D01*
X201972115Y-127729536D01*
X201992643Y-127508000D01*
X201972115Y-127286464D01*
X201911229Y-127072472D01*
X201812058Y-126873311D01*
X201712960Y-126742084D01*
X201677983Y-126695766D01*
X201677980Y-126695763D01*
X201513566Y-126545879D01*
X201513563Y-126545877D01*
X201513562Y-126545876D01*
X201324401Y-126428753D01*
X201324398Y-126428752D01*
X201324397Y-126428751D01*
X201155197Y-126363203D01*
X201116940Y-126348382D01*
X200898243Y-126307500D01*
X200675757Y-126307500D01*
X200457060Y-126348382D01*
X200457055Y-126348384D01*
X200249602Y-126428751D01*
X200060433Y-126545879D01*
X199896019Y-126695763D01*
X199896016Y-126695766D01*
X199761943Y-126873309D01*
X199761940Y-126873313D01*
X199662773Y-127072466D01*
X199662770Y-127072473D01*
X199601885Y-127286461D01*
X199601884Y-127286467D01*
X199581357Y-127508000D01*
X193230100Y-127508000D01*
X193230100Y-126619140D01*
X193220173Y-126551007D01*
X193168798Y-126445917D01*
X193086083Y-126363202D01*
X193033538Y-126337514D01*
X192980996Y-126311828D01*
X192980994Y-126311827D01*
X192912862Y-126301900D01*
X192912860Y-126301900D01*
X192822196Y-126301900D01*
X192787548Y-126287548D01*
X192782128Y-126282128D01*
X194413955Y-126282128D01*
X194413955Y-126282133D01*
X194434435Y-126424585D01*
X194466537Y-126494877D01*
X194494225Y-126555504D01*
X194494226Y-126555505D01*
X194494227Y-126555507D01*
X194549365Y-126619140D01*
X194588474Y-126664274D01*
X194709549Y-126742084D01*
X194786387Y-126764645D01*
X194847636Y-126782630D01*
X194847639Y-126782630D01*
X194847641Y-126782631D01*
X194847642Y-126782631D01*
X194991562Y-126782631D01*
X194991563Y-126782631D01*
X194991565Y-126782630D01*
X194991567Y-126782630D01*
X195014397Y-126775926D01*
X195129655Y-126742084D01*
X195250730Y-126664274D01*
X195344979Y-126555504D01*
X195404767Y-126424588D01*
X195404767Y-126424586D01*
X195404768Y-126424585D01*
X195425249Y-126282133D01*
X195425249Y-126282128D01*
X195404768Y-126139676D01*
X195396193Y-126120900D01*
X195344979Y-126008758D01*
X195250730Y-125899988D01*
X195129655Y-125822178D01*
X195129652Y-125822177D01*
X194991567Y-125781631D01*
X194991563Y-125781631D01*
X194847641Y-125781631D01*
X194847636Y-125781631D01*
X194709551Y-125822177D01*
X194588473Y-125899988D01*
X194494227Y-126008754D01*
X194494226Y-126008756D01*
X194434435Y-126139676D01*
X194413955Y-126282128D01*
X192782128Y-126282128D01*
X191468000Y-124968000D01*
X199581357Y-124968000D01*
X199601884Y-125189532D01*
X199601885Y-125189538D01*
X199662770Y-125403526D01*
X199662773Y-125403533D01*
X199761940Y-125602686D01*
X199761943Y-125602690D01*
X199896016Y-125780233D01*
X199896019Y-125780236D01*
X200060433Y-125930120D01*
X200060434Y-125930121D01*
X200060438Y-125930124D01*
X200249599Y-126047247D01*
X200457060Y-126127618D01*
X200675757Y-126168500D01*
X200675759Y-126168500D01*
X200898241Y-126168500D01*
X200898243Y-126168500D01*
X201116940Y-126127618D01*
X201324401Y-126047247D01*
X201513562Y-125930124D01*
X201677981Y-125780236D01*
X201812058Y-125602689D01*
X201911229Y-125403528D01*
X201972115Y-125189536D01*
X201992643Y-124968000D01*
X201972115Y-124746464D01*
X201911229Y-124532472D01*
X201812058Y-124333311D01*
X201692198Y-124174590D01*
X201677983Y-124155766D01*
X201677980Y-124155763D01*
X201513566Y-124005879D01*
X201513563Y-124005877D01*
X201513562Y-124005876D01*
X201324401Y-123888753D01*
X201324398Y-123888752D01*
X201324397Y-123888751D01*
X201220670Y-123848567D01*
X201116940Y-123808382D01*
X200898243Y-123767500D01*
X200675757Y-123767500D01*
X200457060Y-123808382D01*
X200457055Y-123808384D01*
X200249602Y-123888751D01*
X200060433Y-124005879D01*
X199896019Y-124155763D01*
X199896016Y-124155766D01*
X199761943Y-124333309D01*
X199761940Y-124333313D01*
X199662773Y-124532466D01*
X199662770Y-124532473D01*
X199601885Y-124746461D01*
X199601884Y-124746467D01*
X199581357Y-124968000D01*
X191468000Y-124968000D01*
X190500000Y-124000000D01*
X187973427Y-124000000D01*
X187938779Y-123985648D01*
X187924427Y-123951000D01*
X187936395Y-123918912D01*
X187951733Y-123901211D01*
X194483610Y-123901211D01*
X194483610Y-123901216D01*
X194504090Y-124043668D01*
X194528397Y-124096892D01*
X194563880Y-124174587D01*
X194563881Y-124174588D01*
X194563882Y-124174590D01*
X194658128Y-124283356D01*
X194658129Y-124283357D01*
X194779204Y-124361167D01*
X194856042Y-124383728D01*
X194917291Y-124401713D01*
X194917294Y-124401713D01*
X194917296Y-124401714D01*
X194917297Y-124401714D01*
X195061217Y-124401714D01*
X195061218Y-124401714D01*
X195061220Y-124401713D01*
X195061222Y-124401713D01*
X195084052Y-124395009D01*
X195199310Y-124361167D01*
X195320385Y-124283357D01*
X195414634Y-124174587D01*
X195474422Y-124043671D01*
X195474422Y-124043669D01*
X195474423Y-124043668D01*
X195494904Y-123901216D01*
X195494904Y-123901211D01*
X195474423Y-123758759D01*
X195465331Y-123738850D01*
X195414634Y-123627841D01*
X195387384Y-123596393D01*
X195320385Y-123519071D01*
X195301986Y-123507247D01*
X195199310Y-123441261D01*
X195199307Y-123441260D01*
X195061222Y-123400714D01*
X195061218Y-123400714D01*
X194917296Y-123400714D01*
X194917291Y-123400714D01*
X194779206Y-123441260D01*
X194779204Y-123441260D01*
X194779204Y-123441261D01*
X194741979Y-123465183D01*
X194658128Y-123519071D01*
X194563882Y-123627837D01*
X194563881Y-123627839D01*
X194504090Y-123758759D01*
X194483610Y-123901211D01*
X187951733Y-123901211D01*
X187978974Y-123869772D01*
X187978977Y-123869769D01*
X188038765Y-123738853D01*
X188038765Y-123738851D01*
X188038766Y-123738850D01*
X188059247Y-123596398D01*
X188059247Y-123596393D01*
X188038766Y-123453941D01*
X188032975Y-123441260D01*
X187978977Y-123323023D01*
X187978974Y-123323019D01*
X187905030Y-123237682D01*
X187893187Y-123202098D01*
X187907413Y-123170947D01*
X188564010Y-122514352D01*
X188598658Y-122500000D01*
X192499999Y-122500000D01*
X192500000Y-122500000D01*
X192572000Y-122428000D01*
X199581357Y-122428000D01*
X199601884Y-122649532D01*
X199601885Y-122649538D01*
X199662770Y-122863526D01*
X199662773Y-122863533D01*
X199761940Y-123062686D01*
X199761943Y-123062690D01*
X199896016Y-123240233D01*
X199896019Y-123240236D01*
X200060433Y-123390120D01*
X200060434Y-123390121D01*
X200060438Y-123390124D01*
X200249599Y-123507247D01*
X200457060Y-123587618D01*
X200675757Y-123628500D01*
X200675759Y-123628500D01*
X200898241Y-123628500D01*
X200898243Y-123628500D01*
X201116940Y-123587618D01*
X201324401Y-123507247D01*
X201513562Y-123390124D01*
X201677981Y-123240236D01*
X201812058Y-123062689D01*
X201911229Y-122863528D01*
X201972115Y-122649536D01*
X201992643Y-122428000D01*
X201972115Y-122206464D01*
X201911229Y-121992472D01*
X201812058Y-121793311D01*
X201677981Y-121615764D01*
X201566738Y-121514352D01*
X201513566Y-121465879D01*
X201513563Y-121465877D01*
X201513562Y-121465876D01*
X201324401Y-121348753D01*
X201324398Y-121348752D01*
X201324397Y-121348751D01*
X201220670Y-121308567D01*
X201116940Y-121268382D01*
X200898243Y-121227500D01*
X200675757Y-121227500D01*
X200457060Y-121268382D01*
X200457055Y-121268384D01*
X200249602Y-121348751D01*
X200060433Y-121465879D01*
X199896019Y-121615763D01*
X199896016Y-121615766D01*
X199761943Y-121793309D01*
X199761940Y-121793313D01*
X199662773Y-121992466D01*
X199662770Y-121992473D01*
X199601885Y-122206461D01*
X199601884Y-122206467D01*
X199581357Y-122428000D01*
X192572000Y-122428000D01*
X193485648Y-121514352D01*
X193520296Y-121500000D01*
X195499999Y-121500000D01*
X195500000Y-121500000D01*
X195985648Y-121014352D01*
X196020296Y-121000000D01*
X196999999Y-121000000D01*
X197000000Y-121000000D01*
X198112000Y-119888000D01*
X199581357Y-119888000D01*
X199601884Y-120109532D01*
X199601885Y-120109538D01*
X199662770Y-120323526D01*
X199662773Y-120323533D01*
X199761940Y-120522686D01*
X199761943Y-120522690D01*
X199896016Y-120700233D01*
X199896019Y-120700236D01*
X200060433Y-120850120D01*
X200060434Y-120850121D01*
X200060438Y-120850124D01*
X200249599Y-120967247D01*
X200457060Y-121047618D01*
X200675757Y-121088500D01*
X200675759Y-121088500D01*
X200898241Y-121088500D01*
X200898243Y-121088500D01*
X201116940Y-121047618D01*
X201324401Y-120967247D01*
X201513562Y-120850124D01*
X201677981Y-120700236D01*
X201812058Y-120522689D01*
X201911229Y-120323528D01*
X201972115Y-120109536D01*
X201992643Y-119888000D01*
X201972115Y-119666464D01*
X201911229Y-119452472D01*
X201812058Y-119253311D01*
X201677981Y-119075764D01*
X201677980Y-119075763D01*
X201513566Y-118925879D01*
X201513563Y-118925877D01*
X201513562Y-118925876D01*
X201324401Y-118808753D01*
X201324398Y-118808752D01*
X201324397Y-118808751D01*
X201220670Y-118768567D01*
X201116940Y-118728382D01*
X200898243Y-118687500D01*
X200675757Y-118687500D01*
X200457060Y-118728382D01*
X200457055Y-118728384D01*
X200249602Y-118808751D01*
X200060433Y-118925879D01*
X199896019Y-119075763D01*
X199896016Y-119075766D01*
X199761943Y-119253309D01*
X199761940Y-119253313D01*
X199662773Y-119452466D01*
X199662770Y-119452473D01*
X199601885Y-119666461D01*
X199601884Y-119666467D01*
X199581357Y-119888000D01*
X198112000Y-119888000D01*
X199485648Y-118514352D01*
X199520296Y-118500000D01*
X200428237Y-118500000D01*
X200445936Y-118503308D01*
G37*
%TD.AperFunction*%
%TD*%
M02*
