%TF.GenerationSoftware,KiCad,Pcbnew,8.0.4*%
%TF.CreationDate,2024-08-13T22:52:30+08:00*%
%TF.ProjectId,MAX30001_MINI,4d415833-3030-4303-915f-4d494e492e6b,rev?*%
%TF.SameCoordinates,Original*%
%TF.FileFunction,Copper,L1,Top*%
%TF.FilePolarity,Positive*%
%FSLAX46Y46*%
G04 Gerber Fmt 4.6, Leading zero omitted, Abs format (unit mm)*
G04 Created by KiCad (PCBNEW 8.0.4) date 2024-08-13 22:52:30*
%MOMM*%
%LPD*%
G01*
G04 APERTURE LIST*
G04 Aperture macros list*
%AMRoundRect*
0 Rectangle with rounded corners*
0 $1 Rounding radius*
0 $2 $3 $4 $5 $6 $7 $8 $9 X,Y pos of 4 corners*
0 Add a 4 corners polygon primitive as box body*
4,1,4,$2,$3,$4,$5,$6,$7,$8,$9,$2,$3,0*
0 Add four circle primitives for the rounded corners*
1,1,$1+$1,$2,$3*
1,1,$1+$1,$4,$5*
1,1,$1+$1,$6,$7*
1,1,$1+$1,$8,$9*
0 Add four rect primitives between the rounded corners*
20,1,$1+$1,$2,$3,$4,$5,0*
20,1,$1+$1,$4,$5,$6,$7,0*
20,1,$1+$1,$6,$7,$8,$9,0*
20,1,$1+$1,$8,$9,$2,$3,0*%
%AMFreePoly0*
4,1,111,-2.563245,3.679731,-2.180727,3.619146,-1.806637,3.518909,-1.445074,3.380118,-1.100000,3.204294,-0.775195,2.993363,-0.474217,2.749636,-0.200364,2.475783,0.043363,2.174805,0.254294,1.850000,0.430118,1.504926,0.568909,1.143363,0.669146,0.769273,0.729731,0.386755,0.750000,0.000000,0.729731,-0.386755,0.669146,-0.769273,0.568909,-1.143363,0.430118,-1.504926,0.254294,-1.850000,
0.043363,-2.174805,-0.200364,-2.475783,-0.474217,-2.749636,-0.775195,-2.993363,-1.100000,-3.204294,-1.445074,-3.380118,-1.806637,-3.518909,-2.180727,-3.619146,-2.563245,-3.679731,-2.950000,-3.700000,-3.336755,-3.679731,-3.719273,-3.619146,-4.093363,-3.518909,-4.454926,-3.380118,-4.800000,-3.204294,-5.124805,-2.993363,-5.425783,-2.749636,-5.699636,-2.475783,-5.943363,-2.174805,-6.154294,-1.850000,
-6.330118,-1.504926,-6.468909,-1.143363,-6.569146,-0.769273,-6.629731,-0.386755,-6.650000,0.000000,-5.154720,0.000000,-5.135858,-0.287774,-5.079596,-0.570624,-4.986896,-0.843710,-4.859344,-1.102360,-4.699122,-1.342148,-4.508972,-1.558972,-4.292148,-1.749122,-4.052360,-1.909344,-3.793710,-2.036896,-3.520624,-2.129596,-3.237774,-2.185858,-2.950000,-2.204720,-2.662226,-2.185858,-2.379376,-2.129596,
-2.106290,-2.036896,-1.847640,-1.909344,-1.607852,-1.749122,-1.391028,-1.558972,-1.200878,-1.342148,-1.040656,-1.102360,-0.913104,-0.843710,-0.820404,-0.570624,-0.764142,-0.287774,-0.745280,0.000000,-0.764142,0.287774,-0.820404,0.570624,-0.913104,0.843710,-1.040656,1.102360,-1.200878,1.342148,-1.391028,1.558972,-1.607852,1.749122,-1.847640,1.909344,-2.106290,2.036896,-2.379376,2.129596,
-2.662226,2.185858,-2.950000,2.204720,-3.237774,2.185858,-3.520624,2.129596,-3.793710,2.036896,-4.052360,1.909344,-4.292148,1.749122,-4.508972,1.558972,-4.699122,1.342148,-4.859344,1.102360,-4.986896,0.843710,-5.079596,0.570624,-5.135858,0.287774,-5.154720,0.000000,-6.650000,0.000000,-6.629731,0.386755,-6.569146,0.769273,-6.468909,1.143363,-6.330118,1.504926,-6.154294,1.850000,
-5.943363,2.174805,-5.699636,2.475783,-5.425783,2.749636,-5.124805,2.993363,-4.800000,3.204294,-4.454926,3.380118,-4.093363,3.518909,-3.719273,3.619146,-3.336755,3.679731,-2.950000,3.700000,-2.563245,3.679731,-2.563245,3.679731,$1*%
%AMFreePoly1*
4,1,19,0.500000,-0.750000,0.000000,-0.750000,0.000000,-0.744911,-0.071157,-0.744911,-0.207708,-0.704816,-0.327430,-0.627875,-0.420627,-0.520320,-0.479746,-0.390866,-0.500000,-0.250000,-0.500000,0.250000,-0.479746,0.390866,-0.420627,0.520320,-0.327430,0.627875,-0.207708,0.704816,-0.071157,0.744911,0.000000,0.744911,0.000000,0.750000,0.500000,0.750000,0.500000,-0.750000,0.500000,-0.750000,
$1*%
%AMFreePoly2*
4,1,19,0.000000,0.744911,0.071157,0.744911,0.207708,0.704816,0.327430,0.627875,0.420627,0.520320,0.479746,0.390866,0.500000,0.250000,0.500000,-0.250000,0.479746,-0.390866,0.420627,-0.520320,0.327430,-0.627875,0.207708,-0.704816,0.071157,-0.744911,0.000000,-0.744911,0.000000,-0.750000,-0.500000,-0.750000,-0.500000,0.750000,0.000000,0.750000,0.000000,0.744911,0.000000,0.744911,
$1*%
G04 Aperture macros list end*
%TA.AperFunction,EtchedComponent*%
%ADD10C,0.000000*%
%TD*%
%TA.AperFunction,SMDPad,CuDef*%
%ADD11RoundRect,0.225000X-0.225000X-0.250000X0.225000X-0.250000X0.225000X0.250000X-0.225000X0.250000X0*%
%TD*%
%TA.AperFunction,SMDPad,CuDef*%
%ADD12RoundRect,0.225000X0.250000X-0.225000X0.250000X0.225000X-0.250000X0.225000X-0.250000X-0.225000X0*%
%TD*%
%TA.AperFunction,ComponentPad*%
%ADD13R,1.000000X1.000000*%
%TD*%
%TA.AperFunction,SMDPad,CuDef*%
%ADD14C,0.350000*%
%TD*%
%TA.AperFunction,SMDPad,CuDef*%
%ADD15R,1.400000X0.400000*%
%TD*%
%TA.AperFunction,SMDPad,CuDef*%
%ADD16R,0.500000X0.200000*%
%TD*%
%TA.AperFunction,SMDPad,CuDef*%
%ADD17C,1.100000*%
%TD*%
%TA.AperFunction,SMDPad,CuDef*%
%ADD18FreePoly0,0.000000*%
%TD*%
%TA.AperFunction,SMDPad,CuDef*%
%ADD19RoundRect,0.200000X-0.200000X-0.275000X0.200000X-0.275000X0.200000X0.275000X-0.200000X0.275000X0*%
%TD*%
%TA.AperFunction,SMDPad,CuDef*%
%ADD20RoundRect,0.200000X0.275000X-0.200000X0.275000X0.200000X-0.275000X0.200000X-0.275000X-0.200000X0*%
%TD*%
%TA.AperFunction,ComponentPad*%
%ADD21R,1.700000X1.700000*%
%TD*%
%TA.AperFunction,ComponentPad*%
%ADD22O,1.700000X1.700000*%
%TD*%
%TA.AperFunction,SMDPad,CuDef*%
%ADD23RoundRect,0.200000X0.200000X0.275000X-0.200000X0.275000X-0.200000X-0.275000X0.200000X-0.275000X0*%
%TD*%
%TA.AperFunction,SMDPad,CuDef*%
%ADD24FreePoly1,180.000000*%
%TD*%
%TA.AperFunction,SMDPad,CuDef*%
%ADD25FreePoly2,180.000000*%
%TD*%
%TA.AperFunction,SMDPad,CuDef*%
%ADD26RoundRect,0.150000X-0.150000X0.512500X-0.150000X-0.512500X0.150000X-0.512500X0.150000X0.512500X0*%
%TD*%
%TA.AperFunction,SMDPad,CuDef*%
%ADD27FreePoly1,0.000000*%
%TD*%
%TA.AperFunction,SMDPad,CuDef*%
%ADD28FreePoly2,0.000000*%
%TD*%
%TA.AperFunction,SMDPad,CuDef*%
%ADD29FreePoly1,270.000000*%
%TD*%
%TA.AperFunction,SMDPad,CuDef*%
%ADD30FreePoly2,270.000000*%
%TD*%
%TA.AperFunction,SMDPad,CuDef*%
%ADD31RoundRect,0.225000X-0.250000X0.225000X-0.250000X-0.225000X0.250000X-0.225000X0.250000X0.225000X0*%
%TD*%
%TA.AperFunction,SMDPad,CuDef*%
%ADD32RoundRect,0.225000X0.225000X0.250000X-0.225000X0.250000X-0.225000X-0.250000X0.225000X-0.250000X0*%
%TD*%
%TA.AperFunction,ViaPad*%
%ADD33C,0.300000*%
%TD*%
%TA.AperFunction,ViaPad*%
%ADD34C,0.200000*%
%TD*%
%TA.AperFunction,Conductor*%
%ADD35C,0.200000*%
%TD*%
%TA.AperFunction,Conductor*%
%ADD36C,0.500000*%
%TD*%
G04 APERTURE END LIST*
D10*
%TA.AperFunction,EtchedComponent*%
%TO.C,JP8*%
G36*
X184331000Y-116440000D02*
G01*
X183931000Y-116440000D01*
X183931000Y-115940000D01*
X184331000Y-115940000D01*
X184331000Y-116440000D01*
G37*
%TD.AperFunction*%
%TA.AperFunction,EtchedComponent*%
G36*
X185131000Y-116440000D02*
G01*
X184731000Y-116440000D01*
X184731000Y-115940000D01*
X185131000Y-115940000D01*
X185131000Y-116440000D01*
G37*
%TD.AperFunction*%
%TA.AperFunction,EtchedComponent*%
%TO.C,JP9*%
G36*
X181410000Y-116455000D02*
G01*
X181010000Y-116455000D01*
X181010000Y-115955000D01*
X181410000Y-115955000D01*
X181410000Y-116455000D01*
G37*
%TD.AperFunction*%
%TA.AperFunction,EtchedComponent*%
G36*
X182210000Y-116455000D02*
G01*
X181810000Y-116455000D01*
X181810000Y-115955000D01*
X182210000Y-115955000D01*
X182210000Y-116455000D01*
G37*
%TD.AperFunction*%
%TA.AperFunction,EtchedComponent*%
%TO.C,JP1*%
G36*
X191245500Y-105802000D02*
G01*
X190745500Y-105802000D01*
X190745500Y-105402000D01*
X191245500Y-105402000D01*
X191245500Y-105802000D01*
G37*
%TD.AperFunction*%
%TA.AperFunction,EtchedComponent*%
G36*
X191245500Y-106602000D02*
G01*
X190745500Y-106602000D01*
X190745500Y-106202000D01*
X191245500Y-106202000D01*
X191245500Y-106602000D01*
G37*
%TD.AperFunction*%
%TA.AperFunction,EtchedComponent*%
%TO.C,JP4*%
G36*
X172050000Y-109470000D02*
G01*
X171650000Y-109470000D01*
X171650000Y-108970000D01*
X172050000Y-108970000D01*
X172050000Y-109470000D01*
G37*
%TD.AperFunction*%
%TA.AperFunction,EtchedComponent*%
G36*
X171250000Y-109470000D02*
G01*
X170850000Y-109470000D01*
X170850000Y-108970000D01*
X171250000Y-108970000D01*
X171250000Y-109470000D01*
G37*
%TD.AperFunction*%
%TA.AperFunction,EtchedComponent*%
%TO.C,JP3*%
G36*
X178192000Y-105591000D02*
G01*
X177692000Y-105591000D01*
X177692000Y-105191000D01*
X178192000Y-105191000D01*
X178192000Y-105591000D01*
G37*
%TD.AperFunction*%
%TA.AperFunction,EtchedComponent*%
G36*
X178192000Y-106391000D02*
G01*
X177692000Y-106391000D01*
X177692000Y-105991000D01*
X178192000Y-105991000D01*
X178192000Y-106391000D01*
G37*
%TD.AperFunction*%
%TA.AperFunction,EtchedComponent*%
%TO.C,JP6*%
G36*
X195250000Y-120600000D02*
G01*
X194750000Y-120600000D01*
X194750000Y-120200000D01*
X195250000Y-120200000D01*
X195250000Y-120600000D01*
G37*
%TD.AperFunction*%
%TA.AperFunction,EtchedComponent*%
G36*
X195250000Y-119800000D02*
G01*
X194750000Y-119800000D01*
X194750000Y-119400000D01*
X195250000Y-119400000D01*
X195250000Y-119800000D01*
G37*
%TD.AperFunction*%
%TA.AperFunction,EtchedComponent*%
%TO.C,JP2*%
G36*
X185004000Y-109582000D02*
G01*
X184604000Y-109582000D01*
X184604000Y-109082000D01*
X185004000Y-109082000D01*
X185004000Y-109582000D01*
G37*
%TD.AperFunction*%
%TA.AperFunction,EtchedComponent*%
G36*
X184204000Y-109582000D02*
G01*
X183804000Y-109582000D01*
X183804000Y-109082000D01*
X184204000Y-109082000D01*
X184204000Y-109582000D01*
G37*
%TD.AperFunction*%
%TD*%
D11*
%TO.P,C25,1*%
%TO.N,BIN*%
X177164400Y-125933200D03*
%TO.P,C25,2*%
%TO.N,GNDA*%
X178714400Y-125933200D03*
%TD*%
D12*
%TO.P,C1,1*%
%TO.N,1V8_A*%
X183757000Y-120939000D03*
%TO.P,C1,2*%
%TO.N,GNDA*%
X183757000Y-119389000D03*
%TD*%
D13*
%TO.P,TP3,1,1*%
%TO.N,Net-(C8-Pad2)*%
X192582800Y-134416800D03*
%TD*%
D12*
%TO.P,C6,1*%
%TO.N,3V3_D*%
X186690000Y-120930000D03*
%TO.P,C6,2*%
%TO.N,GNDD*%
X186690000Y-119380000D03*
%TD*%
%TO.P,C20,2*%
%TO.N,ECGN*%
X176936681Y-129184681D03*
%TO.P,C20,1*%
%TO.N,ECGP*%
X176936681Y-130734681D03*
%TD*%
D14*
%TO.P,U2,A1,DRVP*%
%TO.N,Net-(U2-DRVP)*%
X186539000Y-126111000D03*
%TO.P,U2,A2,DRVN*%
%TO.N,Net-(U2-DRVN)*%
X186039000Y-126111000D03*
%TO.P,U2,A3,BIN*%
%TO.N,BIN*%
X185539000Y-126111000D03*
%TO.P,U2,A4,BIP*%
%TO.N,BIP*%
X185039000Y-126111000D03*
%TO.P,U2,A5,ECGP*%
%TO.N,ECGP*%
X184539000Y-126111000D03*
%TO.P,U2,A6,ECGN*%
%TO.N,ECGN*%
X184039000Y-126111000D03*
%TO.P,U2,B1,VBG*%
%TO.N,Net-(U2-VBG)*%
X186539000Y-125611000D03*
%TO.P,U2,B2,RBIAS*%
%TO.N,RBIAS*%
X186039000Y-125611000D03*
%TO.P,U2,B3,AGND*%
%TO.N,GNDA*%
X185539000Y-125611000D03*
%TO.P,U2,B4,AGND*%
X185039000Y-125611000D03*
%TO.P,U2,B5,CAPN*%
%TO.N,Net-(U2-CAPN)*%
X184539000Y-125611000D03*
%TO.P,U2,B6,CAPP*%
%TO.N,Net-(U2-CAPP)*%
X184039000Y-125611000D03*
%TO.P,U2,C1,VCM*%
%TO.N,Net-(U2-VCM)*%
X186539000Y-125111000D03*
%TO.P,U2,C2,AOUT*%
%TO.N,Net-(U2-AOUT)*%
X186039000Y-125111000D03*
%TO.P,U2,C3,AGND*%
%TO.N,GNDA*%
X185539000Y-125111000D03*
%TO.P,U2,C4,AGND*%
X185039000Y-125111000D03*
%TO.P,U2,C5,DGND*%
%TO.N,GNDD*%
X184539000Y-125111000D03*
%TO.P,U2,C6,CPLL*%
%TO.N,Net-(U2-CPLL)*%
X184039000Y-125111000D03*
%TO.P,U2,D1,VREF*%
%TO.N,Net-(U2-VREF)*%
X186539000Y-124611000D03*
%TO.P,U2,D2,INTB*%
%TO.N,INTB*%
X186039000Y-124611000D03*
%TO.P,U2,D3,OVDD*%
%TO.N,3V3_D*%
X185539000Y-124611000D03*
%TO.P,U2,D4,AGND*%
%TO.N,GNDA*%
X185039000Y-124611000D03*
%TO.P,U2,D5,FCLK*%
%TO.N,FCLK*%
X184539000Y-124611000D03*
%TO.P,U2,D6,DVDD*%
%TO.N,1V8_A*%
X184039000Y-124611000D03*
%TO.P,U2,E1,AVDD*%
X186539000Y-124111000D03*
%TO.P,U2,E2,INT2B*%
%TO.N,INT2B*%
X186039000Y-124111000D03*
%TO.P,U2,E3,SDO*%
%TO.N,SDO*%
X185539000Y-124111000D03*
%TO.P,U2,E4,SDI*%
%TO.N,SDI*%
X185039000Y-124111000D03*
%TO.P,U2,E5,SCLK*%
%TO.N,SCLK*%
X184539000Y-124111000D03*
%TO.P,U2,E6,CSB*%
%TO.N,CSB*%
X184039000Y-124111000D03*
%TD*%
D15*
%TO.P,U4,1,NC*%
%TO.N,unconnected-(U4-NC-Pad1)*%
X195133200Y-116600000D03*
D16*
%TO.P,U4,2,GND*%
%TO.N,GNDD*%
X194683200Y-117300000D03*
D15*
%TO.P,U4,3,CLK_OUT*%
%TO.N,Net-(JP6-A)*%
X195133200Y-118200000D03*
D16*
%TO.P,U4,4,VDD*%
%TO.N,3V3_D*%
X195583200Y-117500000D03*
%TD*%
D17*
%TO.P,J1,1,Pin_1*%
%TO.N,ECGP ELECTRODE*%
X159550000Y-135500000D03*
X162500000Y-132550000D03*
X162500000Y-138450000D03*
D18*
X165450000Y-135500000D03*
%TD*%
D19*
%TO.P,R7,1*%
%TO.N,SDI*%
X195517000Y-128879600D03*
%TO.P,R7,2*%
%TO.N,Net-(J4-Pin_7)*%
X197167000Y-128879600D03*
%TD*%
D11*
%TO.P,C19,1*%
%TO.N,3V3_D*%
X195249200Y-115163600D03*
%TO.P,C19,2*%
%TO.N,GNDD*%
X196799200Y-115163600D03*
%TD*%
D20*
%TO.P,R10,1*%
%TO.N,Net-(JP4-B)*%
X173736000Y-110045000D03*
%TO.P,R10,2*%
%TO.N,GNDA*%
X173736000Y-108395000D03*
%TD*%
D13*
%TO.P,TP4,1,1*%
%TO.N,Net-(C9-Pad2)*%
X192379600Y-127152400D03*
%TD*%
D21*
%TO.P,J4,1,Pin_1*%
%TO.N,3V3_D*%
X200787000Y-109728000D03*
D22*
%TO.P,J4,2,Pin_2*%
%TO.N,GNDD*%
X200787000Y-112268000D03*
%TO.P,J4,3,Pin_3*%
%TO.N,1V8_A*%
X200787000Y-114808000D03*
%TO.P,J4,4,Pin_4*%
%TO.N,GNDA*%
X200787000Y-117348000D03*
%TO.P,J4,5,Pin_5*%
%TO.N,Net-(J4-Pin_5)*%
X200787000Y-119888000D03*
%TO.P,J4,6,Pin_6*%
%TO.N,Net-(J4-Pin_6)*%
X200787000Y-122428000D03*
%TO.P,J4,7,Pin_7*%
%TO.N,Net-(J4-Pin_7)*%
X200787000Y-124968000D03*
%TO.P,J4,8,Pin_8*%
%TO.N,Net-(J4-Pin_8)*%
X200787000Y-127508000D03*
%TO.P,J4,9,Pin_9*%
%TO.N,Net-(J4-Pin_9)*%
X200787000Y-130048000D03*
%TO.P,J4,10,Pin_10*%
%TO.N,Net-(J4-Pin_10)*%
X200787000Y-132588000D03*
%TO.P,J4,11,Pin_11*%
%TO.N,5V0_IN*%
X200787000Y-135128000D03*
%TO.P,J4,12,Pin_12*%
%TO.N,GND*%
X200787000Y-137668000D03*
%TD*%
D23*
%TO.P,R15,1*%
%TO.N,ECGN*%
X175399481Y-129108481D03*
%TO.P,R15,2*%
%TO.N,Net-(JP7-B)*%
X173749481Y-129108481D03*
%TD*%
%TO.P,FB1,1*%
%TO.N,GND*%
X197167000Y-106629200D03*
%TO.P,FB1,2*%
%TO.N,GNDD*%
X195517000Y-106629200D03*
%TD*%
%TO.P,R5,1*%
%TO.N,Net-(JP9-A)*%
X178625000Y-112522000D03*
%TO.P,R5,2*%
%TO.N,Net-(JP4-B)*%
X176975000Y-112522000D03*
%TD*%
D24*
%TO.P,JP7,1,A*%
%TO.N,ECGN ELECTRODE*%
X175361600Y-126796800D03*
D25*
%TO.P,JP7,2,B*%
%TO.N,Net-(JP7-B)*%
X174061600Y-126796800D03*
%TD*%
D23*
%TO.P,R17,1*%
%TO.N,BIP*%
X177139600Y-135483600D03*
%TO.P,R17,2*%
%TO.N,ECGP ELECTRODE*%
X175489600Y-135483600D03*
%TD*%
%TO.P,R18,2*%
%TO.N,ECGN ELECTRODE*%
X175451000Y-124409200D03*
%TO.P,R18,1*%
%TO.N,BIN*%
X177101000Y-124409200D03*
%TD*%
D12*
%TO.P,C5,1*%
%TO.N,3V3_D*%
X188214000Y-120930000D03*
%TO.P,C5,2*%
%TO.N,GNDD*%
X188214000Y-119380000D03*
%TD*%
D26*
%TO.P,U1,1,IN*%
%TO.N,5V0_IN*%
X191897000Y-108596000D03*
%TO.P,U1,2,GND*%
%TO.N,Net-(JP2-B)*%
X190947000Y-108596000D03*
%TO.P,U1,3,EN*%
%TO.N,Net-(JP1-B)*%
X189997000Y-108596000D03*
%TO.P,U1,4,NC*%
%TO.N,unconnected-(U1-NC-Pad4)*%
X189997000Y-110871000D03*
%TO.P,U1,5,OUT*%
%TO.N,Net-(JP8-A)*%
X191897000Y-110871000D03*
%TD*%
D27*
%TO.P,JP5,1,A*%
%TO.N,Net-(JP5-A)*%
X174091600Y-132943600D03*
D28*
%TO.P,JP5,2,B*%
%TO.N,ECGP ELECTRODE*%
X175391600Y-132943600D03*
%TD*%
D23*
%TO.P,R1,1*%
%TO.N,Net-(JP8-A)*%
X191579000Y-112776000D03*
%TO.P,R1,2*%
%TO.N,Net-(JP2-B)*%
X189929000Y-112776000D03*
%TD*%
D19*
%TO.P,R12,1*%
%TO.N,INTB*%
X195517000Y-136347200D03*
%TO.P,R12,2*%
%TO.N,Net-(J4-Pin_10)*%
X197167000Y-136347200D03*
%TD*%
D11*
%TO.P,C23,1*%
%TO.N,BIP*%
X177164400Y-133959600D03*
%TO.P,C23,2*%
%TO.N,GNDA*%
X178714400Y-133959600D03*
%TD*%
%TO.P,C18,1*%
%TO.N,ECGP ELECTRODE*%
X170738481Y-130683281D03*
%TO.P,C18,2*%
%TO.N,Net-(JP5-A)*%
X172288481Y-130683281D03*
%TD*%
D26*
%TO.P,U3,1,IN*%
%TO.N,5V0_IN*%
X178826000Y-108469000D03*
%TO.P,U3,2,GND*%
%TO.N,Net-(JP4-B)*%
X177876000Y-108469000D03*
%TO.P,U3,3,EN*%
%TO.N,Net-(JP3-B)*%
X176926000Y-108469000D03*
%TO.P,U3,4,NC*%
%TO.N,unconnected-(U3-NC-Pad4)*%
X176926000Y-110744000D03*
%TO.P,U3,5,OUT*%
%TO.N,Net-(JP9-A)*%
X178826000Y-110744000D03*
%TD*%
D11*
%TO.P,C22,1*%
%TO.N,ECGN*%
X177164400Y-127508000D03*
%TO.P,C22,2*%
%TO.N,GNDA*%
X178714400Y-127508000D03*
%TD*%
D12*
%TO.P,C7,1*%
%TO.N,Net-(JP2-B)*%
X188214000Y-109982000D03*
%TO.P,C7,2*%
%TO.N,GNDD*%
X188214000Y-108432000D03*
%TD*%
D17*
%TO.P,J2,1,Pin_1*%
%TO.N,ECGN ELECTRODE*%
X159711600Y-124714000D03*
X162661600Y-121764000D03*
X162661600Y-127664000D03*
D18*
X165611600Y-124714000D03*
%TD*%
D13*
%TO.P,TP1,1,1*%
%TO.N,Net-(JP8-A)*%
X187706000Y-115570000D03*
%TD*%
D12*
%TO.P,C2,1*%
%TO.N,1V8_A*%
X182106000Y-120926000D03*
%TO.P,C2,2*%
%TO.N,GNDA*%
X182106000Y-119376000D03*
%TD*%
D19*
%TO.P,R9,1*%
%TO.N,INT2B*%
X195517000Y-133858000D03*
%TO.P,R9,2*%
%TO.N,Net-(J4-Pin_9)*%
X197167000Y-133858000D03*
%TD*%
D29*
%TO.P,JP8,1,A*%
%TO.N,Net-(JP8-A)*%
X184531000Y-115540000D03*
D30*
%TO.P,JP8,2,B*%
%TO.N,3V3_D*%
X184531000Y-116840000D03*
%TD*%
D18*
%TO.P,J3,1,Pin_1*%
%TO.N,VCM ELECTRODE*%
X165433519Y-107771919D03*
D17*
X162483519Y-110721919D03*
X162483519Y-104821919D03*
X159533519Y-107771919D03*
%TD*%
D23*
%TO.P,R13,2*%
%TO.N,Net-(JP5-A)*%
X173737281Y-130683281D03*
%TO.P,R13,1*%
%TO.N,ECGP*%
X175387281Y-130683281D03*
%TD*%
D31*
%TO.P,C4,1*%
%TO.N,5V0_IN*%
X193548000Y-106934000D03*
%TO.P,C4,2*%
%TO.N,GNDD*%
X193548000Y-108484000D03*
%TD*%
%TO.P,C15,1*%
%TO.N,5V0_IN*%
X180665000Y-107188000D03*
%TO.P,C15,2*%
%TO.N,GNDA*%
X180665000Y-108738000D03*
%TD*%
D13*
%TO.P,TP2,1,1*%
%TO.N,Net-(U2-AOUT)*%
X190000000Y-126034800D03*
%TD*%
D29*
%TO.P,JP9,1,A*%
%TO.N,Net-(JP9-A)*%
X181610000Y-115555000D03*
D30*
%TO.P,JP9,2,B*%
%TO.N,1V8_A*%
X181610000Y-116855000D03*
%TD*%
D12*
%TO.P,C3,1*%
%TO.N,Net-(JP8-A)*%
X193548000Y-112789000D03*
%TO.P,C3,2*%
%TO.N,GNDD*%
X193548000Y-111239000D03*
%TD*%
D19*
%TO.P,R16,2*%
%TO.N,Net-(JP7-B)*%
X172339281Y-127584481D03*
%TO.P,R16,1*%
%TO.N,ECGN ELECTRODE*%
X170689281Y-127584481D03*
%TD*%
D23*
%TO.P,R3,1*%
%TO.N,Net-(U2-VCM)*%
X177151800Y-121259600D03*
%TO.P,R3,2*%
%TO.N,VCM ELECTRODE*%
X175501800Y-121259600D03*
%TD*%
D12*
%TO.P,C14,1*%
%TO.N,Net-(JP9-A)*%
X180594000Y-112522000D03*
%TO.P,C14,2*%
%TO.N,GNDA*%
X180594000Y-110972000D03*
%TD*%
D24*
%TO.P,JP1,1,A*%
%TO.N,5V0_IN*%
X191645500Y-106002000D03*
D25*
%TO.P,JP1,2,B*%
%TO.N,Net-(JP1-B)*%
X190345500Y-106002000D03*
%TD*%
D11*
%TO.P,C9,2*%
%TO.N,Net-(C9-Pad2)*%
X192595800Y-129032000D03*
%TO.P,C9,1*%
%TO.N,Net-(U2-DRVP)*%
X191045800Y-129032000D03*
%TD*%
D29*
%TO.P,JP4,1,A*%
%TO.N,GNDA*%
X171450000Y-108570000D03*
D30*
%TO.P,JP4,2,B*%
%TO.N,Net-(JP4-B)*%
X171450000Y-109870000D03*
%TD*%
D11*
%TO.P,C8,1*%
%TO.N,Net-(U2-DRVN)*%
X191045800Y-132334000D03*
%TO.P,C8,2*%
%TO.N,Net-(C8-Pad2)*%
X192595800Y-132334000D03*
%TD*%
D24*
%TO.P,JP3,1,A*%
%TO.N,5V0_IN*%
X178592000Y-105791000D03*
D25*
%TO.P,JP3,2,B*%
%TO.N,Net-(JP3-B)*%
X177292000Y-105791000D03*
%TD*%
D24*
%TO.P,JP6,1,A*%
%TO.N,Net-(JP6-A)*%
X195650000Y-120000000D03*
D25*
%TO.P,JP6,2,B*%
%TO.N,FCLK*%
X194350000Y-120000000D03*
%TD*%
D29*
%TO.P,JP2,1,A*%
%TO.N,GNDD*%
X184404000Y-108682000D03*
D30*
%TO.P,JP2,2,B*%
%TO.N,Net-(JP2-B)*%
X184404000Y-109982000D03*
%TD*%
D13*
%TO.P,TP5,1,1*%
%TO.N,Net-(JP9-A)*%
X178562000Y-115570000D03*
%TD*%
D19*
%TO.P,R8,1*%
%TO.N,SDO*%
X195517000Y-131368800D03*
%TO.P,R8,2*%
%TO.N,Net-(J4-Pin_8)*%
X197167000Y-131368800D03*
%TD*%
D23*
%TO.P,FB2,1*%
%TO.N,GNDD*%
X183908200Y-106730800D03*
%TO.P,FB2,2*%
%TO.N,GNDA*%
X182258200Y-106730800D03*
%TD*%
D12*
%TO.P,C16,1*%
%TO.N,Net-(JP4-B)*%
X175260000Y-109995000D03*
%TO.P,C16,2*%
%TO.N,GNDA*%
X175260000Y-108445000D03*
%TD*%
D23*
%TO.P,R14,1*%
%TO.N,Net-(JP5-A)*%
X172339281Y-132207281D03*
%TO.P,R14,2*%
%TO.N,ECGP ELECTRODE*%
X170689281Y-132207281D03*
%TD*%
D20*
%TO.P,R2,1*%
%TO.N,Net-(JP2-B)*%
X186690000Y-110045000D03*
%TO.P,R2,2*%
%TO.N,GNDD*%
X186690000Y-108395000D03*
%TD*%
D19*
%TO.P,R4,1*%
%TO.N,CSB*%
X195517000Y-123901200D03*
%TO.P,R4,2*%
%TO.N,Net-(J4-Pin_5)*%
X197167000Y-123901200D03*
%TD*%
D11*
%TO.P,C17,1*%
%TO.N,ECGP*%
X177177400Y-132384800D03*
%TO.P,C17,2*%
%TO.N,GNDA*%
X178727400Y-132384800D03*
%TD*%
D32*
%TO.P,C21,1*%
%TO.N,Net-(JP7-B)*%
X172288481Y-129108481D03*
%TO.P,C21,2*%
%TO.N,ECGN ELECTRODE*%
X170738481Y-129108481D03*
%TD*%
D19*
%TO.P,R6,1*%
%TO.N,SCLK*%
X195517000Y-126390400D03*
%TO.P,R6,2*%
%TO.N,Net-(J4-Pin_6)*%
X197167000Y-126390400D03*
%TD*%
D33*
%TO.N,GNDA*%
X179500000Y-117000000D03*
X179500000Y-118000000D03*
%TO.N,GND*%
X191000000Y-124000000D03*
X194500000Y-132500000D03*
X194500000Y-129500000D03*
X194500000Y-130500000D03*
X196000000Y-122000000D03*
X195000000Y-122000000D03*
X202500000Y-139000000D03*
X197500000Y-139000000D03*
X196000000Y-139000000D03*
X195000000Y-138000000D03*
%TO.N,BIP*%
X177164400Y-133959600D03*
%TO.N,BIN*%
X177164400Y-125933200D03*
%TO.N,GNDD*%
X185500000Y-106000000D03*
X185000000Y-105500000D03*
X184000000Y-105500000D03*
X187000000Y-107000000D03*
X185500000Y-107000000D03*
X185500000Y-111500000D03*
X185500000Y-112500000D03*
X187000000Y-112500000D03*
X187000000Y-111500000D03*
X196000000Y-110500000D03*
X196000000Y-109000000D03*
X197000000Y-109000000D03*
X195000000Y-105000000D03*
X194000000Y-105000000D03*
X193000000Y-105000000D03*
X189000000Y-107000000D03*
X189000000Y-106000000D03*
X189000000Y-105000000D03*
X186500000Y-118000000D03*
X187500000Y-118000000D03*
X188500000Y-118000000D03*
X195000000Y-110000000D03*
%TO.N,GNDA*%
X181000000Y-134000000D03*
X183500000Y-131500000D03*
X182000000Y-133000000D03*
X176500000Y-117500000D03*
X175000000Y-116000000D03*
X173500000Y-114500000D03*
X172000000Y-113000000D03*
X170500000Y-111500000D03*
X176000000Y-107000000D03*
X182000000Y-108500000D03*
X182000000Y-108000000D03*
X182500000Y-108000000D03*
X182500000Y-105500000D03*
X182000000Y-105500000D03*
X181500000Y-105500000D03*
X171000000Y-107500000D03*
X171500000Y-107500000D03*
X172000000Y-107500000D03*
X172500000Y-107500000D03*
X182500000Y-118000000D03*
X180500000Y-122000000D03*
X181000000Y-122500000D03*
X181000000Y-122000000D03*
X180000000Y-134500000D03*
X180000000Y-134000000D03*
X180000000Y-133500000D03*
X180000000Y-133000000D03*
X180000000Y-132500000D03*
X180000000Y-132000000D03*
X180000000Y-128000000D03*
X180000000Y-127500000D03*
X180000000Y-127000000D03*
X180000000Y-126500000D03*
X180000000Y-126000000D03*
X180000000Y-125500000D03*
X185000000Y-131000000D03*
X186000000Y-131000000D03*
X187000000Y-131000000D03*
X188000000Y-131000000D03*
X183000000Y-118000000D03*
X182000000Y-118000000D03*
X180500000Y-125000000D03*
X181500000Y-111000000D03*
%TO.N,1V8_A*%
X181610000Y-116855000D03*
%TO.N,GNDD*%
X186690000Y-119380000D03*
D34*
X184556400Y-125120400D03*
D33*
%TO.N,Net-(U2-VREF)*%
X187401200Y-124256800D03*
%TO.N,INT2B*%
X194513200Y-133858000D03*
%TO.N,SDO*%
X195013200Y-131318000D03*
%TO.N,SDI*%
X195485154Y-128720306D03*
%TO.N,SCLK*%
X194919602Y-126282131D03*
%TO.N,CSB*%
X194989257Y-123901214D03*
D34*
%TO.N,Net-(U2-AOUT)*%
X186039000Y-125111000D03*
D33*
%TO.N,INTB*%
X193954398Y-136093200D03*
%TO.N,CSB*%
X186183956Y-121714207D03*
D34*
%TO.N,1V8_A*%
X184048400Y-124612400D03*
X186537600Y-124104400D03*
D33*
%TO.N,INT2B*%
X187553600Y-123596396D03*
D34*
%TO.N,INTB*%
X186047029Y-124610463D03*
D33*
%TO.N,SDO*%
X186537590Y-123145752D03*
%TO.N,SDI*%
X186182000Y-122659948D03*
%TO.N,SCLK*%
X185831802Y-122179402D03*
%TO.N,Net-(U2-VCM)*%
X188053600Y-125620400D03*
X182270400Y-125069600D03*
D34*
%TO.N,GNDA*%
X185064400Y-125577600D03*
D33*
%TO.N,FCLK*%
X193000000Y-120000000D03*
%TO.N,3V3_D*%
X188925194Y-121156781D03*
%TO.N,BIP*%
X182524400Y-130107455D03*
%TO.N,BIN*%
X183557055Y-129607455D03*
D34*
%TO.N,Net-(U2-CAPN)*%
X184556400Y-125628400D03*
D33*
%TO.N,Net-(U2-CAPP)*%
X183235600Y-126026800D03*
%TO.N,Net-(U2-CPLL)*%
X183368089Y-124976000D03*
%TO.N,Net-(U2-VBG)*%
X187022405Y-125737512D03*
D34*
%TO.N,3V3_D*%
X185541326Y-124609769D03*
%TO.N,FCLK*%
X184536984Y-124613655D03*
D33*
%TO.N,5V0_IN*%
X191770000Y-104140000D03*
X178562000Y-103886000D03*
D34*
%TO.N,RBIAS*%
X186029600Y-125628400D03*
%TD*%
D35*
%TO.N,VCM ELECTRODE*%
X175501800Y-121259600D02*
X172759600Y-121259600D01*
X172759600Y-121259600D02*
X162483519Y-110983519D01*
X162483519Y-110983519D02*
X162483519Y-110721919D01*
%TO.N,ECGP ELECTRODE*%
X170689281Y-132207281D02*
X168742719Y-132207281D01*
X168742719Y-132207281D02*
X165450000Y-135500000D01*
%TO.N,BIP*%
X177139600Y-135483600D02*
X177139600Y-133984400D01*
X177139600Y-133984400D02*
X177164400Y-133959600D01*
%TO.N,ECGP ELECTRODE*%
X170689281Y-132207281D02*
X170707281Y-132207281D01*
X170707281Y-132207281D02*
X173983600Y-135483600D01*
X173983600Y-135483600D02*
X175489600Y-135483600D01*
%TO.N,ECGN ELECTRODE*%
X170689281Y-127584481D02*
X170689281Y-127310719D01*
X170689281Y-127310719D02*
X173590800Y-124409200D01*
X173590800Y-124409200D02*
X175451000Y-124409200D01*
%TO.N,CSB*%
X184039000Y-123265097D02*
X185589890Y-121714207D01*
%TO.N,FCLK*%
X194350000Y-120000000D02*
X193000000Y-120000000D01*
%TO.N,CSB*%
X184039000Y-124111000D02*
X184039000Y-123265097D01*
X185589890Y-121714207D02*
X186183956Y-121714207D01*
%TO.N,GNDD*%
X200787000Y-112268000D02*
X198232000Y-112268000D01*
X198232000Y-112268000D02*
X196799200Y-113700800D01*
X196799200Y-113700800D02*
X196799200Y-115163600D01*
%TO.N,3V3_D*%
X195583200Y-117500000D02*
X196000000Y-117500000D01*
X196000000Y-117500000D02*
X196500000Y-117000000D01*
X195249200Y-115163600D02*
X195249200Y-115249200D01*
X195249200Y-115249200D02*
X196500000Y-116500000D01*
X196500000Y-116500000D02*
X196500000Y-117000000D01*
%TO.N,Net-(JP6-A)*%
X195133200Y-118200000D02*
X195650000Y-118716800D01*
X195650000Y-118716800D02*
X195650000Y-120000000D01*
%TO.N,GNDA*%
X180622000Y-111000000D02*
X180594000Y-110972000D01*
X181500000Y-111000000D02*
X180622000Y-111000000D01*
D36*
%TO.N,3V3_D*%
X184531000Y-116840000D02*
X188336000Y-116840000D01*
X188336000Y-116840000D02*
X190368000Y-114808000D01*
X193090800Y-114808000D02*
X193878200Y-114020600D01*
X190368000Y-114808000D02*
X193090800Y-114808000D01*
D35*
%TO.N,Net-(U2-DRVP)*%
X186539000Y-126111000D02*
X189460000Y-129032000D01*
%TO.N,Net-(U2-DRVN)*%
X186039000Y-126111000D02*
X186039000Y-127327200D01*
%TO.N,Net-(U2-VCM)*%
X186539000Y-125111000D02*
X187544200Y-125111000D01*
%TO.N,Net-(U2-DRVP)*%
X189460000Y-129032000D02*
X191045800Y-129032000D01*
%TO.N,Net-(U2-VBG)*%
X186895893Y-125611000D02*
X187022405Y-125737512D01*
%TO.N,Net-(U2-DRVN)*%
X186039000Y-127327200D02*
X191045800Y-132334000D01*
%TO.N,Net-(U2-VCM)*%
X187544200Y-125111000D02*
X188053600Y-125620400D01*
%TO.N,Net-(U2-VBG)*%
X186539000Y-125611000D02*
X186895893Y-125611000D01*
%TO.N,Net-(C9-Pad2)*%
X192379600Y-128815800D02*
X192379600Y-127152400D01*
X192595800Y-129032000D02*
X192379600Y-128815800D01*
%TO.N,Net-(C8-Pad2)*%
X192595800Y-132334000D02*
X192582800Y-132347000D01*
X192582800Y-132347000D02*
X192582800Y-134416800D01*
%TO.N,Net-(U2-VREF)*%
X186539000Y-124611000D02*
X187047000Y-124611000D01*
X187047000Y-124611000D02*
X187401200Y-124256800D01*
%TO.N,SDO*%
X186180029Y-123145752D02*
X186537590Y-123145752D01*
X185539000Y-124111000D02*
X185539000Y-123786781D01*
X185539000Y-123786781D02*
X186180029Y-123145752D01*
%TO.N,SDI*%
X186182000Y-122659948D02*
X186100147Y-122659948D01*
X185039000Y-123721095D02*
X185039000Y-124111000D01*
X186100147Y-122659948D02*
X185039000Y-123721095D01*
%TO.N,SCLK*%
X184539000Y-124111000D02*
X184539000Y-123472204D01*
X184539000Y-123472204D02*
X185831802Y-122179402D01*
%TO.N,INT2B*%
X186039000Y-124111000D02*
X186039000Y-123863513D01*
X186306117Y-123596396D02*
X187553600Y-123596396D01*
X186039000Y-123863513D02*
X186306117Y-123596396D01*
%TO.N,CSB*%
X194989271Y-123901200D02*
X194989257Y-123901214D01*
X195517000Y-123901200D02*
X194989271Y-123901200D01*
%TO.N,SCLK*%
X195027871Y-126390400D02*
X194919602Y-126282131D01*
X195517000Y-126390400D02*
X195027871Y-126390400D01*
%TO.N,SDI*%
X195517000Y-128879600D02*
X195485154Y-128847754D01*
%TO.N,SDO*%
X195517000Y-131368800D02*
X195064000Y-131368800D01*
X195064000Y-131368800D02*
X195013200Y-131318000D01*
%TO.N,SDI*%
X195485154Y-128847754D02*
X195485154Y-128720306D01*
%TO.N,INT2B*%
X194513200Y-133858000D02*
X195517000Y-133858000D01*
%TO.N,3V3_D*%
X188214000Y-120930000D02*
X188698413Y-120930000D01*
X188698413Y-120930000D02*
X188925194Y-121156781D01*
D36*
%TO.N,GND*%
X200787000Y-137668000D02*
X202184000Y-137668000D01*
X202184000Y-137668000D02*
X202773000Y-137079000D01*
X202773000Y-137079000D02*
X202773000Y-108132600D01*
X202773000Y-108132600D02*
X201269600Y-106629200D01*
X201269600Y-106629200D02*
X197167000Y-106629200D01*
%TO.N,GNDD*%
X193548000Y-108484000D02*
X194538000Y-108484000D01*
X194538000Y-108484000D02*
X194946000Y-108076000D01*
X194946000Y-108076000D02*
X194946000Y-107200200D01*
X194946000Y-107200200D02*
X195517000Y-106629200D01*
D35*
%TO.N,INTB*%
X195517000Y-136347200D02*
X194208398Y-136347200D01*
X194208398Y-136347200D02*
X193954398Y-136093200D01*
%TO.N,Net-(U2-CPLL)*%
X184039000Y-125111000D02*
X183503089Y-125111000D01*
X183503089Y-125111000D02*
X183368089Y-124976000D01*
%TO.N,Net-(U2-CAPP)*%
X184039000Y-125611000D02*
X183651400Y-125611000D01*
X183651400Y-125611000D02*
X183235600Y-126026800D01*
%TO.N,Net-(U2-VCM)*%
X177151800Y-121259600D02*
X178358800Y-121259600D01*
X178358800Y-121259600D02*
X182118000Y-125018800D01*
X182219600Y-125018800D02*
X182270400Y-125069600D01*
X182118000Y-125018800D02*
X182219600Y-125018800D01*
%TO.N,GNDA*%
X183757000Y-119389000D02*
X182119000Y-119389000D01*
X182119000Y-119389000D02*
X182106000Y-119376000D01*
%TO.N,GNDD*%
X186690000Y-119380000D02*
X188214000Y-119380000D01*
%TO.N,3V3_D*%
X195021200Y-115163600D02*
X193878200Y-114020600D01*
D36*
X193878200Y-114020600D02*
X198170800Y-109728000D01*
D35*
X195249200Y-115163600D02*
X195021200Y-115163600D01*
D36*
X185166000Y-117754400D02*
X185166000Y-120396000D01*
X185166000Y-117475000D02*
X185166000Y-117754400D01*
X198170800Y-109728000D02*
X200787000Y-109728000D01*
D35*
%TO.N,ECGP*%
X177177400Y-132384800D02*
X177088800Y-132384800D01*
X177088800Y-132384800D02*
X175387281Y-130683281D01*
%TO.N,ECGN*%
X177164400Y-127508000D02*
X176999962Y-127508000D01*
X176999962Y-127508000D02*
X175399481Y-129108481D01*
%TO.N,BIN*%
X177164400Y-125933200D02*
X177164400Y-124472600D01*
X177164400Y-124472600D02*
X177101000Y-124409200D01*
%TO.N,GNDA*%
X178714400Y-127508000D02*
X178714400Y-125933200D01*
X178727400Y-132384800D02*
X178727400Y-133946600D01*
X178727400Y-133946600D02*
X178714400Y-133959600D01*
%TO.N,ECGP*%
X175387281Y-130683281D02*
X176885281Y-130683281D01*
X176885281Y-130683281D02*
X176936681Y-130734681D01*
%TO.N,ECGN*%
X175399481Y-129108481D02*
X176860481Y-129108481D01*
X176860481Y-129108481D02*
X176936681Y-129184681D01*
%TO.N,Net-(JP7-B)*%
X172339281Y-127584481D02*
X173075600Y-126848162D01*
X173075600Y-126848162D02*
X173075600Y-126796800D01*
X173075600Y-126796800D02*
X174061600Y-126796800D01*
%TO.N,Net-(JP5-A)*%
X172339281Y-132207281D02*
X173075600Y-132943600D01*
X173075600Y-132943600D02*
X174091600Y-132943600D01*
X172288481Y-130683281D02*
X172288481Y-132156481D01*
X172288481Y-132156481D02*
X172339281Y-132207281D01*
X172288481Y-130683281D02*
X173737281Y-130683281D01*
%TO.N,Net-(JP7-B)*%
X172288481Y-129108481D02*
X173749481Y-129108481D01*
X172339281Y-127584481D02*
X172339281Y-129057681D01*
X172339281Y-129057681D02*
X172288481Y-129108481D01*
%TO.N,ECGN ELECTRODE*%
X175361600Y-126796800D02*
X175361600Y-124498600D01*
X175361600Y-124498600D02*
X175451000Y-124409200D01*
%TO.N,ECGP ELECTRODE*%
X175489600Y-135483600D02*
X175489600Y-133041600D01*
X175489600Y-133041600D02*
X175391600Y-132943600D01*
%TO.N,ECGN ELECTRODE*%
X170689281Y-127584481D02*
X170689281Y-129059281D01*
X170689281Y-129059281D02*
X170738481Y-129108481D01*
%TO.N,ECGP ELECTRODE*%
X170738481Y-130683281D02*
X170738481Y-132158081D01*
X170738481Y-132158081D02*
X170689281Y-132207281D01*
%TO.N,ECGN ELECTRODE*%
X170689281Y-127584481D02*
X168482081Y-127584481D01*
X168482081Y-127584481D02*
X165611600Y-124714000D01*
%TO.N,BIP*%
X182524400Y-129997200D02*
X182524400Y-130107455D01*
X185039000Y-126111000D02*
X185039000Y-127482600D01*
X185039000Y-127482600D02*
X182524400Y-129997200D01*
%TO.N,BIN*%
X183699500Y-129394300D02*
X183699499Y-129394300D01*
X183699499Y-129394300D02*
X183557055Y-129536744D01*
X183557055Y-129536744D02*
X183557055Y-129607455D01*
X185539000Y-126111000D02*
X185514001Y-126135999D01*
X185514001Y-126135999D02*
X185514001Y-127579799D01*
X185514001Y-127579799D02*
X183699500Y-129394300D01*
%TO.N,ECGP*%
X178816000Y-130171400D02*
X178802719Y-130184681D01*
%TO.N,ECGN*%
X184039000Y-126111000D02*
X184063999Y-126135999D01*
X178199182Y-129734681D02*
X177649182Y-129184681D01*
%TO.N,ECGP*%
X178199182Y-130184681D02*
X177649182Y-130734681D01*
X177649182Y-130734681D02*
X176936681Y-130734681D01*
%TO.N,ECGN*%
X178643794Y-129721400D02*
X178630513Y-129734681D01*
X178630513Y-129734681D02*
X178199182Y-129734681D01*
%TO.N,ECGP*%
X178802719Y-130184681D02*
X178199182Y-130184681D01*
%TO.N,ECGN*%
X184063999Y-126135999D02*
X184063999Y-127021801D01*
X184063999Y-127021801D02*
X181364400Y-129721400D01*
X181364400Y-129721400D02*
X178643794Y-129721400D01*
X177649182Y-129184681D02*
X176936681Y-129184681D01*
%TO.N,ECGP*%
X184514001Y-127208199D02*
X181550800Y-130171400D01*
X184539000Y-126111000D02*
X184514001Y-126135999D01*
X184514001Y-126135999D02*
X184514001Y-127208199D01*
X181550800Y-130171400D02*
X178816000Y-130171400D01*
%TO.N,1V8_A*%
X183757000Y-122313000D02*
X183757000Y-120939000D01*
X183791513Y-124611000D02*
X183305400Y-124124887D01*
X184039000Y-124611000D02*
X183791513Y-124611000D01*
X183305400Y-124124887D02*
X183305400Y-122764600D01*
X183305400Y-122764600D02*
X183757000Y-122313000D01*
%TO.N,3V3_D*%
X186690000Y-120930000D02*
X186690000Y-121107200D01*
%TO.N,FCLK*%
X184539000Y-124611000D02*
X184555000Y-124611000D01*
X184555000Y-124611000D02*
X184564000Y-124620000D01*
D36*
%TO.N,1V8_A*%
X181610000Y-116855000D02*
X180609000Y-117856000D01*
X181356000Y-120939000D02*
X183757000Y-120939000D01*
X180609000Y-117856000D02*
X180609000Y-120192000D01*
X180609000Y-120192000D02*
X181356000Y-120939000D01*
%TO.N,3V3_D*%
X184531000Y-116840000D02*
X185166000Y-117475000D01*
X185166000Y-120396000D02*
X185700000Y-120930000D01*
X185700000Y-120930000D02*
X188214000Y-120930000D01*
%TO.N,GNDA*%
X175260000Y-108445000D02*
X171575000Y-108445000D01*
X171575000Y-108445000D02*
X171450000Y-108570000D01*
%TO.N,GNDD*%
X193548000Y-111239000D02*
X193548000Y-108484000D01*
%TO.N,Net-(JP8-A)*%
X192786000Y-114046000D02*
X191516000Y-114046000D01*
X191516000Y-114046000D02*
X185674000Y-114046000D01*
X191579000Y-112776000D02*
X191579000Y-113983000D01*
X191579000Y-113983000D02*
X191516000Y-114046000D01*
X193548000Y-112789000D02*
X193548000Y-113284000D01*
X184531000Y-115189000D02*
X184531000Y-115540000D01*
X193548000Y-113284000D02*
X192786000Y-114046000D01*
X185674000Y-114046000D02*
X184531000Y-115189000D01*
X191897000Y-110871000D02*
X191897000Y-111138000D01*
X191897000Y-111138000D02*
X193548000Y-112789000D01*
X184531000Y-115540000D02*
X187676000Y-115540000D01*
X187676000Y-115540000D02*
X187706000Y-115570000D01*
%TO.N,Net-(JP9-A)*%
X178562000Y-115570000D02*
X181595000Y-115570000D01*
X181595000Y-115570000D02*
X181610000Y-115555000D01*
X179324000Y-114046000D02*
X180848000Y-114046000D01*
X180848000Y-114046000D02*
X181102000Y-114046000D01*
X180594000Y-112522000D02*
X180594000Y-113792000D01*
X180594000Y-113792000D02*
X180848000Y-114046000D01*
X178826000Y-110744000D02*
X178826000Y-110754000D01*
X178826000Y-110754000D02*
X180594000Y-112522000D01*
X178625000Y-112522000D02*
X178625000Y-113347000D01*
X178625000Y-113347000D02*
X179324000Y-114046000D01*
X181610000Y-114554000D02*
X181610000Y-115555000D01*
X181102000Y-114046000D02*
X181610000Y-114554000D01*
%TO.N,GNDA*%
X180594000Y-110972000D02*
X180594000Y-108809000D01*
X180594000Y-108809000D02*
X180665000Y-108738000D01*
%TO.N,Net-(JP2-B)*%
X188214000Y-109982000D02*
X188214000Y-111506000D01*
X188214000Y-111506000D02*
X189484000Y-112776000D01*
X189484000Y-112776000D02*
X189929000Y-112776000D01*
X184404000Y-109982000D02*
X186627000Y-109982000D01*
X186627000Y-109982000D02*
X186690000Y-110045000D01*
X188214000Y-109982000D02*
X186753000Y-109982000D01*
X186753000Y-109982000D02*
X186690000Y-110045000D01*
X190947000Y-108596000D02*
X190947000Y-109161184D01*
X188722000Y-109982000D02*
X188214000Y-109982000D01*
X190947000Y-109161184D02*
X190380184Y-109728000D01*
X190380184Y-109728000D02*
X188976000Y-109728000D01*
X188976000Y-109728000D02*
X188722000Y-109982000D01*
%TO.N,Net-(JP4-B)*%
X176975000Y-112522000D02*
X176276000Y-112522000D01*
X176276000Y-112522000D02*
X175260000Y-111506000D01*
X175260000Y-111506000D02*
X175260000Y-109995000D01*
X171450000Y-109870000D02*
X173561000Y-109870000D01*
X173561000Y-109870000D02*
X173736000Y-110045000D01*
X175260000Y-109995000D02*
X173786000Y-109995000D01*
X173786000Y-109995000D02*
X173736000Y-110045000D01*
X177876000Y-108469000D02*
X177876000Y-109131499D01*
X177876000Y-109131499D02*
X177425999Y-109581500D01*
X177425999Y-109581500D02*
X175673500Y-109581500D01*
X175673500Y-109581500D02*
X175260000Y-109995000D01*
%TO.N,5V0_IN*%
X193548000Y-106934000D02*
X192532000Y-106934000D01*
X192532000Y-106934000D02*
X191897000Y-107569000D01*
X191897000Y-107569000D02*
X191897000Y-108596000D01*
X191645500Y-106002000D02*
X193378000Y-106002000D01*
X193378000Y-106002000D02*
X193548000Y-106172000D01*
X193548000Y-106172000D02*
X193548000Y-106934000D01*
X180665000Y-107188000D02*
X179324000Y-107188000D01*
X179324000Y-107188000D02*
X178826000Y-107686000D01*
X178826000Y-107686000D02*
X178826000Y-108469000D01*
X178592000Y-105791000D02*
X180213000Y-105791000D01*
X180213000Y-105791000D02*
X180665000Y-106243000D01*
X180665000Y-106243000D02*
X180665000Y-107188000D01*
%TO.N,Net-(JP3-B)*%
X176926000Y-108469000D02*
X176926000Y-106157000D01*
X176926000Y-106157000D02*
X177292000Y-105791000D01*
%TO.N,Net-(JP1-B)*%
X189997000Y-108596000D02*
X189997000Y-106350500D01*
X189997000Y-106350500D02*
X190345500Y-106002000D01*
%TO.N,5V0_IN*%
X191770000Y-104140000D02*
X191770000Y-105877500D01*
X191770000Y-105877500D02*
X191645500Y-106002000D01*
X178562000Y-103886000D02*
X178562000Y-105761000D01*
X178562000Y-105761000D02*
X178592000Y-105791000D01*
%TO.N,Net-(J4-Pin_10)*%
X197167000Y-136347200D02*
X197167000Y-136081000D01*
X199644000Y-133096000D02*
X200152000Y-132588000D01*
X197167000Y-136081000D02*
X199644000Y-133604000D01*
X199644000Y-133604000D02*
X199644000Y-133096000D01*
X200152000Y-132588000D02*
X200787000Y-132588000D01*
%TO.N,Net-(J4-Pin_9)*%
X197167000Y-133858000D02*
X197612000Y-133858000D01*
X197612000Y-133858000D02*
X198374000Y-133096000D01*
X198374000Y-133096000D02*
X198374000Y-131572000D01*
X198374000Y-131572000D02*
X199898000Y-130048000D01*
X199898000Y-130048000D02*
X200787000Y-130048000D01*
%TO.N,Net-(J4-Pin_8)*%
X197167000Y-131368800D02*
X197167000Y-131128000D01*
X197167000Y-131128000D02*
X200787000Y-127508000D01*
%TO.N,Net-(J4-Pin_7)*%
X197167000Y-128879600D02*
X197764400Y-128879600D01*
X197764400Y-128879600D02*
X198374000Y-128270000D01*
X198374000Y-128270000D02*
X198374000Y-127000000D01*
X198374000Y-127000000D02*
X199390000Y-125984000D01*
X199644000Y-124968000D02*
X200787000Y-124968000D01*
X199390000Y-125984000D02*
X199390000Y-125222000D01*
X199390000Y-125222000D02*
X199644000Y-124968000D01*
%TO.N,Net-(J4-Pin_6)*%
X197167000Y-126390400D02*
X197459600Y-126390400D01*
X198374000Y-125476000D02*
X198374000Y-123190000D01*
X197459600Y-126390400D02*
X198374000Y-125476000D01*
X199136000Y-122428000D02*
X200787000Y-122428000D01*
X198374000Y-123190000D02*
X199136000Y-122428000D01*
%TO.N,Net-(J4-Pin_5)*%
X197167000Y-123901200D02*
X197167000Y-121603000D01*
X198882000Y-119888000D02*
X200787000Y-119888000D01*
X197167000Y-121603000D02*
X198882000Y-119888000D01*
D35*
%TO.N,GNDA*%
X185039000Y-124611000D02*
X185039000Y-125611000D01*
X185539000Y-125611000D02*
X185539000Y-125111000D01*
X185039000Y-125111000D02*
X185539000Y-125111000D01*
%TO.N,GNDD*%
X194683200Y-117300000D02*
X190294000Y-117300000D01*
X190294000Y-117300000D02*
X188214000Y-119380000D01*
%TD*%
%TA.AperFunction,Conductor*%
%TO.N,GNDD*%
G36*
X191009210Y-115422852D02*
G01*
X191023562Y-115457500D01*
X191009210Y-115492148D01*
X191005117Y-115494882D01*
X189500000Y-116999999D01*
X189500000Y-118451000D01*
X189485648Y-118485648D01*
X189451000Y-118500000D01*
X188796995Y-118500000D01*
X188775433Y-118493885D01*
X188775072Y-118494660D01*
X188772484Y-118493453D01*
X188611603Y-118440143D01*
X188512317Y-118430000D01*
X188464000Y-118430000D01*
X188464000Y-118451000D01*
X188449648Y-118485648D01*
X188415000Y-118500000D01*
X188013000Y-118500000D01*
X187978352Y-118485648D01*
X187964000Y-118451000D01*
X187964000Y-118430000D01*
X187915683Y-118430000D01*
X187816396Y-118440143D01*
X187655515Y-118493453D01*
X187511266Y-118582428D01*
X187486648Y-118607047D01*
X187452000Y-118621399D01*
X187417352Y-118607047D01*
X187392733Y-118582428D01*
X187248484Y-118493453D01*
X187087603Y-118440143D01*
X186988317Y-118430000D01*
X186940000Y-118430000D01*
X186940000Y-119130000D01*
X187108659Y-119130000D01*
X187143307Y-119144352D01*
X187157659Y-119179000D01*
X187143307Y-119213648D01*
X187140028Y-119216643D01*
X186657628Y-119618643D01*
X186626259Y-119630000D01*
X186489000Y-119630000D01*
X186454352Y-119615648D01*
X186440000Y-119581000D01*
X186440000Y-118430000D01*
X186391683Y-118430000D01*
X186292396Y-118440143D01*
X186131515Y-118493453D01*
X185987266Y-118582428D01*
X185867428Y-118702266D01*
X185867424Y-118702271D01*
X185857204Y-118718841D01*
X185826799Y-118740796D01*
X185789776Y-118734821D01*
X185767821Y-118704416D01*
X185766500Y-118693117D01*
X185766500Y-117558014D01*
X185766501Y-117558001D01*
X185766501Y-117489500D01*
X185780853Y-117454852D01*
X185815501Y-117440500D01*
X188253930Y-117440500D01*
X188253946Y-117440501D01*
X188256943Y-117440501D01*
X188415059Y-117440501D01*
X188491421Y-117420039D01*
X188567785Y-117399577D01*
X188635487Y-117360489D01*
X188704716Y-117320520D01*
X188816520Y-117208716D01*
X188816520Y-117208714D01*
X188820549Y-117204686D01*
X188820552Y-117204681D01*
X190602383Y-115422852D01*
X190637031Y-115408500D01*
X190974562Y-115408500D01*
X191009210Y-115422852D01*
G37*
%TD.AperFunction*%
%TA.AperFunction,Conductor*%
G36*
X185990361Y-110596852D02*
G01*
X185994751Y-110601886D01*
X186022078Y-110637922D01*
X186055745Y-110663453D01*
X186142658Y-110729361D01*
X186283436Y-110784877D01*
X186283442Y-110784877D01*
X186283443Y-110784878D01*
X186371895Y-110795500D01*
X186371898Y-110795500D01*
X187008105Y-110795500D01*
X187096556Y-110784878D01*
X187096556Y-110784877D01*
X187096564Y-110784877D01*
X187237342Y-110729361D01*
X187357922Y-110637922D01*
X187385244Y-110601892D01*
X187417615Y-110582956D01*
X187424287Y-110582500D01*
X187502566Y-110582500D01*
X187537214Y-110596852D01*
X187541437Y-110601667D01*
X187553549Y-110617451D01*
X187594330Y-110648743D01*
X187613081Y-110681220D01*
X187613500Y-110687616D01*
X187613500Y-111423929D01*
X187613499Y-111423947D01*
X187613499Y-111585058D01*
X187654423Y-111737785D01*
X187654834Y-111738496D01*
X187654841Y-111738509D01*
X187733480Y-111874716D01*
X187848074Y-111989310D01*
X187848080Y-111989315D01*
X189001764Y-113142999D01*
X189001769Y-113143005D01*
X189003480Y-113144716D01*
X189115284Y-113256520D01*
X189115287Y-113256521D01*
X189115290Y-113256524D01*
X189197926Y-113304233D01*
X189246676Y-113332379D01*
X189261219Y-113345206D01*
X189277664Y-113366892D01*
X189287165Y-113403172D01*
X189268229Y-113435543D01*
X189238621Y-113445500D01*
X185594940Y-113445500D01*
X185442216Y-113486422D01*
X185430461Y-113493209D01*
X185414402Y-113502481D01*
X185305283Y-113565480D01*
X185305283Y-113565481D01*
X184583648Y-114287116D01*
X184549000Y-114301468D01*
X184514352Y-114287116D01*
X184500000Y-114252468D01*
X184500000Y-112000000D01*
X183514352Y-111014352D01*
X183500000Y-110979704D01*
X183500000Y-110654590D01*
X183514352Y-110619942D01*
X183549000Y-110605590D01*
X183581087Y-110617557D01*
X183648099Y-110675623D01*
X183733217Y-110730325D01*
X183733216Y-110730325D01*
X183800757Y-110761169D01*
X183864004Y-110790054D01*
X183961092Y-110818561D01*
X184103407Y-110839023D01*
X184204592Y-110839024D01*
X184211721Y-110837998D01*
X184218694Y-110837500D01*
X184589306Y-110837500D01*
X184596278Y-110837998D01*
X184603408Y-110839024D01*
X184704593Y-110839023D01*
X184846908Y-110818561D01*
X184943996Y-110790054D01*
X185074781Y-110730326D01*
X185159901Y-110675623D01*
X185253560Y-110594467D01*
X185285648Y-110582500D01*
X185955713Y-110582500D01*
X185990361Y-110596852D01*
G37*
%TD.AperFunction*%
%TA.AperFunction,Conductor*%
G36*
X195014352Y-104514352D02*
G01*
X195985648Y-105485648D01*
X196000000Y-105520296D01*
X196000000Y-105642594D01*
X195985648Y-105677242D01*
X195951000Y-105691594D01*
X195936423Y-105689375D01*
X195844114Y-105660611D01*
X195844105Y-105660609D01*
X195773570Y-105654200D01*
X195767000Y-105654200D01*
X195767000Y-107604199D01*
X195773569Y-107604199D01*
X195844106Y-107597790D01*
X195844111Y-107597789D01*
X195936422Y-107569023D01*
X195973771Y-107572416D01*
X195997781Y-107601226D01*
X196000000Y-107615804D01*
X196000000Y-108500000D01*
X198951000Y-108500000D01*
X198985648Y-108514352D01*
X199000000Y-108549000D01*
X199000000Y-109078500D01*
X198985648Y-109113148D01*
X198951000Y-109127500D01*
X198091740Y-109127500D01*
X197939016Y-109168422D01*
X197927330Y-109175169D01*
X197911365Y-109184387D01*
X197802083Y-109247480D01*
X197802083Y-109247481D01*
X194457148Y-112592416D01*
X194422500Y-112606768D01*
X194387852Y-112592416D01*
X194373500Y-112557768D01*
X194373500Y-112526283D01*
X194370485Y-112503383D01*
X194358687Y-112413764D01*
X194300698Y-112273767D01*
X194208451Y-112153549D01*
X194199167Y-112146425D01*
X194180415Y-112113947D01*
X194190122Y-112077722D01*
X194203272Y-112065846D01*
X194250734Y-112036570D01*
X194370571Y-111916733D01*
X194459546Y-111772484D01*
X194512856Y-111611603D01*
X194523000Y-111512317D01*
X194523000Y-111489000D01*
X193347000Y-111489000D01*
X193312352Y-111474648D01*
X193298000Y-111440000D01*
X193298000Y-110989000D01*
X193798000Y-110989000D01*
X194522999Y-110989000D01*
X194522999Y-110965683D01*
X194512856Y-110866396D01*
X194459546Y-110705515D01*
X194370571Y-110561266D01*
X194250733Y-110441428D01*
X194106484Y-110352453D01*
X193945603Y-110299143D01*
X193846317Y-110289000D01*
X193798000Y-110289000D01*
X193798000Y-110989000D01*
X193298000Y-110989000D01*
X193298000Y-110289000D01*
X193249683Y-110289000D01*
X193150396Y-110299143D01*
X192989515Y-110352453D01*
X192845266Y-110441428D01*
X192725428Y-110561266D01*
X192638204Y-110702677D01*
X192607799Y-110724632D01*
X192570775Y-110718658D01*
X192548820Y-110688253D01*
X192547499Y-110676953D01*
X192547499Y-110310620D01*
X192541092Y-110251021D01*
X192538742Y-110244720D01*
X192490796Y-110116169D01*
X192476233Y-110096716D01*
X192444173Y-110053889D01*
X192404546Y-110000954D01*
X192335314Y-109949127D01*
X192289333Y-109914705D01*
X192289331Y-109914704D01*
X192244381Y-109897939D01*
X192154479Y-109864407D01*
X192094879Y-109858000D01*
X191699120Y-109858000D01*
X191639521Y-109864407D01*
X191504666Y-109914705D01*
X191389454Y-110000954D01*
X191303205Y-110116166D01*
X191252907Y-110251020D01*
X191246500Y-110310620D01*
X191246500Y-111431379D01*
X191252907Y-111490978D01*
X191252909Y-111490983D01*
X191303204Y-111625831D01*
X191389454Y-111741046D01*
X191504669Y-111827296D01*
X191580527Y-111855589D01*
X191607975Y-111881145D01*
X191609314Y-111918624D01*
X191583758Y-111946072D01*
X191563403Y-111950500D01*
X191335895Y-111950500D01*
X191247443Y-111961121D01*
X191247437Y-111961122D01*
X191247436Y-111961123D01*
X191151286Y-111999039D01*
X191106655Y-112016640D01*
X190986078Y-112108078D01*
X190894640Y-112228655D01*
X190839123Y-112369437D01*
X190839121Y-112369443D01*
X190828500Y-112457894D01*
X190828500Y-113094105D01*
X190839121Y-113182556D01*
X190839122Y-113182560D01*
X190839123Y-113182564D01*
X190894639Y-113323342D01*
X190894640Y-113323344D01*
X190927664Y-113366892D01*
X190937165Y-113403172D01*
X190918229Y-113435543D01*
X190888621Y-113445500D01*
X190619379Y-113445500D01*
X190584731Y-113431148D01*
X190570379Y-113396500D01*
X190580336Y-113366892D01*
X190613359Y-113323344D01*
X190613361Y-113323342D01*
X190668877Y-113182564D01*
X190673422Y-113144716D01*
X190679500Y-113094105D01*
X190679500Y-112457894D01*
X190668878Y-112369443D01*
X190668877Y-112369442D01*
X190668877Y-112369436D01*
X190613361Y-112228658D01*
X190521922Y-112108078D01*
X190427625Y-112036570D01*
X190401344Y-112016640D01*
X190401342Y-112016639D01*
X190267569Y-111963885D01*
X190240603Y-111937823D01*
X190239962Y-111900326D01*
X190266025Y-111873359D01*
X190268399Y-111872400D01*
X190389331Y-111827296D01*
X190504546Y-111741046D01*
X190590796Y-111625831D01*
X190641091Y-111490983D01*
X190641091Y-111490981D01*
X190641092Y-111490979D01*
X190647499Y-111431379D01*
X190647500Y-111431373D01*
X190647499Y-110310628D01*
X190646499Y-110301332D01*
X190657062Y-110265350D01*
X190670717Y-110253657D01*
X190686199Y-110244720D01*
X190748900Y-110208520D01*
X190860704Y-110096716D01*
X190860704Y-110096714D01*
X190864733Y-110092686D01*
X190864737Y-110092681D01*
X191311681Y-109645737D01*
X191311686Y-109645733D01*
X191315714Y-109641704D01*
X191315716Y-109641704D01*
X191417718Y-109539701D01*
X191452365Y-109525350D01*
X191481730Y-109535124D01*
X191487845Y-109539702D01*
X191504669Y-109552296D01*
X191639517Y-109602591D01*
X191639520Y-109602592D01*
X191683177Y-109607285D01*
X191699127Y-109609000D01*
X192094872Y-109608999D01*
X192094878Y-109608999D01*
X192154478Y-109602592D01*
X192154479Y-109602591D01*
X192154483Y-109602591D01*
X192289331Y-109552296D01*
X192404546Y-109466046D01*
X192490796Y-109350831D01*
X192541091Y-109215983D01*
X192541091Y-109215981D01*
X192541092Y-109215979D01*
X192546204Y-109168423D01*
X192547500Y-109156373D01*
X192547499Y-109046044D01*
X192561850Y-109011399D01*
X192596499Y-108997047D01*
X192631147Y-109011398D01*
X192638204Y-109020323D01*
X192725428Y-109161733D01*
X192845266Y-109281571D01*
X192989515Y-109370546D01*
X193150396Y-109423856D01*
X193249682Y-109433999D01*
X193297999Y-109433999D01*
X193798000Y-109433999D01*
X193846316Y-109433999D01*
X193945603Y-109423856D01*
X194106484Y-109370546D01*
X194250733Y-109281571D01*
X194370571Y-109161733D01*
X194459546Y-109017484D01*
X194512856Y-108856603D01*
X194523000Y-108757317D01*
X194523000Y-108734000D01*
X193798000Y-108734000D01*
X193798000Y-109433999D01*
X193297999Y-109433999D01*
X193298000Y-109433998D01*
X193298000Y-108283000D01*
X193312352Y-108248352D01*
X193347000Y-108234000D01*
X194522999Y-108234000D01*
X194522999Y-108210683D01*
X194512856Y-108111396D01*
X194459546Y-107950515D01*
X194370571Y-107806266D01*
X194250733Y-107686428D01*
X194250728Y-107686424D01*
X194203272Y-107657152D01*
X194181317Y-107626747D01*
X194187292Y-107589724D01*
X194199164Y-107576576D01*
X194208451Y-107569451D01*
X194300698Y-107449233D01*
X194358687Y-107309236D01*
X194373500Y-107196720D01*
X194373500Y-106960768D01*
X194617001Y-106960768D01*
X194623409Y-107031306D01*
X194623410Y-107031311D01*
X194673981Y-107193598D01*
X194761924Y-107339073D01*
X194882126Y-107459275D01*
X195027601Y-107547218D01*
X195189888Y-107597789D01*
X195189893Y-107597790D01*
X195260419Y-107604199D01*
X195267000Y-107604198D01*
X195267000Y-106879200D01*
X194617001Y-106879200D01*
X194617001Y-106960768D01*
X194373500Y-106960768D01*
X194373500Y-106671280D01*
X194358687Y-106558764D01*
X194305169Y-106429560D01*
X194300700Y-106418771D01*
X194300697Y-106418766D01*
X194284315Y-106397416D01*
X194208451Y-106298549D01*
X194207252Y-106297629D01*
X194617000Y-106297629D01*
X194617000Y-106379200D01*
X195267000Y-106379200D01*
X195267000Y-105654199D01*
X195260431Y-105654200D01*
X195189894Y-105660609D01*
X195189888Y-105660610D01*
X195027601Y-105711181D01*
X194882126Y-105799124D01*
X194761924Y-105919326D01*
X194673981Y-106064801D01*
X194623410Y-106227088D01*
X194623409Y-106227094D01*
X194617000Y-106297629D01*
X194207252Y-106297629D01*
X194167670Y-106267255D01*
X194148919Y-106234776D01*
X194148500Y-106228381D01*
X194148500Y-106092942D01*
X194148499Y-106092938D01*
X194145714Y-106082540D01*
X194107577Y-105940216D01*
X194107576Y-105940212D01*
X194078164Y-105889270D01*
X194028520Y-105803284D01*
X193916716Y-105691480D01*
X193915010Y-105689774D01*
X193914999Y-105689764D01*
X193861315Y-105636080D01*
X193861313Y-105636077D01*
X193746716Y-105521480D01*
X193643700Y-105462004D01*
X193609787Y-105442423D01*
X193609781Y-105442421D01*
X193457060Y-105401499D01*
X193457057Y-105401499D01*
X193298943Y-105401499D01*
X193295946Y-105401499D01*
X193295930Y-105401500D01*
X192457413Y-105401500D01*
X192422765Y-105387148D01*
X192412841Y-105372856D01*
X192393826Y-105331219D01*
X192378278Y-105307025D01*
X192370500Y-105280534D01*
X192370500Y-104549000D01*
X192384852Y-104514352D01*
X192419500Y-104500000D01*
X194979704Y-104500000D01*
X195014352Y-104514352D01*
G37*
%TD.AperFunction*%
%TA.AperFunction,Conductor*%
G36*
X191155148Y-104514352D02*
G01*
X191169500Y-104549000D01*
X191169500Y-104850236D01*
X191155148Y-104884884D01*
X191126561Y-104898860D01*
X191058232Y-104907377D01*
X191058228Y-104907378D01*
X191017868Y-104925081D01*
X190980373Y-104925855D01*
X190974864Y-104923302D01*
X190960933Y-104915763D01*
X190960934Y-104915763D01*
X190960932Y-104915762D01*
X190960931Y-104915762D01*
X190845500Y-104896500D01*
X190273611Y-104896500D01*
X190273606Y-104896500D01*
X190173458Y-104910899D01*
X190173455Y-104910900D01*
X190035509Y-104951404D01*
X190035493Y-104951410D01*
X189943456Y-104993441D01*
X189943450Y-104993445D01*
X189822508Y-105071169D01*
X189822502Y-105071174D01*
X189746030Y-105137437D01*
X189651878Y-105246097D01*
X189597174Y-105331217D01*
X189537449Y-105461996D01*
X189537443Y-105462012D01*
X189508939Y-105559091D01*
X189508938Y-105559094D01*
X189488477Y-105701402D01*
X189488476Y-105701411D01*
X189488476Y-105802596D01*
X189489501Y-105809721D01*
X189490000Y-105816694D01*
X189490000Y-106014520D01*
X189483435Y-106039020D01*
X189466360Y-106068595D01*
X189437423Y-106118712D01*
X189437421Y-106118718D01*
X189396499Y-106271440D01*
X189396499Y-106433500D01*
X189396500Y-106433513D01*
X189396500Y-107850302D01*
X189393411Y-107867426D01*
X189352907Y-107976020D01*
X189346500Y-108035620D01*
X189346501Y-109078500D01*
X189332149Y-109113148D01*
X189297501Y-109127500D01*
X189113409Y-109127500D01*
X189078761Y-109113148D01*
X189064409Y-109078500D01*
X189071704Y-109052776D01*
X189125546Y-108965484D01*
X189178856Y-108804603D01*
X189189000Y-108705317D01*
X189189000Y-108682000D01*
X187245000Y-108682000D01*
X187210352Y-108667648D01*
X187204485Y-108653485D01*
X187196000Y-108645000D01*
X185715001Y-108645000D01*
X185715001Y-108651568D01*
X185721409Y-108722106D01*
X185721410Y-108722111D01*
X185771981Y-108884398D01*
X185859924Y-109029873D01*
X185980126Y-109150075D01*
X186125601Y-109238018D01*
X186176088Y-109253751D01*
X186204897Y-109277761D01*
X186208291Y-109315110D01*
X186184281Y-109343919D01*
X186179486Y-109346116D01*
X186142655Y-109360640D01*
X186128279Y-109371543D01*
X186098671Y-109381500D01*
X185524832Y-109381500D01*
X185490184Y-109367148D01*
X185479959Y-109352183D01*
X185476334Y-109343919D01*
X185451613Y-109287560D01*
X185372353Y-109201461D01*
X185372352Y-109201460D01*
X185269433Y-109145763D01*
X185269434Y-109145763D01*
X185269432Y-109145762D01*
X185269431Y-109145762D01*
X185154000Y-109126500D01*
X185153997Y-109126500D01*
X184718688Y-109126500D01*
X184711715Y-109126001D01*
X184704597Y-109124977D01*
X184704588Y-109124976D01*
X184603403Y-109124976D01*
X184596279Y-109126001D01*
X184589306Y-109126500D01*
X184218694Y-109126500D01*
X184211721Y-109126001D01*
X184204592Y-109124976D01*
X184204591Y-109124976D01*
X184103411Y-109124976D01*
X184103402Y-109124977D01*
X184096285Y-109126001D01*
X184089312Y-109126500D01*
X183654000Y-109126500D01*
X183566732Y-109137377D01*
X183563311Y-109138320D01*
X183562850Y-109136648D01*
X183531165Y-109137287D01*
X183504117Y-109111308D01*
X183500000Y-109091648D01*
X183500000Y-108138429D01*
X185715000Y-108138429D01*
X185715000Y-108145000D01*
X186440000Y-108145000D01*
X186440000Y-107495000D01*
X186940000Y-107495000D01*
X186940000Y-108145000D01*
X187659000Y-108145000D01*
X187693648Y-108159352D01*
X187699514Y-108173514D01*
X187708000Y-108182000D01*
X187964000Y-108182000D01*
X188464000Y-108182000D01*
X189188999Y-108182000D01*
X189188999Y-108158683D01*
X189178856Y-108059396D01*
X189125546Y-107898515D01*
X189036571Y-107754266D01*
X188916733Y-107634428D01*
X188772484Y-107545453D01*
X188611603Y-107492143D01*
X188512317Y-107482000D01*
X188464000Y-107482000D01*
X188464000Y-108182000D01*
X187964000Y-108182000D01*
X187964000Y-107482000D01*
X187915683Y-107482000D01*
X187816396Y-107492143D01*
X187655515Y-107545453D01*
X187511266Y-107634428D01*
X187487470Y-107658225D01*
X187452822Y-107672577D01*
X187418174Y-107658225D01*
X187399873Y-107639924D01*
X187254398Y-107551981D01*
X187092111Y-107501410D01*
X187092105Y-107501409D01*
X187021570Y-107495000D01*
X186940000Y-107495000D01*
X186440000Y-107495000D01*
X186358431Y-107495000D01*
X186287893Y-107501409D01*
X186287888Y-107501410D01*
X186125601Y-107551981D01*
X185980126Y-107639924D01*
X185859924Y-107760126D01*
X185771981Y-107905601D01*
X185721410Y-108067888D01*
X185721409Y-108067894D01*
X185715000Y-108138429D01*
X183500000Y-108138429D01*
X183500000Y-107740713D01*
X183514352Y-107706065D01*
X183549000Y-107691713D01*
X183563580Y-107693933D01*
X183581085Y-107699388D01*
X183581092Y-107699390D01*
X183651619Y-107705799D01*
X184158200Y-107705799D01*
X184164769Y-107705799D01*
X184235306Y-107699390D01*
X184235311Y-107699389D01*
X184397598Y-107648818D01*
X184543073Y-107560875D01*
X184663275Y-107440673D01*
X184751218Y-107295198D01*
X184801789Y-107132911D01*
X184801790Y-107132905D01*
X184808200Y-107062370D01*
X184808200Y-106980800D01*
X184158200Y-106980800D01*
X184158200Y-107705799D01*
X183651619Y-107705799D01*
X183658200Y-107705798D01*
X183658200Y-106480800D01*
X184158200Y-106480800D01*
X184808199Y-106480800D01*
X184808199Y-106399231D01*
X184801790Y-106328693D01*
X184801789Y-106328688D01*
X184751218Y-106166401D01*
X184663275Y-106020926D01*
X184543073Y-105900724D01*
X184397598Y-105812781D01*
X184235311Y-105762210D01*
X184235305Y-105762209D01*
X184164770Y-105755800D01*
X184158200Y-105755800D01*
X184158200Y-106480800D01*
X183658200Y-106480800D01*
X183658200Y-105755799D01*
X183651631Y-105755800D01*
X183581094Y-105762209D01*
X183581085Y-105762211D01*
X183563577Y-105767667D01*
X183526228Y-105764273D01*
X183502219Y-105735463D01*
X183500000Y-105720886D01*
X183500000Y-105020296D01*
X183514352Y-104985648D01*
X183985648Y-104514352D01*
X184020296Y-104500000D01*
X191120500Y-104500000D01*
X191155148Y-104514352D01*
G37*
%TD.AperFunction*%
%TD*%
%TA.AperFunction,Conductor*%
%TO.N,GNDA*%
G36*
X185937447Y-127862750D02*
G01*
X188752700Y-130678003D01*
X188767052Y-130712651D01*
X188752700Y-130747299D01*
X188014352Y-131485648D01*
X187979704Y-131500000D01*
X184000000Y-131500000D01*
X180514352Y-134985648D01*
X180479704Y-135000000D01*
X179162681Y-135000000D01*
X179128033Y-134985648D01*
X179113681Y-134951000D01*
X179128033Y-134916352D01*
X179147268Y-134904487D01*
X179247884Y-134871146D01*
X179392133Y-134782171D01*
X179511971Y-134662333D01*
X179600946Y-134518084D01*
X179654256Y-134357203D01*
X179664400Y-134257917D01*
X179664400Y-134209600D01*
X178513400Y-134209600D01*
X178478752Y-134195248D01*
X178464400Y-134160600D01*
X178464400Y-133400888D01*
X178964400Y-133400888D01*
X178964400Y-133709600D01*
X179664399Y-133709600D01*
X179664399Y-133661283D01*
X179654256Y-133561996D01*
X179600946Y-133401115D01*
X179511971Y-133256866D01*
X179468453Y-133213348D01*
X179454101Y-133178700D01*
X179468453Y-133144052D01*
X179524971Y-133087533D01*
X179613946Y-132943284D01*
X179667256Y-132782403D01*
X179677400Y-132683117D01*
X179677400Y-132634800D01*
X178977400Y-132634800D01*
X178977400Y-133369504D01*
X178964400Y-133400888D01*
X178464400Y-133400888D01*
X178464400Y-132974896D01*
X178477400Y-132943511D01*
X178477400Y-132134800D01*
X178977400Y-132134800D01*
X179677399Y-132134800D01*
X179677399Y-132086483D01*
X179667256Y-131987196D01*
X179613946Y-131826315D01*
X179524971Y-131682066D01*
X179405133Y-131562228D01*
X179260884Y-131473253D01*
X179100003Y-131419943D01*
X179000717Y-131409800D01*
X178977400Y-131409800D01*
X178977400Y-132134800D01*
X178477400Y-132134800D01*
X178477400Y-131409800D01*
X178477399Y-131409799D01*
X178454084Y-131409800D01*
X178354796Y-131419943D01*
X178193915Y-131473253D01*
X178074724Y-131546772D01*
X178037700Y-131552746D01*
X178007295Y-131530791D01*
X178000000Y-131505067D01*
X178000000Y-131041262D01*
X178014352Y-131006614D01*
X178371433Y-130649533D01*
X178406081Y-130635181D01*
X178862030Y-130635181D01*
X178896401Y-130625970D01*
X178905361Y-130623569D01*
X178918043Y-130621900D01*
X181610111Y-130621900D01*
X181640230Y-130613828D01*
X181700473Y-130597686D01*
X181724687Y-130591199D01*
X181827414Y-130531889D01*
X182011328Y-130347974D01*
X182045974Y-130333623D01*
X182080622Y-130347975D01*
X182090545Y-130362266D01*
X182099021Y-130380825D01*
X182099025Y-130380831D01*
X182111789Y-130395561D01*
X182193272Y-130489598D01*
X182314347Y-130567408D01*
X182391185Y-130589969D01*
X182452434Y-130607954D01*
X182452437Y-130607954D01*
X182452439Y-130607955D01*
X182452440Y-130607955D01*
X182596360Y-130607955D01*
X182596361Y-130607955D01*
X182596363Y-130607954D01*
X182596365Y-130607954D01*
X182631334Y-130597686D01*
X182734453Y-130567408D01*
X182855528Y-130489598D01*
X182949777Y-130380828D01*
X183009565Y-130249912D01*
X183024165Y-130148357D01*
X183038016Y-130120685D01*
X183163414Y-129995287D01*
X183198061Y-129980936D01*
X183224552Y-129988715D01*
X183266012Y-130015359D01*
X183347002Y-130067408D01*
X183430051Y-130091793D01*
X183485089Y-130107954D01*
X183485092Y-130107954D01*
X183485094Y-130107955D01*
X183485095Y-130107955D01*
X183629015Y-130107955D01*
X183629016Y-130107955D01*
X183629018Y-130107954D01*
X183629020Y-130107954D01*
X183658731Y-130099230D01*
X183767108Y-130067408D01*
X183888183Y-129989598D01*
X183982432Y-129880828D01*
X184042220Y-129749912D01*
X184042220Y-129749910D01*
X184042221Y-129749909D01*
X184050180Y-129694544D01*
X184064031Y-129666870D01*
X185868154Y-127862748D01*
X185902799Y-127848398D01*
X185937447Y-127862750D01*
G37*
%TD.AperFunction*%
%TA.AperFunction,Conductor*%
G36*
X180083648Y-120486403D02*
G01*
X180091433Y-120496548D01*
X180105580Y-120521051D01*
X180128477Y-120560712D01*
X180128482Y-120560718D01*
X180243074Y-120675310D01*
X180243079Y-120675314D01*
X180987284Y-121419520D01*
X180987287Y-121419521D01*
X180987290Y-121419524D01*
X181124214Y-121498576D01*
X181124216Y-121498577D01*
X181195093Y-121517568D01*
X181276941Y-121539501D01*
X181276943Y-121539501D01*
X181404542Y-121539501D01*
X181439190Y-121553853D01*
X181443415Y-121558670D01*
X181445549Y-121561451D01*
X181565767Y-121653698D01*
X181565769Y-121653698D01*
X181565771Y-121653700D01*
X181701933Y-121710100D01*
X181705764Y-121711687D01*
X181818280Y-121726500D01*
X181818284Y-121726500D01*
X182393716Y-121726500D01*
X182393720Y-121726500D01*
X182506236Y-121711687D01*
X182646233Y-121653698D01*
X182766451Y-121561451D01*
X182768584Y-121558670D01*
X182801063Y-121539919D01*
X182807459Y-121539500D01*
X183045566Y-121539500D01*
X183080214Y-121553852D01*
X183084437Y-121558667D01*
X183096549Y-121574451D01*
X183216767Y-121666698D01*
X183276252Y-121691337D01*
X183302770Y-121717854D01*
X183306500Y-121736606D01*
X183306500Y-122106100D01*
X183292148Y-122140748D01*
X182944911Y-122487985D01*
X182885601Y-122590711D01*
X182885601Y-122590713D01*
X182881354Y-122606563D01*
X182854900Y-122705287D01*
X182854900Y-124184197D01*
X182874354Y-124256799D01*
X182874354Y-124256800D01*
X182885600Y-124298773D01*
X182885601Y-124298775D01*
X182944911Y-124401501D01*
X183055028Y-124511618D01*
X183069380Y-124546266D01*
X183055028Y-124580914D01*
X183046871Y-124587487D01*
X183036963Y-124593853D01*
X183036961Y-124593855D01*
X182942714Y-124702623D01*
X182942713Y-124702625D01*
X182882922Y-124833545D01*
X182862442Y-124975997D01*
X182862442Y-124976002D01*
X182882922Y-125118454D01*
X182902100Y-125160447D01*
X182942712Y-125249373D01*
X182942713Y-125249374D01*
X182942714Y-125249376D01*
X183036961Y-125358144D01*
X183036963Y-125358146D01*
X183125941Y-125415328D01*
X183147330Y-125446133D01*
X183140671Y-125483040D01*
X183134098Y-125491197D01*
X183080969Y-125544326D01*
X183060126Y-125556693D01*
X183025549Y-125566845D01*
X182904471Y-125644657D01*
X182810225Y-125753423D01*
X182810224Y-125753425D01*
X182750433Y-125884345D01*
X182729953Y-126026797D01*
X182729953Y-126026802D01*
X182750433Y-126169254D01*
X182782535Y-126239546D01*
X182810223Y-126300173D01*
X182810224Y-126300174D01*
X182810225Y-126300176D01*
X182904471Y-126408942D01*
X182904472Y-126408943D01*
X183025547Y-126486753D01*
X183102385Y-126509314D01*
X183163634Y-126527299D01*
X183163637Y-126527299D01*
X183163639Y-126527300D01*
X183163640Y-126527300D01*
X183307560Y-126527300D01*
X183307561Y-126527300D01*
X183307563Y-126527299D01*
X183307565Y-126527299D01*
X183331786Y-126520187D01*
X183445653Y-126486753D01*
X183538008Y-126427399D01*
X183574915Y-126420742D01*
X183605721Y-126442131D01*
X183613499Y-126468622D01*
X183613499Y-126814902D01*
X183599147Y-126849550D01*
X181192149Y-129256548D01*
X181157501Y-129270900D01*
X178584483Y-129270900D01*
X178550111Y-129280110D01*
X178541151Y-129282511D01*
X178528470Y-129284181D01*
X178406081Y-129284181D01*
X178371433Y-129269829D01*
X178014352Y-128912748D01*
X178000000Y-128878100D01*
X178000000Y-128395750D01*
X178014352Y-128361102D01*
X178049000Y-128346750D01*
X178074724Y-128354046D01*
X178180909Y-128419543D01*
X178180915Y-128419546D01*
X178341796Y-128472856D01*
X178441070Y-128482998D01*
X178441094Y-128482999D01*
X178964400Y-128482999D01*
X178987716Y-128482999D01*
X179087003Y-128472856D01*
X179247884Y-128419546D01*
X179392133Y-128330571D01*
X179511971Y-128210733D01*
X179600946Y-128066484D01*
X179654256Y-127905603D01*
X179664400Y-127806317D01*
X179664400Y-127758000D01*
X178964400Y-127758000D01*
X178964400Y-128482999D01*
X178441094Y-128482999D01*
X178464399Y-128482998D01*
X178464400Y-128482998D01*
X178464400Y-127258000D01*
X178964400Y-127258000D01*
X179664399Y-127258000D01*
X179664399Y-127209683D01*
X179654256Y-127110396D01*
X179600946Y-126949515D01*
X179511971Y-126805266D01*
X179461953Y-126755248D01*
X179447601Y-126720600D01*
X179461953Y-126685952D01*
X179511971Y-126635933D01*
X179600946Y-126491684D01*
X179654256Y-126330803D01*
X179664400Y-126231517D01*
X179664400Y-126183200D01*
X178964400Y-126183200D01*
X178964400Y-127258000D01*
X178464400Y-127258000D01*
X178464400Y-125732200D01*
X178478752Y-125697552D01*
X178513400Y-125683200D01*
X179664399Y-125683200D01*
X179664399Y-125634883D01*
X179654256Y-125535596D01*
X179600946Y-125374715D01*
X179511971Y-125230466D01*
X179392133Y-125110628D01*
X179392128Y-125110624D01*
X179359833Y-125090704D01*
X179337878Y-125060300D01*
X179343853Y-125023276D01*
X179374257Y-125001321D01*
X179385557Y-125000000D01*
X179499999Y-125000000D01*
X179500000Y-125000000D01*
X180000000Y-124500000D01*
X180000000Y-123656199D01*
X180014352Y-123621551D01*
X180049000Y-123607199D01*
X180083647Y-123621550D01*
X181841386Y-125379290D01*
X181904499Y-125415728D01*
X181917028Y-125426072D01*
X181939272Y-125451743D01*
X182060347Y-125529553D01*
X182110660Y-125544326D01*
X182198434Y-125570099D01*
X182198437Y-125570099D01*
X182198439Y-125570100D01*
X182198440Y-125570100D01*
X182342360Y-125570100D01*
X182342361Y-125570100D01*
X182342363Y-125570099D01*
X182342365Y-125570099D01*
X182365195Y-125563395D01*
X182480453Y-125529553D01*
X182601528Y-125451743D01*
X182695777Y-125342973D01*
X182755565Y-125212057D01*
X182755565Y-125212055D01*
X182755566Y-125212054D01*
X182776047Y-125069602D01*
X182776047Y-125069597D01*
X182755566Y-124927145D01*
X182734144Y-124880238D01*
X182695777Y-124796227D01*
X182628305Y-124718360D01*
X182601528Y-124687457D01*
X182587617Y-124678517D01*
X182480453Y-124609647D01*
X182476598Y-124608515D01*
X182342365Y-124569100D01*
X182342361Y-124569100D01*
X182325700Y-124569100D01*
X182291052Y-124554748D01*
X180014352Y-122278048D01*
X180000000Y-122243400D01*
X180000000Y-120521051D01*
X180014352Y-120486403D01*
X180049000Y-120472051D01*
X180083648Y-120486403D01*
G37*
%TD.AperFunction*%
%TA.AperFunction,Conductor*%
G36*
X185133854Y-124962498D02*
G01*
X185133855Y-124962498D01*
X185149063Y-124974168D01*
X185153881Y-124978394D01*
X185171600Y-124996113D01*
X185175826Y-125000931D01*
X185182365Y-125009453D01*
X185187072Y-125011585D01*
X185288999Y-125113512D01*
X185292200Y-125110312D01*
X185326848Y-125095959D01*
X185345600Y-125099689D01*
X185390912Y-125118457D01*
X185401817Y-125122974D01*
X185475180Y-125132632D01*
X185507659Y-125151383D01*
X185517366Y-125174817D01*
X185527025Y-125248182D01*
X185550310Y-125304398D01*
X185550310Y-125341901D01*
X185539690Y-125357795D01*
X185536487Y-125360998D01*
X185536487Y-125361000D01*
X185539687Y-125364200D01*
X185554040Y-125398848D01*
X185550311Y-125417599D01*
X185527025Y-125473819D01*
X185517366Y-125547182D01*
X185498614Y-125579660D01*
X185475182Y-125589366D01*
X185401819Y-125599025D01*
X185345599Y-125622311D01*
X185308096Y-125622310D01*
X185292200Y-125611687D01*
X185289000Y-125608487D01*
X185288998Y-125608487D01*
X185285795Y-125611690D01*
X185251146Y-125626040D01*
X185232398Y-125622310D01*
X185176182Y-125599025D01*
X185102817Y-125589366D01*
X185070338Y-125570614D01*
X185060632Y-125547180D01*
X185059107Y-125535596D01*
X185050974Y-125473817D01*
X185027688Y-125417599D01*
X185027688Y-125380099D01*
X185038311Y-125364201D01*
X185041512Y-125360999D01*
X185038310Y-125357797D01*
X185023958Y-125323149D01*
X185027686Y-125304404D01*
X185050974Y-125248183D01*
X185069035Y-125111000D01*
X185055444Y-125007768D01*
X185065151Y-124971543D01*
X185097629Y-124952791D01*
X185133854Y-124962498D01*
G37*
%TD.AperFunction*%
%TA.AperFunction,Conductor*%
G36*
X182697584Y-117201953D02*
G01*
X182711877Y-117211877D01*
X184007000Y-118507000D01*
X184007000Y-119590000D01*
X183992648Y-119624648D01*
X183958000Y-119639000D01*
X182772296Y-119639000D01*
X182740912Y-119626000D01*
X181905000Y-119626000D01*
X181870352Y-119611648D01*
X181856000Y-119577000D01*
X181856000Y-119126000D01*
X182356000Y-119126000D01*
X183090704Y-119126000D01*
X183122088Y-119139000D01*
X183507000Y-119139000D01*
X183507000Y-118439000D01*
X183458683Y-118439000D01*
X183359396Y-118449143D01*
X183198515Y-118502453D01*
X183054265Y-118591429D01*
X182972648Y-118673046D01*
X182938000Y-118687398D01*
X182903352Y-118673046D01*
X182808734Y-118578428D01*
X182664484Y-118489453D01*
X182503603Y-118436143D01*
X182404317Y-118426000D01*
X182356000Y-118426000D01*
X182356000Y-119126000D01*
X181856000Y-119126000D01*
X181856000Y-118426000D01*
X181807683Y-118426000D01*
X181708396Y-118436143D01*
X181547515Y-118489453D01*
X181403266Y-118578428D01*
X181293148Y-118688547D01*
X181258500Y-118702899D01*
X181223852Y-118688547D01*
X181209500Y-118653899D01*
X181209500Y-118125031D01*
X181223852Y-118090383D01*
X181589384Y-117724852D01*
X181624032Y-117710500D01*
X181795306Y-117710500D01*
X181802278Y-117710998D01*
X181809408Y-117712024D01*
X181910593Y-117712023D01*
X182052908Y-117691561D01*
X182149996Y-117663054D01*
X182280781Y-117603326D01*
X182365901Y-117548623D01*
X182474562Y-117454469D01*
X182540827Y-117377995D01*
X182542444Y-117375480D01*
X182618554Y-117257049D01*
X182618554Y-117257048D01*
X182618559Y-117257041D01*
X182632657Y-117226169D01*
X182660105Y-117200615D01*
X182697584Y-117201953D01*
G37*
%TD.AperFunction*%
%TA.AperFunction,Conductor*%
G36*
X177947148Y-104514352D02*
G01*
X177961500Y-104549000D01*
X177961500Y-104655930D01*
X177947148Y-104690578D01*
X177912500Y-104704930D01*
X177904435Y-104704262D01*
X177892990Y-104702352D01*
X177792000Y-104685500D01*
X177220111Y-104685500D01*
X177220106Y-104685500D01*
X177119958Y-104699899D01*
X177119955Y-104699900D01*
X176982009Y-104740404D01*
X176981993Y-104740410D01*
X176889956Y-104782441D01*
X176889950Y-104782445D01*
X176769008Y-104860169D01*
X176769002Y-104860174D01*
X176692530Y-104926437D01*
X176598378Y-105035097D01*
X176543674Y-105120217D01*
X176483949Y-105250996D01*
X176483943Y-105251012D01*
X176455439Y-105348091D01*
X176455438Y-105348094D01*
X176434977Y-105490402D01*
X176434976Y-105490411D01*
X176434976Y-105591596D01*
X176436001Y-105598721D01*
X176436500Y-105605694D01*
X176436500Y-105790708D01*
X176429935Y-105815208D01*
X176395828Y-105874284D01*
X176366423Y-105925212D01*
X176366422Y-105925216D01*
X176325499Y-106077940D01*
X176325499Y-106240000D01*
X176325500Y-106240013D01*
X176325500Y-107723302D01*
X176322411Y-107740426D01*
X176281907Y-107849020D01*
X176275500Y-107908620D01*
X176275500Y-107921574D01*
X176261148Y-107956222D01*
X176226500Y-107970574D01*
X176191852Y-107956222D01*
X176179987Y-107936987D01*
X176171546Y-107911515D01*
X176082571Y-107767266D01*
X175962733Y-107647428D01*
X175818484Y-107558453D01*
X175657603Y-107505143D01*
X175558317Y-107495000D01*
X175510000Y-107495000D01*
X175510000Y-108646000D01*
X175495648Y-108680648D01*
X175461000Y-108695000D01*
X174291000Y-108695000D01*
X174256352Y-108680648D01*
X174242000Y-108646000D01*
X174242000Y-108645000D01*
X172761001Y-108645000D01*
X172761001Y-108651568D01*
X172767409Y-108722106D01*
X172767410Y-108722111D01*
X172817981Y-108884398D01*
X172905924Y-109029873D01*
X173026126Y-109150075D01*
X173073257Y-109178567D01*
X173095483Y-109208774D01*
X173089840Y-109245850D01*
X173059633Y-109268076D01*
X173047907Y-109269500D01*
X172570832Y-109269500D01*
X172536184Y-109255148D01*
X172525959Y-109240183D01*
X172525010Y-109238019D01*
X172497613Y-109175560D01*
X172418353Y-109089461D01*
X172418352Y-109089460D01*
X172315433Y-109033763D01*
X172315434Y-109033763D01*
X172315432Y-109033762D01*
X172315431Y-109033762D01*
X172200000Y-109014500D01*
X172199997Y-109014500D01*
X171764688Y-109014500D01*
X171757715Y-109014001D01*
X171750597Y-109012977D01*
X171750588Y-109012976D01*
X171649403Y-109012976D01*
X171642279Y-109014001D01*
X171635306Y-109014500D01*
X171264694Y-109014500D01*
X171257721Y-109014001D01*
X171250592Y-109012976D01*
X171250591Y-109012976D01*
X171149411Y-109012976D01*
X171149402Y-109012977D01*
X171142285Y-109014001D01*
X171135312Y-109014500D01*
X170700000Y-109014500D01*
X170612732Y-109025377D01*
X170612731Y-109025377D01*
X170505561Y-109072386D01*
X170419460Y-109151647D01*
X170363763Y-109254565D01*
X170363762Y-109254568D01*
X170363762Y-109254569D01*
X170344500Y-109370000D01*
X170344500Y-109370003D01*
X170344500Y-109941893D01*
X170358899Y-110042041D01*
X170358900Y-110042044D01*
X170399404Y-110179990D01*
X170399410Y-110180006D01*
X170441441Y-110272043D01*
X170441445Y-110272049D01*
X170519169Y-110392991D01*
X170519174Y-110392997D01*
X170585437Y-110469469D01*
X170640687Y-110517342D01*
X170694099Y-110563623D01*
X170749763Y-110599396D01*
X170773875Y-110614892D01*
X170779217Y-110618325D01*
X170779216Y-110618325D01*
X170822128Y-110637922D01*
X170910004Y-110678054D01*
X171007092Y-110706561D01*
X171149407Y-110727023D01*
X171250592Y-110727024D01*
X171257721Y-110725998D01*
X171264694Y-110725500D01*
X171635306Y-110725500D01*
X171642278Y-110725998D01*
X171649408Y-110727024D01*
X171750593Y-110727023D01*
X171892908Y-110706561D01*
X171989996Y-110678054D01*
X172120781Y-110618326D01*
X172205901Y-110563623D01*
X172299560Y-110482467D01*
X172331648Y-110470500D01*
X172924817Y-110470500D01*
X172959465Y-110484852D01*
X172970400Y-110501523D01*
X172976638Y-110517342D01*
X173016280Y-110569616D01*
X173068078Y-110637922D01*
X173158592Y-110706561D01*
X173185573Y-110727022D01*
X173188658Y-110729361D01*
X173329436Y-110784877D01*
X173329442Y-110784877D01*
X173329443Y-110784878D01*
X173417895Y-110795500D01*
X173417898Y-110795500D01*
X174054105Y-110795500D01*
X174142556Y-110784878D01*
X174142556Y-110784877D01*
X174142564Y-110784877D01*
X174283342Y-110729361D01*
X174403922Y-110637922D01*
X174421386Y-110614891D01*
X174453757Y-110595956D01*
X174460429Y-110595500D01*
X174548566Y-110595500D01*
X174583214Y-110609852D01*
X174587437Y-110614667D01*
X174599549Y-110630451D01*
X174640330Y-110661743D01*
X174659081Y-110694220D01*
X174659500Y-110700616D01*
X174659500Y-111423929D01*
X174659499Y-111423947D01*
X174659499Y-111585059D01*
X174700421Y-111737781D01*
X174700422Y-111737783D01*
X174700423Y-111737785D01*
X174711517Y-111757000D01*
X174779480Y-111874716D01*
X174894074Y-111989310D01*
X174894080Y-111989315D01*
X175793764Y-112888999D01*
X175793769Y-112889005D01*
X175795480Y-112890716D01*
X175907284Y-113002520D01*
X175907287Y-113002521D01*
X175907290Y-113002524D01*
X175994090Y-113052637D01*
X175994093Y-113052638D01*
X175994095Y-113052639D01*
X176044215Y-113081577D01*
X176044217Y-113081577D01*
X176044218Y-113081578D01*
X176196940Y-113122501D01*
X176196943Y-113122501D01*
X176306614Y-113122501D01*
X176341262Y-113136853D01*
X176345651Y-113141886D01*
X176364542Y-113166797D01*
X176382078Y-113189922D01*
X176484963Y-113267943D01*
X176502658Y-113281361D01*
X176643436Y-113336877D01*
X176643442Y-113336877D01*
X176643443Y-113336878D01*
X176731895Y-113347500D01*
X176731898Y-113347500D01*
X177218105Y-113347500D01*
X177306556Y-113336878D01*
X177306556Y-113336877D01*
X177306564Y-113336877D01*
X177447342Y-113281361D01*
X177567922Y-113189922D01*
X177659361Y-113069342D01*
X177714877Y-112928564D01*
X177719422Y-112890716D01*
X177725500Y-112840105D01*
X177725500Y-112203894D01*
X177714878Y-112115443D01*
X177714877Y-112115442D01*
X177714877Y-112115436D01*
X177659361Y-111974658D01*
X177567922Y-111854078D01*
X177456482Y-111769570D01*
X177447344Y-111762640D01*
X177447342Y-111762639D01*
X177389958Y-111740009D01*
X177362992Y-111713947D01*
X177362351Y-111676450D01*
X177378568Y-111655202D01*
X177433546Y-111614046D01*
X177519796Y-111498831D01*
X177570091Y-111363983D01*
X177570091Y-111363981D01*
X177570092Y-111363979D01*
X177576499Y-111304379D01*
X177576500Y-111304373D01*
X177576499Y-110200454D01*
X177590851Y-110165807D01*
X177612812Y-110153127D01*
X177657784Y-110141077D01*
X177734619Y-110096716D01*
X177794715Y-110062020D01*
X177906519Y-109950216D01*
X177906520Y-109950214D01*
X178356520Y-109500215D01*
X178385055Y-109450788D01*
X178414808Y-109427959D01*
X178444613Y-109429377D01*
X178568517Y-109475591D01*
X178568520Y-109475592D01*
X178612177Y-109480285D01*
X178628127Y-109482000D01*
X179023872Y-109481999D01*
X179023878Y-109481999D01*
X179083478Y-109475592D01*
X179083479Y-109475591D01*
X179083483Y-109475591D01*
X179218331Y-109425296D01*
X179333546Y-109339046D01*
X179419796Y-109223831D01*
X179470091Y-109088983D01*
X179470091Y-109088981D01*
X179470092Y-109088979D01*
X179476499Y-109029379D01*
X179476500Y-109029373D01*
X179476500Y-109011316D01*
X179690001Y-109011316D01*
X179700143Y-109110603D01*
X179753453Y-109271484D01*
X179842428Y-109415733D01*
X179962266Y-109535571D01*
X180106515Y-109624546D01*
X180267396Y-109677856D01*
X180366682Y-109687999D01*
X180414999Y-109687999D01*
X180915000Y-109687999D01*
X180963316Y-109687999D01*
X181062603Y-109677856D01*
X181223484Y-109624546D01*
X181367733Y-109535571D01*
X181487571Y-109415733D01*
X181576546Y-109271484D01*
X181629856Y-109110603D01*
X181640000Y-109011317D01*
X181640000Y-108988000D01*
X180915000Y-108988000D01*
X180915000Y-109687999D01*
X180414999Y-109687999D01*
X180415000Y-109687998D01*
X180415000Y-108988000D01*
X179690001Y-108988000D01*
X179690001Y-109011316D01*
X179476500Y-109011316D01*
X179476499Y-107908628D01*
X179476497Y-107908615D01*
X179476453Y-107907788D01*
X179476499Y-107907657D01*
X179476499Y-107907315D01*
X179476620Y-107907315D01*
X179488917Y-107872416D01*
X179490695Y-107870539D01*
X179558384Y-107802850D01*
X179593031Y-107788500D01*
X179953566Y-107788500D01*
X179988214Y-107802852D01*
X179992437Y-107807667D01*
X180004549Y-107823451D01*
X180013833Y-107830575D01*
X180032584Y-107863052D01*
X180022878Y-107899277D01*
X180009728Y-107911152D01*
X179962268Y-107940426D01*
X179842428Y-108060266D01*
X179753453Y-108204515D01*
X179700143Y-108365396D01*
X179690000Y-108464682D01*
X179690000Y-108488000D01*
X181639999Y-108488000D01*
X181639999Y-108464683D01*
X181629856Y-108365396D01*
X181576546Y-108204515D01*
X181487571Y-108060266D01*
X181367733Y-107940428D01*
X181367728Y-107940424D01*
X181320272Y-107911152D01*
X181298317Y-107880747D01*
X181304292Y-107843724D01*
X181316164Y-107830576D01*
X181325451Y-107823451D01*
X181417698Y-107703233D01*
X181475687Y-107563236D01*
X181480168Y-107529198D01*
X181498919Y-107496720D01*
X181535144Y-107487013D01*
X181563397Y-107500946D01*
X181623326Y-107560875D01*
X181768801Y-107648818D01*
X181931088Y-107699389D01*
X181931093Y-107699390D01*
X182001619Y-107705799D01*
X182008200Y-107705798D01*
X182008200Y-105755799D01*
X182001631Y-105755800D01*
X181931094Y-105762209D01*
X181931088Y-105762210D01*
X181768801Y-105812781D01*
X181623326Y-105900724D01*
X181503124Y-106020926D01*
X181415181Y-106166401D01*
X181364610Y-106328688D01*
X181364609Y-106328694D01*
X181363299Y-106343115D01*
X181345870Y-106376323D01*
X181310066Y-106387480D01*
X181276858Y-106370051D01*
X181265500Y-106338681D01*
X181265500Y-106326014D01*
X181265501Y-106326001D01*
X181265501Y-106163941D01*
X181238420Y-106062878D01*
X181224577Y-106011216D01*
X181224576Y-106011214D01*
X181224576Y-106011213D01*
X181145524Y-105874290D01*
X181145521Y-105874287D01*
X181145520Y-105874284D01*
X180693521Y-105422285D01*
X180693520Y-105422284D01*
X180581716Y-105310480D01*
X180470204Y-105246099D01*
X180444785Y-105231423D01*
X180444784Y-105231422D01*
X180444783Y-105231422D01*
X180444781Y-105231421D01*
X180292060Y-105190499D01*
X180292057Y-105190499D01*
X180133943Y-105190499D01*
X180130946Y-105190499D01*
X180130930Y-105190500D01*
X179403913Y-105190500D01*
X179369265Y-105176148D01*
X179359341Y-105161856D01*
X179340326Y-105120219D01*
X179285623Y-105035099D01*
X179242774Y-104985648D01*
X179191469Y-104926437D01*
X179179412Y-104915990D01*
X179162625Y-104882453D01*
X179162500Y-104878958D01*
X179162500Y-104549000D01*
X179176852Y-104514352D01*
X179211500Y-104500000D01*
X182479704Y-104500000D01*
X182514352Y-104514352D01*
X182985648Y-104985648D01*
X183000000Y-105020296D01*
X183000000Y-105889355D01*
X182985648Y-105924003D01*
X182951000Y-105938355D01*
X182916352Y-105924003D01*
X182893073Y-105900724D01*
X182747598Y-105812781D01*
X182585311Y-105762210D01*
X182585305Y-105762209D01*
X182514770Y-105755800D01*
X182508200Y-105755800D01*
X182508200Y-107705799D01*
X182514769Y-107705799D01*
X182585306Y-107699390D01*
X182585311Y-107699389D01*
X182747598Y-107648818D01*
X182893073Y-107560875D01*
X182916352Y-107537597D01*
X182951000Y-107523245D01*
X182985648Y-107537597D01*
X183000000Y-107572245D01*
X183000000Y-107979704D01*
X182985648Y-108014352D01*
X182000000Y-108999999D01*
X182000000Y-112000000D01*
X182485648Y-112485648D01*
X182500000Y-112520296D01*
X182500000Y-114870278D01*
X182485648Y-114904926D01*
X182451000Y-114919278D01*
X182418912Y-114907310D01*
X182365902Y-114861378D01*
X182365901Y-114861377D01*
X182280781Y-114806674D01*
X182274786Y-114803936D01*
X182239143Y-114787657D01*
X182213589Y-114760208D01*
X182210500Y-114743086D01*
X182210500Y-114474940D01*
X182210499Y-114474939D01*
X182169577Y-114322217D01*
X182169576Y-114322213D01*
X182090524Y-114185290D01*
X182090521Y-114185287D01*
X182090520Y-114185284D01*
X181978716Y-114073480D01*
X181977010Y-114071774D01*
X181976999Y-114071764D01*
X181585315Y-113680080D01*
X181585313Y-113680077D01*
X181470718Y-113565482D01*
X181470712Y-113565477D01*
X181416860Y-113534387D01*
X181383904Y-113515360D01*
X181333785Y-113486423D01*
X181333784Y-113486422D01*
X181333783Y-113486422D01*
X181333781Y-113486421D01*
X181230818Y-113458832D01*
X181201065Y-113436002D01*
X181194500Y-113411502D01*
X181194500Y-113227616D01*
X181208852Y-113192968D01*
X181213656Y-113188753D01*
X181254451Y-113157451D01*
X181346698Y-113037233D01*
X181404687Y-112897236D01*
X181419500Y-112784720D01*
X181419500Y-112259280D01*
X181404687Y-112146764D01*
X181391711Y-112115437D01*
X181346700Y-112006771D01*
X181346697Y-112006766D01*
X181333306Y-111989315D01*
X181254451Y-111886549D01*
X181245167Y-111879425D01*
X181226415Y-111846947D01*
X181236122Y-111810722D01*
X181249272Y-111798846D01*
X181296734Y-111769570D01*
X181416571Y-111649733D01*
X181505546Y-111505484D01*
X181558856Y-111344603D01*
X181569000Y-111245317D01*
X181569000Y-111222000D01*
X180393000Y-111222000D01*
X180358352Y-111207648D01*
X180344000Y-111173000D01*
X180344000Y-110722000D01*
X180844000Y-110722000D01*
X181568999Y-110722000D01*
X181568999Y-110698683D01*
X181558856Y-110599396D01*
X181505546Y-110438515D01*
X181416571Y-110294266D01*
X181296733Y-110174428D01*
X181152484Y-110085453D01*
X180991603Y-110032143D01*
X180892317Y-110022000D01*
X180844000Y-110022000D01*
X180844000Y-110722000D01*
X180344000Y-110722000D01*
X180344000Y-110022000D01*
X180295683Y-110022000D01*
X180196396Y-110032143D01*
X180035515Y-110085453D01*
X179891266Y-110174428D01*
X179771428Y-110294266D01*
X179682453Y-110438515D01*
X179629143Y-110599397D01*
X179628867Y-110600688D01*
X179628576Y-110601109D01*
X179628303Y-110601934D01*
X179628062Y-110601854D01*
X179607575Y-110631561D01*
X179570689Y-110638336D01*
X179546306Y-110625071D01*
X179490851Y-110569616D01*
X179476499Y-110534968D01*
X179476499Y-110183620D01*
X179470092Y-110124021D01*
X179459908Y-110096716D01*
X179419796Y-109989169D01*
X179333546Y-109873954D01*
X179264314Y-109822127D01*
X179218333Y-109787705D01*
X179218331Y-109787704D01*
X179173381Y-109770939D01*
X179083479Y-109737407D01*
X179023879Y-109731000D01*
X178628120Y-109731000D01*
X178568521Y-109737407D01*
X178433666Y-109787705D01*
X178318454Y-109873954D01*
X178232205Y-109989166D01*
X178181907Y-110124020D01*
X178175500Y-110183620D01*
X178175500Y-111304379D01*
X178181907Y-111363978D01*
X178181909Y-111363983D01*
X178207043Y-111431372D01*
X178232205Y-111498833D01*
X178318452Y-111614044D01*
X178318453Y-111614044D01*
X178318454Y-111614046D01*
X178324233Y-111618372D01*
X178343370Y-111650622D01*
X178334097Y-111686961D01*
X178301845Y-111706099D01*
X178300715Y-111706248D01*
X178293442Y-111707121D01*
X178293437Y-111707122D01*
X178293436Y-111707123D01*
X178276132Y-111713947D01*
X178152655Y-111762640D01*
X178032078Y-111854078D01*
X177940640Y-111974655D01*
X177885123Y-112115437D01*
X177885121Y-112115443D01*
X177874500Y-112203894D01*
X177874500Y-112840105D01*
X177885121Y-112928556D01*
X177885122Y-112928560D01*
X177885123Y-112928564D01*
X177934052Y-113052639D01*
X177940640Y-113069344D01*
X177949917Y-113081577D01*
X178014543Y-113166798D01*
X178024500Y-113196405D01*
X178024500Y-113264929D01*
X178024499Y-113264947D01*
X178024499Y-113426059D01*
X178065421Y-113578781D01*
X178065423Y-113578787D01*
X178078535Y-113601496D01*
X178078538Y-113601500D01*
X178144475Y-113715709D01*
X178144482Y-113715718D01*
X178259074Y-113830310D01*
X178259080Y-113830315D01*
X178841764Y-114412999D01*
X178841769Y-114413005D01*
X178843480Y-114414716D01*
X178955284Y-114526520D01*
X178955287Y-114526521D01*
X178955290Y-114526524D01*
X179041359Y-114576215D01*
X179092215Y-114605577D01*
X179212664Y-114637851D01*
X179244938Y-114646499D01*
X179244939Y-114646500D01*
X179244942Y-114646500D01*
X179244943Y-114646500D01*
X180768942Y-114646500D01*
X180768943Y-114646500D01*
X180832969Y-114646500D01*
X180867617Y-114660852D01*
X180941405Y-114734640D01*
X180955757Y-114769288D01*
X180941405Y-114803936D01*
X180933249Y-114810509D01*
X180868084Y-114852388D01*
X180854099Y-114861377D01*
X180854098Y-114861378D01*
X180854097Y-114861378D01*
X180744115Y-114956677D01*
X180743590Y-114956071D01*
X180711172Y-114969500D01*
X179433597Y-114969500D01*
X179398949Y-114955148D01*
X179389576Y-114942021D01*
X179388344Y-114939500D01*
X179351198Y-114863517D01*
X179268483Y-114780802D01*
X179215938Y-114755114D01*
X179163396Y-114729428D01*
X179163394Y-114729427D01*
X179095262Y-114719500D01*
X179095260Y-114719500D01*
X178028740Y-114719500D01*
X178028738Y-114719500D01*
X177960605Y-114729427D01*
X177960603Y-114729428D01*
X177855519Y-114780801D01*
X177855515Y-114780803D01*
X177772803Y-114863515D01*
X177772801Y-114863519D01*
X177721428Y-114968603D01*
X177721427Y-114968605D01*
X177711500Y-115036738D01*
X177711500Y-116103261D01*
X177721427Y-116171394D01*
X177721428Y-116171396D01*
X177744945Y-116219500D01*
X177772802Y-116276483D01*
X177855517Y-116359198D01*
X177960607Y-116410573D01*
X178008884Y-116417606D01*
X178028738Y-116420500D01*
X178028740Y-116420500D01*
X179095262Y-116420500D01*
X179112590Y-116417974D01*
X179163393Y-116410573D01*
X179268483Y-116359198D01*
X179351198Y-116276483D01*
X179389576Y-116197979D01*
X179417687Y-116173155D01*
X179433597Y-116170500D01*
X180478908Y-116170500D01*
X180513556Y-116184852D01*
X180527908Y-116219500D01*
X180523895Y-116235318D01*
X180525081Y-116235726D01*
X180523763Y-116239564D01*
X180523762Y-116239568D01*
X180523762Y-116239569D01*
X180504500Y-116355000D01*
X180504500Y-116355003D01*
X180504500Y-116926893D01*
X180518899Y-117027039D01*
X180526557Y-117053122D01*
X180522547Y-117090409D01*
X180514189Y-117101573D01*
X180240286Y-117375478D01*
X180128481Y-117487283D01*
X180128480Y-117487283D01*
X180078360Y-117574095D01*
X180049423Y-117624212D01*
X180049421Y-117624218D01*
X180008499Y-117776940D01*
X180008499Y-117939000D01*
X180008500Y-117939013D01*
X180008500Y-119390204D01*
X179994148Y-119424852D01*
X179959500Y-119439204D01*
X179924852Y-119424852D01*
X178500000Y-118000000D01*
X176520296Y-118000000D01*
X176485648Y-117985648D01*
X170014352Y-111514352D01*
X170000000Y-111479704D01*
X170000000Y-108138429D01*
X172761000Y-108138429D01*
X172761000Y-108145000D01*
X173486000Y-108145000D01*
X173986000Y-108145000D01*
X174705000Y-108145000D01*
X174739648Y-108159352D01*
X174754000Y-108194000D01*
X174754000Y-108195000D01*
X175010000Y-108195000D01*
X175010000Y-107495000D01*
X174961683Y-107495000D01*
X174862396Y-107505143D01*
X174701515Y-107558453D01*
X174557266Y-107647428D01*
X174539970Y-107664725D01*
X174505322Y-107679077D01*
X174470674Y-107664725D01*
X174445873Y-107639924D01*
X174300398Y-107551981D01*
X174138111Y-107501410D01*
X174138105Y-107501409D01*
X174067570Y-107495000D01*
X173986000Y-107495000D01*
X173986000Y-108145000D01*
X173486000Y-108145000D01*
X173486000Y-107495000D01*
X173404431Y-107495000D01*
X173333893Y-107501409D01*
X173333888Y-107501410D01*
X173171601Y-107551981D01*
X173026126Y-107639924D01*
X172905924Y-107760126D01*
X172817981Y-107905601D01*
X172767410Y-108067888D01*
X172767409Y-108067894D01*
X172761000Y-108138429D01*
X170000000Y-108138429D01*
X170000000Y-107520296D01*
X170014352Y-107485648D01*
X170485648Y-107014352D01*
X170520296Y-107000000D01*
X175499999Y-107000000D01*
X175500000Y-107000000D01*
X176000000Y-106500000D01*
X176000000Y-105020296D01*
X176014352Y-104985648D01*
X176485648Y-104514352D01*
X176520296Y-104500000D01*
X177912500Y-104500000D01*
X177947148Y-104514352D01*
G37*
%TD.AperFunction*%
%TD*%
%TA.AperFunction,Conductor*%
%TO.N,GND*%
G36*
X200445936Y-118503308D02*
G01*
X200457060Y-118507618D01*
X200675757Y-118548500D01*
X200675759Y-118548500D01*
X200898241Y-118548500D01*
X200898243Y-118548500D01*
X201116940Y-118507618D01*
X201128063Y-118503308D01*
X201145763Y-118500000D01*
X202951000Y-118500000D01*
X202985648Y-118514352D01*
X203000000Y-118549000D01*
X203000000Y-139451000D01*
X202985648Y-139485648D01*
X202951000Y-139500000D01*
X196020296Y-139500000D01*
X195985648Y-139485648D01*
X193514352Y-137014352D01*
X193500000Y-136979704D01*
X193500000Y-136464456D01*
X193514352Y-136429808D01*
X193549000Y-136415456D01*
X193583648Y-136429808D01*
X193586032Y-136432368D01*
X193623270Y-136475343D01*
X193744345Y-136553153D01*
X193778925Y-136563306D01*
X193799767Y-136575672D01*
X193931784Y-136707689D01*
X194034511Y-136766999D01*
X194058724Y-136773486D01*
X194103906Y-136785593D01*
X194149087Y-136797700D01*
X194149089Y-136797700D01*
X194761100Y-136797700D01*
X194795748Y-136812052D01*
X194806682Y-136828721D01*
X194832639Y-136894542D01*
X194832640Y-136894544D01*
X194869692Y-136943404D01*
X194924078Y-137015122D01*
X195044658Y-137106561D01*
X195185436Y-137162077D01*
X195185442Y-137162077D01*
X195185443Y-137162078D01*
X195273895Y-137172700D01*
X195273898Y-137172700D01*
X195760105Y-137172700D01*
X195848556Y-137162078D01*
X195848556Y-137162077D01*
X195848564Y-137162077D01*
X195989342Y-137106561D01*
X196109922Y-137015122D01*
X196201361Y-136894542D01*
X196256877Y-136753764D01*
X196267500Y-136665302D01*
X196267500Y-136029098D01*
X196256877Y-135940636D01*
X196201361Y-135799858D01*
X196109922Y-135679278D01*
X196038204Y-135624892D01*
X195989344Y-135587840D01*
X195989342Y-135587839D01*
X195848564Y-135532323D01*
X195848560Y-135532322D01*
X195848556Y-135532321D01*
X195760105Y-135521700D01*
X195760102Y-135521700D01*
X195273898Y-135521700D01*
X195273895Y-135521700D01*
X195185443Y-135532321D01*
X195185437Y-135532322D01*
X195185436Y-135532323D01*
X195089286Y-135570239D01*
X195044655Y-135587840D01*
X194924078Y-135679278D01*
X194832640Y-135799855D01*
X194832639Y-135799858D01*
X194806683Y-135865676D01*
X194780622Y-135892643D01*
X194761100Y-135896700D01*
X194446372Y-135896700D01*
X194411724Y-135882348D01*
X194401800Y-135868055D01*
X194379775Y-135819827D01*
X194379772Y-135819823D01*
X194285526Y-135711057D01*
X194164451Y-135633247D01*
X194164448Y-135633246D01*
X194026363Y-135592700D01*
X194026359Y-135592700D01*
X193882437Y-135592700D01*
X193882432Y-135592700D01*
X193744347Y-135633246D01*
X193623269Y-135711057D01*
X193586032Y-135754031D01*
X193552495Y-135770818D01*
X193516912Y-135758975D01*
X193500125Y-135725438D01*
X193500000Y-135721943D01*
X193500000Y-133857997D01*
X194007553Y-133857997D01*
X194007553Y-133858000D01*
X194028033Y-134000454D01*
X194050090Y-134048751D01*
X194087823Y-134131373D01*
X194087824Y-134131374D01*
X194087825Y-134131376D01*
X194182071Y-134240142D01*
X194182072Y-134240143D01*
X194303147Y-134317953D01*
X194353450Y-134332723D01*
X194441234Y-134358499D01*
X194441237Y-134358499D01*
X194441239Y-134358500D01*
X194441240Y-134358500D01*
X194585160Y-134358500D01*
X194585161Y-134358500D01*
X194585163Y-134358499D01*
X194585165Y-134358499D01*
X194624071Y-134347075D01*
X194723253Y-134317953D01*
X194725861Y-134316276D01*
X194752350Y-134308500D01*
X194761100Y-134308500D01*
X194795748Y-134322852D01*
X194806682Y-134339521D01*
X194814167Y-134358500D01*
X194832640Y-134405344D01*
X194841917Y-134417577D01*
X194924078Y-134525922D01*
X195015106Y-134594951D01*
X195040075Y-134613886D01*
X195044658Y-134617361D01*
X195185436Y-134672877D01*
X195185442Y-134672877D01*
X195185443Y-134672878D01*
X195273895Y-134683500D01*
X195273898Y-134683500D01*
X195760105Y-134683500D01*
X195848556Y-134672878D01*
X195848556Y-134672877D01*
X195848564Y-134672877D01*
X195989342Y-134617361D01*
X196109922Y-134525922D01*
X196201361Y-134405342D01*
X196256877Y-134264564D01*
X196261422Y-134226716D01*
X196267500Y-134176105D01*
X196267500Y-133539894D01*
X196256878Y-133451443D01*
X196256877Y-133451442D01*
X196256877Y-133451436D01*
X196201361Y-133310658D01*
X196109922Y-133190078D01*
X196016055Y-133118896D01*
X195989344Y-133098640D01*
X195989342Y-133098639D01*
X195848564Y-133043123D01*
X195848560Y-133043122D01*
X195848556Y-133043121D01*
X195760105Y-133032500D01*
X195760102Y-133032500D01*
X195273898Y-133032500D01*
X195273895Y-133032500D01*
X195185443Y-133043121D01*
X195185437Y-133043122D01*
X195185436Y-133043123D01*
X195089286Y-133081039D01*
X195044655Y-133098640D01*
X194924078Y-133190078D01*
X194832640Y-133310655D01*
X194832639Y-133310658D01*
X194806683Y-133376476D01*
X194780622Y-133403443D01*
X194761100Y-133407500D01*
X194752350Y-133407500D01*
X194725861Y-133399723D01*
X194723253Y-133398047D01*
X194723250Y-133398046D01*
X194585165Y-133357500D01*
X194585161Y-133357500D01*
X194441239Y-133357500D01*
X194441234Y-133357500D01*
X194303149Y-133398046D01*
X194182071Y-133475857D01*
X194087825Y-133584623D01*
X194087824Y-133584625D01*
X194028033Y-133715545D01*
X194007553Y-133857997D01*
X193500000Y-133857997D01*
X193500000Y-133000000D01*
X193361508Y-132861508D01*
X193347156Y-132826860D01*
X193350883Y-132808118D01*
X193381487Y-132734236D01*
X193396300Y-132621720D01*
X193396300Y-132046280D01*
X193381487Y-131933764D01*
X193334669Y-131820735D01*
X193323500Y-131793771D01*
X193323497Y-131793766D01*
X193309370Y-131775356D01*
X193231251Y-131673549D01*
X193111033Y-131581302D01*
X193111031Y-131581301D01*
X193030248Y-131547839D01*
X193003730Y-131521320D01*
X193000000Y-131502569D01*
X193000000Y-131317997D01*
X194507553Y-131317997D01*
X194507553Y-131318002D01*
X194528033Y-131460454D01*
X194556741Y-131523313D01*
X194587823Y-131591373D01*
X194587824Y-131591374D01*
X194587825Y-131591376D01*
X194617722Y-131625879D01*
X194682072Y-131700143D01*
X194756582Y-131748028D01*
X194774554Y-131773000D01*
X194775971Y-131772442D01*
X194777122Y-131775362D01*
X194777123Y-131775364D01*
X194829414Y-131907963D01*
X194832640Y-131916144D01*
X194846002Y-131933764D01*
X194924078Y-132036722D01*
X194989108Y-132086036D01*
X195040593Y-132125079D01*
X195044658Y-132128161D01*
X195185436Y-132183677D01*
X195185442Y-132183677D01*
X195185443Y-132183678D01*
X195273895Y-132194300D01*
X195273898Y-132194300D01*
X195760105Y-132194300D01*
X195848556Y-132183678D01*
X195848556Y-132183677D01*
X195848564Y-132183677D01*
X195989342Y-132128161D01*
X196109922Y-132036722D01*
X196201361Y-131916142D01*
X196256877Y-131775364D01*
X196257228Y-131772442D01*
X196267500Y-131686905D01*
X196267500Y-131050694D01*
X196256878Y-130962243D01*
X196256877Y-130962242D01*
X196256877Y-130962236D01*
X196201361Y-130821458D01*
X196109922Y-130700878D01*
X196000443Y-130617857D01*
X195989344Y-130609440D01*
X195989342Y-130609439D01*
X195848564Y-130553923D01*
X195848560Y-130553922D01*
X195848556Y-130553921D01*
X195760105Y-130543300D01*
X195760102Y-130543300D01*
X195273898Y-130543300D01*
X195273895Y-130543300D01*
X195185443Y-130553921D01*
X195185437Y-130553922D01*
X195185436Y-130553923D01*
X195090911Y-130591199D01*
X195044655Y-130609440D01*
X194924078Y-130700878D01*
X194832639Y-130821458D01*
X194832635Y-130821464D01*
X194828766Y-130831275D01*
X194805720Y-130855571D01*
X194806094Y-130856152D01*
X194803727Y-130857673D01*
X194803546Y-130857864D01*
X194803145Y-130858047D01*
X194682074Y-130935853D01*
X194682072Y-130935855D01*
X194587825Y-131044623D01*
X194587824Y-131044625D01*
X194528033Y-131175545D01*
X194507553Y-131317997D01*
X193000000Y-131317997D01*
X193000000Y-129863429D01*
X193014352Y-129828781D01*
X193030244Y-129818161D01*
X193111033Y-129784698D01*
X193231251Y-129692451D01*
X193323498Y-129572233D01*
X193381487Y-129432236D01*
X193396300Y-129319720D01*
X193396300Y-128744280D01*
X193381487Y-128631764D01*
X193352380Y-128561494D01*
X194766500Y-128561494D01*
X194766500Y-129197705D01*
X194777121Y-129286156D01*
X194777122Y-129286160D01*
X194777123Y-129286164D01*
X194832639Y-129426942D01*
X194832640Y-129426944D01*
X194856218Y-129458036D01*
X194924078Y-129547522D01*
X195044658Y-129638961D01*
X195185436Y-129694477D01*
X195185442Y-129694477D01*
X195185443Y-129694478D01*
X195273895Y-129705100D01*
X195273898Y-129705100D01*
X195760105Y-129705100D01*
X195848556Y-129694478D01*
X195848556Y-129694477D01*
X195848564Y-129694477D01*
X195989342Y-129638961D01*
X196109922Y-129547522D01*
X196201361Y-129426942D01*
X196256877Y-129286164D01*
X196262929Y-129235766D01*
X196267500Y-129197705D01*
X196267500Y-128561494D01*
X196256878Y-128473043D01*
X196256877Y-128473042D01*
X196256877Y-128473036D01*
X196201361Y-128332258D01*
X196192244Y-128320236D01*
X196117228Y-128221313D01*
X196109922Y-128211678D01*
X196009351Y-128135412D01*
X195989344Y-128120240D01*
X195989342Y-128120239D01*
X195848564Y-128064723D01*
X195848560Y-128064722D01*
X195848556Y-128064721D01*
X195760105Y-128054100D01*
X195760102Y-128054100D01*
X195273898Y-128054100D01*
X195273895Y-128054100D01*
X195185443Y-128064721D01*
X195185437Y-128064722D01*
X195185436Y-128064723D01*
X195089286Y-128102639D01*
X195044655Y-128120240D01*
X194924078Y-128211678D01*
X194832640Y-128332255D01*
X194832639Y-128332258D01*
X194778272Y-128470124D01*
X194777123Y-128473037D01*
X194777121Y-128473043D01*
X194766500Y-128561494D01*
X193352380Y-128561494D01*
X193337843Y-128526399D01*
X193323500Y-128491771D01*
X193323497Y-128491766D01*
X193306890Y-128470124D01*
X193231251Y-128371549D01*
X193207171Y-128353072D01*
X193111033Y-128279302D01*
X193111031Y-128279301D01*
X193030248Y-128245839D01*
X193003730Y-128219320D01*
X193000000Y-128200569D01*
X193000000Y-128014268D01*
X193014352Y-127979620D01*
X193027480Y-127970247D01*
X193086083Y-127941598D01*
X193168798Y-127858883D01*
X193220173Y-127753793D01*
X193230100Y-127685660D01*
X193230100Y-126619140D01*
X193220173Y-126551007D01*
X193168798Y-126445917D01*
X193086083Y-126363202D01*
X193030937Y-126336243D01*
X192980996Y-126311828D01*
X192980994Y-126311827D01*
X192912862Y-126301900D01*
X192912860Y-126301900D01*
X192822196Y-126301900D01*
X192787548Y-126287548D01*
X192782128Y-126282128D01*
X194413955Y-126282128D01*
X194413955Y-126282133D01*
X194434435Y-126424585D01*
X194454517Y-126468557D01*
X194494225Y-126555504D01*
X194494226Y-126555505D01*
X194494227Y-126555507D01*
X194549365Y-126619140D01*
X194588474Y-126664274D01*
X194709549Y-126742084D01*
X194741766Y-126751543D01*
X194770968Y-126775073D01*
X194776612Y-126792714D01*
X194777121Y-126796958D01*
X194777122Y-126796962D01*
X194777123Y-126796964D01*
X194832639Y-126937742D01*
X194832640Y-126937744D01*
X194869692Y-126986604D01*
X194924078Y-127058322D01*
X194989108Y-127107636D01*
X195040593Y-127146679D01*
X195044658Y-127149761D01*
X195185436Y-127205277D01*
X195185442Y-127205277D01*
X195185443Y-127205278D01*
X195273895Y-127215900D01*
X195273898Y-127215900D01*
X195760105Y-127215900D01*
X195848556Y-127205278D01*
X195848556Y-127205277D01*
X195848564Y-127205277D01*
X195989342Y-127149761D01*
X196109922Y-127058322D01*
X196201361Y-126937742D01*
X196256877Y-126796964D01*
X196262332Y-126751542D01*
X196267500Y-126708505D01*
X196267500Y-126072294D01*
X196256878Y-125983843D01*
X196256877Y-125983842D01*
X196256877Y-125983836D01*
X196201361Y-125843058D01*
X196109922Y-125722478D01*
X196038204Y-125668092D01*
X195989344Y-125631040D01*
X195989342Y-125631039D01*
X195848564Y-125575523D01*
X195848560Y-125575522D01*
X195848556Y-125575521D01*
X195760105Y-125564900D01*
X195760102Y-125564900D01*
X195273898Y-125564900D01*
X195273895Y-125564900D01*
X195185443Y-125575521D01*
X195185437Y-125575522D01*
X195185436Y-125575523D01*
X195116556Y-125602686D01*
X195044655Y-125631040D01*
X194924078Y-125722478D01*
X194893926Y-125762239D01*
X194861555Y-125781175D01*
X194854883Y-125781631D01*
X194847636Y-125781631D01*
X194709551Y-125822177D01*
X194588473Y-125899988D01*
X194494227Y-126008754D01*
X194494226Y-126008756D01*
X194434435Y-126139676D01*
X194413955Y-126282128D01*
X192782128Y-126282128D01*
X190500000Y-124000000D01*
X187973427Y-124000000D01*
X187938779Y-123985648D01*
X187924427Y-123951000D01*
X187936395Y-123918912D01*
X187951733Y-123901211D01*
X194483610Y-123901211D01*
X194483610Y-123901216D01*
X194504090Y-124043668D01*
X194534840Y-124111000D01*
X194563880Y-124174587D01*
X194563881Y-124174588D01*
X194563882Y-124174590D01*
X194602625Y-124219302D01*
X194658129Y-124283357D01*
X194778944Y-124361000D01*
X194779209Y-124361170D01*
X194782393Y-124362624D01*
X194781760Y-124364009D01*
X194806878Y-124384249D01*
X194809456Y-124389757D01*
X194823685Y-124425838D01*
X194832639Y-124448542D01*
X194924078Y-124569122D01*
X195018649Y-124640838D01*
X195040593Y-124657479D01*
X195044658Y-124660561D01*
X195185436Y-124716077D01*
X195185442Y-124716077D01*
X195185443Y-124716078D01*
X195273895Y-124726700D01*
X195273898Y-124726700D01*
X195760105Y-124726700D01*
X195848556Y-124716078D01*
X195848556Y-124716077D01*
X195848564Y-124716077D01*
X195989342Y-124660561D01*
X196109922Y-124569122D01*
X196201361Y-124448542D01*
X196256877Y-124307764D01*
X196267500Y-124219302D01*
X196267500Y-123583098D01*
X196259811Y-123519071D01*
X196256878Y-123494643D01*
X196256877Y-123494642D01*
X196256877Y-123494636D01*
X196201361Y-123353858D01*
X196109922Y-123233278D01*
X196038204Y-123178892D01*
X195989344Y-123141840D01*
X195989342Y-123141839D01*
X195848564Y-123086323D01*
X195848560Y-123086322D01*
X195848556Y-123086321D01*
X195760105Y-123075700D01*
X195760102Y-123075700D01*
X195273898Y-123075700D01*
X195273895Y-123075700D01*
X195185443Y-123086321D01*
X195185437Y-123086322D01*
X195185436Y-123086323D01*
X195089286Y-123124239D01*
X195044655Y-123141840D01*
X194924078Y-123233278D01*
X194832638Y-123353857D01*
X194809443Y-123412674D01*
X194783381Y-123439641D01*
X194780324Y-123440748D01*
X194779209Y-123441258D01*
X194779204Y-123441260D01*
X194779204Y-123441261D01*
X194751553Y-123459031D01*
X194658128Y-123519071D01*
X194563882Y-123627837D01*
X194563881Y-123627839D01*
X194504090Y-123758759D01*
X194483610Y-123901211D01*
X187951733Y-123901211D01*
X187978974Y-123869772D01*
X187978977Y-123869769D01*
X188038765Y-123738853D01*
X188038765Y-123738851D01*
X188038766Y-123738850D01*
X188059247Y-123596398D01*
X188059247Y-123596393D01*
X188038766Y-123453941D01*
X188025267Y-123424383D01*
X187978977Y-123323023D01*
X187884728Y-123214253D01*
X187763653Y-123136443D01*
X187763650Y-123136442D01*
X187625565Y-123095896D01*
X187625561Y-123095896D01*
X187481639Y-123095896D01*
X187481634Y-123095896D01*
X187343549Y-123136442D01*
X187343547Y-123136442D01*
X187343547Y-123136443D01*
X187340938Y-123138119D01*
X187314450Y-123145896D01*
X187085717Y-123145896D01*
X187051069Y-123131544D01*
X187037216Y-123103869D01*
X187022756Y-123003297D01*
X187018341Y-122993631D01*
X186962967Y-122872379D01*
X186949310Y-122856618D01*
X186868718Y-122763609D01*
X186747643Y-122685799D01*
X186747640Y-122685798D01*
X186719097Y-122677417D01*
X186689896Y-122653885D01*
X186684401Y-122637377D01*
X186672698Y-122555973D01*
X186681973Y-122519635D01*
X186714226Y-122500499D01*
X186721199Y-122500000D01*
X192499999Y-122500000D01*
X192500000Y-122500000D01*
X193485648Y-121514352D01*
X193520296Y-121500000D01*
X195499999Y-121500000D01*
X195500000Y-121500000D01*
X195936160Y-121063838D01*
X195957008Y-121051471D01*
X195959999Y-121050593D01*
X196052041Y-121008559D01*
X196052043Y-121008558D01*
X196052045Y-121008557D01*
X196053254Y-121007780D01*
X196079747Y-121000000D01*
X196802468Y-121000000D01*
X196837116Y-121014352D01*
X196851468Y-121049000D01*
X196837116Y-121083648D01*
X196686482Y-121234281D01*
X196686477Y-121234287D01*
X196651769Y-121294407D01*
X196651768Y-121294408D01*
X196607423Y-121371212D01*
X196607421Y-121371218D01*
X196566499Y-121523940D01*
X196566499Y-121686000D01*
X196566500Y-121686013D01*
X196566500Y-123226793D01*
X196556543Y-123256401D01*
X196482640Y-123353855D01*
X196482639Y-123353858D01*
X196448811Y-123439641D01*
X196427123Y-123494637D01*
X196427121Y-123494643D01*
X196416500Y-123583094D01*
X196416500Y-124219305D01*
X196427121Y-124307756D01*
X196427122Y-124307760D01*
X196427123Y-124307764D01*
X196466818Y-124408422D01*
X196482640Y-124448544D01*
X196512163Y-124487475D01*
X196574078Y-124569122D01*
X196668649Y-124640838D01*
X196690593Y-124657479D01*
X196694658Y-124660561D01*
X196835436Y-124716077D01*
X196835442Y-124716077D01*
X196835443Y-124716078D01*
X196923895Y-124726700D01*
X196923898Y-124726700D01*
X197410105Y-124726700D01*
X197498556Y-124716078D01*
X197498556Y-124716077D01*
X197498564Y-124716077D01*
X197639342Y-124660561D01*
X197694892Y-124618436D01*
X197731172Y-124608935D01*
X197763543Y-124627871D01*
X197773500Y-124657479D01*
X197773500Y-125206968D01*
X197759148Y-125241616D01*
X197449944Y-125550819D01*
X197415296Y-125565171D01*
X197411565Y-125564949D01*
X197411563Y-125564987D01*
X197410109Y-125564900D01*
X197410102Y-125564900D01*
X196923898Y-125564900D01*
X196923895Y-125564900D01*
X196835443Y-125575521D01*
X196835437Y-125575522D01*
X196835436Y-125575523D01*
X196766556Y-125602686D01*
X196694655Y-125631040D01*
X196574078Y-125722478D01*
X196482640Y-125843055D01*
X196473447Y-125866366D01*
X196448305Y-125930124D01*
X196427123Y-125983837D01*
X196427121Y-125983843D01*
X196416500Y-126072294D01*
X196416500Y-126708505D01*
X196427121Y-126796956D01*
X196427122Y-126796958D01*
X196427123Y-126796964D01*
X196482639Y-126937742D01*
X196482640Y-126937744D01*
X196519692Y-126986604D01*
X196574078Y-127058322D01*
X196639108Y-127107636D01*
X196690593Y-127146679D01*
X196694658Y-127149761D01*
X196835436Y-127205277D01*
X196835442Y-127205277D01*
X196835443Y-127205278D01*
X196923895Y-127215900D01*
X196923898Y-127215900D01*
X197410105Y-127215900D01*
X197498556Y-127205278D01*
X197498556Y-127205277D01*
X197498564Y-127205277D01*
X197639342Y-127149761D01*
X197694892Y-127107636D01*
X197731172Y-127098135D01*
X197763543Y-127117071D01*
X197773500Y-127146679D01*
X197773500Y-128000967D01*
X197759148Y-128035615D01*
X197687299Y-128107463D01*
X197652651Y-128121815D01*
X197634677Y-128118399D01*
X197498564Y-128064723D01*
X197498560Y-128064722D01*
X197498556Y-128064721D01*
X197410105Y-128054100D01*
X197410102Y-128054100D01*
X196923898Y-128054100D01*
X196923895Y-128054100D01*
X196835443Y-128064721D01*
X196835437Y-128064722D01*
X196835436Y-128064723D01*
X196739286Y-128102639D01*
X196694655Y-128120240D01*
X196574078Y-128211678D01*
X196482640Y-128332255D01*
X196482639Y-128332258D01*
X196428272Y-128470124D01*
X196427123Y-128473037D01*
X196427121Y-128473043D01*
X196416500Y-128561494D01*
X196416500Y-129197705D01*
X196427121Y-129286156D01*
X196427122Y-129286160D01*
X196427123Y-129286164D01*
X196482639Y-129426942D01*
X196482640Y-129426944D01*
X196506218Y-129458036D01*
X196574078Y-129547522D01*
X196694658Y-129638961D01*
X196835436Y-129694477D01*
X196835442Y-129694477D01*
X196835443Y-129694478D01*
X196923895Y-129705100D01*
X196923898Y-129705100D01*
X197410105Y-129705100D01*
X197498556Y-129694478D01*
X197498556Y-129694477D01*
X197498564Y-129694477D01*
X197639342Y-129638961D01*
X197759922Y-129547522D01*
X197759924Y-129547519D01*
X197761466Y-129546350D01*
X197797746Y-129536849D01*
X197830117Y-129555785D01*
X197839618Y-129592065D01*
X197825722Y-129620041D01*
X196911520Y-130534243D01*
X196882714Y-130548245D01*
X196835440Y-130553921D01*
X196694655Y-130609440D01*
X196574078Y-130700878D01*
X196482640Y-130821455D01*
X196478768Y-130831275D01*
X196437527Y-130935855D01*
X196427123Y-130962237D01*
X196427121Y-130962243D01*
X196416500Y-131050694D01*
X196416500Y-131686905D01*
X196427121Y-131775356D01*
X196427122Y-131775360D01*
X196427123Y-131775364D01*
X196479414Y-131907963D01*
X196482640Y-131916144D01*
X196496002Y-131933764D01*
X196574078Y-132036722D01*
X196639108Y-132086036D01*
X196690593Y-132125079D01*
X196694658Y-132128161D01*
X196835436Y-132183677D01*
X196835442Y-132183677D01*
X196835443Y-132183678D01*
X196923895Y-132194300D01*
X196923898Y-132194300D01*
X197410105Y-132194300D01*
X197498556Y-132183678D01*
X197498556Y-132183677D01*
X197498564Y-132183677D01*
X197639342Y-132128161D01*
X197694892Y-132086036D01*
X197731172Y-132076535D01*
X197763543Y-132095471D01*
X197773500Y-132125079D01*
X197773500Y-132826967D01*
X197759148Y-132861615D01*
X197578001Y-133042761D01*
X197543353Y-133057113D01*
X197525378Y-133053697D01*
X197498565Y-133043123D01*
X197498556Y-133043121D01*
X197410105Y-133032500D01*
X197410102Y-133032500D01*
X196923898Y-133032500D01*
X196923895Y-133032500D01*
X196835443Y-133043121D01*
X196835437Y-133043122D01*
X196835436Y-133043123D01*
X196739286Y-133081039D01*
X196694655Y-133098640D01*
X196574078Y-133190078D01*
X196482640Y-133310655D01*
X196482639Y-133310658D01*
X196448178Y-133398046D01*
X196427123Y-133451437D01*
X196427121Y-133451443D01*
X196416500Y-133539894D01*
X196416500Y-134176105D01*
X196427121Y-134264556D01*
X196427122Y-134264560D01*
X196427123Y-134264564D01*
X196464167Y-134358500D01*
X196482640Y-134405344D01*
X196491917Y-134417577D01*
X196574078Y-134525922D01*
X196665106Y-134594951D01*
X196690075Y-134613886D01*
X196694658Y-134617361D01*
X196835436Y-134672877D01*
X196835442Y-134672877D01*
X196835443Y-134672878D01*
X196923895Y-134683500D01*
X196923898Y-134683500D01*
X197410105Y-134683500D01*
X197498556Y-134672878D01*
X197498556Y-134672877D01*
X197498564Y-134672877D01*
X197639342Y-134617361D01*
X197656364Y-134604452D01*
X197692642Y-134594951D01*
X197725014Y-134613886D01*
X197734516Y-134650165D01*
X197720620Y-134678143D01*
X196882654Y-135516109D01*
X196853849Y-135530111D01*
X196835440Y-135532321D01*
X196694655Y-135587840D01*
X196574078Y-135679278D01*
X196482640Y-135799855D01*
X196482639Y-135799858D01*
X196455746Y-135868055D01*
X196427123Y-135940637D01*
X196427121Y-135940643D01*
X196416500Y-136029094D01*
X196416500Y-136665305D01*
X196427121Y-136753756D01*
X196427122Y-136753760D01*
X196427123Y-136753764D01*
X196456684Y-136828724D01*
X196482640Y-136894544D01*
X196519692Y-136943404D01*
X196574078Y-137015122D01*
X196694658Y-137106561D01*
X196835436Y-137162077D01*
X196835442Y-137162077D01*
X196835443Y-137162078D01*
X196923895Y-137172700D01*
X196923898Y-137172700D01*
X197410105Y-137172700D01*
X197498556Y-137162078D01*
X197498556Y-137162077D01*
X197498564Y-137162077D01*
X197639342Y-137106561D01*
X197759922Y-137015122D01*
X197851361Y-136894542D01*
X197906877Y-136753764D01*
X197917500Y-136665302D01*
X197917500Y-136200030D01*
X197931851Y-136165383D01*
X199750159Y-134347074D01*
X199784806Y-134332723D01*
X199819454Y-134347075D01*
X199833806Y-134381723D01*
X199823909Y-134411252D01*
X199761943Y-134493309D01*
X199761940Y-134493313D01*
X199662773Y-134692466D01*
X199662770Y-134692473D01*
X199601885Y-134906461D01*
X199601884Y-134906467D01*
X199581357Y-135128000D01*
X199601884Y-135349532D01*
X199601885Y-135349538D01*
X199662770Y-135563526D01*
X199662773Y-135563533D01*
X199761940Y-135762686D01*
X199761943Y-135762690D01*
X199896016Y-135940233D01*
X199896019Y-135940236D01*
X200060433Y-136090120D01*
X200060434Y-136090121D01*
X200060438Y-136090124D01*
X200249599Y-136207247D01*
X200425763Y-136275493D01*
X200452887Y-136301392D01*
X200453753Y-136338885D01*
X200427854Y-136366009D01*
X200420744Y-136368514D01*
X200323516Y-136394566D01*
X200323511Y-136394567D01*
X200109423Y-136494398D01*
X200109411Y-136494405D01*
X199915927Y-136629885D01*
X199915920Y-136629891D01*
X199748891Y-136796920D01*
X199748885Y-136796927D01*
X199613405Y-136990411D01*
X199613398Y-136990423D01*
X199513567Y-137204511D01*
X199513566Y-137204516D01*
X199456363Y-137417999D01*
X199456364Y-137418000D01*
X200353988Y-137418000D01*
X200321075Y-137475007D01*
X200287000Y-137602174D01*
X200287000Y-137733826D01*
X200321075Y-137860993D01*
X200353988Y-137918000D01*
X199456363Y-137918000D01*
X199513566Y-138131483D01*
X199513568Y-138131488D01*
X199613398Y-138345577D01*
X199613405Y-138345589D01*
X199748885Y-138539072D01*
X199748891Y-138539079D01*
X199915920Y-138706108D01*
X199915927Y-138706114D01*
X200109410Y-138841594D01*
X200109422Y-138841601D01*
X200323511Y-138941431D01*
X200323516Y-138941433D01*
X200537000Y-138998634D01*
X200537000Y-138101012D01*
X200594007Y-138133925D01*
X200721174Y-138168000D01*
X200852826Y-138168000D01*
X200979993Y-138133925D01*
X201037000Y-138101012D01*
X201037000Y-138998634D01*
X201250483Y-138941433D01*
X201250488Y-138941431D01*
X201464577Y-138841601D01*
X201464589Y-138841594D01*
X201658072Y-138706114D01*
X201658079Y-138706108D01*
X201825108Y-138539079D01*
X201825114Y-138539072D01*
X201960594Y-138345589D01*
X201960601Y-138345577D01*
X202060431Y-138131488D01*
X202060433Y-138131483D01*
X202117636Y-137918000D01*
X201220012Y-137918000D01*
X201252925Y-137860993D01*
X201287000Y-137733826D01*
X201287000Y-137602174D01*
X201252925Y-137475007D01*
X201220012Y-137418000D01*
X202117636Y-137418000D01*
X202117636Y-137417999D01*
X202060433Y-137204516D01*
X202060432Y-137204511D01*
X201960601Y-136990423D01*
X201960594Y-136990411D01*
X201825114Y-136796927D01*
X201825108Y-136796920D01*
X201658079Y-136629891D01*
X201658072Y-136629885D01*
X201464589Y-136494405D01*
X201464577Y-136494398D01*
X201250488Y-136394568D01*
X201250483Y-136394566D01*
X201153255Y-136368514D01*
X201123502Y-136345684D01*
X201118607Y-136308502D01*
X201141437Y-136278749D01*
X201148226Y-136275497D01*
X201324401Y-136207247D01*
X201513562Y-136090124D01*
X201677981Y-135940236D01*
X201812058Y-135762689D01*
X201911229Y-135563528D01*
X201972115Y-135349536D01*
X201992643Y-135128000D01*
X201972115Y-134906464D01*
X201911229Y-134692472D01*
X201812058Y-134493311D01*
X201695924Y-134339524D01*
X201677983Y-134315766D01*
X201677980Y-134315763D01*
X201513566Y-134165879D01*
X201513563Y-134165877D01*
X201513562Y-134165876D01*
X201324401Y-134048753D01*
X201324398Y-134048752D01*
X201324397Y-134048751D01*
X201199727Y-134000454D01*
X201116940Y-133968382D01*
X200898243Y-133927500D01*
X200675757Y-133927500D01*
X200457060Y-133968382D01*
X200457055Y-133968384D01*
X200249602Y-134048751D01*
X200080587Y-134153400D01*
X200043573Y-134159437D01*
X200013131Y-134137534D01*
X200007094Y-134100520D01*
X200020142Y-134077093D01*
X200124520Y-133972716D01*
X200190751Y-133858000D01*
X200203577Y-133835785D01*
X200227202Y-133747617D01*
X200234690Y-133719673D01*
X200257520Y-133689920D01*
X200294702Y-133685025D01*
X200299714Y-133686661D01*
X200457060Y-133747618D01*
X200675757Y-133788500D01*
X200675759Y-133788500D01*
X200898241Y-133788500D01*
X200898243Y-133788500D01*
X201116940Y-133747618D01*
X201324401Y-133667247D01*
X201513562Y-133550124D01*
X201677981Y-133400236D01*
X201812058Y-133222689D01*
X201911229Y-133023528D01*
X201972115Y-132809536D01*
X201992643Y-132588000D01*
X201972115Y-132366464D01*
X201911229Y-132152472D01*
X201812058Y-131953311D01*
X201745019Y-131864537D01*
X201677983Y-131775766D01*
X201677980Y-131775763D01*
X201513566Y-131625879D01*
X201513563Y-131625877D01*
X201513562Y-131625876D01*
X201324401Y-131508753D01*
X201324398Y-131508752D01*
X201324397Y-131508751D01*
X201198434Y-131459953D01*
X201116940Y-131428382D01*
X200898243Y-131387500D01*
X200675757Y-131387500D01*
X200457060Y-131428382D01*
X200457055Y-131428384D01*
X200249602Y-131508751D01*
X200060433Y-131625879D01*
X199896019Y-131775763D01*
X199896016Y-131775766D01*
X199761943Y-131953309D01*
X199761940Y-131953313D01*
X199662773Y-132152466D01*
X199662769Y-132152476D01*
X199636220Y-132245786D01*
X199623739Y-132267024D01*
X199275286Y-132615478D01*
X199163482Y-132727281D01*
X199163477Y-132727287D01*
X199122943Y-132797498D01*
X199122942Y-132797499D01*
X199084423Y-132864212D01*
X199084422Y-132864216D01*
X199070830Y-132914942D01*
X199048000Y-132944694D01*
X199010817Y-132949589D01*
X198981065Y-132926759D01*
X198974500Y-132902259D01*
X198974500Y-131841030D01*
X198988851Y-131806383D01*
X199883327Y-130911906D01*
X199917974Y-130897555D01*
X199950985Y-130910344D01*
X200060433Y-131010120D01*
X200060434Y-131010121D01*
X200060438Y-131010124D01*
X200249599Y-131127247D01*
X200457060Y-131207618D01*
X200675757Y-131248500D01*
X200675759Y-131248500D01*
X200898241Y-131248500D01*
X200898243Y-131248500D01*
X201116940Y-131207618D01*
X201324401Y-131127247D01*
X201513562Y-131010124D01*
X201677981Y-130860236D01*
X201812058Y-130682689D01*
X201911229Y-130483528D01*
X201972115Y-130269536D01*
X201992643Y-130048000D01*
X201972115Y-129826464D01*
X201911229Y-129612472D01*
X201812058Y-129413311D01*
X201741382Y-129319720D01*
X201677983Y-129235766D01*
X201677980Y-129235763D01*
X201513566Y-129085879D01*
X201513563Y-129085877D01*
X201513562Y-129085876D01*
X201324401Y-128968753D01*
X201324398Y-128968752D01*
X201324397Y-128968751D01*
X201220670Y-128928567D01*
X201116940Y-128888382D01*
X200898243Y-128847500D01*
X200675757Y-128847500D01*
X200457060Y-128888382D01*
X200457054Y-128888384D01*
X200457051Y-128888385D01*
X200345207Y-128931713D01*
X200307714Y-128930847D01*
X200281816Y-128903722D01*
X200282682Y-128866229D01*
X200292856Y-128851377D01*
X200455273Y-128688960D01*
X200489920Y-128674609D01*
X200498914Y-128675442D01*
X200675757Y-128708500D01*
X200675759Y-128708500D01*
X200898241Y-128708500D01*
X200898243Y-128708500D01*
X201116940Y-128667618D01*
X201324401Y-128587247D01*
X201513562Y-128470124D01*
X201677981Y-128320236D01*
X201812058Y-128142689D01*
X201911229Y-127943528D01*
X201972115Y-127729536D01*
X201992643Y-127508000D01*
X201972115Y-127286464D01*
X201911229Y-127072472D01*
X201812058Y-126873311D01*
X201712960Y-126742084D01*
X201677983Y-126695766D01*
X201677980Y-126695763D01*
X201513566Y-126545879D01*
X201513563Y-126545877D01*
X201513562Y-126545876D01*
X201324401Y-126428753D01*
X201324398Y-126428752D01*
X201324397Y-126428751D01*
X201155197Y-126363203D01*
X201116940Y-126348382D01*
X200898243Y-126307500D01*
X200675757Y-126307500D01*
X200457060Y-126348382D01*
X200457055Y-126348384D01*
X200249602Y-126428751D01*
X200060433Y-126545879D01*
X199896019Y-126695763D01*
X199896016Y-126695766D01*
X199761943Y-126873309D01*
X199761940Y-126873313D01*
X199662773Y-127072466D01*
X199662770Y-127072473D01*
X199601885Y-127286461D01*
X199601884Y-127286467D01*
X199581357Y-127508000D01*
X199601885Y-127729536D01*
X199601886Y-127729538D01*
X199619332Y-127790856D01*
X199615009Y-127828109D01*
X199606850Y-127838913D01*
X199058043Y-128387720D01*
X199023395Y-128402072D01*
X198988747Y-128387720D01*
X198974395Y-128353072D01*
X198974501Y-128351457D01*
X198974501Y-128187946D01*
X198974500Y-128187928D01*
X198974500Y-127269030D01*
X198988851Y-127234383D01*
X199754681Y-126468552D01*
X199754686Y-126468549D01*
X199758714Y-126464520D01*
X199758716Y-126464520D01*
X199870520Y-126352716D01*
X199949156Y-126216514D01*
X199949160Y-126216516D01*
X199949164Y-126216498D01*
X199949577Y-126215785D01*
X199949578Y-126215777D01*
X199949580Y-126215776D01*
X199990500Y-126063060D01*
X199990501Y-126063060D01*
X199990501Y-125974792D01*
X200004853Y-125940144D01*
X200039501Y-125925792D01*
X200065293Y-125933130D01*
X200249599Y-126047247D01*
X200457060Y-126127618D01*
X200675757Y-126168500D01*
X200675759Y-126168500D01*
X200898241Y-126168500D01*
X200898243Y-126168500D01*
X201116940Y-126127618D01*
X201324401Y-126047247D01*
X201513562Y-125930124D01*
X201677981Y-125780236D01*
X201812058Y-125602689D01*
X201911229Y-125403528D01*
X201972115Y-125189536D01*
X201992643Y-124968000D01*
X201972115Y-124746464D01*
X201911229Y-124532472D01*
X201812058Y-124333311D01*
X201692198Y-124174590D01*
X201677983Y-124155766D01*
X201677980Y-124155763D01*
X201513566Y-124005879D01*
X201513563Y-124005877D01*
X201513562Y-124005876D01*
X201324401Y-123888753D01*
X201324398Y-123888752D01*
X201324397Y-123888751D01*
X201213999Y-123845983D01*
X201116940Y-123808382D01*
X200898243Y-123767500D01*
X200675757Y-123767500D01*
X200457060Y-123808382D01*
X200457055Y-123808384D01*
X200249602Y-123888751D01*
X200060433Y-124005879D01*
X199896019Y-124155763D01*
X199896016Y-124155766D01*
X199761943Y-124333309D01*
X199761942Y-124333310D01*
X199761942Y-124333311D01*
X199758441Y-124340341D01*
X199730152Y-124364959D01*
X199714579Y-124367500D01*
X199564939Y-124367500D01*
X199412216Y-124408422D01*
X199399468Y-124415782D01*
X199382052Y-124425838D01*
X199275290Y-124487475D01*
X199275281Y-124487482D01*
X199058148Y-124704616D01*
X199023500Y-124718968D01*
X198988852Y-124704616D01*
X198974500Y-124669968D01*
X198974500Y-123459031D01*
X198988852Y-123424383D01*
X199370384Y-123042852D01*
X199405032Y-123028500D01*
X199714579Y-123028500D01*
X199749227Y-123042852D01*
X199758439Y-123055655D01*
X199761942Y-123062689D01*
X199779788Y-123086321D01*
X199896016Y-123240233D01*
X199896019Y-123240236D01*
X200060433Y-123390120D01*
X200060434Y-123390121D01*
X200060438Y-123390124D01*
X200249599Y-123507247D01*
X200457060Y-123587618D01*
X200675757Y-123628500D01*
X200675759Y-123628500D01*
X200898241Y-123628500D01*
X200898243Y-123628500D01*
X201116940Y-123587618D01*
X201324401Y-123507247D01*
X201513562Y-123390124D01*
X201677981Y-123240236D01*
X201812058Y-123062689D01*
X201911229Y-122863528D01*
X201972115Y-122649536D01*
X201992643Y-122428000D01*
X201972115Y-122206464D01*
X201911229Y-121992472D01*
X201812058Y-121793311D01*
X201745019Y-121704537D01*
X201677983Y-121615766D01*
X201677980Y-121615763D01*
X201513566Y-121465879D01*
X201513563Y-121465877D01*
X201513562Y-121465876D01*
X201324401Y-121348753D01*
X201324398Y-121348752D01*
X201324397Y-121348751D01*
X201220670Y-121308567D01*
X201116940Y-121268382D01*
X200898243Y-121227500D01*
X200675757Y-121227500D01*
X200457060Y-121268382D01*
X200457055Y-121268384D01*
X200249602Y-121348751D01*
X200060433Y-121465879D01*
X199896019Y-121615763D01*
X199896016Y-121615766D01*
X199761943Y-121793309D01*
X199761942Y-121793310D01*
X199761942Y-121793311D01*
X199758441Y-121800341D01*
X199730152Y-121824959D01*
X199714579Y-121827500D01*
X199218071Y-121827500D01*
X199218055Y-121827499D01*
X199215058Y-121827499D01*
X199056943Y-121827499D01*
X199056941Y-121827499D01*
X198904215Y-121868423D01*
X198904213Y-121868423D01*
X198767290Y-121947475D01*
X198767281Y-121947482D01*
X197893482Y-122821281D01*
X197893475Y-122821290D01*
X197863980Y-122872379D01*
X197858936Y-122881116D01*
X197829184Y-122903948D01*
X197792002Y-122899054D01*
X197769170Y-122869302D01*
X197767500Y-122856618D01*
X197767500Y-121872031D01*
X197781852Y-121837383D01*
X199116383Y-120502852D01*
X199151031Y-120488500D01*
X199714579Y-120488500D01*
X199749227Y-120502852D01*
X199758439Y-120515655D01*
X199761942Y-120522689D01*
X199761943Y-120522690D01*
X199896016Y-120700233D01*
X199896019Y-120700236D01*
X200060433Y-120850120D01*
X200060434Y-120850121D01*
X200060438Y-120850124D01*
X200249599Y-120967247D01*
X200457060Y-121047618D01*
X200675757Y-121088500D01*
X200675759Y-121088500D01*
X200898241Y-121088500D01*
X200898243Y-121088500D01*
X201116940Y-121047618D01*
X201324401Y-120967247D01*
X201513562Y-120850124D01*
X201677981Y-120700236D01*
X201812058Y-120522689D01*
X201911229Y-120323528D01*
X201972115Y-120109536D01*
X201992643Y-119888000D01*
X201972115Y-119666464D01*
X201911229Y-119452472D01*
X201812058Y-119253311D01*
X201745019Y-119164537D01*
X201677983Y-119075766D01*
X201677980Y-119075763D01*
X201513566Y-118925879D01*
X201513563Y-118925877D01*
X201513562Y-118925876D01*
X201324401Y-118808753D01*
X201324398Y-118808752D01*
X201324397Y-118808751D01*
X201220670Y-118768567D01*
X201116940Y-118728382D01*
X200898243Y-118687500D01*
X200675757Y-118687500D01*
X200457060Y-118728382D01*
X200457055Y-118728384D01*
X200249602Y-118808751D01*
X200060433Y-118925879D01*
X199896019Y-119075763D01*
X199896016Y-119075766D01*
X199761943Y-119253309D01*
X199761942Y-119253310D01*
X199761942Y-119253311D01*
X199758441Y-119260341D01*
X199730152Y-119284959D01*
X199714579Y-119287500D01*
X198830795Y-119287500D01*
X198796147Y-119273148D01*
X198781795Y-119238500D01*
X198796146Y-119203853D01*
X199485648Y-118514352D01*
X199520296Y-118500000D01*
X200428237Y-118500000D01*
X200445936Y-118503308D01*
G37*
%TD.AperFunction*%
%TD*%
M02*
